<svg id="Layer_1" data-name="Layer 1" xmlns="http://www.w3.org/2000/svg" viewBox="0 0 1500 1500"><defs><style>.cls-1{fill:#92b4ff;}.cls-2{fill:#003fcc;}.cls-3{fill:#f4b5a6;}.cls-4{fill:#8c670c;}</style></defs><title>Kid Talk</title><ellipse class="cls-1" cx="750" cy="749.6" rx="688.75" ry="694.52"/><path class="cls-2" d="M276.73,1222.44S468.41,1418.6,750,1418.6s446.76-171.1,446.76-171.1S1149.53,1058.68,889,1073.71,401.36,989,276.73,1222.44Z"/><path d="M260.11,1239.06c84.67,86.16,203.53,148.43,318.92,179.83,184.07,50.1,386.56,16.47,546.7-86.49,29-18.66,65.75-40.61,87.59-68.21,18.34-23.18-9.61-64.17-22.61-84-32.71-49.91-80.5-86.35-136-107.75-91.06-35.12-189.59-18.12-284.63-21.84-99-3.88-200.27-18.52-298.75-.89-96.16,17.22-168.49,76.09-214.91,160.88-14.54,26.55,26,50.3,40.59,23.73,38.5-70.32,94.49-119.46,173.78-136.7,76.28-16.59,157-8,234.13-3.38,44.1,2.61,88.23,4.9,132.42,4.61,46.15-.31,92.18-5.44,138.12,1.4,60.92,9.07,118.55,35.59,159,82.84,18.44,21.52,33.46,46.68,39.6,70.68l6-22.87c-71.27,73.34-176.08,121.13-273.62,145.28-180.16,44.63-365.1,5.15-518.89-95.88-33.25-21.83-66.3-46-94.28-74.47C272.12,1184.2,238.88,1217.45,260.11,1239.06Z"/><path class="cls-3" d="M573.19,951.49l-1,99.25c-.07,7.06,0,14.51,3.78,20.62,2.84,4.56,7.49,7.86,12.08,11,48.53,32.7,105.48,56.38,165.29,59.94S875.82,1127.51,917,1087c6.87-6.76,13.25-14.31,16.19-23.2,2.41-7.29,2.37-15,2.32-22.68q-.26-36.15-.52-72.3"/><path d="M549.68,951.49c-.32,33-1.47,66.21-1,99.25.49,31.86,17.14,46,42.82,61.71,48.88,29.89,104.39,50,161.83,53.31,53,3.11,110.16-9.7,154-40.59,21.37-15.06,43.75-34.07,49.86-60.67,3.07-13.38,1.74-27.87,1.65-41.45l-.39-54.23c-.22-30.24-47.23-30.31-47,0,.18,25.83,2,52.26.51,78-1.2,20.32-21.61,34-37.75,43.9-36,22.16-78.94,30.41-120.85,28-45-2.6-88.73-18.51-127.6-40.68-8-4.57-19.34-9.44-25.82-16-7.11-7.25-4.15-18.8-4.05-29l.79-81.53c.3-30.26-46.71-30.29-47,0Z"/><path class="cls-3" d="M586.51,951.3C419,825.29,392.29,568,538.26,414.49c68.38-71.9,167.69-111.3,265.16-105.2,90.22,5.65,179.87,52.12,228.24,130.87,31.76,51.7,44.43,113.54,49.58,174.52,6.16,72.92,1.88,148.82-28.38,215C993.75,959,839.51,1025.25,703.09,1000,661.47,992.25,620.67,977,586.51,951.3Z"/><path d="M598.37,931C400.44,778.51,432.08,441.13,674.76,352c126-46.24,282.33-7.51,346.5,117.59,34.35,67,41.69,149.6,38.35,223.75-3.19,70.58-23.69,140.47-72.58,193-97,104.27-271.47,128.79-388.66,44.59-24.61-17.68-48.1,23.08-23.73,40.59,119.87,86.13,294,70.77,407.93-17.82C1116.12,850,1131.79,655.65,1084.89,503,1037.33,348.27,881,264.36,724.24,290.38,578.32,314.59,459.62,430,428.68,574c-32.09,149.43,25.27,304.61,146,397.59C598.59,990.05,622,949.23,598.37,931Z"/><path d="M716.5,626.35C717.75,523.74,613,522.3,611.78,625.06S715.24,729.12,716.5,626.35Z"/><path d="M966.75,626.35C968,523.74,863.29,522.3,862,625.06S965.49,729.12,966.75,626.35Z"/><path d="M677.38,830.36c31.91,22.84,71.41,35.34,110.73,34.08,41.47-1.32,79.13-16.91,111.62-42.15,10-7.8,8.18-25.06,0-33.25-9.91-9.9-23.19-7.81-33.25,0-49.53,38.49-115.36,36.52-165.37.73-10.33-7.39-26.17-1.81-32.16,8.43C662,810,667,823,677.38,830.36Z"/><path class="cls-4" d="M1028.1,751.67c8.4-14.74,20.37-29.28,37.62-33.28,19.67-4.57,40,6.46,50.29,23.1,43.3,70.13-32.82,156.92-81.1,201-33.53,30.62-75.86,61.85-119,76.14-23,7.64-46,10.75-69.07,18.45-26.33,8.8-55.08,11.17-82.67,9.48-33.77-2.07-72.39-7.11-105.1-16.43-62.93-17.92-144.59-51.87-178.61-110.4-21.25-36.57-66.39-82.87-63.24-131.77,4.41-68.43,83.83-82.22,126.27-26.2,24.92,32.9,31.53,80.8,64.24,106,3.21,2.47,6.43,5,9.65,7.29,23.44,16.69,47.67,32.58,73.74,44.9,46.91,22.16,99.22,30,148.49,10.82,43.16-16.77,86.78-34,121.7-65.38C993.06,836.87,1007,788.74,1028.1,751.67Z"/><path class="cls-4" d="M534.65,838.46c38.13-11,70.43-36.51,104.28-56.24C657.36,771.49,677.61,757,699.31,755c20.61-2,39.58,2.17,58.3,10.39,17.58,7.72,34.28,9.48,53,5,22.67-5.44,42.87-17.77,66.66-18.5,50.68-1.56,92.06,33.11,126,66.61,14.37,14.18,36.55-8,22.16-22.16-34-33.49-73.08-65.52-121.51-73.68a135,135,0,0,0-68.41,6.09c-11,3.88-21.86,8.7-33.27,11.42-14.84,3.53-25.9-.82-39.34-6.67-39.46-17.18-79.74-11.2-116.48,8.52-39.39,21.14-76.89,53.81-120.18,66.28-19.35,5.58-11.12,35.83,8.33,30.23Z"/></svg>