<svg id="Layer_1" data-name="Layer 1" xmlns="http://www.w3.org/2000/svg" viewBox="0 0 1500 1500"><defs><style>.cls-1{fill:#92b4ff;}.cls-2{fill:#003fcc;}.cls-3{fill:#f2d3a5;}.cls-4{fill:#3b2314;}</style></defs><title>Kid Talk</title><ellipse class="cls-1" cx="750" cy="749.6" rx="695.02" ry="700.84"/><path class="cls-2" d="M272.43,1226.74S465.85,1424.68,750,1424.68,1200.83,1252,1200.83,1252s-47.66-190.54-310.57-175.37S398.19,991.22,272.43,1226.74Z"/><path d="M255.66,1243.51c85.43,87,205.38,149.78,321.82,181.47,185.74,50.55,390.07,16.62,551.67-87.27,29.3-18.84,66.35-41,88.38-68.84,18.51-23.39-9.69-64.76-22.82-84.78-33-50.37-81.23-87.14-137.21-108.73-91.89-35.44-191.31-18.29-287.21-22-99.94-3.92-202.1-18.69-301.47-.9-97,17.38-170,76.78-216.87,162.34-14.67,26.8,26.28,50.76,41,24,38.85-71,95.35-120.55,175.37-138,77-16.73,158.43-8,236.25-3.41,44.5,2.64,89,5,133.62,4.65,46.57-.31,93-5.49,139.38,1.42,61.48,9.15,119.63,35.91,160.47,83.59,18.6,21.71,33.76,47.11,40,71.32l6.1-23.07c-71.92,74-177.68,122.22-276.11,146.6-181.8,45-368.42,5.19-523.61-96.75-33.54-22-66.9-46.41-95.13-75.15C267.77,1188.15,234.23,1221.7,255.66,1243.51Z"/><path class="cls-3" d="M571.58,953.32l-1,100.16c-.06,7.13,0,14.64,3.82,20.81,2.87,4.6,7.56,7.93,12.19,11,49,33,106.44,56.89,166.79,60.49S877,1131,918.49,1090.07c6.93-6.82,13.37-14.44,16.33-23.41,2.44-7.36,2.4-15.19,2.35-22.89q-.27-36.48-.52-73"/><path d="M547.86,953.32c-.33,33.35-1.49,66.82-1,100.16.49,32.15,17.29,46.43,43.21,62.28,49.32,30.15,105.34,50.39,163.3,53.78,53.53,3.14,111.16-9.78,155.38-41,21.56-15.2,44.15-34.39,50.32-61.22,3.1-13.5,1.75-28.13,1.66-41.84l-.39-54.72c-.22-30.51-47.66-30.58-47.44,0,.18,26.07,2.06,52.74.52,78.75-1.22,20.5-21.81,34.28-38.1,44.3-36.36,22.37-79.66,30.69-122,28.25-45.37-2.63-89.53-18.68-128.76-41.06-8.08-4.61-19.52-9.52-26.06-16.19-7.17-7.31-4.18-19-4.08-29.26l.8-82.28c.29-30.53-47.14-30.56-47.44,0Z"/><path class="cls-3" d="M585,953.13C416,826,389,566.34,536.34,411.45c69-72.56,169.21-112.32,267.57-106.17,91,5.7,181.51,52.6,230.32,132.06,32,52.18,44.83,114.58,50,176.11,6.21,73.58,1.88,150.18-28.65,217C996,960.93,840.33,1027.76,702.66,1002.24,660.67,994.46,619.49,979.07,585,953.13Z"/><path d="M597,932.65c-199.73-153.88-167.8-494.33,77.09-584.24,127.09-46.65,284.89-7.58,349.65,118.66,34.66,67.57,42.07,151,38.69,225.79-3.21,71.22-23.9,141.74-73.24,194.8-97.86,105.22-273.94,130-392.19,45-24.83-17.84-48.54,23.29-23.94,41,121,86.91,296.62,71.41,411.64-18,134.76-104.73,150.57-300.83,103.25-454.84C1039.94,344.62,882.22,259.94,724,286.2,576.76,310.63,457,427,425.76,572.4c-32.38,150.79,25.49,307.38,147.29,401.21C597.22,992.23,620.86,951,597,932.65Z"/><path d="M716.19,625.23c1.27-103.54-104.4-105-105.67-1.3S714.92,728.94,716.19,625.23Z"/><path d="M968.72,625.23c1.27-103.54-104.4-105-105.67-1.3S967.45,728.94,968.72,625.23Z"/><path d="M655.44,830.45c82.4,47,188.14,45.63,268.9-4.44,25.9-16.06,2.1-57.12-23.94-41-66.56,41.27-152.88,43.35-221,4.44-26.56-15.16-50.49,25.81-23.95,41Z"/><path class="cls-4" d="M545.08,536.1c-35.4,53.88-65.72,112-101.84,165-49.62-86.69-63.33-224.39-22.76-315.94a474.11,474.11,0,0,1,54.81-93.42c8.93-11.83,70.81-64.48,70.48-74.09a159.06,159.06,0,0,0,13.66,59.09l186-160.64,12,96.66a577.23,577.23,0,0,0,103.72-82.5A193.8,193.8,0,0,1,888,220.62a109.67,109.67,0,0,0,44.45-37.5c27.9,27.3,50.89,59.15,73.73,90.82,29.55,41,94.4,105.88,95.65,157a578.44,578.44,0,0,1-33.27,207.67c-5.36-57.6-15-126.94-49-175.17-23.75-33.7-72.4-104.39-118.56-105-12.36-.16-22.1,10-30.17,19.36-22.7,26.35-39.65,64.62-76.85,43.94-22.83-12.7-34.59-43.48-63.71-45.27-42-2.58-103.59,51.64-128.06,82.19C582.4,483.4,562.79,509.15,545.08,536.1Z"/><path d="M524.6,524.13c-35.2,54.22-65.75,111.3-101.85,165h41c-46.13-83.41-59.94-197.6-24.54-287.41,15.91-40.37,39.34-81.29,70.82-111.38,18.12-17.32,52.94-40.36,58.64-66.37l-46.59-6.31c1.55,23,5.78,44,14.51,65.4,6.9,16.93,25.14,23,39.64,10.46l186-160.63-40.49-16.78,12,96.66c2.06,16.63,18.92,31.12,35.69,20.48A650.9,650.9,0,0,0,877.84,147l-37.25-4.8c13.83,24.64,21.78,50.2,23.7,78.43,1.25,18.4,19.06,28.92,35.69,20.48,21.88-11.11,38.42-26.45,53-46l-37.26,4.8c30.18,30.43,53.87,65.37,80,99.14,21.1,27.34,44.48,53.09,62.7,82.55,21.3,34.43,21.35,65,18.45,105-3.61,49.89-14.78,98.54-31.08,145.75l46.59,6.3c-8-83-25.54-153.82-76.68-220.79-36.44-47.72-105.41-120.59-161.55-56.78-9.83,11.17-19.75,32.89-33,39.61-17.5,8.87-31.11-14.51-42.41-25-25.58-23.63-55.14-27.81-87.27-15.35C617.58,389,566.79,461,524.6,524.13c-17,25.46,24.07,49.23,41,23.94,35.5-53.14,81.22-122.52,145.27-144.56C743,392.45,755.06,425.61,779,440.3c23,14.11,48.75,14.42,70.45-2.08,16.93-12.87,36.13-56.52,57.85-55.07,27.79,1.86,57,45,72,64.82,43.72,57.82,58.63,119.28,65.5,190.65,2.55,26.4,37.55,32.5,46.6,6.31a620.24,620.24,0,0,0,32.77-158.36c2.94-41.13,2.8-77.93-16.77-114.91-17.81-33.64-43.6-62.61-67.23-92.18-30.36-38-56.57-78.43-91-113.13-11.72-11.82-28.34-7.2-37.25,4.8-9.65,13-21.71,21.76-35.94,29l35.69,20.48c-2.49-36.68-12.16-70.28-30.18-102.37-7.54-13.44-26.54-15.36-37.25-4.8a593,593,0,0,1-98.92,78.79l35.69,20.48-12-96.66c-2.55-20.57-24-31.06-40.49-16.77l-186,160.64L582.3,270.4c-7-17.29-11.56-34.12-12.81-52.79-1.71-25.25-40.55-33.91-46.6-6.3.77-3.51-5.77,5.92-8.1,8.36-6.42,6.76-13.19,13.2-19.93,19.64-11.57,11.06-24.18,21.57-34.71,33.66-33.71,38.65-61,90.79-74.67,140.17C358.42,510.76,373.93,624.73,422.75,713c9.09,16.43,31.39,14.23,41,0,36.09-53.66,66.64-110.74,101.84-165C582.24,522.39,541.18,498.59,524.6,524.13Z"/></svg>