<svg id="Layer_1" data-name="Layer 1" xmlns="http://www.w3.org/2000/svg" viewBox="0 0 1500 1500"><defs><style>.cls-1{fill:#92b4ff;}.cls-2{fill:#003fcc;}.cls-3{fill:#d88d3d;}.cls-4{fill:#3b2314;}</style></defs><title>Kid Talk</title><ellipse class="cls-1" cx="750" cy="749.6" rx="694" ry="699.81"/><path class="cls-2" d="M273.13,1226S466.26,1423.7,750,1423.7s450.17-172.41,450.17-172.41-47.6-190.26-310.11-175.11S398.71,990.86,273.13,1226Z"/><path d="M256.38,1242.79c85.31,86.82,205.08,149.56,321.35,181.2,185.47,50.48,389.5,16.59,550.86-87.15,29.26-18.8,66.25-40.92,88.26-68.73,18.48-23.36-9.68-64.66-22.79-84.66-33-50.29-81.11-87-137-108.57-91.76-35.38-191-18.26-286.79-22-99.8-3.91-201.8-18.66-301-.89-96.9,17.35-169.78,76.66-216.55,162.1-14.65,26.76,26.24,50.69,40.9,23.91,38.79-70.86,95.21-120.37,175.11-137.74,76.85-16.71,158.2-8,235.91-3.41,44.43,2.64,88.9,4.94,133.42,4.65,46.5-.31,92.89-5.49,139.18,1.41,61.38,9.14,119.45,35.86,160.23,83.47,18.58,21.68,33.71,47,39.9,71.22l6.09-23c-71.82,73.9-177.42,122-275.71,146.4-181.53,45-367.88,5.18-522.84-96.61-33.5-22-66.8-46.35-95-75C268.47,1187.51,235,1221,256.38,1242.79Z"/><path class="cls-3" d="M571.84,953l-1,100c-.07,7.11,0,14.62,3.8,20.77,2.87,4.6,7.55,7.92,12.18,11,48.9,32.94,106.28,56.8,166.54,60.4s123.39-14.86,164.85-55.68c6.93-6.81,13.35-14.42,16.31-23.38,2.43-7.34,2.4-15.16,2.34-22.85q-.25-36.42-.52-72.85"/><path d="M548.16,953c-.33,33.3-1.49,66.72-1,100,.5,32.1,17.27,46.35,43.16,62.18,49.24,30.11,105.18,50.32,163,53.71,53.45,3.13,111-9.77,155.16-40.9,21.53-15.18,44.08-34.33,50.24-61.13,3.1-13.48,1.76-28.09,1.66-41.77l-.39-54.64c-.22-30.47-47.59-30.54-47.37,0,.18,26,2.06,52.66.52,78.63-1.22,20.48-21.78,34.23-38,44.24-36.31,22.33-79.54,30.64-121.78,28.2-45.3-2.62-89.4-18.65-128.57-41-8.06-4.6-19.49-9.51-26-16.17-7.15-7.3-4.17-18.94-4.07-29.22l.79-82.16c.3-30.48-47.07-30.51-47.36,0Z"/><path class="cls-3" d="M585.26,952.83c-168.75-127-195.7-386.22-48.61-540.89,68.9-72.45,169-112.15,267.18-106,90.9,5.69,181.24,52.52,230,131.87,32,52.1,44.77,114.41,50,175.85,6.2,73.47,1.88,150-28.61,216.67-59.55,130.3-215,197-352.43,171.55C660.8,994.1,619.68,978.73,585.26,952.83Z"/><path d="M597.22,932.38c-199.45-153.65-167.56-493.6,77-583.38,126.91-46.59,284.48-7.57,349.14,118.48,34.61,67.48,42,150.75,38.63,225.46-3.2,71.12-23.86,141.54-73.13,194.52-97.71,105.06-273.54,129.76-391.61,44.92-24.8-17.81-48.48,23.26-23.91,40.91,120.78,86.78,296.19,71.3,411-18,134.56-104.58,150.35-300.39,103.09-454.17C1039.52,345.21,882,260.66,724,286.88c-147,24.4-266.63,140.63-297.8,285.78C393.9,723.23,451.69,879.59,573.31,973.29,597.44,991.88,621.05,950.75,597.22,932.38Z"/><path d="M716.24,625.41C717.51,522,612,520.57,610.73,624.12,609.46,727.5,715,729,716.24,625.41Z"/><path d="M968.4,625.41c1.27-103.39-104.25-104.84-105.51-1.29C861.62,727.5,967.13,729,968.4,625.41Z"/><path d="M655.58,830.33c82.28,47,187.87,45.56,268.51-4.44,25.85-16,2.1-57-23.91-40.9-66.46,41.21-152.65,43.28-220.69,4.43-26.52-15.13-50.41,25.78-23.91,40.91Z"/><path d="M610.28,359.16C539.87,461.48,476.17,549.91,429.67,667.39c-1.36,3.45-3.06,7.24-6.49,8.64-5.28,2.14-10.67-2.64-14.1-7.18-89.9-119.17,5.17-317.29,147.24-337.5"/><path d="M589.83,347.2C554.43,398.62,518.42,449.71,486,503.09c-16.28,26.82-31.62,54.21-45.57,82.32q-10.11,20.39-19.23,41.24-4.95,11.34-9.66,22.79c-.88,2.14-2.91,5.31-3.11,7.63-.74,8.9,21.69,5,18.63-3.54-3.44-9.6-12.12-18.61-16.37-28.23a156.56,156.56,0,0,1-9.1-28.37c-4.41-19.36-4.95-39.66-2.71-59.37,4.59-40.4,21.79-80.16,46.79-112.12,29.28-37.45,69.68-63.95,117-71.25,12.73-2,19.53-17.8,16.54-29.14-3.57-13.53-16.56-18.48-29.14-16.54C447.11,324.4,369,421.64,353.63,521.23c-7.82,50.65-.85,103.66,26.78,147.63,7.56,12,16.3,25.32,30.63,29.67,16.9,5.14,31.7-4.09,39.08-19.18,16-32.78,28.86-66.78,46.21-99.05,39.31-73.12,87.41-140.93,134.41-209.19,17.33-25.17-23.71-48.88-40.91-23.91Z"/><path class="cls-4" d="M864,380.66c22.23-10.82,46.45-18.23,70-14.76s46.14,19.56,53.92,44.62c12.72,41-28,91.25-65.6,80.9,34.43,21.15,78.42,5.81,114.79-14.37,20.71-11.5,41.3-24.92,56.26-44.87s23.39-47.71,16.53-71.78c-6.81-23.87-26.55-39.23-45.71-51.7-108.66-70.72-238-102.22-365.65-89-34.62,3.58-69.91,10.67-100.69,30-27.83,17.5-51.5,45.88-60.43,80.1s-1,74,23,95.46c90.89-50.94,196.76-64.59,292.78-37.74"/><path d="M875.93,401.11c27.13-12.39,71.09-23,87.14,11.57,9.51,20.49-7.5,60.82-34.49,55.9-24.76-4.51-43.63,30-18.25,43.29,65.85,34.5,160-9.29,201.6-65.34,21-28.33,30.92-66.19,18-100.08-12.78-33.61-45.49-53.87-75-71.3-73-43.08-154.64-69.65-238.8-78.81-77.22-8.4-175.19-8.18-240.49,40-63.06,46.55-93,144.52-32,205.64,7.6,7.62,19.44,8.75,28.7,3.71,84.58-46.05,181.08-60.15,274.53-35.37,29.49,7.83,42.08-37.85,12.59-45.67-105.75-28.05-215.35-11.95-311,40.13l28.7,3.71c-25.27-25.33-24-65-7.94-95,18.28-34.15,51.89-53.74,88.46-63.08,71.68-18.32,153.3-12.14,224.48,5.19a538,538,0,0,1,105.22,37.18c29.72,14.23,68.74,31.11,90.19,57.11,53.92,65.35-89.48,149.3-143.31,121.1L916,514.26c58.14,10.59,110-49.26,95.58-106.38-19-75.32-102.32-73.81-159.55-47.67-27.69,12.65-3.64,53.49,23.91,40.9Z"/></svg>