<svg id="Layer_1" data-name="Layer 1" xmlns="http://www.w3.org/2000/svg" viewBox="0 0 1500 1500"><defs><style>.cls-1{fill:#92b4ff;}.cls-2{fill:#003fcc;}.cls-3{fill:#99501f;}</style></defs><title>Kid Talk</title><ellipse class="cls-1" cx="750" cy="749.6" rx="689.23" ry="695"/><path class="cls-2" d="M276.41,1222.76s191.8,196.3,473.59,196.3,447.07-171.22,447.07-171.22-47.26-188.95-308-173.9S401.12,989.21,276.41,1222.76Z"/><path d="M259.77,1239.39c84.73,86.23,203.68,148.54,319.15,180,184.19,50.13,386.82,16.48,547.07-86.54,29-18.68,65.8-40.65,87.65-68.26,18.35-23.2-9.62-64.22-22.63-84.08-32.73-50-80.56-86.41-136.07-107.82-91.13-35.15-189.72-18.14-284.82-21.86-99.11-3.88-200.41-18.54-299-.89-96.23,17.23-168.61,76.14-215.06,161-14.55,26.57,26.06,50.34,40.62,23.74,38.52-70.37,94.56-119.54,173.9-136.79,76.33-16.6,157.11-8,234.29-3.39,44.13,2.62,88.29,4.91,132.51,4.62,46.18-.31,92.24-5.45,138.22,1.4,61,9.08,118.63,35.61,159.13,82.9,18.45,21.53,33.48,46.71,39.62,70.73l6-22.89c-71.32,73.39-176.2,121.21-273.81,145.39-180.29,44.65-365.35,5.14-519.25-95.95-33.27-21.85-66.34-46-94.34-74.52C271.79,1184.5,238.53,1217.77,259.77,1239.39Z"/><path class="cls-3" d="M573.06,951.63l-1,99.32c-.07,7.07,0,14.52,3.78,20.63,2.84,4.57,7.5,7.87,12.09,11,48.57,32.72,105.55,56.42,165.4,60s122.54-14.75,163.72-55.28c6.87-6.77,13.25-14.33,16.19-23.22,2.42-7.3,2.38-15.07,2.33-22.7q-.25-36.16-.52-72.35"/><path d="M549.54,951.63c-.32,33.07-1.47,66.26-1,99.32.49,31.88,17.15,46,42.86,61.76,48.9,29.9,104.45,50,161.93,53.34,53.08,3.1,110.23-9.71,154.09-40.62,21.38-15.07,43.78-34.1,49.89-60.71,3.08-13.39,1.75-27.89,1.65-41.48L958.61,969c-.21-30.26-47.26-30.33-47,0,.18,25.85,2,52.29.51,78.09-1.2,20.33-21.62,34-37.77,43.93-36.06,22.18-79,30.44-120.94,28-45-2.6-88.79-18.52-127.68-40.71-8-4.57-19.36-9.44-25.85-16.06-7.1-7.25-4.15-18.81-4.05-29l.8-81.59c.29-30.28-46.75-30.31-47.05,0Z"/><path class="cls-3" d="M586.39,951.44C418.8,825.35,392,567.86,538.12,414.26,606.54,342.31,705.92,302.88,803.46,309c90.28,5.65,180,52.15,228.4,131,31.78,51.75,44.46,113.62,49.61,174.65,6.17,73,1.87,148.92-28.41,215.17-59.14,129.41-213.49,195.68-350,170.38C661.41,992.42,620.58,977.16,586.39,951.44Z"/><path d="M598.27,931.13c-198.08-152.6-166.41-490.22,76.44-579.37,126-46.27,282.52-7.52,346.74,117.66,34.38,67,41.71,149.71,38.37,223.91-3.19,70.63-23.7,140.57-72.63,193.18-97,104.34-271.66,128.87-388.92,44.62-24.63-17.7-48.14,23.09-23.75,40.62,120,86.18,294.15,70.81,408.22-17.84,133.63-103.85,149.31-298.32,102.38-451C1037.53,348,881.12,264,724.22,290.06c-146,24.23-264.8,139.67-295.76,283.82C396.35,723.41,453.74,878.7,574.52,971.75,598.49,990.21,621.94,949.36,598.27,931.13Z"/><path d="M716.48,626.26c1.25-102.67-103.54-104.11-104.79-1.28C610.43,727.65,715.22,729.11,716.48,626.26Z"/><path d="M966.9,626.26c1.26-102.67-103.53-104.11-104.79-1.28C860.85,727.65,965.64,729.11,966.9,626.26Z"/><path d="M656.23,829.77c81.71,46.65,186.57,45.26,266.66-4.4,25.68-15.92,2.08-56.64-23.74-40.62-66,40.92-151.61,43-219.18,4.4-26.33-15-50.06,25.6-23.74,40.62Z"/><path d="M452.41,526.19a731.5,731.5,0,0,1,18.89-243,2842.83,2842.83,0,0,1,466.22-13.54c35.4,1.88,71,4.47,105.27,13.67,7.64,2.06,15.59,4.69,20.84,10.61,5.68,6.4,7.11,15.42,8.26,23.9q14,103.29,18,207.6c-29.1-31.91-54.46-67.27-85.67-97.12S934.35,373.81,891.32,370s-90.09,18-105.91,58.15c-25.74-43.3-88.53-51.28-134.62-31S571.5,458.41,540.13,497.82l-72.75,91.41a126.65,126.65,0,0,1-9.06-67.94"/><path d="M475.94,526.19a740.38,740.38,0,0,1,18-236.74L471.3,306.72a2883.93,2883.93,0,0,1,392.25-16.51c31.75.86,63.55,2,95.23,4.22,25.72,1.8,81.18-.05,90.08,28,9.5,30,8.3,67.79,11,99,3,34.61,5.1,69.29,6.54,104l40.15-16.63C1055,451.3,1009.64,382,933.32,355.34c-62-21.68-139.45-2.36-168.22,61h40.62c-37.56-56.64-112.52-65.56-171.05-37.38-35.95,17.31-64.82,46.23-90.19,76.42-32.18,38.27-62.6,78.12-93.73,117.24L490.06,583a126.91,126.91,0,0,1-8.22-61.69c3.12-30.08-43.95-29.87-47,0a156.88,156.88,0,0,0,9.9,74.19c5.6,14.53,27.14,25.67,39.31,10.38,42.22-53.05,81.84-113.42,132.91-158.5,38.26-33.79,112.73-60.76,148.18-7.3,8.82,13.3,32.8,17.21,40.62,0,26.25-57.8,95.43-54.31,142.66-25.72,51.32,31.07,85.58,83.85,124.92,127.72,13.47,15,41,3.33,40.15-16.63-1.6-38.57-4-77.1-7.57-115.55-3.23-35-4.45-72.63-12.7-106.85-14.58-60.47-113.62-54.74-161.35-57.19A2872.75,2872.75,0,0,0,471.3,259.67c-10.17,1.12-20.07,6.5-22.68,17.27a781.93,781.93,0,0,0-19.73,249.25c2.48,30,49.55,30.23,47.05,0Z"/></svg>