<svg id="Layer_1" data-name="Layer 1" xmlns="http://www.w3.org/2000/svg" viewBox="0 0 1500 1500"><defs><style>.cls-1{fill:#92b4ff;}.cls-2{fill:#003fcc;}.cls-3{fill:#f4b5a6;}.cls-4{fill:#8c670c;}</style></defs><title>Kid Talk</title><ellipse class="cls-1" cx="750" cy="749.6" rx="689.73" ry="695.5"/><path class="cls-2" d="M276.06,1223.1S468,1419.55,750,1419.55s447.39-171.35,447.39-171.35-47.29-189.09-308.19-174S400.87,989.38,276.06,1223.1Z"/><path d="M259.42,1239.75c84.79,86.29,203.82,148.64,319.37,180.09,184.33,50.16,387.11,16.49,547.47-86.61,29.08-18.69,65.85-40.68,87.71-68.31,18.37-23.22-9.62-64.27-22.64-84.14-32.75-50-80.61-86.47-136.17-107.9-91.19-35.17-189.86-18.15-285-21.88-99.18-3.88-200.55-18.54-299.17-.88-96.3,17.24-168.73,76.19-215.22,161.1-14.56,26.59,26.08,50.38,40.65,23.76,38.55-70.42,94.63-119.63,174-136.89,76.38-16.61,157.22-8,234.46-3.39,44.15,2.62,88.35,4.92,132.6,4.62,46.22-.31,92.31-5.45,138.32,1.4,61,9.09,118.71,35.64,159.25,83,18.46,21.55,33.5,46.75,39.65,70.78l6-22.9c-71.37,73.44-176.33,121.3-274,145.49-180.42,44.69-365.61,5.15-519.63-96-33.29-21.86-66.38-46.06-94.4-74.57C271.44,1184.81,238.16,1218.11,259.42,1239.75Z"/><path class="cls-3" d="M572.94,951.77l-1,99.4c-.07,7.07,0,14.53,3.78,20.65,2.85,4.56,7.51,7.87,12.1,11,48.6,32.74,105.63,56.46,165.52,60s122.63-14.76,163.84-55.33c6.88-6.77,13.26-14.33,16.21-23.24,2.41-7.3,2.38-15.07,2.32-22.71l-.51-72.4"/><path d="M549.4,951.77c-.32,33.1-1.48,66.31-1,99.4.49,31.91,17.17,46.07,42.89,61.8,48.94,29.92,104.53,50,162,53.38,53.12,3.11,110.32-9.71,154.2-40.65,21.4-15.08,43.81-34.12,49.93-60.75,3.08-13.4,1.75-27.92,1.65-41.52l-.39-54.3c-.21-30.28-47.29-30.35-47.07,0,.18,25.87,2,52.33.51,78.15-1.21,20.34-21.64,34-37.8,44-36.08,22.2-79,30.46-121,28-45-2.6-88.85-18.53-127.77-40.74-8-4.57-19.38-9.45-25.87-16.07-7.11-7.26-4.15-18.83-4.05-29l.8-81.65c.29-30.3-46.79-30.32-47.08,0Z"/><path class="cls-3" d="M586.28,951.58C418.56,825.4,391.78,567.73,538,414c68.48-72,167.93-111.46,265.54-105.35,90.34,5.65,180.12,52.19,228.56,131.05,31.81,51.78,44.49,113.7,49.65,174.77,6.17,73,1.88,149-28.43,215.33C994.1,959.32,839.64,1025.64,703,1000.32,661.35,992.6,620.49,977.32,586.28,951.58Z"/><path d="M598.16,931.26c-198.22-152.71-166.53-490.57,76.5-579.79,126.12-46.31,282.72-7.53,347,117.75,34.4,67.06,41.74,149.82,38.39,224.07C1056.86,764,1036.33,834,987.36,886.61c-97.11,104.42-271.85,129-389.2,44.65-24.65-17.71-48.18,23.11-23.76,40.65,120,86.24,294.36,70.86,408.5-17.85,133.74-103.93,149.43-298.54,102.46-451.37-47.62-155-204.15-239-361.16-213-146.12,24.24-265,139.77-296,284-32.14,149.64,25.3,305,146.17,398.16C598.38,990.39,621.85,949.51,598.16,931.26Z"/><path d="M716.45,626.17c1.26-102.75-103.61-104.19-104.87-1.28C610.33,727.64,715.19,729.1,716.45,626.17Z"/><path d="M967.06,626.17c1.25-102.75-103.61-104.19-104.87-1.28C860.93,727.64,965.8,729.1,967.06,626.17Z"/><path d="M681.65,847.53c32,22.87,71.51,35.4,110.89,34.14,41.53-1.33,79.24-16.94,111.77-42.22,10.05-7.81,8.2-25.09,0-33.29-9.91-9.92-23.21-7.83-33.28,0-49.61,38.54-115.53,36.57-165.62.72-10.34-7.4-26.2-1.81-32.2,8.45-6.92,11.83-1.93,24.79,8.44,32.2Z"/><path class="cls-4" d="M899.89,385.64c50.62-4.21,110.7-20.7,124.9-69.46,8.54-29.31-4-61.79-25.52-83.48s-50.52-34.19-79.72-43.09c-61.9-18.85-128.91-23.56-191.55-7.36-37.35,9.66-72.94,27-103,51.23-15.12,12.17-25.94,28.88-40.42,41.09-31.81,26.82-77.87,27.65-114.69,44.27-74.63,33.7-90.17,79.27-109.37,150.92-22.68,84.62,14.2,157.07,68.27,221.18,15.82,18.76,21.82,67.78,56.6,59.34,64.14-15.56,37.31-103,30.29-145.22-11.31-68.13,34-146.11,87.68-187,34.15-26.06,78.68-46,119.45-32.33C770.45,401.64,849.38,389.84,899.89,385.64Z"/><path d="M899.89,409.18c61.08-5.79,139.53-27.31,150-98.75,12.52-85.76-75.28-132-144.85-149.26C819.71,140,726.66,145.24,649.09,188.88A254.69,254.69,0,0,0,604.71,220c-17.18,15.32-29.44,35.44-50.34,46.25-34,17.61-73.81,20.25-108.22,38C387.08,334.68,359.43,386.15,342,448c-22.35,79.45-6.91,153.27,40.13,220.75,10,14.38,22.74,27.45,31.84,42.35,6.62,10.85,10.38,23.24,17.16,34,15.22,24.23,39.09,34.9,67,25.9,59.21-19.08,55.68-87.47,46.9-137-6.62-37.3-10.56-69.62,3.83-106.24,16.94-43.16,49.49-81.82,89.57-105.13,22.54-13.1,47.63-21.52,73.68-15.53,17.94,4.13,35,8.25,53.49,9.47,44.81,3,89.71-3.57,134.26-7.47,30-2.62,30.23-49.72,0-47.08-31.37,2.75-62.69,6.63-94.18,7.78-33.28,1.2-62.09-6-94.32-10.76C649.84,350,588,391.41,550.17,436.6S484.71,541,491.58,601c3.53,30.84,30.36,98.34-.47,121.67-20.94,15.85-27.59-19.35-35.18-32.84-15.94-28.34-39.71-51.27-55.05-80.45C368.64,548,375,484.85,399.71,422.06c22.7-57.79,69.73-80.87,127-96.48,30.33-8.26,58.35-18.66,81.47-40.8,27.63-26.48,50.41-50.37,86.2-66.18,77.75-34.35,180.18-30.33,256,8.08,33.39,16.91,72,58.6,44.73,97.45-19.79,28.21-63.81,35-95.27,38C870,364.94,869.7,412.05,899.89,409.18Z"/><path class="cls-4" d="M1038.54,356.37c24.72,32.44,49.87,65.68,59.89,100.6s2.12,72.45-31.64,91.44c-30.16-56-68.61-110.56-114.28-162.06"/><path d="M1018.22,368.25c22.5,29.54,48.71,60.95,58.23,97.6,2,7.81,2.35,10.15,2.48,17.47q0,3.26-.14,6.51c0,.46-.43,4.82-.22,3.27,0,.35-1.24,5.84-1.89,8.09-3.28,11.4-10.22,20.11-21.77,26.89l32.2,8.45c-32.5-60.08-72.77-115.67-118-166.82-8.42-9.54-24.69-8.6-33.29,0-9.46,9.46-8.44,23.73,0,33.29,42.6,48.22,80,100.67,110.6,157.29,6,11.16,21.51,14.72,32.21,8.44,37.59-22.08,52-63,45.36-104.84-7.2-45.19-38.24-84.05-65.16-119.4-7.69-10.09-20.28-15.41-32.21-8.44-9.94,5.81-16.19,22-8.44,32.2Z"/><path class="cls-4" d="M1032.87,768.74c8.41-14.77,20.4-29.33,37.67-33.34,19.7-4.57,40.08,6.47,50.36,23.14,43.37,70.23-32.86,157.14-81.21,201.3-33.58,30.67-76,61.94-119.15,76.25-23.08,7.65-46.08,10.76-69.17,18.48-26.36,8.81-55.15,11.18-82.79,9.49-33.81-2.07-72.49-7.12-105.24-16.45-63-17.95-144.8-51.95-178.86-110.56-21.28-36.62-66.49-83-63.33-131.95,4.42-68.54,84-82.34,126.44-26.24,25,32.94,31.58,80.91,64.33,106.11,3.23,2.48,6.44,5,9.67,7.31,23.47,16.71,47.74,32.63,73.84,45,47,22.19,99.36,30,148.7,10.84C887.36,931.28,931,914,966,882.6,997.78,854.05,1011.74,805.85,1032.87,768.74Z"/><path class="cls-4" d="M538.72,855.64c38.18-11,70.53-36.55,104.43-56.31,18.46-10.75,38.73-25.22,60.47-27.31,20.64-2,39.63,2.17,58.37,10.4,17.61,7.73,34.34,9.49,53.12,5,22.71-5.44,42.94-17.79,66.76-18.52,50.75-1.57,92.19,33.15,126.21,66.7,14.4,14.2,36.61-8,22.2-22.19-34-33.54-73.18-65.61-121.68-73.79a135.21,135.21,0,0,0-68.51,6.1c-11.06,3.88-21.89,8.71-33.32,11.43-14.86,3.54-25.93-.82-39.39-6.68-39.52-17.19-79.85-11.21-116.65,8.54-39.44,21.17-77,53.89-120.35,66.38-19.37,5.58-11.13,35.87,8.34,30.26Z"/></svg>