<svg id="Layer_1" data-name="Layer 1" xmlns="http://www.w3.org/2000/svg" viewBox="0 0 1500 1500"><defs><style>.cls-1{fill:#92b4ff;}.cls-2{fill:#003fcc;}.cls-3{fill:#f2d3a5;}.cls-4{fill:#3b2314;}</style></defs><title>Kid Talk</title><ellipse class="cls-1" cx="750" cy="750" rx="703.87" ry="709.76"/><path class="cls-2" d="M266.35,1233.21S462.23,1433.68,750,1433.68s456.57-174.86,456.57-174.86-48.27-193-314.52-177.6S393.71,994.69,266.35,1233.21Z"/><path d="M249.36,1250.2c86.52,88,208,151.68,325.92,183.78,188.11,51.19,395,16.83,558.7-88.39,29.67-19.07,67.19-41.5,89.5-69.71,18.75-23.69-9.81-65.58-23.1-85.86-33.43-51-82.27-88.25-139-110.11-93.06-35.89-193.75-18.53-290.87-22.33-101.22-4-204.67-18.92-305.31-.9-98.28,17.59-172.19,77.75-219.64,164.41-14.85,27.13,26.62,51.4,41.49,24.24,39.34-71.86,96.57-122.08,177.6-139.7,77.94-16.94,160.45-8.13,239.26-3.45,45.06,2.67,90.17,5,135.33,4.71,47.16-.31,94.2-5.56,141.15,1.43,62.26,9.27,121.15,36.37,162.51,84.66,18.84,22,34.19,47.71,40.47,72.23l6.17-23.37c-72.84,75-179.94,123.78-279.62,148.47-184.12,45.61-373.12,5.26-530.29-98-34-22.32-67.75-47-96.34-76.11C261.63,1194.14,227.66,1228.11,249.36,1250.2Z"/><path class="cls-3" d="M569.31,956.31l-1,101.44c-.07,7.22,0,14.83,3.86,21.07,2.91,4.66,7.66,8,12.35,11.19,49.6,33.41,107.79,57.62,168.91,61.26s125.14-15.06,167.2-56.46c7-6.92,13.53-14.63,16.54-23.72,2.46-7.45,2.43-15.38,2.37-23.17Q939.3,1011,939,974"/><path d="M545.28,956.31c-.32,33.78-1.5,67.67-1,101.44.5,32.56,17.52,47,43.77,63.07,49.94,30.53,106.67,51,165.37,54.47,54.21,3.17,112.58-9.91,157.36-41.48,21.84-15.39,44.71-34.82,51-62,3.14-13.67,1.78-28.49,1.68-42.36L963.05,974c-.22-30.91-48.27-31-48,0,.19,26.4,2.09,53.4.53,79.75-1.24,20.76-22.09,34.72-38.58,44.86-36.82,22.65-80.67,31.08-123.51,28.61-46-2.66-90.67-18.91-130.4-41.58-8.18-4.67-19.76-9.64-26.39-16.4-7.26-7.41-4.23-19.21-4.13-29.63l.81-83.33c.3-30.92-47.74-30.94-48.05,0Z"/><path class="cls-3" d="M582.92,956.12C411.76,827.35,384.44,564.4,533.61,407.54,603.5,334.05,705,293.79,804.59,300c92.2,5.77,183.82,53.27,233.26,133.74,32.45,52.84,45.4,116,50.66,178.35,6.3,74.52,1.92,152.09-29,219.75-60.4,132.16-218,199.83-357.44,174C659.53,998,617.83,982.39,582.92,956.12Z"/><path d="M595,935.38C392.76,779.54,425.1,434.75,673.11,343.7c128.71-47.25,288.52-7.68,354.11,120.17,35.1,68.43,42.6,152.88,39.18,228.66-3.25,72.13-24.2,143.55-74.17,197.28C893.12,996.37,714.8,1021.42,595,935.38c-25.15-18.07-49.16,23.58-24.25,41.48,122.5,88,300.41,72.32,416.89-18.21C1124.15,852.59,1140.17,654,1092.24,498,1043.64,339.85,883.9,254.1,723.67,280.69c-149.12,24.75-270.42,142.64-302,289.85-32.8,152.71,25.82,311.3,149.16,406.32C595.27,995.72,619.22,954,595,935.38Z"/><path d="M715.76,624c1.29-104.86-105.73-106.33-107-1.31C607.46,727.58,714.48,729.07,715.76,624Z"/><path d="M971.51,624c1.28-104.86-105.73-106.33-107-1.31C863.21,727.58,970.22,729.07,971.51,624Z"/><path class="cls-4" d="M542.47,533.78c-35.85,54.57-66.55,113.41-103.14,167.05-50.25-87.79-64.13-227.24-23.05-320a480.14,480.14,0,0,1,55.52-94.61c9-12,71.7-65.3,71.36-75A161.27,161.27,0,0,0,557,271.08L745.33,108.39l12.12,97.88a585,585,0,0,0,105-83.54,196.36,196.36,0,0,1,27.28,91.55,111.1,111.1,0,0,0,45-38c28.26,27.65,51.54,59.9,74.67,92,29.93,41.52,95.6,107.24,96.87,159a585.69,585.69,0,0,1-33.69,210.32c-5.44-58.34-15.21-128.57-49.64-177.4-24-34.13-73.32-105.72-120.07-106.34-12.52-.16-22.38,10.13-30.55,19.61-23,26.69-40.15,65.45-77.83,44.5-23.12-12.86-35-44-64.52-45.85-42.55-2.6-104.91,52.3-129.69,83.24C580.27,480.41,560.4,506.48,542.47,533.78Z"/><path d="M521.73,521.65c-35.65,54.91-66.59,112.72-103.14,167.06h41.48c-46.71-84.47-60.7-200.12-24.85-291.08,16.11-40.87,39.84-82.32,71.72-112.79,18.36-17.54,53.61-40.87,59.39-67.22l-47.19-6.39c1.57,23.3,5.86,44.55,14.7,66.23,7,17.15,25.46,23.28,40.15,10.6L762.32,125.38l-41-17,12.12,97.88c2.08,16.85,19.16,31.53,36.14,20.75a660,660,0,0,0,109.9-87.31l-37.73-4.86c14,25,22.07,50.84,24,79.43,1.26,18.64,19.3,29.29,36.14,20.74,22.16-11.26,38.91-26.79,53.63-46.6l-37.73,4.87c30.56,30.81,54.56,66.2,81,100.4,21.38,27.69,45.06,53.76,63.51,83.6,21.57,34.87,21.62,65.87,18.68,106.33-3.66,50.52-15,99.79-31.47,147.6l47.18,6.39c-8.09-84-25.87-155.79-77.66-223.61-36.9-48.33-106.75-122.13-163.6-57.5-10,11.31-20,33.31-33.41,40.11-17.72,9-31.51-14.69-43-25.27-25.9-23.94-55.84-28.17-88.37-15.55-74.75,29-126.19,101.89-168.92,165.86-17.22,25.78,24.37,49.86,41.48,24.25,35.95-53.82,82.25-124.08,147.12-146.4,32.58-11.2,44.8,22.38,69.06,37.26,23.31,14.28,49.37,14.6,71.35-2.11,17.14-13,36.59-57.24,58.59-55.77,28.13,1.88,57.76,45.58,72.94,65.65,44.28,58.55,59.38,120.79,66.34,193.08,2.57,26.72,38,32.91,47.19,6.38A628.32,628.32,0,0,0,1129,483.62c3-41.66,2.83-78.93-17-116.37-18-34.08-44.15-63.42-68.09-93.37-30.75-38.47-57.29-79.42-92.14-114.57-11.87-12-28.7-7.29-37.73,4.87-9.77,13.14-22,22-36.4,29.35l36.15,20.75c-2.52-37.15-12.32-71.17-30.56-103.68-7.64-13.6-26.88-15.55-37.73-4.86a599.65,599.65,0,0,1-100.18,79.79l36.15,20.74-12.12-97.88c-2.58-20.83-24.25-31.46-41-17L540,254.09l40.15,10.6c-7.14-17.51-11.7-34.55-13-53.46-1.73-25.57-41.06-34.35-47.19-6.38.78-3.56-5.85,6-8.2,8.47-6.51,6.84-13.36,13.37-20.19,19.89-11.72,11.2-24.48,21.85-35.16,34.08-34.13,39.15-61.76,92-75.62,142-27.4,98.87-11.69,214.29,37.76,303.71,9.2,16.64,31.79,14.41,41.48,0,36.56-54.34,67.49-112.15,103.14-167.06C580.1,519.89,538.52,495.79,521.73,521.65Z"/><path d="M677.18,849.94c32.62,23.34,73,36.12,113.16,34.83,42.39-1.36,80.87-17.28,114.07-43.08,10.25-8,8.37-25.61,0-34-10.12-10.13-23.69-8-34,0-50.62,39.33-117.89,37.31-169,.74-10.55-7.56-26.74-1.85-32.86,8.61-7.07,12.08-2,25.3,8.61,32.87Z"/><path class="cls-4" d="M1036.46,769.52c8.59-15.07,20.82-29.93,38.45-34,20.1-4.67,40.89,6.6,51.39,23.61,44.25,71.67-33.54,160.37-82.88,205.43-34.26,31.3-77.53,63.21-121.59,77.81-23.56,7.81-47,11-70.59,18.86-26.9,9-56.28,11.41-84.48,9.68-34.51-2.11-74-7.26-107.41-16.78-64.31-18.32-147.76-53-182.53-112.83C455.11,903.92,409,856.61,412.2,806.63c4.5-69.94,85.67-84,129-26.78,25.47,33.63,32.23,82.58,65.66,108.3,3.28,2.53,6.56,5.11,9.86,7.45,24,17.06,48.71,33.3,75.36,45.88,47.94,22.65,101.4,30.64,151.74,11.07,44.12-17.15,88.69-34.77,124.37-66.83C1000.65,856.59,1014.89,807.4,1036.46,769.52Z"/><path class="cls-4" d="M532.18,858.21c39-11.22,72-37.3,106.58-57.46,18.83-11,39.52-25.74,61.7-27.87,21.06-2,40.44,2.21,59.57,10.61,18,7.89,35,9.69,54.21,5.09,23.17-5.55,43.82-18.15,68.13-18.9,51.79-1.6,94.08,33.83,128.8,68.07,14.69,14.49,37.35-8.15,22.65-22.65-34.71-34.22-74.68-67-124.18-75.3A138,138,0,0,0,839.73,746c-11.28,4-22.34,8.89-34,11.67-15.17,3.61-26.47-.84-40.21-6.82-40.32-17.55-81.48-11.44-119,8.71-40.26,21.61-78.58,55-122.82,67.74-19.77,5.69-11.36,36.61,8.51,30.88Z"/></svg>