<svg id="Layer_1" data-name="Layer 1" xmlns="http://www.w3.org/2000/svg" viewBox="0 0 1500 1500"><defs><style>.cls-1{fill:#92b4ff;}.cls-2{fill:#003fcc;}.cls-3{fill:#d88d3d;}.cls-4{fill:#3b2314;}</style></defs><title>Kid Talk</title><ellipse class="cls-1" cx="750" cy="749.6" rx="701.11" ry="706.98"/><path class="cls-2" d="M268.24,1230.92S463.36,1430.6,750,1430.6s454.78-174.17,454.78-174.17-48.08-192.21-313.29-176.9S395.11,993.34,268.24,1230.92Z"/><path d="M251.32,1247.84c86.19,87.71,207.19,151.09,324.65,183.06,187.37,51,393.49,16.76,556.5-88,29.56-19,66.93-41.34,89.16-69.44,18.67-23.59-9.78-65.32-23-85.52-33.29-50.81-81.94-87.9-138.42-109.68-92.69-35.75-193-18.45-289.73-22.24-100.81-4-203.86-18.85-304.1-.9-97.9,17.53-171.52,77.45-218.78,163.76-14.8,27,26.51,51.21,41.32,24.16,39.19-71.59,96.19-121.61,176.91-139.16,77.64-16.88,159.81-8.1,238.32-3.44,44.89,2.66,89.82,5,134.8,4.69,47-.31,93.83-5.54,140.6,1.43,62,9.23,120.67,36.23,161.87,84.32,18.77,21.91,34.06,47.53,40.31,72l6.15-23.28c-72.55,74.66-179.24,123.3-278.53,147.9-183.4,45.42-371.65,5.23-528.21-97.61-33.83-22.22-67.48-46.82-96-75.8C263.54,1192,229.71,1225.84,251.32,1247.84Z"/><path class="cls-3" d="M570,955.11l-1,101c-.07,7.18,0,14.77,3.85,21,2.89,4.65,7.63,8,12.3,11.15,49.4,33.28,107.37,57.39,168.25,61s124.65-15,166.54-56.24c7-6.89,13.48-14.57,16.47-23.62,2.46-7.42,2.42-15.33,2.37-23.09q-.27-36.79-.53-73.6"/><path d="M546.09,955.11c-.33,33.64-1.5,67.4-1,101,.49,32.43,17.44,46.83,43.59,62.81,49.75,30.42,106.26,50.84,164.73,54.27,54,3.16,112.13-9.88,156.74-41.32,21.75-15.33,44.54-34.69,50.76-61.76,3.13-13.62,1.77-28.37,1.67-42.2l-.39-55.2c-.22-30.78-48.07-30.85-47.85,0,.18,26.3,2.08,53.2.52,79.44-1.23,20.68-22,34.58-38.43,44.69-36.68,22.56-80.36,31-123,28.49-45.77-2.64-90.32-18.84-129.89-41.41-8.15-4.65-19.69-9.61-26.29-16.34-7.23-7.37-4.22-19.13-4.11-29.52l.8-83c.3-30.8-47.55-30.83-47.85,0Z"/><path class="cls-3" d="M583.57,954.92c-170.48-128.27-197.7-390.19-49.11-546.44,69.61-73.19,170.7-113.3,269.92-107.09,91.83,5.75,183.1,53.06,232.34,133.22,32.33,52.63,45.22,115.57,50.47,177.65,6.27,74.22,1.9,151.49-28.9,218.88-60.16,131.64-217.17,199.05-356,173.32C659.88,996.61,618.35,981.08,583.57,954.92Z"/><path d="M595.65,934.26C394.16,779,426.38,435.59,673.42,344.9c128.2-47.07,287.38-7.65,352.71,119.69,35,68.17,42.43,152.29,39,227.77-3.24,71.84-24.11,143-73.88,196.51C892.56,995,714.94,1020,595.65,934.26c-25-18-49,23.49-24.15,41.32,122,87.67,299.22,72,415.25-18.14C1122.69,851.79,1138.64,654,1090.9,498.61c-48.41-157.54-207.52-243-367.13-216.47C575.24,306.78,454.41,424.21,422.92,570.85,390.25,723,448.63,880.92,571.5,975.58,595.88,994.36,619.73,952.81,595.65,934.26Z"/><path d="M715.9,624.13c1.28-104.44-105.32-105.9-106.6-1.3C608,727.27,714.62,728.76,715.9,624.13Z"/><path d="M970.64,624.13c1.28-104.44-105.32-105.9-106.6-1.3C862.76,727.27,969.36,728.76,970.64,624.13Z"/><path d="M608.85,355.16c-71.13,103.37-135.49,192.7-182.46,311.39-1.38,3.48-3.09,7.32-6.56,8.72-5.33,2.16-10.78-2.66-14.24-7.25-90.83-120.39,5.22-320.53,148.74-340.95"/><path d="M588.19,343.08C552.43,395,516.05,446.63,483.3,500.56c-16.45,27.1-31.95,54.77-46,83.17q-10.22,20.6-19.43,41.66-5,11.46-9.76,23c-.89,2.16-2.94,5.36-3.13,7.71-.75,9,21.9,5,18.81-3.58-3.48-9.7-12.24-18.81-16.54-28.52A158.18,158.18,0,0,1,398,595.37c-4.46-19.56-5-40.07-2.74-60,4.64-40.82,22-81,47.27-113.27,29.59-37.83,70.39-64.61,118.15-72,12.86-2,19.73-18,16.71-29.43C573.8,307,560.68,302,548,304c-104,16.06-182.87,114.29-198.4,214.9-7.91,51.17-.86,104.73,27.05,149.14,7.64,12.16,16.47,25.59,30.95,30,17.07,5.19,32-4.13,39.48-19.38,16.2-33.11,29.16-67.47,46.68-100.07C533.44,504.7,582,436.19,629.51,367.23c17.51-25.43-23.94-49.38-41.32-24.15Z"/><path class="cls-4" d="M865.14,376.88C887.6,366,912.07,358.47,935.84,362s46.62,19.76,54.48,45.07c12.85,41.43-28.31,92.19-66.27,81.73,34.78,21.37,79.22,5.87,116-14.52,20.92-11.61,41.73-25.17,56.83-45.33s23.64-48.19,16.7-72.51c-6.88-24.11-26.82-39.63-46.17-52.23C957.6,232.74,826.9,200.91,698,214.24c-35,3.62-70.63,10.78-101.73,30.34-28.12,17.68-52,46.35-61,80.92s-1.05,74.72,23.25,96.44c91.83-51.47,198.79-65.26,295.78-38.13"/><path d="M877.22,397.54c27.4-12.52,71.81-23.26,88,11.69,9.61,20.7-7.57,61.44-34.84,56.47-25-4.56-44.08,30.29-18.44,43.73,66.53,34.86,161.63-9.38,203.66-66,21.24-28.61,31.25-66.87,18.23-101.1-12.92-34-46-54.42-75.79-72-73.71-43.53-156.22-70.36-241.24-79.62-78-8.49-177-8.26-243,40.44-63.71,47-94,146-32.35,207.75,7.69,7.7,19.64,8.84,29,3.74,85.45-46.52,182.93-60.76,277.34-35.72,29.8,7.9,42.51-38.25,12.72-46.15C753.76,332.4,643,348.66,546.38,401.28l29,3.74c-25.53-25.58-24.25-65.69-8-96,18.47-34.49,52.42-54.28,89.36-63.73,72.42-18.5,154.87-12.26,226.78,5.24a544.7,544.7,0,0,1,106.3,37.57c30,14.37,69.44,31.43,91.12,57.7,54.47,66-90.4,150.83-144.78,122.33l-18.44,43.73c58.74,10.71,111.12-49.76,96.56-107.46-19.2-76.1-103.37-74.57-161.18-48.16-28,12.78-3.69,54,24.15,41.32Z"/><path d="M675.8,849.15c32.48,23.25,72.68,36,112.71,34.7,42.22-1.36,80.55-17.22,113.62-42.92,10.21-7.94,8.34-25.5,0-33.84-10.08-10.08-23.6-8-33.84,0-50.42,39.18-117.42,37.17-168.34.74-10.52-7.52-26.64-1.84-32.74,8.58-7,12-2,25.2,8.59,32.74Z"/><path class="cls-4" d="M1036,769.05c8.55-15,20.73-29.81,38.29-33.88,20-4.65,40.74,6.58,51.19,23.51,44.08,71.39-33.4,159.74-82.55,204.63-34.13,31.17-77.22,63-121.11,77.51-23.47,7.77-46.85,10.94-70.31,18.78-26.8,9-56.07,11.37-84.16,9.65-34.37-2.1-73.69-7.24-107-16.72-64.06-18.25-147.19-52.81-181.82-112.39-21.63-37.22-67.58-84.35-64.37-134.13,4.49-69.66,85.33-83.7,128.53-26.67,25.37,33.49,32.1,82.25,65.39,107.87,3.28,2.52,6.55,5.09,9.83,7.42,23.86,17,48.53,33.17,75.06,45.7,47.76,22.57,101,30.52,151.16,11C888,934.28,932.43,916.73,968,884.79,1000.27,855.78,1014.46,806.78,1036,769.05Z"/><path class="cls-4" d="M533.65,857.39c38.81-11.18,71.69-37.16,106.15-57.24,18.76-10.93,39.37-25.64,61.46-27.76,21-2,40.29,2.21,59.34,10.57,17.9,7.86,34.9,9.65,54,5.07,23.08-5.53,43.64-18.08,67.86-18.83,51.59-1.58,93.71,33.7,128.29,67.81,14.64,14.43,37.21-8.11,22.56-22.56-34.56-34.09-74.39-66.69-123.69-75a137.4,137.4,0,0,0-69.64,6.2c-11.23,3.94-22.25,8.85-33.86,11.62-15.11,3.59-26.36-.84-40-6.79-40.16-17.48-81.16-11.4-118.57,8.67-40.1,21.53-78.27,54.78-122.33,67.48-19.7,5.67-11.32,36.46,8.48,30.76Z"/></svg>