<svg id="Layer_1" data-name="Layer 1" xmlns="http://www.w3.org/2000/svg" viewBox="0 0 1500 1500"><defs><style>.cls-1{fill:#92b4ff;}.cls-2{fill:#003fcc;}.cls-3{fill:#99501f;}</style></defs><title>Kid Talk</title><ellipse class="cls-1" cx="750" cy="749.6" rx="693.61" ry="699.41"/><path class="cls-2" d="M273.4,1225.77s193,197.54,476.6,197.54S1199.91,1251,1199.91,1251,1152.35,1060.86,890,1076,398.9,990.73,273.4,1225.77Z"/><path d="M256.66,1242.51c85.26,86.77,205,149.47,321.17,181.1,185.37,50.45,389.28,16.58,550.55-87.1,29.24-18.8,66.21-40.9,88.2-68.69,18.47-23.35-9.67-64.63-22.77-84.61-32.94-50.27-81.07-87-136.93-108.51-91.71-35.37-190.93-18.25-286.63-22-99.74-3.91-201.69-18.65-300.86-.89-96.84,17.34-169.68,76.62-216.43,162-14.64,26.74,26.23,50.66,40.88,23.9,38.77-70.82,95.16-120.31,175-137.67,76.81-16.7,158.11-8,235.78-3.41,44.4,2.64,88.85,4.94,133.34,4.65,46.48-.31,92.83-5.48,139.1,1.41,61.35,9.13,119.38,35.84,160.14,83.42,18.57,21.67,33.69,47,39.88,71.18l6.08-23c-71.77,73.86-177.32,122-275.55,146.31C726.19,1425.52,540,1385.76,385.07,1284c-33.47-22-66.76-46.32-94.93-75C268.75,1187.26,235.28,1220.75,256.66,1242.51Z"/><path class="cls-3" d="M571.94,952.91l-1,100c-.07,7.11,0,14.61,3.8,20.76,2.87,4.59,7.55,7.91,12.17,11,48.87,32.92,106.22,56.77,166.45,60.36s123.32-14.84,164.76-55.64c6.92-6.81,13.34-14.41,16.3-23.37,2.43-7.34,2.39-15.16,2.34-22.83q-.27-36.41-.52-72.82"/><path d="M548.27,952.91c-.32,33.28-1.49,66.68-1,100,.49,32.08,17.26,46.33,43.13,62.14,49.21,30.09,105.12,50.3,163,53.68,53.42,3.13,110.94-9.76,155.07-40.87,21.52-15.17,44.06-34.32,50.21-61.1,3.1-13.47,1.76-28.07,1.66-41.75l-.39-54.61c-.22-30.45-47.56-30.52-47.34,0,.18,26,2.06,52.63.51,78.59-1.21,20.46-21.76,34.21-38,44.21-36.29,22.32-79.5,30.63-121.71,28.19-45.28-2.62-89.35-18.64-128.49-41-8.07-4.6-19.49-9.5-26-16.16-7.15-7.3-4.18-18.93-4.08-29.2l.8-82.11c.3-30.47-47-30.5-47.34,0Z"/><path class="cls-3" d="M585.36,952.72c-168.67-126.89-195.59-386-48.59-540.59,68.86-72.41,168.87-112.09,267-105.94,90.85,5.68,181.14,52.48,229.85,131.79,32,52.07,44.74,114.34,49.93,175.75,6.2,73.43,1.88,149.87-28.59,216.54-59.52,130.23-214.85,196.92-352.23,171.46C660.85,994,619.76,978.6,585.36,952.72Z"/><path d="M597.3,932.28C398,778.71,429.84,439,674.23,349.23c126.84-46.57,284.32-7.57,348.95,118.41,34.59,67.44,42,150.66,38.61,225.33-3.21,71.08-23.85,141.46-73.09,194.41-97.66,105-273.39,129.69-391.4,44.9-24.78-17.81-48.44,23.24-23.89,40.88,120.71,86.73,296,71.26,410.8-17.95,134.49-104.52,150.27-300.22,103-453.91C1039.36,345.44,882,260.94,724.06,287.14,577.11,311.52,457.58,427.7,426.42,572.76c-32.32,150.48,25.44,306.76,147,400.4C597.53,991.74,621.13,950.63,597.3,932.28Z"/><path d="M716.26,625.48c1.27-103.33-104.19-104.78-105.45-1.29C609.54,727.51,715,729,716.26,625.48Z"/><path d="M968.28,625.48c1.26-103.33-104.19-104.78-105.46-1.29C861.56,727.51,967,729,968.28,625.48Z"/><path d="M450.52,524.78a736.22,736.22,0,0,1,19-244.55A2861.17,2861.17,0,0,1,938.71,266.6c35.63,1.89,71.49,4.5,105.94,13.76,7.69,2.07,15.69,4.71,21,10.67,5.72,6.45,7.16,15.52,8.32,24.06Q1088,419,1092.09,524c-29.29-32.12-54.81-67.7-86.22-97.74s-70.35-54.85-113.65-58.64-90.67,18.07-106.59,58.52c-25.9-43.57-89.09-51.61-135.47-31.16S570.37,456.56,538.8,496.22l-73.22,92a127.42,127.42,0,0,1-9.11-68.37"/><path d="M474.19,524.78a745.53,745.53,0,0,1,18.16-238.26L469.53,303.9a2902.85,2902.85,0,0,1,394.75-16.61c31.94.87,63.94,2,95.82,4.25,25.89,1.81,81.7-.05,90.65,28.17,9.57,30.16,8.36,68.22,11.09,99.62,3,34.84,5.13,69.74,6.58,104.68l40.41-16.74c-51.88-57.86-97.54-127.6-174.34-154.44-62.44-21.81-140.34-2.37-169.3,61.37h40.88c-37.8-57-113.23-66-172.13-37.61-36.18,17.42-65.23,46.52-90.77,76.9-32.38,38.51-63,78.61-94.33,118l39.57,10.45a127.64,127.64,0,0,1-8.27-62.08c3.13-30.28-44.23-30.06-47.34,0a157.82,157.82,0,0,0,10,74.66c5.64,14.63,27.31,25.84,39.56,10.45,42.49-53.39,82.36-114.14,133.75-159.51,38.51-34,113.45-61.14,149.12-7.34,8.88,13.37,33,17.31,40.88,0,26.43-58.18,96-54.67,143.57-25.89,51.64,31.27,86.13,84.38,125.71,128.53,13.56,15.12,41.25,3.35,40.41-16.73-1.61-38.82-4-77.6-7.62-116.29-3.25-35.2-4.47-73.09-12.78-107.52C1080.69,239.34,981,245.1,933,242.63a2891.85,2891.85,0,0,0-463.46,13.93c-10.24,1.12-20.2,6.54-22.83,17.38a786.92,786.92,0,0,0-19.85,250.84c2.5,30.14,49.86,30.41,47.34,0Z"/><path d="M680.15,848.09c31.1,22.9,70,35.6,108.71,34.33,40.89-1.34,78.07-17.13,109.75-42.47,10-8,8.33-25.14,0-33.47-9.87-9.88-23.46-8-33.48,0-48.5,38.78-112.14,36.76-161.08.73-10.31-7.59-26.42-1.72-32.39,8.49-7,12-1.83,24.78,8.49,32.39Z"/><path d="M1026.59,768.84c8.46-14.85,20.51-29.49,37.88-33.52,19.81-4.59,40.3,6.51,50.64,23.27,43.61,70.62-33,158-81.66,202.44-33.77,30.83-76.4,62.28-119.82,76.67-23.22,7.69-46.35,10.83-69.56,18.59-26.51,8.86-55.47,11.24-83.26,9.54-34-2.08-72.89-7.16-105.83-16.54-63.38-18.06-145.62-52.24-179.87-111.19-21.4-36.82-66.86-83.44-63.69-132.69,4.45-68.92,84.42-82.8,127.16-26.39,25.1,33.13,31.75,81.37,64.69,106.72,3.24,2.49,6.48,5,9.72,7.34,23.61,16.81,48,32.81,74.26,45.21,47.25,22.32,99.92,30.19,149.54,10.91,43.47-16.9,87.39-34.26,122.55-65.85C991.3,854.64,1005.33,806.17,1026.59,768.84Z"/><path d="M529.66,856.24c38.4-11.06,70.92-36.76,105-56.63,18.56-10.81,38.94-25.36,60.8-27.46,20.76-2,39.86,2.18,58.71,10.46,17.7,7.77,34.52,9.54,53.42,5,22.83-5.47,43.17-17.89,67.13-18.63,51-1.57,92.71,33.34,126.92,67.08,14.48,14.28,36.81-8,22.32-22.31-34.2-33.73-73.59-66-122.37-74.2a135.92,135.92,0,0,0-68.89,6.13c-11.12,3.9-22,8.76-33.5,11.5-15,3.55-26.08-.83-39.62-6.72-39.74-17.3-80.3-11.28-117.3,8.58-39.67,21.29-77.44,54.2-121,66.75-19.48,5.61-11.2,36.08,8.39,30.44Z"/></svg>