<svg id="Layer_1" data-name="Layer 1" xmlns="http://www.w3.org/2000/svg" viewBox="0 0 1500 1500"><defs><style>.cls-1{fill:#92b4ff;}.cls-2{fill:#b5b5b5;}.cls-3{fill:#cc0070;}.cls-4{fill:#f4b5a6;}</style></defs><title>Kid Talk</title><ellipse class="cls-1" cx="750" cy="749.6" rx="695.48" ry="701.3"/><path class="cls-2" d="M420.55,758.62c-99.22-39.8-141.13-236.48-79.14-318.44,11.21-14.81,26.18-26.89,34.85-43.32,11.77-22.3,10.15-48.93,13.65-73.91s16.12-52.62,40.71-58.23c17.18-3.92,37.53,3.71,51.51-7,6.39-4.91,9.78-12.65,13.53-19.78,36.26-68.9,138.14-98,211-99,72.21-1,142.31,22.16,210.81,45,47.68,15.92,96.06,32.18,137.53,60.6,25.6,17.54,49,40.88,57.81,70.64,2.5,8.44,3.88,17.45,8.8,24.75,5.25,7.8,13.82,12.57,20.87,18.79,16.41,14.47,21.2,37.81,17,58.63-2.07,10.2-13.33,22.06-14,31.1-1,12.81,8.73,26.62,10.36,39.93,5.5,45.09-24.1,83.85-44.52,121C1089,650,1064.6,684,1026.41,711.41,950.08,766.22,886,839.53,801.9,885.85c-8.18,4.51-16.91,8.93-26.25,8.84s-19.3-6.28-20.37-15.56"/><path d="M432.53,738.13C345.79,700.52,314,558.2,347.89,476.45c11-26.51,35.37-42.78,48.86-67.61,17-31.21,8.71-67,20.84-99.14,13.39-35.42,50.33-13.65,76.51-31.52,12.78-8.72,17.79-22.06,25.64-34.65a126.79,126.79,0,0,1,32-34.08c119.5-89.26,283.09-32.12,407.11,13.88,33,12.25,66.78,27,94.42,49.25,16.27,13.12,29.9,28.93,36.71,48.94,5.44,16,8.53,29.71,21.08,42.18,12,11.87,26,18.63,26.16,37.77.13,15.66-11.78,25.8-14.65,40.7-2.51,13,2.25,24.14,5.72,36.44,6.19,22,3.74,40.4-5.5,61.3-15.46,35-37.55,72.38-60.47,103.06-23,30.87-53.92,51.48-83.62,75.27-33.19,26.6-64.44,55.5-97.13,82.69-10.15,8.43-103,73-103.37,71.89-10.44-28.45-56.33-16.16-45.77,12.62,31.67,86.28,150-23.56,186.47-54.11,35.51-29.78,69.43-61.56,106.34-89.64,32-24.32,60.08-48.58,83.15-81.91,23.19-33.5,46.82-72.14,61.53-110.2,6.91-17.87,11.22-37.14,10-56.39a97.14,97.14,0,0,0-4.4-23.16c-4.67-14.9-4.84-17.77.62-31.15,12.28-30.14,11.66-65.4-11.16-91.09-7.85-8.84-17.62-13.81-23.6-24-5.27-9-6.83-19.75-11-29.29-8.32-18.83-21.2-35.47-36.35-49.34C1028.69,185.45,929.1,159.88,846,136.55c-79.75-22.39-162.53-30.11-242.5-4.6-32.32,10.31-63.41,25.3-89.53,47.16a167.09,167.09,0,0,0-33.27,37.41c-5.41,8.39-7.15,15.28-16.24,20.06-11.35,6-24.51,2.21-37,4.83-32.78,6.86-52.26,36.52-59.11,67.68-4.62,21-2.69,43.24-8.37,64-6.2,22.68-25.78,36.69-39.06,55.09-38.48,53.32-37.79,128.34-24.05,189.86,14.15,63.42,49,133.87,111.7,161.06,27.74,12,51.95-28.86,24-41Z"/><path class="cls-3" d="M272.11,1227.05S465.66,1425.13,750,1425.13s451.13-172.77,451.13-172.77-47.7-190.66-310.77-175.48S398,991.38,272.11,1227.05Z"/><path d="M255.33,1243.84c85.49,87,205.52,149.88,322,181.59,185.87,50.59,390.34,16.63,552-87.33,29.32-18.85,66.39-41,88.44-68.88,18.52-23.41-9.7-64.8-22.83-84.84-33-50.4-81.28-87.2-137.31-108.8-92-35.47-191.44-18.3-287.4-22.06-100-3.92-202.23-18.7-301.67-.9-97.1,17.39-170.14,76.83-217,162.46-14.67,26.8,26.3,50.79,41,24,38.88-71,95.42-120.63,175.49-138,77-16.75,158.53-8,236.41-3.42,44.53,2.65,89.1,5,133.71,4.66,46.6-.31,93.08-5.5,139.48,1.41,61.51,9.16,119.7,35.94,160.57,83.65,18.62,21.73,33.78,47.14,40,71.37l6.1-23.09c-72,74.06-177.8,122.31-276.29,146.71-181.92,45.06-368.67,5.19-524-96.82-33.57-22-66.95-46.45-95.2-75.2C267.45,1188.45,233.89,1222,255.33,1243.84Z"/><path class="cls-4" d="M615.92,984.79l-.73,81.38c-.05,5.79,0,11.9,2.88,16.91,2.17,3.74,5.71,6.44,9.21,9,37,26.81,80.41,46.23,126,49.15s93.36-12.09,124.73-45.3c5.23-5.55,10.1-11.74,12.34-19,1.83-6,1.81-12.34,1.77-18.59q-.2-29.65-.4-59.29"/><path d="M592.19,984.79c-.25,27.09-1.2,54.3-.74,81.38.21,11.83,1.8,22.46,8.7,32.32,6.59,9.41,17.38,15.92,26.83,22.14,38.22,25.13,82.53,42.06,128.45,44.42,41.5,2.14,85.3-9.35,118.73-34.41,17.43-13.06,35.62-29.75,40.14-52,5.11-25.17,1.34-54.1,1.17-79.64-.2-30.53-47.67-30.6-47.47,0,.14,20.54.62,41.1.39,61.64-.17,15.6-12.81,25.68-25.1,34-25.9,17.44-56.88,24.58-87.86,23-34.4-1.77-67.38-15-96.48-32.85-4.92-3-17.17-8.21-20-13.4-2.15-3.88.12-16.51.16-21.43l.59-65.11c.28-30.56-47.2-30.58-47.47,0Z"/><path class="cls-4" d="M584.91,953.27c-169.12-127.24-196.12-387-48.72-542,69-72.61,169.33-112.39,267.75-106.23,91.1,5.7,181.63,52.63,230.48,132.15,32.07,52.21,44.86,114.65,50.06,176.22,6.22,73.63,1.89,150.27-28.67,217.13-59.67,130.58-215.42,197.45-353.18,171.92C660.61,994.62,619.41,979.22,584.91,953.27Z"/><path d="M596.89,932.77C397,778.79,429,438.11,674,348.15c127.18-46.69,285.08-7.59,349.88,118.73C1058.6,534.5,1066,618,1062.63,692.82c-3.21,71.27-23.91,141.84-73.29,194.93-97.92,105.29-274.12,130-392.45,45-24.85-17.85-48.58,23.31-24,41,121,87,296.82,71.46,411.92-18,134.85-104.8,150.67-301,103.31-455.14-48-156.28-205.85-241-364.17-214.74-147.34,24.45-267.2,140.94-298.44,286.39-32.41,150.89,25.5,307.59,147.38,401.48C597.11,992.39,620.78,951.18,596.89,932.77Z"/><path d="M716.17,625.14c1.27-103.6-104.47-105.06-105.74-1.29C609.16,727.45,714.9,728.92,716.17,625.14Z"/><path d="M968.87,625.14c1.27-103.6-104.47-105.06-105.74-1.29C861.86,727.45,967.6,728.92,968.87,625.14Z"/><path d="M655.38,830.5c82.45,47.07,188.26,45.66,269.08-4.44,25.91-16.07,2.1-57.15-24-41-66.6,41.29-153,43.37-221.16,4.44-26.57-15.17-50.52,25.83-24,41Z"/><path class="cls-2" d="M660.33,339.53c-22.72,18.44-31.93,51.82-21.9,79.3S677,465.9,706.26,465.38c4.16-.08,8.8-.76,11.39-4,3.28-4.13,1.7-10.1.63-15.26-6.08-29.43,19.25-64.18,48.8-58.8,28.86,5.25,40.61,39.47,46.9,68.12a164.47,164.47,0,0,1,37.07-45.06c8.08-6.84,17.06-13,27.31-15.66,18.79-4.83,40.27,4.23,49.92,21.06s6.65,39.94-7,53.73c37.66,5.79,77.72-18.74,89.68-54.92s-5.58-79.75-39.27-97.55"/><path d="M643.54,322.75c-61.3,54-28.88,157,52.45,165.73,18.17,2,37.15-2.24,44.54-20.82,6.22-15.62-4-31.25,5.24-46.2,22.39-36.16,41.61,24,45.32,40.26,4.61,20.21,33.42,22.77,43.38,5.67,10.23-17.56,28.64-45.47,50.2-49.81,20.5-4.13,33.1,19.83,19.82,35.11-14.37,16.54-3.75,38.11,16.79,40.52,49.27,5.78,99.29-27,113.27-74.72,13.67-46.67-9.35-98.18-50.88-122-26.55-15.21-50.49,25.79-24,41,23.24,13.32,37.19,41.92,29.06,68.37-8.91,29-38.91,43.22-67.49,39.87l16.78,40.52c32.27-37.14,22.12-96.85-27.47-113-50.71-16.52-94.07,30.65-117.1,70.18l43.38,5.67c-6.64-29.13-17.94-61.93-45.37-77.79-29.92-17.3-65.28-5-84.1,22.23a78,78,0,0,0-13.76,43.13c0,3.05-.25,10.56,1.4,13.38q.65,10.74,11.22-8.41l-5.15-.11c-6.36-2.74-13.32-2.95-19.62-6.68-30.23-17.92-29.24-56.64-4.38-78.53,23-20.23-10.71-53.7-33.57-33.57Z"/><path class="cls-2" d="M934.21,340.43c-16.37,10.36-49.34,9.56-64,11.29-10,1.19-20.65,3.59-30.81,3.49-22.87-.21-35-12.13-55.93-19.32-13-4.46-27.21-.25-40.14,4.38-16.25,5.82-29.36,25.46-47.76,18.18-15.84-6.29-15.11-28.22-25.13-38.8C658,306.41,640.24,309.52,622.43,317c15.46-6.48,28.2-26.73,42.72-35.62,15.52-9.52,25.77-5.48,43.47-10.45,14.81-4.16,26.42-17.54,41.47-23,34.58-12.44,69.38-1.41,103.95,4.86,37.31,6.76,69,14,85.82,53.55,2.84,6.68,4.89,14,3.69,21.17C942.61,333.11,939.17,337.28,934.21,340.43Z"/><path class="cls-2" d="M410.57,754.18c14.3,2.41,29-1.21,42.31-7.08,34.9-15.43,61.53-46,78.29-80.31,7.15-14.62,12.76-30.38,12.94-46.65.16-15.48-4.58-30.53-9.27-45.28-13.38-42.06-44.16-76.58-40.2-122.58"/><path d="M410.57,777.91c71.08,8.32,134.32-65.77,152.54-127.52,10.78-36.56-.54-73.58-15.37-107.28-13-29.66-31.39-57.16-29.36-90.83,1.83-30.51-45.64-30.4-47.47,0-1.79,29.74,8.16,56.73,20.75,83.14,12.1,25.38,28,53.3,28.65,82.15.6,27.33-17.45,56.51-35.17,76.28-18.81,21-45.09,40-74.57,36.59-12.75-1.49-23.74,12-23.74,23.74,0,14.07,10.95,22.23,23.74,23.73Z"/><path class="cls-2" d="M401.78,673.8l3.63,24c1.74,11.51,15.6,18.57,26,17,12.3-1.85,19.49-11.22,20.58-23.31l18.34-204.27-46.62,6.31a251.82,251.82,0,0,1,12.58,94.25h47.48c-.43-25.91-1.84-51.79-4.39-77.58-1.31-13.16-2.94-26.28-4.74-39.39-1.9-13.86-7.62-25.36-22.08-29.49-10.43-3-21.16,2.07-26.81,10.91l-.76,1.19c-16.5,25.81,24.57,49.65,41,24l.76-1.19L440,487.1l1.62.46-10.47-6.1c-5.52-5.08-2.12,2.79-1.64,6.67q.81,6.62,1.54,13.24,1.56,14.34,2.67,28.74c1.48,19.19,2.32,38.42,2.63,57.67.51,30.71,45.81,30.38,47.48,0a290,290,0,0,0-14.29-106.87c-8.67-26.15-44.24-20.2-46.62,6.31L404.56,691.49l46.62-6.31-3.62-24c-1.92-12.69-17.9-19.69-29.2-16.58-13.57,3.73-18.5,16.47-16.58,29.2Z"/><path d="M732.27,521.05l-.08-.16,2.4,5.67a.83.83,0,0,1-.06-.21l.85,6.31a1,1,0,0,1,0-.25l-.85,6.31a2.17,2.17,0,0,1,.07-.24l-2.39,5.67a1.59,1.59,0,0,1,.13-.22l-3.71,4.8a1.82,1.82,0,0,1,.31-.31l-4.81,3.71a2.46,2.46,0,0,1,.45-.25l-5.67,2.39a2.09,2.09,0,0,1,.49-.13l-6.31.85a1.21,1.21,0,0,1,.38,0l-6.31-.85a1.05,1.05,0,0,1,.24.06l-5.67-2.39a.94.94,0,0,1,.22.12l-4.8-3.71a.93.93,0,0,1,.14.14l-3.71-4.8a1.16,1.16,0,0,1,.14.24l-2.4-5.67,0,.06a26.55,26.55,0,0,0,10.91,14.18,17.62,17.62,0,0,0,8.83,2.82,17.92,17.92,0,0,0,9.46-.42l5.67-2.4a23.88,23.88,0,0,0,8.52-8.51l2.39-5.67a23.91,23.91,0,0,0,0-12.62,30.48,30.48,0,0,0-1.22-2.89c-.4-1-.81-1.93-1.22-2.89l-.06-.12a24.56,24.56,0,0,0-3.87-5c-.16-.17-4.68-3.66-4.88-3.78l-.11-.06c-.24-.15-5.43-2.33-5.74-2.42l-.14-.05c-5.09-1.43-8-.9-13.1,0l-.3.07-.14,0c-1,.39-1.93.8-2.88,1.22l-2.89,1.22a23.92,23.92,0,0,0-5.29,4l-.18.19-1.89,2.45c-.66.79-1.29,1.6-1.89,2.44l-.08.14a24.65,24.65,0,0,0,0,24.85,26.62,26.62,0,0,0,14.19,10.91,18,18,0,0,0,9.46.43,17.81,17.81,0,0,0,8.83-2.82l4.8-3.71a23.72,23.72,0,0,0,6.11-10.48l.84-6.3a23.54,23.54,0,0,0-3.24-12Z"/><path d="M985.85,521.05c0-.06-.06-.11-.08-.16l2.39,5.67a1.66,1.66,0,0,1-.06-.21l.85,6.31a1,1,0,0,1,0-.25l-.85,6.31a1.13,1.13,0,0,1,.08-.24l-2.4,5.67a1.59,1.59,0,0,1,.13-.22l-3.71,4.8a2.27,2.27,0,0,1,.31-.31l-4.8,3.71a2.76,2.76,0,0,1,.44-.25l-5.67,2.39a2.17,2.17,0,0,1,.5-.13l-6.31.85a1.15,1.15,0,0,1,.37,0l-6.31-.85a1,1,0,0,1,.25.06l-5.67-2.39a.72.72,0,0,1,.21.12l-4.8-3.71.15.14-3.72-4.8a1.16,1.16,0,0,1,.14.24l-2.39-5.67,0,.06a26.55,26.55,0,0,0,10.91,14.18,17.55,17.55,0,0,0,8.82,2.82,18,18,0,0,0,9.47-.42l5.67-2.4a23.93,23.93,0,0,0,8.51-8.51l2.39-5.67a23.91,23.91,0,0,0,0-12.62,30.4,30.4,0,0,0-1.21-2.89c-.41-1-.81-1.93-1.22-2.89a.75.75,0,0,1-.07-.12,24.52,24.52,0,0,0-3.86-5c-.17-.17-4.69-3.66-4.89-3.78l-.1-.06c-.25-.15-5.44-2.33-5.74-2.42l-.15-.05c-5.09-1.43-8-.9-13.09,0l-.31.07-.13,0c-1,.39-1.93.8-2.89,1.22l-2.89,1.22a23.63,23.63,0,0,0-5.28,4l-.19.19-1.89,2.45c-.66.79-1.29,1.6-1.89,2.44l-.07.14a24.59,24.59,0,0,0,0,24.85,24.45,24.45,0,0,0,32.47,8.52l4.81-3.71a23.71,23.71,0,0,0,6.1-10.48l.85-6.3a23.74,23.74,0,0,0-3.24-12Z"/></svg>