<svg id="Layer_1" data-name="Layer 1" xmlns="http://www.w3.org/2000/svg" viewBox="0 0 1500 1500"><defs><style>.cls-1{fill:#92b4ff;}.cls-2{fill:#cc0070;}.cls-3{fill:#f2d3a5;}.cls-4{fill:#b5b5b5;}</style></defs><title>Kid Talk</title><ellipse class="cls-1" cx="750" cy="749.6" rx="692.01" ry="697.8"/><path class="cls-2" d="M274.5,1224.67S467.08,1421.76,750,1421.76s448.87-171.91,448.87-171.91-47.45-189.71-309.21-174.61S399.71,990.17,274.5,1224.67Z"/><path d="M257.8,1241.37c85.06,86.57,204.49,149.13,320.43,180.68,184.93,50.34,388.38,16.55,549.28-86.89,29.17-18.76,66.06-40.81,88-68.54,18.43-23.29-9.65-64.48-22.71-84.41-32.86-50.15-80.88-86.76-136.62-108.26-91.49-35.29-190.49-18.21-286-22-99.51-3.9-201.22-18.61-300.16-.89-96.62,17.3-169.29,76.45-215.94,161.64-14.6,26.68,26.17,50.54,40.79,23.84,38.68-70.66,94.94-120,174.61-137.35,76.63-16.66,157.74-8,235.23-3.4,44.3,2.63,88.65,4.93,133,4.64,46.37-.31,92.62-5.47,138.78,1.4,61.21,9.12,119.1,35.76,159.77,83.24,18.52,21.62,33.61,46.9,39.78,71l6.07-23c-71.61,73.69-176.91,121.7-274.91,146-181,44.84-366.82,5.17-521.35-96.33-33.4-21.94-66.6-46.21-94.71-74.82C269.86,1186.25,236.47,1219.66,257.8,1241.37Z"/><path class="cls-3" d="M616.59,983.61l-.73,81c-.05,5.76,0,11.84,2.87,16.82,2.15,3.72,5.68,6.42,9.16,8.94,36.82,26.67,80,46,125.38,48.9s92.89-12,124.11-45.07c5.21-5.52,10-11.68,12.28-18.94,1.82-5.94,1.8-12.28,1.76-18.5l-.39-59"/><path d="M593,983.61c-.25,27-1.2,54-.74,81,.21,11.77,1.79,22.35,8.66,32.15,6.55,9.37,17.29,15.85,26.7,22,38,25,82.11,41.86,127.8,44.21,41.29,2.12,84.87-9.31,118.14-34.25,17.34-13,35.45-29.6,39.94-51.73,5.09-25,1.33-53.83,1.16-79.25-.2-30.38-47.43-30.45-47.23,0,.14,20.44.62,40.9.39,61.33-.17,15.53-12.75,25.56-25,33.79-25.77,17.36-56.6,24.46-87.43,22.87-34.22-1.76-67-15-96-32.69-4.89-3-17.08-8.16-19.93-13.32-2.14-3.87.11-16.43.15-21.33l.59-64.79c.28-30.4-47-30.42-47.23,0Z"/><path class="cls-3" d="M585.74,952.25C417.46,825.65,390.6,567.13,537.26,412.91,606,340.67,705.74,301.08,803.67,307.21,894.32,312.88,984.4,359.58,1033,438.7c31.91,51.95,44.63,114.07,49.81,175.34,6.19,73.26,1.88,149.52-28.52,216.05C994.91,960,839.94,1026.55,702.87,1001.15,661.05,993.4,620.06,978.07,585.74,952.25Z"/><path d="M597.65,931.86C398.78,778.65,430.58,439.67,674.41,350.15,801,303.7,958.07,342.6,1022.55,468.29c34.51,67.28,41.88,150.31,38.52,224.81-3.2,70.91-23.8,141.14-72.92,194-97.44,104.76-272.76,129.39-390.5,44.8-24.72-17.77-48.33,23.19-23.83,40.78,120.43,86.53,295.33,71.1,409.85-17.9,134.18-104.28,149.92-299.53,102.8-452.87-47.78-155.5-204.82-239.81-362.36-213.66-146.6,24.32-265.86,140.23-296.94,285C394.92,723.3,452.55,879.22,573.82,972.64,597.88,991.18,621.42,950.17,597.65,931.86Z"/><path d="M716.34,625.76c1.26-103.08-104-104.53-105.21-1.28C609.87,727.56,715.08,729,716.34,625.76Z"/><path d="M967.77,625.76c1.27-103.08-103.94-104.53-105.21-1.28C861.3,727.56,966.51,729,967.77,625.76Z"/><path d="M655.85,830.09c82,46.85,187.33,45.44,267.74-4.42,25.78-16,2.09-56.86-23.84-40.78C833.48,826,747.53,828,679.69,789.31c-26.44-15.1-50.26,25.7-23.84,40.78Z"/><path class="cls-4" d="M1040.94,499.82c-41-39.41-99.35-47.89-148.48-83.46-43-31.1-54.29-68.91-62-120.75-17.63,85.33-66.34,116.79-141,153.29C616.55,484.5,471.82,525.34,452,617.48c-11.69,54.33,58.26,192.57-40.4,206.69-84.25,12.05-115.5-144.59-111.37-201.69,10.36-143.29,133.27-265.12,251.17-336.11,59.15-35.61,124-68.5,194-74,144.79-11.37,284.61,54,363.14,177.23,40,62.76,150.82,366.55,22.89,386.95-87.62,14-37.63-193.39-64.77-243A138.29,138.29,0,0,0,1040.94,499.82Z"/><path d="M1057.64,483.12c-40.06-36.09-91.2-49-136.57-76.22-45.74-27.39-60-67.06-67.85-117.57-3.63-23.31-40.68-21.72-45.55,0-11.68,52.14-38.27,87.48-84,114.73-39.59,23.61-82.44,40.2-124.55,58.56C529.4,493,430,541,427,629.7c-1.15,34.78,49.45,194.87-34.79,170-33.32-9.84-48.58-57.47-56.8-86.81-10.06-35.94-15.26-73.64-9.22-110.73,19.58-120.31,117-217.41,214.94-281.49,54.51-35.65,114.66-69.18,179.32-81.27,57-10.67,118.35-4.12,173.33,13.37,92.26,29.35,172.54,96.18,212.94,184.65,30.41,66.61,54.76,142.38,60,215.69,2,27.71,4.8,72.7-20.12,92.37-28.11,22.19-39.66-4.06-43.74-29.06-6.7-40.94-2.41-83.41-3.49-124.69-1.15-44.18-9.76-76-41.76-108.6-21.32-21.74-54.71,11.67-33.4,33.4,32.76,33.42,28.24,71,28.07,115-.15,39.36-2.43,82.58,10.67,120.34,28.19,81.29,124.55,47.74,144.9-20.26,24.4-81.52-8.24-182.21-36.19-258.75-33.15-90.79-83.93-166.37-167-219.74-113.6-73-258.55-85.78-382-31.28-123.22,54.42-245.47,147.89-308,269.59-47.11,91.65-51.34,200.1-2,292.19,19,35.47,50.83,66.12,93.49,64.75,43.12-1.38,74.6-30.63,81-72.52,7.34-48.29-13.9-93.89-12.88-141.59,1.2-56.31,64.41-90.35,108.33-112.17,54.44-27,112.58-46,165-77.21,55.68-33.2,91.4-79.27,105.67-142.95H807.67c7.55,48.48,22.21,93.63,61.22,125.92,46.65,38.61,110.42,48.23,155.35,88.71C1046.77,536.83,1080.27,503.53,1057.64,483.12Z"/><path d="M734.91,522.19l-.08-.16,2.38,5.64a1.17,1.17,0,0,1-.05-.2l.84,6.28a1,1,0,0,1,0-.25l-.84,6.27a.88.88,0,0,1,.07-.23l-2.38,5.64A1.59,1.59,0,0,1,735,545l-3.69,4.78a1.52,1.52,0,0,1,.31-.31l-4.78,3.69a1.73,1.73,0,0,1,.44-.25l-5.64,2.38a2.11,2.11,0,0,1,.49-.14l-6.28.85a1.15,1.15,0,0,1,.37,0l-6.28-.85.25.07-5.64-2.38.21.12L700,549.23a1,1,0,0,1,.15.14l-3.7-4.78a1.16,1.16,0,0,1,.14.24l-2.38-5.64,0,0a22.72,22.72,0,0,0,19.63,16.92,18,18,0,0,0,9.42-.42l5.64-2.38a23.79,23.79,0,0,0,8.47-8.47l2.39-5.65a23.86,23.86,0,0,0,0-12.55,30.3,30.3,0,0,0-1.22-2.88c-.4-1-.8-1.92-1.21-2.87a.75.75,0,0,0-.07-.12,24,24,0,0,0-3.84-5c-.16-.16-4.66-3.64-4.86-3.75l-.11-.07c-.24-.14-5.4-2.32-5.71-2.41l-.14,0c-5.07-1.42-8-.9-13,0l-.3.06-.14.05c-1,.38-1.92.79-2.87,1.21l-2.87,1.21a23.66,23.66,0,0,0-5.26,4c-.07.06-.13.13-.19.19L696,518.73c-.66.78-1.28,1.59-1.87,2.43l-.08.13a24.51,24.51,0,0,0,0,24.74,22.74,22.74,0,0,0,23.53,11.27,17.51,17.51,0,0,0,8.78-2.8l4.78-3.69a23.56,23.56,0,0,0,6.07-10.42l.85-6.28a23.52,23.52,0,0,0-3.23-11.92Z"/><path d="M987.22,522.19l-.08-.16,2.38,5.64a1.17,1.17,0,0,1,0-.2l.84,6.28a1,1,0,0,1,0-.25l-.84,6.27a.88.88,0,0,1,.07-.23l-2.38,5.64a1,1,0,0,1,.13-.22l-3.69,4.78a1.77,1.77,0,0,1,.3-.31l-4.78,3.69a2,2,0,0,1,.45-.25l-5.64,2.38a1.9,1.9,0,0,1,.48-.14l-6.27.85a1.15,1.15,0,0,1,.37,0l-6.28-.85.25.07-5.65-2.38a.94.94,0,0,1,.22.12l-4.78-3.69a.93.93,0,0,1,.14.14l-3.69-4.78a1.16,1.16,0,0,1,.14.24l-2.38-5.64,0,0a26.31,26.31,0,0,0,10.85,14.12,17.61,17.61,0,0,0,8.78,2.8,18,18,0,0,0,9.42-.42l5.64-2.38a23.79,23.79,0,0,0,8.47-8.47l2.38-5.65a23.65,23.65,0,0,0,0-12.55,30.23,30.23,0,0,0-1.21-2.88c-.4-1-.8-1.92-1.21-2.87l-.07-.12a24.3,24.3,0,0,0-3.84-5c-.17-.16-4.66-3.64-4.86-3.75l-.11-.07c-.24-.14-5.4-2.32-5.71-2.41l-.14,0c-5.07-1.42-8-.9-13,0l-.3.06-.14.05c-1,.38-1.92.79-2.87,1.21l-2.88,1.21a23.38,23.38,0,0,0-5.25,4l-.19.19-1.88,2.44c-.66.78-1.28,1.59-1.88,2.43l-.08.13a24.55,24.55,0,0,0,.05,24.74A22.74,22.74,0,0,0,970,557.3a17.51,17.51,0,0,0,8.78-2.8l4.78-3.69a23.65,23.65,0,0,0,6.07-10.42l.85-6.28a23.52,23.52,0,0,0-3.23-11.92Z"/></svg>