<svg id="Layer_1" data-name="Layer 1" xmlns="http://www.w3.org/2000/svg" viewBox="0 0 1500 1500"><defs><style>.cls-1{fill:#92b4ff;}.cls-2{fill:#b5b5b5;}.cls-3{fill:#cc0070;}.cls-4{fill:#d88d3d;}</style></defs><title>Kid Talk</title><ellipse class="cls-1" cx="750" cy="749.6" rx="693.94" ry="699.75"/><path class="cls-2" d="M424.58,697.63A116.29,116.29,0,0,0,293.2,810.86c-.62,35.07,15,69.21,38.33,95.37s54,44.95,86.13,59c23.2,10.12,49,18,73.56,11.93,14.85-3.7,28-12.31,39.77-22.13,43.68-36.56,70.44-92.58,71.43-149.53"/><path d="M424.58,674c-52.91-5.74-105.31,19.94-133.67,64.84-28.72,45.47-26.56,102.19-1.48,148.62,25.26,46.79,70.94,78.69,118.79,99.32,26.72,11.53,54.76,19.58,84,14.36,25.61-4.57,48.14-21.36,66.35-39.15,42-41,65.74-98,67.52-156.45.92-30.49-46.45-30.46-47.37,0A180.06,180.06,0,0,1,518,935.09c-20.42,17.95-41.69,24.31-68.32,16.76-24.24-6.87-47.71-19.29-68.45-33.42-38.54-26.27-71.61-71.77-63.09-120.7,9-51.45,56.16-81.88,106.49-76.42,12.73,1.39,23.68-11.87,23.68-23.68,0-14-10.91-22.29-23.68-23.68Z"/><path class="cls-3" d="M273.17,1226S466.29,1423.63,750,1423.63s450.13-172.38,450.13-172.38-47.59-190.25-310.08-175.1S398.74,990.84,273.17,1226Z"/><path d="M256.42,1242.74c85.31,86.82,205.07,149.55,321.33,181.19,185.45,50.47,389.46,16.59,550.81-87.14,29.25-18.81,66.24-40.92,88.24-68.73,18.48-23.35-9.68-64.65-22.78-84.65-33-50.29-81.1-87-137-108.56-91.75-35.38-191-18.26-286.76-22-99.79-3.9-201.78-18.66-301-.89-96.89,17.35-169.77,76.66-216.54,162.09-14.64,26.75,26.24,50.68,40.9,23.91,38.79-70.86,95.21-120.36,175.09-137.73,76.85-16.71,158.19-8,235.89-3.41,44.43,2.64,88.9,4.94,133.42,4.65,46.49-.31,92.87-5.49,139.16,1.41,61.38,9.14,119.44,35.85,160.22,83.46,18.57,21.68,33.7,47,39.89,71.21l6.09-23c-71.81,73.89-177.41,122-275.68,146.38-181.52,45-367.85,5.18-522.8-96.6-33.49-22-66.8-46.34-95-75C268.52,1187.47,235,1221,256.42,1242.74Z"/><path class="cls-4" d="M616.22,984.27l-.73,81.2c0,5.78,0,11.87,2.87,16.87,2.16,3.73,5.7,6.43,9.19,9,36.92,26.75,80.24,46.12,125.73,49s93.15-12.06,124.45-45.2c5.23-5.54,10.08-11.71,12.32-19,1.83-6,1.8-12.31,1.76-18.55l-.39-59.15"/><path d="M592.54,984.27c-.25,27-1.2,54.17-.74,81.2.21,11.8,1.79,22.41,8.68,32.24,6.58,9.39,17.34,15.89,26.78,22.09,38.13,25.08,82.33,42,128.16,44.33,41.4,2.13,85.1-9.34,118.47-34.34,17.39-13,35.54-29.68,40.05-51.88,5.1-25.12,1.33-54,1.16-79.46-.2-30.47-47.56-30.54-47.36,0,.13,20.49.62,41,.39,61.5-.18,15.56-12.79,25.62-25,33.88-25.84,17.41-56.75,24.53-87.66,22.94-34.32-1.77-67.24-15-96.27-32.79-4.9-3-17.13-8.18-20-13.36-2.14-3.87.11-16.47.16-21.39l.58-65c.28-30.49-47.09-30.52-47.36,0Z"/><path class="cls-4" d="M585.28,952.82C416.54,825.86,389.6,566.62,536.67,412c68.89-72.44,169-112.14,267.15-106,90.9,5.69,181.23,52.52,230,131.86,32,52.09,44.77,114.39,50,175.83,6.2,73.47,1.88,149.94-28.6,216.65-59.55,130.29-215,197-352.4,171.54C660.81,994.08,619.7,978.71,585.28,952.82Z"/><path d="M597.23,932.37C397.8,778.73,429.69,438.81,674.2,349c126.89-46.59,284.45-7.57,349.11,118.47,34.6,67.47,42,150.73,38.63,225.43-3.21,71.11-23.87,141.53-73.13,194.5C891.1,992.5,715.3,1017.2,597.23,932.37c-24.79-17.82-48.47,23.25-23.91,40.9,120.77,86.77,296.17,71.29,411-18,134.54-104.57,150.33-300.37,103.08-454.13C1039.49,345.25,882,260.71,724,286.92c-147,24.39-266.6,140.62-297.77,285.76-32.34,150.55,25.45,306.9,147.05,400.59C597.45,991.85,621.06,950.73,597.23,932.37Z"/><path d="M716.25,625.42C717.51,522,612,520.59,610.74,624.13,609.47,727.5,715,729,716.25,625.42Z"/><path d="M968.38,625.42c1.27-103.38-104.24-104.83-105.5-1.29C861.61,727.5,967.11,729,968.38,625.42Z"/><path d="M655.59,830.32c82.27,47,187.85,45.56,268.48-4.43,25.86-16,2.1-57-23.91-40.9-66.45,41.2-152.63,43.27-220.66,4.43-26.52-15.14-50.41,25.77-23.91,40.9Z"/><path class="cls-2" d="M1053.1,489.26c-14.08-11.42-30.68-19.67-41.95-22a308.43,308.43,0,0,1-118.29-51.82c-43.08-31.19-54.44-69.1-62.19-121.08C813,379.91,764.14,411.46,689.23,448.07L563.65,509.43c-17.69,8.64-35.51,17.36-51.26,29.18-46.05,34.56-80.77,78.29-85.18,137.75.49-6.58-27.45-36.79-31.72-45.2A203.4,203.4,0,0,1,376,570.47c-6.48-41.71.77-85.05,19.86-122.72,36.83-72.65,85.57-120.88,155-162.66,59.32-35.72,124.36-68.7,194.51-74.21,121.92-9.57,265.25,7.45,322.56,132.76,27.94,61.1,28.7,132.39,11.07,197.23C1084,522.27,1070.47,503.35,1053.1,489.26Z"/><path d="M1065.05,468.81c-42.31-31.88-98.28-34.26-143.55-62.58-45.5-28.48-60-67-68-118.18-3.65-23.38-40.8-21.78-45.68,0-10,44.47-30.44,79.38-68.49,105.18-45,30.5-97.12,51.51-145.79,75.29-47.9,23.41-95.48,44.93-132.9,84.09q-49.81,52.14-57.12,123.75L450,670.07c-5.56-24.52-31.14-41.18-40.33-64.71a180.69,180.69,0,0,1-.66-129c27.66-73.64,87.85-130.85,153.71-170.83,75.52-45.84,150.71-73.58,239.66-73.2,64,.27,133,10.09,185.82,49,78.86,58,90.66,164.42,67.88,253.28l45.67,12.59c4.23-31.5-8.47-53.94-31.94-74.65-22.79-20.09-56.41,13.28-33.49,33.49,11.37,10,21.08,18.71,18.91,34.87-3.59,26.73,40,31.63,46.52,6.29,23.31-90.93,15.56-193.26-46.68-267.58-50.15-59.89-127.18-84.74-202.55-92.17-94.74-9.33-183.75,6.94-268.15,51.34-81.93,43.1-154.27,98.92-200.3,180.71C358,465.92,345,517.17,352.3,570.47c3.48,25.59,10.6,53.31,24.45,75.44,7.06,11.27,24.76,24.13,27.62,36.75,6.31,27.81,44,18.64,46.52-6.3C462.7,559.05,601.18,517.43,690.72,473.63c79-38.66,142.49-82.37,162.79-173H807.83c8,51.15,24,97.22,66.19,130,23.79,18.48,50.37,32.68,78.35,43.7,30.8,12.12,61.82,15.08,88.78,35.39C1065.5,528.05,1089.13,486.94,1065.05,468.81Z"/><path d="M734.62,521.55l-.08-.15,2.39,5.65a1.17,1.17,0,0,1,0-.2l.84,6.29a1,1,0,0,1,0-.25l-.84,6.3A1.09,1.09,0,0,1,737,539l-2.39,5.66a1.59,1.59,0,0,1,.13-.22l-3.7,4.79a1.52,1.52,0,0,1,.31-.31l-4.8,3.7a2.46,2.46,0,0,1,.45-.25l-5.66,2.38a2.72,2.72,0,0,1,.49-.13l-6.29.85a1.15,1.15,0,0,1,.37,0l-6.3-.85.25.07-5.66-2.39a.94.94,0,0,1,.22.12l-4.79-3.7.14.14L696,544a.92.92,0,0,1,.13.24l-2.38-5.66,0,.06a24.43,24.43,0,0,0,29.13,16.54l5.66-2.39a23.82,23.82,0,0,0,8.49-8.49l2.39-5.66a23.8,23.8,0,0,0,0-12.59c-.36-1-.76-2-1.21-2.89L737,520.3l-.07-.12a24.06,24.06,0,0,0-3.85-5c-.17-.17-4.67-3.65-4.88-3.77l-.1-.06c-.25-.15-5.42-2.32-5.73-2.42l-.14,0c-5.08-1.43-8-.9-13.07,0l-.3.06-.14.05c-1,.39-1.93.79-2.88,1.21L703,511.44a23.53,23.53,0,0,0-5.27,4c-.07.06-.13.13-.19.19l-1.88,2.44c-.66.79-1.29,1.6-1.89,2.44a1,1,0,0,1-.08.14,24.59,24.59,0,0,0,.05,24.8,24.42,24.42,0,0,0,32.4,8.5l4.79-3.71A23.55,23.55,0,0,0,737,539.8l.85-6.29a23.6,23.6,0,0,0-3.24-12Z"/><path d="M987.64,521.55a1.09,1.09,0,0,1-.08-.15l2.38,5.65a1.17,1.17,0,0,1-.05-.2l.84,6.29a1,1,0,0,1,0-.25l-.84,6.3A1.09,1.09,0,0,1,990,539l-2.39,5.66a1.59,1.59,0,0,1,.13-.22l-3.7,4.79a1.52,1.52,0,0,1,.31-.31l-4.79,3.7a2.09,2.09,0,0,1,.44-.25l-5.66,2.38a2.72,2.72,0,0,1,.49-.13l-6.29.85a1.15,1.15,0,0,1,.37,0l-6.29-.85.24.07-5.66-2.39a.94.94,0,0,1,.22.12l-4.79-3.7.14.14L949,544a.92.92,0,0,1,.13.24l-2.38-5.66,0,.06a24.43,24.43,0,0,0,29.13,16.54l5.66-2.39a23.74,23.74,0,0,0,8.49-8.49l2.39-5.66a23.8,23.8,0,0,0,0-12.59,30.4,30.4,0,0,0-1.21-2.89L990,520.3a.75.75,0,0,0-.07-.12,24.06,24.06,0,0,0-3.85-5c-.17-.17-4.67-3.65-4.87-3.77l-.11-.06c-.25-.15-5.42-2.32-5.73-2.42l-.14,0c-5.08-1.43-8-.9-13.07,0l-.3.06-.14.05c-1,.39-1.92.79-2.88,1.21L956,511.44a23.53,23.53,0,0,0-5.27,4c-.07.06-.13.13-.19.19l-1.88,2.44c-.66.79-1.29,1.6-1.89,2.44,0,.05,0,.09-.07.14a24.56,24.56,0,0,0,0,24.8,17.88,17.88,0,0,0,6.1,6.64,17.71,17.71,0,0,0,8,4.24,18,18,0,0,0,9.44.43,17.7,17.7,0,0,0,8.81-2.81l4.79-3.71A23.55,23.55,0,0,0,990,539.8l.85-6.29a23.59,23.59,0,0,0-3.23-12Z"/></svg>