<svg id="Layer_1" data-name="Layer 1" xmlns="http://www.w3.org/2000/svg" viewBox="0 0 1500 1500"><defs><style>.cls-1{fill:#92b4ff;}.cls-2{fill:#003fcc;}.cls-3{fill:#f2d3a5;}.cls-4{fill:#3b2314;}</style></defs><title>Kid Talk</title><ellipse class="cls-1" cx="750" cy="749.6" rx="690.15" ry="695.93"/><path class="cls-2" d="M275.77,1223.4S467.84,1420,750,1420s447.67-171.45,447.67-171.45-47.33-189.21-308.39-174.14S400.65,989.53,275.77,1223.4Z"/><path d="M259.12,1240.05c84.84,86.34,203.94,148.73,319.57,180.2,184.44,50.2,387.34,16.5,547.8-86.66,29.1-18.71,65.89-40.7,87.77-68.35,18.37-23.23-9.63-64.31-22.66-84.19-32.77-50-80.66-86.53-136.25-108-91.25-35.19-190-18.16-285.21-21.89-99.24-3.89-200.67-18.56-299.35-.89-96.36,17.26-168.84,76.24-215.36,161.21-14.56,26.6,26.1,50.4,40.68,23.77,38.58-70.46,94.69-119.7,174.14-137,76.42-16.61,157.32-8,234.6-3.38,44.18,2.62,88.41,4.91,132.69,4.62,46.24-.31,92.36-5.46,138.4,1.4,61,9.09,118.79,35.66,159.35,83,18.47,21.56,33.52,46.78,39.67,70.82l6.06-22.91c-71.42,73.48-176.44,121.37-274.18,145.58-180.53,44.71-365.84,5.15-519.95-96.08-33.31-21.88-66.43-46.09-94.46-74.62C271.14,1185.08,237.84,1218.4,259.12,1240.05Z"/><path class="cls-3" d="M572.83,951.9l-1,99.46c-.07,7.07,0,14.53,3.79,20.65,2.85,4.57,7.5,7.88,12.1,11,48.63,32.76,105.7,56.49,165.63,60.06s122.7-14.77,163.93-55.36c6.88-6.78,13.27-14.34,16.22-23.25,2.41-7.31,2.38-15.09,2.33-22.73q-.27-36.23-.52-72.45"/><path d="M549.27,951.9c-.32,33.11-1.47,66.34-1,99.46.49,31.92,17.17,46.09,42.91,61.83,49,29.94,104.6,50,162.16,53.41,53.15,3.12,110.38-9.71,154.29-40.67,21.41-15.09,43.84-34.14,50-60.79,3.08-13.41,1.75-27.93,1.65-41.54l-.39-54.34c-.21-30.3-47.32-30.36-47.1,0,.18,25.89,2.05,52.37.51,78.2-1.21,20.36-21.65,34-37.82,44-36.11,22.21-79.11,30.48-121.1,28-45.06-2.61-88.91-18.55-127.86-40.77-8-4.57-19.39-9.45-25.88-16.08-7.12-7.26-4.15-18.84-4-29.05l.79-81.7c.3-30.32-46.81-30.35-47.11,0Z"/><path class="cls-3" d="M586.18,951.71c-167.82-126.26-194.62-384.09-48.35-537.9,68.52-72.05,168-111.53,265.7-105.42,90.4,5.66,180.24,52.23,228.71,131.14,31.82,51.81,44.51,113.77,49.68,174.87,6.17,73.07,1.87,149.13-28.45,215.47C994.25,959.45,839.69,1025.81,703,1000.47,661.29,992.74,620.41,977.46,586.18,951.71Z"/><path d="M598.06,931.37C399.73,778.57,431.43,440.5,674.61,351.22c126.2-46.33,282.9-7.53,347.2,117.83,34.43,67.1,41.77,149.91,38.42,224.2C1057,764,1036.5,834,987.51,886.69c-97.18,104.48-272,129-389.45,44.68-24.66-17.72-48.2,23.12-23.77,40.67,120.11,86.3,294.54,70.91,408.76-17.85,133.81-104,149.51-298.73,102.52-451.65-47.66-155.09-204.28-239.17-361.39-213.1C578,313.71,459,429.3,428,573.64,395.87,723.37,453.35,878.87,574.29,972,598.29,990.53,621.77,949.63,598.06,931.37Z"/><path d="M716.43,626.1c1.26-102.82-103.67-104.26-104.93-1.29C610.24,727.62,715.17,729.08,716.43,626.1Z"/><path d="M967.19,626.1c1.26-102.82-103.67-104.26-104.93-1.29C861,727.62,965.93,729.08,967.19,626.1Z"/><path d="M675.64,830.52c32,22.89,71.56,35.42,111,34.16,41.56-1.33,79.29-16.95,111.84-42.25,10.06-7.81,8.21-25.1,0-33.31-9.92-9.92-23.23-7.83-33.31,0-49.63,38.57-115.59,36.59-165.71.73-10.35-7.41-26.22-1.81-32.23,8.45-6.92,11.84-1.92,24.8,8.45,32.22Z"/><path class="cls-4" d="M1027.92,751.68c8.42-14.78,20.41-29.35,37.69-33.36,19.72-4.57,40.1,6.48,50.4,23.15,43.39,70.28-32.89,157.25-81.27,201.43-33.59,30.69-76,62-119.21,76.29-23.11,7.66-46.12,10.78-69.22,18.5-26.38,8.82-55.19,11.19-82.84,9.49-33.83-2.07-72.53-7.12-105.31-16.46-63.06-18-144.88-52-179-110.63-21.29-36.64-66.53-83-63.37-132,4.42-68.57,84-82.39,126.52-26.26,25,33,31.6,81,64.38,106.19,3.22,2.48,6.44,5,9.66,7.31,23.5,16.72,47.77,32.65,73.9,45,47,22.21,99.42,30,148.79,10.85C882.32,914.32,926,897.05,961,865.61,992.81,837.05,1006.77,788.82,1027.92,751.68Z"/><path class="cls-4" d="M533.47,838.64c38.2-11,70.57-36.58,104.49-56.35,18.47-10.76,38.76-25.24,60.51-27.32,20.65-2,39.65,2.17,58.41,10.4,17.61,7.74,34.35,9.5,53.15,5,22.72-5.45,43-17.8,66.8-18.53,50.78-1.57,92.25,33.17,126.29,66.74,14.4,14.21,36.62-8,22.21-22.2-34-33.56-73.23-65.65-121.76-73.83a135.27,135.27,0,0,0-68.55,6.1c-11.06,3.88-21.9,8.72-33.34,11.44-14.87,3.54-25.95-.82-39.42-6.69-39.53-17.2-79.89-11.22-116.71,8.54-39.47,21.19-77,53.93-120.43,66.42-19.38,5.59-11.14,35.9,8.35,30.29Z"/></svg>