<svg id="Layer_1" data-name="Layer 1" xmlns="http://www.w3.org/2000/svg" viewBox="0 0 1500 1500"><defs><style>.cls-1{fill:#92b4ff;}.cls-2{fill:#cc0070;}.cls-3{fill:#99501f;}.cls-4{fill:#b5b5b5;}</style></defs><title>Kid Talk</title><ellipse class="cls-1" cx="750" cy="749.6" rx="694.26" ry="700.07"/><path class="cls-2" d="M273,1226.21S466.16,1423.94,750,1423.94s450.33-172.46,450.33-172.46-47.61-190.33-310.22-175.18S398.58,991,273,1226.21Z"/><path d="M256.2,1243c85.34,86.85,205.16,149.61,321.47,181.27,185.54,50.49,389.64,16.6,551.06-87.18,29.27-18.82,66.28-40.94,88.29-68.76,18.48-23.36-9.69-64.69-22.79-84.69-33-50.31-81.15-87-137.07-108.61-91.79-35.4-191.1-18.27-286.9-22-99.83-3.91-201.87-18.66-301.13-.89-96.93,17.36-169.84,76.69-216.64,162.16-14.65,26.77,26.26,50.71,40.92,23.92,38.81-70.88,95.25-120.42,175.17-137.79,76.88-16.72,158.26-8,236-3.41,44.45,2.64,88.94,4.94,133.48,4.65,46.51-.31,92.91-5.49,139.22,1.41,61.41,9.14,119.5,35.87,160.3,83.5,18.58,21.69,33.72,47.06,39.91,71.25l6.09-23.06c-71.85,73.93-177.49,122.1-275.81,146.45-181.6,45-368,5.18-523-96.65-33.51-22-66.82-46.36-95-75.06C268.3,1187.67,234.8,1221.19,256.2,1243Z"/><path class="cls-3" d="M616.16,984.37l-.73,81.25c-.06,5.78,0,11.87,2.87,16.87,2.16,3.73,5.7,6.43,9.2,9,36.93,26.76,80.27,46.14,125.78,49.06s93.2-12.07,124.51-45.23c5.23-5.53,10.08-11.71,12.32-19,1.83-6,1.81-12.32,1.77-18.56q-.2-29.6-.4-59.18"/><path d="M592.47,984.37c-.25,27-1.2,54.21-.74,81.25.21,11.8,1.79,22.41,8.68,32.25,6.58,9.4,17.35,15.89,26.79,22.1,38.15,25.09,82.38,42,128.22,44.35,41.42,2.13,85.15-9.34,118.52-34.35,17.4-13,35.56-29.7,40.07-51.91,5.1-25.13,1.34-54,1.17-79.5-.2-30.48-47.59-30.55-47.39,0,.14,20.5.62,41,.39,61.53-.17,15.57-12.79,25.64-25,33.9-25.85,17.42-56.78,24.53-87.71,22.94-34.34-1.76-67.26-15-96.31-32.8-4.91-3-17.14-8.19-20-13.36-2.15-3.88.11-16.48.16-21.4l.58-65c.28-30.5-47.11-30.52-47.38,0Z"/><path class="cls-4" d="M487.76,796c-33.05,16.49-79.58-10.81-101.61-34.89-18.59-20.31-13.19-44.25-21.35-68-7.9-23-30-33.81-41.58-55.4-16.35-30.45,4.18-45.65,11.51-73.72,7.58-29-11.31-55.79-2.51-85.69,7.45-25.28,26.45-45.38,38-69.05,12.6-25.76,16.07-55,26-81.9s29.52-53.56,57.82-58.17c13.79-2.25,29.66.53,40.31-8.52,5.35-4.54,8.22-11.26,11.05-17.68,14-31.74,37.17-65.87,71.82-67.59,15.24-.76,30.31,5.19,45.52,3.86,36.46-3.19,66.37-46.7,101-34.8,8.73,3,16,9.32,24.54,12.74,22.61,9,49.41-3.62,72.19,4.93,11.37,4.27,20.43,13.41,31.89,17.41,10.26,3.59,21.44,2.73,32.3,2.59a234.24,234.24,0,0,1,96.52,19.56c22.62,9.91,46.82,34.37,34.11,55.54,32.62-11.17,72.48,10.15,81.3,43.48,2.7,10.21,2.89,21.24,7.8,30.59,6.84,13,21.1,19.84,33.57,27.6,16.56,10.3,31.7,24.14,39.22,42.13s6,40.6-7.36,54.83A82.77,82.77,0,0,1,1186.3,520c-1.64,9.7-5,19.41-3.57,29.14,3.11,20.7,21.45,36.68,16.27,58.35-4.93,20.61-29.46,37-49.18,39.71a139.18,139.18,0,0,1,18.11,42c4.9,19.94,3.55,44.66-13.42,56.21-15.21,10.35-33.28,4.89-49.89,9.21-19.21,5-31,18-52.52,16.62"/><path d="M481.46,773.14c-19.81,7.84-38.27,1.19-55.73-9.9-20.18-12.81-28.78-26.52-32.65-49.86-3-18.11-6.56-33.87-17.23-49.07-10.27-14.63-30.44-26.67-33.54-45-2.82-16.69,11.27-32.94,15.27-49.08,4.63-18.7,1.2-36.53-1.71-55.12C348.69,469.3,386,438.9,400.32,397.87c13.06-37.39,15.05-96.27,62.2-105.93,16.89-3.46,31.85-1.1,46.2-12.72,13.45-10.9,18.06-28,26.3-42.64,9.17-16.25,22.17-34.9,42.21-37.55,18.46-2.44,36.47,6,55.42,2.44,15.75-3,29.74-10.8,43.39-18.87,19.42-11.48,30.24-19.61,52.05-9.16,20.82,10,37.84,10.9,60.85,9.71,25.17-1.31,39.38,14.62,62.38,20.33,24.68,6.12,51.17,1.12,76.34,6.09,15.58,3.07,75.17,15.88,64.78,41.3-7.11,17.41,13.34,33.39,29.15,29.14,18.66-5,39,1.85,49,19.11,9.41,16.31,6.53,35.18,18.29,51.19,20.17,27.47,95.06,48.12,60.51,93.53-4.65,6.11-4.35,17.76,0,23.92,9.3,13.17,15.29,27.3,14.2,43.77-1.12,16.83-6.67,30.64-2.78,47.68,2.8,12.22,12.46,23.34,14.09,35.54,2.39,18-16.26,26.43-31.35,29.59s-21.63,22.32-14.16,34.81c7.63,12.75,14.31,26.14,16.48,41,3,20.49-4.57,25.81-24.28,28.78-10.7,1.61-20.67,1.81-31.07,5.41-13.27,4.59-23.91,12.84-38.39,13.21-30.43.79-30.55,48.18,0,47.39,23.92-.62,41.42-14.45,64.14-18.05,22.46-3.55,43.48-1.55,60.67-19.63,32-33.61,13.85-87.8-6.64-122L1156.11,670c40.05-8.38,76.75-44.46,64.75-87.78-2.68-9.66-8.72-18-11.64-27.55-4.5-14.65,1.1-28.31,1.73-43.17,1-24.38-6.7-47.9-20.67-67.69v23.92c18.27-24,19-55.9,5.52-82.48-6.59-13-16.33-24.13-27.38-33.48-13.09-11.07-36-18.43-44.09-34.15-6-11.79-4.84-26.85-11.24-39.18A86,86,0,0,0,1089,250c-23.16-17.9-51.82-23.25-80-15.69l29.15,29.15c19.11-46.78-31.71-79.14-69.16-91.85-25.42-8.63-52.55-12.79-79.36-13.2-17.92-.26-29.61-1.49-45.15-10.43-12.15-7-23.26-11.16-37.21-12.32-12.35-1-24.51,1.87-36.79,1.09-15.06-.95-24.08-9.18-37.6-14-20-7.14-39.22-3.2-57.82,5.8-20,9.67-38,27.6-61.41,27-25.52-.67-46.35-7.53-70.55,5.28-17.74,9.39-31.54,24.67-42.54,41.19-6.13,9.19-9.77,19.75-15.6,29-9.7,15.34-21.13,11.87-37.19,15.31-49.08,10.51-70.75,58.35-82.71,102.19-7,25.71-14.24,48.9-28.61,71.57-13.35,21.07-27.81,42.43-29.89,68.07-2.13,26.2,11.38,52,2.79,77.59-7.1,21.15-19.37,38.09-14.75,61.59,5.59,28.48,27.51,41.6,42.65,63.94,14.66,21.63,8.67,51.23,22.53,74,24.94,41.05,88.1,71.84,134.29,53.56,28-11.09,15.81-56.94-12.6-45.69Z"/><path class="cls-3" d="M585.2,952.91c-168.82-127-195.77-386.37-48.63-541.09,68.93-72.48,169-112.2,267.28-106,90.93,5.69,181.31,52.54,230.06,131.92,32,52.12,44.79,114.44,50,175.91,6.21,73.5,1.89,150-28.61,216.75-59.58,130.35-215,197.1-352.56,171.62C660.77,994.19,619.64,978.82,585.2,952.91Z"/><path d="M597.16,932.45c-199.52-153.71-167.62-493.79,77-583.6,127-46.6,284.58-7.57,349.27,118.53,34.63,67.5,42,150.8,38.65,225.54-3.21,71.14-23.87,141.59-73.16,194.59-97.75,105.1-273.64,129.81-391.76,44.94-24.81-17.82-48.49,23.26-23.92,40.92,120.83,86.81,296.3,71.32,411.19-18C1119,850.79,1134.84,654.9,1087.57,501.07c-47.94-156-205.5-240.59-363.54-214.36C577,311.11,457.3,427.39,426.12,572.6c-32.35,150.62,25.46,307,147.12,400.77C597.38,992,621,950.82,597.16,932.45Z"/><path d="M716.23,625.36c1.27-103.42-104.29-104.87-105.55-1.29C609.41,727.49,715,729,716.23,625.36Z"/><path d="M968.48,625.36c1.27-103.42-104.29-104.87-105.55-1.29C861.66,727.49,967.21,729,968.48,625.36Z"/><path d="M655.55,830.36c82.3,47,187.93,45.58,268.6-4.44,25.87-16,2.1-57-23.92-40.92-66.48,41.23-152.7,43.3-220.77,4.44-26.52-15.15-50.42,25.78-23.91,40.92Z"/><path class="cls-4" d="M929.86,289.85c18.12,5.06,28.89,34.27,29.82,53.06,19.13,22,5.92,59-18.67,74.63s-55.55,15.88-84.67,15.65c15-8,23.36-26.84,19.27-43.37-2.49-10-8.85-18.63-15.51-26.53-14.53-17.23-33.83-33.71-56.35-32.89-2.27.08-4.69.42-6.39,1.93-2.66,2.37-2.44,6.5-2.29,10.06,1.34,32.1-20.76,61.9-49,77.18s-61.6,18.23-93.7,16.85c15.18-7.34,25.48-23.1,27.85-39.8,4-28.07-19.56-46.44-16.87-73.1,3.93-39.09,47.85-53,80-59.51"/><path d="M923.56,312.69c7.3,2.67,11,20.33,12.17,26.8,1,5.4.79,10.41,3.5,15.38,1.75,3.22,3.89,4.4,5,7.6,1.73,5.19.88,10.66-.91,15.73-11.86,33.76-58.09,31.48-86.94,31.3l12,44.15c32.16-19.84,41.06-60.43,20.13-92-19-28.64-51.27-58-88.09-54.51-21.4,2.06-28.28,18.54-29,37.54-.52,14.71-6.46,27.72-16.53,38.48C728.78,411,688.24,414,652.35,412.73l12,44.15a76.55,76.55,0,0,0,38.73-54c3.89-22.8-4.94-40.55-12.8-61.13C676,304.41,722,292.6,749.63,286.86c29.84-6.2,17.21-51.88-12.6-45.7-37.82,7.85-81.12,24.46-94.1,64.72-7.63,23.64-.18,43.81,8.86,65.62,7.14,17.23,6.79,34.58-11.39,44.46-21.41,11.64-10.66,43.36,12,44.15,40.25,1.42,83.7-3.38,117.34-27.48,14.47-10.37,27.33-23.59,36-39.24a104.53,104.53,0,0,0,10.55-26.7,101.37,101.37,0,0,0,2.27-15.2l.27-4.53q1.28-11.93-6.49,4.33l-12,3.23c21.22-2.66,72.82,40.46,44,58.21-19.86,12.25-11.88,44,12,44.15,39.33.25,85.1-1.75,113.58-33,25.53-28,30.09-67.51,6.52-97.71l6.94,16.75c-2.44-31.28-15.81-64.46-47.22-75.91-28.7-10.46-41.07,35.31-12.6,45.69Z"/><path d="M739.83,521.45c0-.05-.05-.1-.08-.16l2.39,5.66-.06-.2.85,6.3a1.13,1.13,0,0,1,0-.26l-.84,6.3a.73.73,0,0,1,.07-.24l-2.39,5.66a1.59,1.59,0,0,1,.13-.22l-3.7,4.8a1.77,1.77,0,0,1,.3-.31l-4.79,3.7a2.38,2.38,0,0,1,.44-.25l-5.66,2.38a2.72,2.72,0,0,1,.49-.13l-6.29.85a1.15,1.15,0,0,1,.37,0l-6.3-.85.25.07-5.66-2.39.21.12-4.79-3.7a.93.93,0,0,1,.14.14l-3.7-4.8a1.41,1.41,0,0,1,.13.24L699,538.5l0,.06a24.43,24.43,0,0,0,29.14,16.55l5.66-2.39a23.79,23.79,0,0,0,8.5-8.5l2.39-5.66a23.84,23.84,0,0,0,0-12.6c-.36-1-.76-1.94-1.21-2.88s-.81-1.93-1.22-2.89l-.07-.12a24.38,24.38,0,0,0-3.86-5c-.16-.16-4.67-3.65-4.87-3.77l-.11-.06c-.24-.14-5.42-2.32-5.73-2.42l-.14,0c-5.08-1.43-8-.9-13.07,0a2.65,2.65,0,0,0-.3.06l-.14,0c-1,.39-1.93.79-2.88,1.21l-2.89,1.22a24.07,24.07,0,0,0-5.27,4,1.8,1.8,0,0,0-.19.2c-.63.81-1.26,1.62-1.88,2.44s-1.29,1.6-1.89,2.44l-.08.13a24.63,24.63,0,0,0,0,24.82,24.43,24.43,0,0,0,32.41,8.5l4.8-3.71a23.7,23.7,0,0,0,6.09-10.45l.85-6.3a23.57,23.57,0,0,0-3.24-12Z"/><path d="M993,521.45a.8.8,0,0,1-.08-.16l2.39,5.66a.76.76,0,0,1-.06-.2l.85,6.3a1.13,1.13,0,0,1,0-.26l-.85,6.3a2.17,2.17,0,0,1,.07-.24l-2.38,5.66a1,1,0,0,1,.13-.22l-3.71,4.8a1.82,1.82,0,0,1,.31-.31l-4.79,3.7a2.09,2.09,0,0,1,.44-.25l-5.66,2.38a2.72,2.72,0,0,1,.49-.13l-6.3.85a1.21,1.21,0,0,1,.38,0l-6.3-.85.24.07-5.66-2.39a.94.94,0,0,1,.22.12l-4.8-3.7a1,1,0,0,1,.15.14l-3.71-4.8a1.49,1.49,0,0,1,.14.24l-2.39-5.66,0,.06A26.47,26.47,0,0,0,963,552.72a17.63,17.63,0,0,0,8.81,2.81,17.88,17.88,0,0,0,9.45-.42l5.66-2.39a23.87,23.87,0,0,0,8.5-8.5l2.39-5.66a23.84,23.84,0,0,0,0-12.6,30.3,30.3,0,0,0-1.22-2.88c-.4-1-.81-1.93-1.21-2.89a.75.75,0,0,1-.07-.12,24.73,24.73,0,0,0-3.86-5c-.16-.16-4.67-3.65-4.87-3.77l-.11-.06c-.25-.14-5.42-2.32-5.73-2.42l-.14,0c-5.09-1.43-8-.9-13.08,0-.1,0-.2,0-.3.06l-.13,0c-1,.39-1.93.79-2.89,1.21l-2.88,1.22a23.84,23.84,0,0,0-5.27,4,1.8,1.8,0,0,0-.19.2L954,518c-.66.79-1.29,1.6-1.88,2.44l-.08.13a24.6,24.6,0,0,0,0,24.82,22.86,22.86,0,0,0,23.61,11.31,17.73,17.73,0,0,0,8.81-2.81l4.79-3.71a23.72,23.72,0,0,0,6.1-10.45l.84-6.3a23.56,23.56,0,0,0-3.23-12Z"/></svg>