<svg id="Layer_1" data-name="Layer 1" xmlns="http://www.w3.org/2000/svg" viewBox="0 0 1500 1500"><defs><style>.cls-1{fill:#92b4ff;}.cls-2{fill:#003fcc;}.cls-3{fill:#b5b5b5;}.cls-4{fill:#f4b5a6;}</style></defs><title>Kid Talk</title><ellipse class="cls-1" cx="750" cy="749.6" rx="696.44" ry="702.27"/><path class="cls-2" d="M271.45,1227.71S465.27,1426.06,750,1426.06s451.75-173,451.75-173-47.76-190.92-311.2-175.72S397.47,991.71,271.45,1227.71Z"/><path d="M254.65,1244.52c85.61,87.13,205.8,150.08,322.48,181.84C763.25,1477,968,1443,1129.92,1338.91c29.36-18.88,66.49-41.07,88.56-69,18.55-23.44-9.71-64.89-22.86-85-33.07-50.47-81.4-87.32-137.49-109-92.08-35.52-191.71-18.33-287.8-22.09-100.15-3.92-202.51-18.73-302.08-.9C371,1070.45,297.87,1130,250.93,1215.71c-14.7,26.85,26.33,50.87,41.05,24,38.93-71.11,95.55-120.8,175.72-138.23,77.12-16.77,158.75-8,236.74-3.42,44.58,2.65,89.22,5,133.89,4.66,46.67-.31,93.21-5.5,139.67,1.42,61.6,9.17,119.87,36,160.79,83.76,18.64,21.76,33.83,47.21,40,71.47l6.11-23.12c-72.07,74.16-178,122.48-276.67,146.91-182.18,45.12-369.18,5.19-524.69-97-33.61-22.07-67-46.5-95.32-75.3C266.78,1189.05,233.18,1222.67,254.65,1244.52Z"/><path class="cls-3" d="M1038.11,446.61c118.31,13.44,178,228.28,74.84,295.39"/><path d="M1038.11,470.38c49.64,6.34,84.78,61.76,97.53,110.12,12.89,48.91,9.23,111.53-34.68,141-25.28,16.95-1.51,58.15,24,41,98.9-66.33,74.61-225.63-2.63-299.33-23.65-22.57-51.86-36.22-84.21-40.34-12.76-1.63-23.77,12.09-23.77,23.76,0,14.2,11,22.14,23.77,23.77Z"/><path class="cls-4" d="M571.21,953.74l-1,100.36c-.07,7.14,0,14.68,3.82,20.85,2.87,4.61,7.58,8,12.22,11.08,49.07,33,106.65,57,167.13,60.6s123.82-14.9,165.42-55.86c6.95-6.84,13.4-14.48,16.37-23.47,2.44-7.37,2.4-15.22,2.35-22.93q-.25-36.55-.52-73.11"/><path d="M547.45,953.74c-.33,33.42-1.49,67-1,100.36.5,32.22,17.33,46.52,43.31,62.4,49.41,30.22,105.55,50.5,163.63,53.9,53.63,3.14,111.38-9.8,155.69-41,21.61-15.23,44.24-34.45,50.42-61.35,3.11-13.52,1.76-28.18,1.67-41.91l-.39-54.84c-.22-30.57-47.76-30.64-47.54,0,.19,26.13,2.07,52.85.52,78.91-1.22,20.55-21.85,34.35-38.17,44.39-36.44,22.42-79.82,30.76-122.2,28.31-45.47-2.63-89.72-18.72-129-41.14-8.1-4.62-19.57-9.54-26.12-16.23-7.18-7.33-4.19-19-4.09-29.32l.8-82.44c.3-30.6-47.24-30.62-47.53,0Z"/><path class="cls-4" d="M584.68,953.55C415.33,826.14,388.3,566,535.9,410.75,605,338.05,705.46,298.21,804,304.38c91.22,5.71,181.88,52.7,230.79,132.33,32.11,52.28,44.92,114.8,50.13,176.46,6.23,73.74,1.89,150.48-28.71,217.43-59.76,130.76-215.72,197.72-353.66,172.16C660.48,995,619.23,979.54,584.68,953.55Z"/><path d="M596.68,933c-200.14-154.2-168.15-495.34,77.25-585.44,127.35-46.75,285.47-7.59,350.36,118.9,34.73,67.71,42.15,151.28,38.77,226.25-3.22,71.37-24,142-73.39,195.2-98.06,105.43-274.5,130.22-393,45.09-24.88-17.88-48.64,23.33-24,41,121.2,87.09,297.23,71.55,412.48-18,135-104.94,150.88-301.45,103.46-455.77-48.09-156.49-206.14-241.34-364.68-215C576.41,309.74,456.38,426.38,425.1,572c-32.45,151.09,25.54,308,147.59,402C596.9,992.73,620.6,951.45,596.68,933Z"/><path d="M716.12,625c1.27-103.75-104.61-105.2-105.88-1.3S714.85,728.9,716.12,625Z"/><path d="M969.17,625c1.27-103.75-104.62-105.2-105.89-1.3S967.9,728.9,969.17,625Z"/><path d="M655.25,830.61c82.56,47.14,188.52,45.73,269.45-4.45,25.95-16.09,2.1-57.23-24-41-66.7,41.35-153.19,43.43-221.47,4.44-26.61-15.19-50.58,25.87-24,41.05Z"/><path class="cls-3" d="M546.05,635.11c-13.9-9.11-39.25-9.68-55.53-13-7.13-1.45-11.58,7-15.62,13-2.45,3.67,1.77,10.9,2.6,15.24,3.81,19.78,30.52,31.31,39.9,49.13s14.56,40.93,2.69,57.19c-13.8,18.89-44.56,17.41-62.55,2.46-8.88-7.37-14.47-17.87-22.75-24.44-11-8.7-20.38-9.07-27.73-24.31-25.32-52.53-28.89-114.47-13.35-170.68S443.17,433.09,487,394.56c8-7,17.38-14.07,28-13.55,15,.73,25.37,16.95,25.25,32-.16,18.95-12.87,29-18.51,44.93-6.69,18.88-4.58,44-3.11,63.68C521.91,565.72,523.25,597.12,546.05,635.11Z"/><path d="M558.05,614.58c-12.81-7.19-26.43-10.22-40.84-12.32-15.27-2.22-32.16-7.69-46.1,1.52-25.95,17.14-23.51,49-7.56,72.06,7.61,11,18.44,18.3,27.36,28,7.38,8.05,17.92,27.45,10.26,38.24-16,22.51-47.66-23.71-58.42-30.88-3.77-2.51-9.2-4.48-12.31-7.8-5.25-5.6-7.87-16.27-10.29-23.3a215,215,0,0,1-11.53-57A240.85,240.85,0,0,1,425.17,520.3c12.06-30.67,30.58-59.24,52.75-83.55,5.53-6.06,25.25-32,34-31.27,11.76.92-1.64,22.51-4.33,27.27-18.91,33.49-14.36,71.06-11.37,107.9,3.09,38,10,73.06,29.27,106.45,15.29,26.49,56.38,2.58,41-24-20.18-35-22.58-73.25-25-112.73-1-16.46-2.55-34.2,4.75-49.46,8.15-17.05,18.27-30.46,17.5-50.46-1.49-38.72-40.41-65.91-75.83-46-32.85,18.43-60.57,55.39-80.39,86.61-43.89,69.14-60,156.59-35.28,235.6,5.74,18.35,12.64,39.25,27.07,52.64,4.63,4.31,10.29,7.15,15.5,10.61,9.05,6,14.07,14.6,21.67,22.13,23.61,23.42,64,31,91.6,9.8,34.25-26.39,25.23-79-.43-108.16-5.8-6.59-12.76-12-19.05-18.09-5.76-5.57-5.81-11.47-10.05-17.32l-.72-2.09q3.47,10.86-9,9.7c.43.93,14.7,2.09,15.72,2.24,10,1.45,20.62,2.55,29.48,7.53C560.75,670.63,584.75,629.59,558.05,614.58Z"/><path d="M638.63,301.79c12.89-20,25.81-40.86,44.21-56.4,14.37-12.14,35.19-21.33,53.49-12.52,17,8.18,28.36,26.38,34.44,43.61,8.66,24.56,10.17,50.57,10.16,76.4,0,20.39,31.69,20.42,31.69,0,0-52.87-9-125.06-64.54-149.3-61.56-26.87-108.34,37.94-136.81,82.22-11.06,17.2,16.36,33.11,27.36,16Z"/><path d="M844.05,283.26c3.39-10.78,9-31.36,23-32.09,16.06-.85,27.53,17.59,33.25,30,16.4,35.65,17,79.78,6.38,117-5.63,19.65,24.94,28,30.55,8.43a207.58,207.58,0,0,0,6.74-79.8C941,301,934.84,273.23,919.8,251.42c-13.85-20.06-37-36.44-62.51-30.75-25.31,5.63-36.8,31.92-43.8,54.16-6.14,19.5,24.44,27.84,30.56,8.43Z"/><path d="M626.07,321.68c-.24,3.15.72-1.18-.12.27-1,1.66.93-1.6,1.15-1.9-1.8,2.43,1.2-.09-.24.46-1.77.67,1.49-.82,1.87-1-2.85,1.43.63,0,1.37-.14-1.87.36-1.2.84-.19.25-1.77-.34-2.08-.39-.91-.12a14.81,14.81,0,0,1,2.33.69c-1.4-.57.84.59,1,.7,8.74,5.12,16.72,17.82,22.94,27,7.22,10.62,14,21.95,17.78,34.08a62.44,62.44,0,0,1,3.31,17.12,60.48,60.48,0,0,1-.24,8.74c-.06.5-.63,2.79-.76,3.83l-.49,2q1.25-2.34-.16-.2l5.68-5.68-.89.65,8-2.16-1,.11,8,2.17-.6-.38,7.28,9.47-1.25,9.27-9.47,7.28.46-.17-15.42-4.07.47.43c6.27,5.83,16.2,6.21,22.41,0,5.89-5.89,6.29-16.56,0-22.4l-.47-.44c-3.93-3.65-10.08-6-15.42-4.08-11.84,4.3-17.54,19.85-7.8,29.6s24.77,3.8,29.57-7.77c7.06-17,4.19-38.7-1.87-55.52S687,337.34,676.3,322.9c-10.3-13.93-22-30.53-40.19-34.22-21.49-4.38-40.13,11.94-41.73,33-.65,8.55,7.75,15.85,15.85,15.85,9.11,0,15.19-7.28,15.84-15.85Z"/></svg>