<svg id="Layer_1" data-name="Layer 1" xmlns="http://www.w3.org/2000/svg" viewBox="0 0 1500 1500"><defs><style>.cls-1{fill:#92b4ff;}.cls-2{fill:#003fcc;}.cls-3{fill:#f2d3a5;}.cls-4{fill:#b5b5b5;}</style></defs><title>Kid Talk</title><ellipse class="cls-1" cx="750" cy="750" rx="693.68" ry="699.48"/><path class="cls-2" d="M273.35,1226.21s193,197.57,476.65,197.57,450-172.33,450-172.33-47.57-190.17-310-175S398.87,991.15,273.35,1226.21Z"/><path d="M256.61,1243c85.27,86.78,205,149.49,321.2,181.12,185.39,50.45,389.32,16.59,550.61-87.11,29.24-18.79,66.22-40.9,88.21-68.7,18.47-23.34-9.68-64.63-22.78-84.61-32.94-50.27-81.07-87-136.95-108.52-91.71-35.37-190.94-18.26-286.65-22-99.75-3.91-201.7-18.66-300.89-.9-96.85,17.35-169.69,76.63-216.45,162-14.64,26.74,26.23,50.66,40.88,23.9,38.78-70.83,95.17-120.32,175-137.68,76.82-16.7,158.12-8,235.8-3.41,44.41,2.64,88.86,5,133.36,4.65,46.48-.31,92.84-5.48,139.11,1.41,61.36,9.14,119.4,35.84,160.16,83.43,18.57,21.67,33.7,47,39.88,71.19l6.09-23c-71.79,73.87-177.34,122-275.58,146.33-181.45,44.94-367.71,5.18-522.6-96.57-33.48-22-66.77-46.32-95-75C268.7,1187.7,235.23,1221.19,256.61,1243Z"/><path class="cls-3" d="M571.92,953.33l-1,100c-.07,7.11,0,14.62,3.81,20.77,2.86,4.59,7.54,7.91,12.17,11,48.87,32.92,106.23,56.78,166.46,60.37s123.33-14.85,164.77-55.65c6.92-6.81,13.34-14.41,16.31-23.37,2.42-7.34,2.39-15.16,2.34-22.84q-.27-36.4-.52-72.82"/><path d="M548.25,953.33c-.32,33.28-1.48,66.68-1,100,.49,32.09,17.26,46.34,43.13,62.15,49.22,30.1,105.13,50.3,163,53.69,53.43,3.13,111-9.77,155.08-40.88,21.52-15.17,44.07-34.32,50.22-61.1,3.1-13.48,1.76-28.07,1.66-41.75L960,970.78c-.22-30.45-47.57-30.52-47.35,0,.19,26,2.06,52.63.52,78.6-1.22,20.46-21.76,34.21-38,44.21-36.29,22.32-79.51,30.63-121.72,28.19-45.28-2.62-89.36-18.64-128.51-41-8.06-4.6-19.48-9.51-26-16.16-7.15-7.3-4.17-18.94-4.07-29.21l.8-82.11c.29-30.48-47.05-30.5-47.35,0Z"/><path class="cls-3" d="M585.34,953.14c-168.68-126.91-195.61-386-48.59-540.64,68.87-72.42,168.88-112.1,267-106C894.66,312.23,985,359,1033.68,438.34c32,52.08,44.74,114.36,49.93,175.77,6.2,73.44,1.88,149.89-28.59,216.57-59.52,130.24-214.87,196.93-352.26,171.47C660.84,994.38,619.75,979,585.34,953.14Z"/><path d="M597.29,932.69c-199.35-153.58-167.48-493.37,76.94-583.1C801.07,303,958.57,342,1023.2,468c34.6,67.44,42,150.67,38.62,225.35-3.21,71.09-23.86,141.48-73.1,194.43-97.67,105-273.41,129.7-391.43,44.9-24.79-17.8-48.45,23.25-23.9,40.89,120.73,86.74,296.05,71.26,410.85-18,134.49-104.53,150.28-300.25,103-454C1039.38,345.8,882,261.29,724.05,287.49,577.1,311.88,457.55,428.06,426.39,573.14c-32.32,150.5,25.44,306.79,147,400.44C597.51,992.16,621.11,951.05,597.29,932.69Z"/><path d="M716.26,625.86c1.26-103.33-104.2-104.78-105.47-1.29C609.53,727.91,715,729.38,716.26,625.86Z"/><path d="M968.3,625.86c1.26-103.33-104.2-104.78-105.47-1.29C861.57,727.91,967,729.38,968.3,625.86Z"/><path d="M655.63,830.69c82.23,46.95,187.77,45.54,268.37-4.44,25.85-16,2.1-57-23.89-40.88-66.43,41.19-152.58,43.26-220.59,4.43-26.5-15.13-50.38,25.76-23.89,40.89Z"/><path class="cls-4" d="M606.9,395.33c19.84-43.24,33.26-79.37,25.34-84.55,15.4,10.08,17.11,26.68,29,37.93,10.32,9.76,31.67,17.65,44.58,24.26,31.55,16.16,62.8,27.42,98.82,26.7,28.88-.58,57.31-.6,83.94-13.36,9-4.33,60.6-37.23,53.92-51.06a2918,2918,0,0,1,143.24,353.87c29.76-70.61,40.88-152.06,14.61-224-20.36-55.76-61-101.33-100.75-145.42-16.21-18-32.66-36.16-52.91-49.42-19.77-12.94-42.47-20.71-65.36-26.55-132.16-33.73-283.73-.86-377.81,97.9-74.61,78.32-100.94,183-83.25,288,4.22,25,4.41,58.84,16.08,81.22-9.07-17.4,26.76-68.17,37-82.57,16.08-22.6,38.4-44.51,50.65-69.49C530.37,545.7,576.28,462.05,606.9,395.33Z"/><path d="M627.34,407.28c13.12-29,47-83,21.64-113.24L615.5,327.52c15.32,12.69,21,32.15,37.38,44.51,16.83,12.68,39,21.07,58.19,29.67,39.64,17.77,79,23.67,122.24,20.76,33.31-2.24,62.78-10.69,90-30.12,20.71-14.79,48.15-34.41,42-63.38L922.05,347.2A2954.54,2954.54,0,0,1,1062.9,695.42c7.83,23.53,37,21.24,45.66,0,39.4-96.92,42.86-204.25-14.12-295-25.68-40.9-59-78-92.15-112.87-35.78-37.64-77.16-58.65-127.67-69.78-176.22-38.85-378.91,34-454,206.49a359,359,0,0,0-29.29,148.19c.7,47.65,4.83,106.45,24.57,150.22,11,24.42,51.59,7.1,43.27-18.24-5.09-15.52,23.63-48.89,32.42-61.21,18.22-25.55,39.7-47.82,54.46-75.76,28-53,56.11-105.84,81.29-160.2,12.72-27.47-28.08-51.55-40.88-23.9C559.15,442.32,531,503.7,496.6,559c-17.94,28.87-42.44,53.21-60.47,82.21C423,662.3,405,691.17,413.52,717l43.27-18.24c-9.45-20.94-9.47-45.39-12.54-67.81-3.55-25.86-6.35-51.19-5.36-77.36,2-51.85,16.85-102.7,44.06-146.95C536,320.34,631.56,269,730.72,257.21A395.77,395.77,0,0,1,875,266.5c60,15.4,95.09,54.24,134.22,99.6,36.64,42.45,69.31,88.94,79,145.35,10,58.32-3.4,117.39-25.35,171.38h45.66A3053.67,3053.67,0,0,0,962.93,323.3c-12.15-25.27-48.57-6.76-43.27,18.25-3-14.37,3.45-7.73-3.64-3.94-4.11,2.18-7.76,7.19-11.56,10.16A170.48,170.48,0,0,1,881.81,363c-24.44,13.34-54.81,13.49-82,12.95-32.49-.64-60.31-13.07-89.09-26.83-14.65-7-28.48-11.74-38.39-24.95-8-10.72-12.64-21.28-23.32-30.13-23.49-19.47-53.19,10-33.48,33.48-5.36-6.39-1.11-8.56-5.57-4.68-2.94,2.56-4,13.33-5.31,17-5.19,14.85-11.68,29.21-18.16,43.52C574,410.92,614.77,435,627.34,407.28Z"/></svg>