<svg id="Layer_1" data-name="Layer 1" xmlns="http://www.w3.org/2000/svg" viewBox="0 0 1500 1500"><defs><style>.cls-1{fill:#92b4ff;}.cls-2{fill:#003fcc;}.cls-3{fill:#99501f;}.cls-4{fill:#b5b5b5;}</style></defs><title>Kid Talk</title><ellipse class="cls-1" cx="750" cy="749.6" rx="700.56" ry="706.42"/><path class="cls-2" d="M268.62,1230.54s195,199.52,481.38,199.52,454.42-174,454.42-174-48-192.06-313-176.76S395.39,993.14,268.62,1230.54Z"/><path d="M251.72,1247.44c86.11,87.65,207,151,324.38,182.92,187.23,51,393.19,16.75,556.07-88,29.53-19,66.88-41.31,89.08-69.38,18.66-23.58-9.77-65.28-23-85.46C1165,1136.78,1116.38,1099.72,1060,1078c-92.62-35.73-192.84-18.44-289.5-22.22-100.74-4-203.7-18.84-303.87-.9-97.81,17.51-171.38,77.38-218.6,163.63-14.79,27,26.49,51.16,41.29,24.13,39.16-71.52,96.11-121.51,176.76-139,77.58-16.87,159.69-8.1,238.14-3.44,44.85,2.66,89.74,5,134.69,4.69,46.93-.31,93.75-5.53,140.49,1.43,62,9.22,120.57,36.2,161.74,84.25,18.75,21.89,34,47.49,40.27,71.9l6.15-23.27c-72.49,74.6-179.1,123.21-278.31,147.78-183.25,45.39-371.35,5.23-527.78-97.52-33.81-22.21-67.43-46.79-95.89-75.75C263.93,1191.65,230.12,1225.47,251.72,1247.44Z"/><path class="cls-3" d="M570.16,955l-1,101c-.07,7.19,0,14.76,3.84,21,2.89,4.64,7.62,8,12.29,11.14,49.36,33.26,107.28,57.35,168.12,61s124.55-15,166.4-56.2c7-6.87,13.47-14.55,16.47-23.6,2.45-7.41,2.41-15.31,2.36-23.06q-.27-36.78-.53-73.54"/><path d="M546.25,955c-.33,33.61-1.5,67.34-1,101,.5,32.41,17.43,46.8,43.56,62.77,49.71,30.4,106.17,50.8,164.6,54.22,54,3.16,112-9.86,156.61-41.28,21.74-15.33,44.51-34.66,50.72-61.71,3.13-13.61,1.77-28.35,1.68-42.17q-.21-27.57-.4-55.15c-.22-30.76-48-30.83-47.81,0,.18,26.27,2.08,53.15.52,79.37-1.23,20.67-22,34.55-38.4,44.65-36.65,22.55-80.29,30.94-122.92,28.47-45.74-2.64-90.25-18.82-129.79-41.37-8.14-4.65-19.67-9.61-26.26-16.33-7.23-7.37-4.22-19.12-4.12-29.49l.81-82.93c.29-30.78-47.52-30.81-47.82,0Z"/><path class="cls-3" d="M583.71,954.75c-170.35-128.16-197.55-389.87-49.08-546,69.56-73.14,170.56-113.21,269.71-107,91.76,5.75,182.95,53,232.15,133.12,32.3,52.59,45.19,115.48,50.43,177.51,6.26,74.16,1.9,151.37-28.87,218.71-60.12,131.53-217,198.89-355.76,173.17C660,996.41,618.45,980.9,583.71,954.75Z"/><path d="M595.77,934.11C394.45,779,426.63,435.84,673.48,345.22c128.1-47,287.16-7.64,352.43,119.6,34.94,68.11,42.4,152.17,39,227.58-3.24,71.79-24.09,142.88-73.82,196.36-98.64,106.06-276.13,131-395.32,45.35-25-18-48.93,23.47-24.13,41.29,121.92,87.6,299,72,414.92-18.13C1122.39,851.71,1138.33,654,1090.63,498.81,1042.25,341.39,883.27,256,723.8,282.51,575.38,307.14,454.65,424.47,423.18,571,390.54,723,448.87,880.82,571.64,975.4,596,994.16,619.84,952.65,595.77,934.11Z"/><path d="M715.92,624.23c1.28-104.36-105.23-105.82-106.51-1.3C608.13,727.29,714.65,728.77,715.92,624.23Z"/><path d="M970.46,624.23c1.28-104.36-105.23-105.82-106.51-1.3C862.67,727.29,969.18,728.77,970.46,624.23Z"/><path d="M654.69,831.09c83,47.42,189.64,46,271-4.48,26.1-16.18,2.12-57.56-24.13-41.28C834.51,826.92,747.5,829,678.82,789.8c-26.76-15.28-50.88,26-24.13,41.29Z"/><path class="cls-4" d="M577.7,458.57c-49.4,66.35-61.56,135.71-72,214.74-2.42,18.32-100.25-24.23-109-42.5C375,585.42,415.77,496.15,433,455.16c5.15-12.28,12.5-25.87,25.56-28.58,20.08-4.13,84.4,24.67,108,30.69"/><path d="M557.05,446.51C522.26,493.9,502.57,549,491.9,606.45c-2.59,13.93-4.74,27.94-6.72,42q-.72,5.12-1.41,10.25l-.86,6.36q-1.46,7.77.56.93l1.11-3.19a18.53,18.53,0,0,1,10.91-8.61c-3.77,1.19,6.28-2.2,1-.29-1,.35-2.8-.18-3.77-.25,6.75.48.76,0-.69-.34-3.4-.9-6.81-1.66-10.19-2.67-7.1-2.12-18.44-6.4-22.15-8-7.79-3.37-15.45-7.09-22.9-11.17-3.37-1.84-6.72-3.75-10-5.8-1.78-1.11-10.82-8.1-6.25-4a40.19,40.19,0,0,0-3.41-3.08l-.94-1q3.39,4.72,1.92,2.52c-.18-.92-1.65-4-2.53-7.81-1.8-7.77-1.54-18.45-.34-28.49,4.92-41.24,24.27-87.15,40.39-121.16,2.43-5.14,5.54-8.91,8.67-13.19-.46.62,11.9-.52-2.73.72.72-.06,7.4.32,4.56,0-3.76-.39,3.93.77,3.65.71q4.53,1,9,2.16c5.75,1.52,11.42,3.29,17.07,5.14,21.49,7,42.4,16.33,64.26,22.16,29.76,7.95,42.46-38.17,12.71-46.11-22.36-6-43.73-15.53-65.73-22.65-24.44-7.89-52.3-16.17-74.29,2a67.1,67.1,0,0,0-14.5,17.27,89.84,89.84,0,0,0-4.68,9.17c-.4.87-5.57,13.13-3.13,7.35-5.19,12.26-10.44,24.5-15.4,36.86-10,25-19.3,50.64-24.38,77.16-5,25.84-8.26,57.48,5.35,81.5,8.86,15.64,27.7,25.45,43.15,33.32,23.8,12.13,97.79,49.52,109.54,3.48,4.64-18.16,5.19-38.08,8.52-56.58a521.37,521.37,0,0,1,12.31-53.68,313.69,313.69,0,0,1,48.74-98.77c7.65-10.41,1.75-26.67-8.58-32.71-12.13-7.1-25-1.86-32.71,8.58Z"/><path class="cls-4" d="M1063.43,542.42c7.88,48.55,11.41,98,16,147.29.26,2.74.94,6.08,3.19,6.64,1.34.33,2.69-.53,3.91-1.35,18.34-12.51,34.57-27.08,51.84-41.49,35.15-26.45-16.86-181.4-32.54-209.22-22.44-39.85-45.22.62-47.16,34.43C1057.43,500.78,1060.07,521.74,1063.43,542.42Z"/><path d="M1040.37,548.77c5.36,33.65,8.57,67.57,11.62,101.49,1.41,15.68.68,33.42,4.86,48.62,5.17,18.77,25.24,26.47,41.77,16.76,13.75-8.07,26.27-19.61,38.44-29.82,9.09-7.63,19.63-14.63,26.28-24.68,8.5-12.84,10.67-29.11,10.91-44.18.63-38.57-9.88-78.22-21-114.84-4.66-15.26-9.77-30.41-15.7-45.23-6.71-16.77-13.73-34.89-29.15-45.66-29.28-20.47-56,5.69-66.43,32.55-12.83,33.13-7,71-1.55,105,2,12.76,18,19.85,29.41,16.7,13.59-3.73,18.74-16.61,16.7-29.41-3.07-19.27-5.84-39.64-3.73-59.17A67.26,67.26,0,0,1,1087,459c1.23-3,3.38-5.58,4.68-8.51-.59,1.33.08-2.17,1.76-1.57,1.12.4-11.38,3-10.47,2.23-1.3,1.06,1.88,4.37,3.55,7.58,1.54,2.95,2.86,6,4.2,9.06.39.88-1.35-3.52.34.92.84,2.19,1.73,4.36,2.57,6.54,1.9,4.95,3.7,9.94,5.45,14.94a630.11,630.11,0,0,1,20,69.75c5.18,23.23,8.08,40.43,7,64.52-.25,5.65.59-1.27-.29,2.43-.54,2.29-1.18,4.57-1.74,6.86-.91,3.76,2.25-3.49-.43.79-2.5,4,3.25-1.5-.59.75-8.45,4.93-15.87,13.46-23.42,19.75-8.61,7.16-17.33,14.76-27,20.41l12.07-3.26-2,.24,12.06,3.27-1.76-1.36,11,14.28c-3.83-9.67-2.76-23.07-3.69-33.44-1.18-13.14-2.36-26.28-3.67-39.41-2.66-26.66-5.88-53.26-10.1-79.72-2-12.76-18-19.85-29.41-16.7C1043.48,523.1,1038.33,536,1040.37,548.77Z"/><path class="cls-4" d="M782.33,386.13c20.23,16.28,48.9,15.21,74.8,13.33,10.23-.74,20.77-1.56,30-6.11,12.82-6.35,21.18-19,28.47-31.29,8.62-14.52,16.82-30.09,17.52-47,1.06-25.72-16.18-49.61-38.26-62.85s-48.32-17.58-74-19.73c-94.1-7.87-179.76,34.69-227.09,118.43,30.11-13.62,87.27-43.69,121.17-35C747.28,324.18,758.52,367,782.33,386.13Z"/><path d="M770.27,406.78c19.8,14.43,44.42,18,68.42,17.55,24.92-.51,51.59-1.7,71.72-18.05,37.67-30.59,59.56-90.61,35.44-134.93-26.29-48.3-84.49-61.08-135.06-63.4A266.57,266.57,0,0,0,681.9,234.61c-46.11,22.54-83.25,60.1-108.79,104.26-12.83,22.17,12,42.16,32.71,32.71,28.77-13.13,65.1-36.05,97.89-33.27,14.21,1.21,22.41,13.27,29.91,24.25,9.67,14.16,18.7,29.17,31.81,40.48,23.19,20,57.16-13.67,33.81-33.81-15.87-13.7-24.79-33.49-38.15-49.42-13.79-16.46-31.88-27.38-53.5-29.06-43.88-3.43-87.38,22-125.91,39.54L614.39,363c43.12-74.53,121-113.53,206.45-106.58,41.23,3.36,107.3,24.79,82.29,78.69-4.43,9.55-10,19.66-16.64,27.92-8,10-17,11.59-29.36,12.53-21.83,1.65-44.21,3.42-62.73-10.07C769.5,347.34,745.62,388.81,770.27,406.78Z"/></svg>