<svg id="Layer_1" data-name="Layer 1" xmlns="http://www.w3.org/2000/svg" viewBox="0 0 1500 1500"><defs><style>.cls-1{fill:#92b4ff;}.cls-2{fill:#003fcc;}.cls-3{fill:#b5b5b5;}.cls-4{fill:#f4b5a6;}.cls-5{fill:#968c8a;}</style></defs><title>Kid Talk</title><ellipse class="cls-1" cx="750" cy="750" rx="693.77" ry="699.58"/><path class="cls-2" d="M273.29,1226.28S466.36,1423.87,750,1423.87s450-172.35,450-172.35-47.58-190.2-310-175S398.82,991.18,273.29,1226.28Z"/><path d="M256.54,1243c85.29,86.79,205,149.51,321.25,181.14,185.41,50.46,389.37,16.59,550.68-87.12,29.24-18.8,66.23-40.91,88.22-68.7,18.47-23.35-9.68-64.65-22.77-84.63-33-50.28-81.09-87-137-108.54-91.73-35.37-191-18.25-286.7-22-99.76-3.91-201.73-18.66-300.92-.89-96.87,17.34-169.73,76.63-216.49,162-14.64,26.74,26.24,50.66,40.89,23.9,38.78-70.84,95.18-120.34,175-137.7,76.83-16.71,158.15-8,235.83-3.41,44.42,2.64,88.88,4.94,133.39,4.65,46.48-.31,92.84-5.48,139.12,1.41,61.37,9.14,119.41,35.85,160.18,83.44,18.57,21.68,33.7,47,39.89,71.2l6.08-23c-71.79,73.87-177.36,122-275.61,146.34-181.47,45-367.76,5.18-522.67-96.58-33.49-22-66.78-46.33-95-75C268.63,1187.76,235.16,1221.25,256.54,1243Z"/><path class="cls-3" d="M1037,448.17c117.85,13.39,177.27,227.4,74.55,294.26"/><path d="M1037,471.85c49.45,6.31,84.45,61.52,97.15,109.69,12.85,48.73,9.2,111.1-34.55,140.44-25.18,16.89-1.5,57.93,23.9,40.89,98.52-66.08,74.33-224.77-2.62-298.19-23.56-22.48-51.66-36.07-83.88-40.18-12.71-1.63-23.68,12-23.68,23.67,0,14.14,10.93,22.05,23.68,23.68Z"/><path class="cls-4" d="M571.9,953.35l-1,100c-.07,7.12,0,14.62,3.8,20.77,2.87,4.59,7.55,7.92,12.17,11,48.89,32.94,106.25,56.79,166.49,60.38s123.35-14.85,164.8-55.65c6.92-6.82,13.34-14.42,16.3-23.38,2.43-7.34,2.4-15.16,2.34-22.84q-.26-36.41-.52-72.83"/><path d="M548.22,953.35c-.32,33.29-1.48,66.7-1,100,.49,32.1,17.27,46.34,43.14,62.16,49.23,30.1,105.15,50.31,163,53.7,53.43,3.13,111-9.77,155.1-40.89,21.53-15.17,44.07-34.32,50.23-61.11,3.1-13.47,1.76-28.07,1.66-41.76L960,970.81c-.22-30.46-47.57-30.53-47.36,0,.19,26,2.07,52.64.52,78.61-1.21,20.47-21.76,34.22-38,44.22-36.3,22.32-79.52,30.63-121.74,28.19-45.29-2.61-89.37-18.64-128.52-41-8.07-4.61-19.49-9.51-26-16.17-7.15-7.3-4.17-18.94-4.07-29.21l.8-82.13c.29-30.48-47.06-30.5-47.36,0Z"/><path class="cls-4" d="M585.32,953.16c-168.7-126.92-195.64-386.1-48.6-540.71,68.88-72.43,168.91-112.12,267.09-106C894.68,312.17,985,359,1033.72,438.3c32,52.08,44.75,114.37,49.93,175.79,6.21,73.45,1.89,149.91-28.59,216.6-59.53,130.26-214.9,197-352.31,171.5C660.83,994.42,619.73,979.05,585.32,953.16Z"/><path d="M597.27,932.72c-199.38-153.6-167.51-493.44,77-583.19C801.08,303,958.6,342,1023.24,468c34.6,67.45,42,150.7,38.62,225.38-3.21,71.1-23.86,141.5-73.11,194.46-97.68,105-273.45,129.72-391.48,44.91-24.79-17.81-48.46,23.24-23.9,40.89,120.74,86.75,296.09,71.27,410.9-18,134.51-104.55,150.3-300.3,103.06-454C1039.42,345.74,882,261.22,724.05,287.43c-147,24.39-266.54,140.59-297.7,285.69-32.33,150.51,25.44,306.82,147,400.49C597.49,992.19,621.1,951.08,597.27,932.72Z"/><path d="M716.25,625.85c1.27-103.36-104.21-104.8-105.48-1.3S715,729.37,716.25,625.85Z"/><path d="M968.33,625.85c1.26-103.36-104.22-104.8-105.48-1.3S967.06,729.37,968.33,625.85Z"/><path class="cls-3" d="M546.83,635.94c-13.84-9.07-39.1-9.64-55.32-13-7.1-1.45-11.53,6.93-15.55,13-2.44,3.66,1.76,10.87,2.59,15.19,3.79,19.7,30.4,31.19,39.74,48.94s14.51,40.77,2.68,57c-13.75,18.82-44.39,17.35-62.31,2.45-8.84-7.34-14.41-17.8-22.66-24.35-10.93-8.67-20.3-9-27.62-24.21-25.23-52.33-28.78-114-13.31-170S444.35,434.7,488,396.32c8-7,17.31-14,27.9-13.5,14.93.72,25.27,16.89,25.15,31.83-.15,18.89-12.82,28.89-18.44,44.76-6.65,18.81-4.56,43.85-3.09,63.44C522.78,566.82,524.11,598.11,546.83,635.94Z"/><path d="M558.78,615.5c-12.75-7.17-26.33-10.19-40.68-12.28-15.21-2.21-32-7.66-45.92,1.51-25.85,17.08-23.42,48.78-7.53,71.79,7.58,11,18.37,18.23,27.25,27.94,7.35,8,17.86,27.35,10.22,38.09-15.94,22.43-47.48-23.62-58.19-30.76-3.76-2.5-9.17-4.46-12.27-7.77-5.22-5.57-7.83-16.2-10.25-23.21a214.16,214.16,0,0,1-11.48-56.74,239.61,239.61,0,0,1,16.49-102.49c12-30.56,30.46-59,52.55-83.23,5.5-6,25.14-31.85,33.9-31.16,11.71.93-1.63,22.43-4.31,27.17-18.83,33.37-14.3,70.79-11.32,107.48,3.07,37.89,9.94,72.79,29.15,106,15.23,26.39,56.17,2.57,40.89-23.9-20.11-34.82-22.5-73-24.93-112.3-1-16.39-2.54-34.06,4.73-49.27,8.12-17,18.2-30.34,17.44-50.27C563,373.59,524.26,346.5,489,366.3c-32.72,18.36-60.33,55.18-80.07,86.28-43.73,68.88-59.79,156-35.16,234.7,5.72,18.28,12.6,39.09,27,52.44,4.62,4.29,10.25,7.12,15.44,10.56,9,6,14,14.55,21.59,22.05,23.52,23.33,63.81,30.91,91.25,9.77,34.12-26.3,25.14-78.72-.42-107.75-5.79-6.57-12.72-12-19-18-5.73-5.55-5.78-11.42-10-17.26l-.71-2.08q3.45,10.83-9,9.67c.43.92,14.65,2.08,15.66,2.22,9.93,1.45,20.55,2.55,29.37,7.51C561.48,671.33,585.38,630.44,558.78,615.5Z"/><path d="M639.06,303.9c12.83-20,25.71-40.71,44-56.18,14.31-12.09,35-21.25,53.28-12.47,17,8.15,28.25,26.28,34.31,43.44,8.63,24.47,10.13,50.38,10.12,76.1,0,20.32,31.57,20.35,31.57,0,0-52.66-9-124.57-64.29-148.72C686.76,179.3,640.16,243.86,611.8,288c-11,17.14,16.3,33,27.26,15.93Z"/><path d="M843.69,285.44c3.38-10.74,9-31.24,22.87-32,16-.84,27.42,17.53,33.12,29.93C916,318.91,916.66,362.88,906,400c-5.61,19.56,24.84,27.92,30.44,8.39a206.78,206.78,0,0,0,6.71-79.49c-2.88-25.82-9-53.44-24-75.16-13.79-20-36.87-36.3-62.28-30.64-25.2,5.62-36.65,31.8-43.62,54-6.12,19.42,24.35,27.73,30.44,8.39Z"/><path d="M626.55,323.72c-.24,3.13.71-1.17-.13.26-1,1.66.93-1.59,1.15-1.89-1.79,2.42,1.2-.09-.23.46-1.77.66,1.47-.82,1.85-1-2.83,1.43.63,0,1.37-.14-1.86.36-1.19.85-.19.25-1.77-.34-2.07-.38-.91-.12a16,16,0,0,1,2.33.69c-1.4-.56.83.59,1,.7,8.71,5.1,16.66,17.75,22.85,26.87,7.19,10.58,13.9,21.86,17.72,33.94a62.36,62.36,0,0,1,3.29,17.06,57.38,57.38,0,0,1-.24,8.71c-.06.5-.62,2.78-.75,3.81l-.49,2c.83-1.55.78-1.62-.16-.19l5.66-5.66-.89.64,8-2.15-1,.11,8,2.16-.61-.37,7.26,9.43-1.25,9.23-9.43,7.25.45-.16-15.35-4.06.46.43c6.25,5.81,16.14,6.19,22.33,0,5.87-5.87,6.26-16.49,0-22.32l-.47-.43c-3.91-3.64-10-6-15.36-4.06-11.8,4.28-17.47,19.77-7.77,29.48s24.67,3.78,29.46-7.74c7-16.93,4.17-38.55-1.87-55.31s-15.32-32.24-26-46.63c-10.27-13.88-22-30.41-40-34.09-21.41-4.36-40,11.9-41.57,32.88-.65,8.51,7.71,15.78,15.78,15.78,9.08,0,15.14-7.25,15.79-15.78Z"/><path d="M674,835.41c31.11,22.91,70,35.61,108.74,34.34,40.9-1.34,78.08-17.13,109.77-42.47,10-8,8.34-25.15,0-33.49-9.87-9.87-23.46-8-33.48,0-48.52,38.79-112.17,36.78-161.13.73-10.3-7.59-26.42-1.72-32.39,8.5-7,12-1.84,24.78,8.49,32.39Z"/><path d="M674,835.41c31.11,22.91,70,35.61,108.73,34.34,40.9-1.34,78.08-17.13,109.78-42.47,10-8,8.33-25.15,0-33.49-9.88-9.87-23.47-8-33.49,0-48.51,38.79-112.17,36.78-161.12.73-10.31-7.59-26.43-1.72-32.4,8.5-7,12-1.83,24.78,8.5,32.39Z"/><path class="cls-5" d="M1022.21,755.72c8.32-14.67,20.17-29.13,37.25-33.11,19.48-4.54,39.63,6.43,49.81,23,42.88,69.78-32.5,156.14-80.32,200-33.21,30.47-75.13,61.54-117.83,75.75-22.83,7.61-45.58,10.7-68.41,18.37-26.07,8.75-54.55,11.11-81.88,9.43-33.44-2.06-71.69-7.08-104.08-16.35C594.42,1015,513.55,981.19,479.86,923c-21.05-36.38-57.27-80.85-54.14-129.5,4.37-68.09,74.53-83.41,116.56-27.67,24.68,32.74,31.22,80.4,63.62,105.43,3.19,2.47,6.37,5,9.56,7.26,23.22,16.61,47.21,32.42,73,44.67C735,945.19,786.76,953,835.55,933.91c42.75-16.69,85.94-33.84,120.53-65C987.5,840.49,1001.3,792.6,1022.21,755.72Z"/><path class="cls-5" d="M523.46,843.56c38.4-11.06,70.94-36.77,105-56.64,18.57-10.81,39-25.37,60.82-27.47,20.76-2,39.86,2.19,58.72,10.47,17.71,7.77,34.53,9.54,53.43,5,22.84-5.47,43.19-17.89,67.15-18.63,51-1.57,92.73,33.34,127,67.09,14.48,14.28,36.82-8,22.32-22.32-34.2-33.73-73.6-66-122.39-74.22A136,136,0,0,0,826.59,733c-11.12,3.9-22,8.76-33.51,11.5-15,3.56-26.09-.83-39.63-6.72-39.74-17.3-80.31-11.28-117.32,8.58-39.68,21.3-77.46,54.21-121.06,66.77-19.49,5.61-11.2,36.09,8.39,30.44Z"/><path d="M434.84,728.9c-34.95,77.81,2.56,147.66,52.51,208.61,49.21,60,118.08,96.83,194.64,108s166.18,7.08,240.46-15.48c70.29-21.36,124.11-70.57,165.33-130,33-47.68,88.13-173.53-1-197.68-29.45-8-42,37.7-12.59,45.67,34,9.21-.55,83.26-9.44,99.43-16.86,30.64-38.87,58.26-64,82.55-58.51,56.66-134.6,67.83-212.91,71.52-73.66,3.48-147.3-2-210.32-44.32-58.5-39.25-135.29-129.91-101.84-204.37,12.38-27.57-28.41-51.68-40.89-23.9Z"/></svg>