<svg id="Layer_1" data-name="Layer 1" xmlns="http://www.w3.org/2000/svg" viewBox="0 0 1500 1500"><defs><style>.cls-1{fill:#92b4ff;}.cls-2{fill:#003fcc;}.cls-3{fill:#f2d3a5;}.cls-4{fill:#b5b5b5;}.cls-5{fill:#968c8a;}</style></defs><title>Kid Talk</title><ellipse class="cls-1" cx="750" cy="749.6" rx="692.77" ry="698.57"/><path class="cls-2" d="M274,1225.2s192.79,197.3,476,197.3,449.37-172.09,449.37-172.09-47.51-189.93-309.56-174.81S399.33,990.44,274,1225.2Z"/><path d="M257.25,1241.91C342.41,1328.58,462,1391.21,578,1422.8c185.14,50.39,388.81,16.56,549.88-87,29.21-18.78,66.14-40.86,88.1-68.62,18.45-23.31-9.66-64.54-22.74-84.5-32.9-50.21-81-86.86-136.77-108.38-91.6-35.33-190.7-18.23-286.29-22-99.62-3.91-201.44-18.63-300.49-.9C373,1068.77,300.25,1128,253.56,1213.26c-14.63,26.71,26.19,50.6,40.83,23.87,38.72-70.74,95-120.16,174.8-137.5,76.71-16.68,157.91-8,235.49-3.4,44.35,2.63,88.75,4.93,133.19,4.64,46.42-.31,92.72-5.48,138.93,1.4,61.27,9.13,119.24,35.8,160,83.33,18.54,21.64,33.65,47,39.82,71.09l6.08-23c-71.69,73.76-177.11,121.83-275.22,146.13-181.21,44.89-367.23,5.17-521.92-96.44-33.44-22-66.68-46.26-94.82-74.9C269.33,1186.74,235.9,1220.18,257.25,1241.91Z"/><path class="cls-3" d="M572.15,952.67l-1,99.83c-.06,7.1,0,14.6,3.8,20.74,2.86,4.59,7.54,7.91,12.16,11,48.81,32.88,106.09,56.7,166.25,60.29S876.56,1129.72,918,1089c6.91-6.8,13.32-14.39,16.28-23.34,2.42-7.33,2.39-15.14,2.33-22.81q-.25-36.36-.52-72.72"/><path d="M548.51,952.67c-.32,33.24-1.48,66.6-1,99.83.5,32,17.24,46.27,43.08,62.07,49.16,30.06,105,50.24,162.77,53.62,53.35,3.12,110.8-9.76,154.88-40.83,21.49-15.15,44-34.27,50.15-61,3.09-13.46,1.75-28,1.66-41.7l-.39-54.54c-.22-30.42-47.51-30.49-47.29,0,.19,26,2.06,52.56.52,78.49-1.22,20.44-21.74,34.17-38,44.16-36.24,22.29-79.4,30.59-121.56,28.15-45.23-2.61-89.24-18.61-128.34-40.92-8.06-4.59-19.46-9.49-26-16.14-7.14-7.29-4.17-18.91-4.07-29.17l.8-82c.29-30.44-47-30.47-47.29,0Z"/><path class="cls-3" d="M585.55,952.48C417.1,825.74,390.2,566.93,537,412.54c68.78-72.33,168.66-112,266.7-105.82,90.75,5.68,180.93,52.42,229.58,131.63,31.94,52,44.68,114.21,49.87,175.54,6.19,73.35,1.88,149.69-28.56,216.28C995.18,960.25,840,1026.86,702.82,1001.43,661,993.67,619.91,978.33,585.55,952.48Z"/><path d="M597.49,932.06c-199.1-153.38-167.27-492.73,76.84-582.35C801,303.2,958.3,342.15,1022.85,468c34.55,67.36,41.93,150.48,38.56,225.06-3.2,71-23.82,141.29-73,194.17-97.54,104.88-273.06,129.54-390.92,44.85-24.76-17.78-48.39,23.21-23.87,40.83,120.57,86.63,295.67,71.17,410.31-17.93C1118.26,850.57,1134,655.1,1086.85,501.6,1039,345.92,881.79,261.53,724.09,287.7,577.32,312.05,457.93,428.08,426.81,573c-32.28,150.3,25.41,306.39,146.81,399.92C597.71,991.45,621.28,950.39,597.49,932.06Z"/><path d="M716.3,625.63C717.57,522.42,612.24,521,611,624.34,609.71,727.54,715,729,716.3,625.63Z"/><path d="M968,625.63C969.28,522.42,864,521,862.69,624.34,861.42,727.54,966.75,729,968,625.63Z"/><path class="cls-4" d="M607.08,395.4c19.82-43.19,33.22-79.27,25.31-84.45,15.39,10.07,17.09,26.65,29,37.88,10.3,9.75,31.63,17.63,44.52,24.24,31.51,16.13,62.72,27.38,98.69,26.66,28.84-.58,57.24-.6,83.83-13.34,9-4.33,60.52-37.19,53.85-51a2914.46,2914.46,0,0,1,143,353.42c29.73-70.53,40.84-151.87,14.59-223.77-20.32-55.68-60.93-101.19-100.62-145.22-16.18-18-32.61-36.12-52.83-49.36-19.74-12.93-42.42-20.69-65.28-26.52-132-33.69-283.36-.86-377.32,97.77C429.32,419.94,403,524.49,420.69,629.29c4.21,25,4.4,58.76,16.06,81.11-9.06-17.37,26.72-68.07,37-82.46,16.06-22.57,38.35-44.45,50.59-69.4C530.66,545.57,576.5,462,607.08,395.4Z"/><path d="M627.5,407.33c13.1-28.93,46.94-82.92,21.61-113.09l-33.43,33.43C631,340.35,636.62,359.78,653,372.12c16.82,12.67,39,21.05,58.12,29.64,39.59,17.74,78.93,23.63,122.08,20.73,33.27-2.24,62.7-10.68,89.89-30.08,20.68-14.77,48.08-34.36,41.95-63.3l-43.22,18.22a2949.19,2949.19,0,0,1,140.67,347.76c7.82,23.51,37,21.22,45.6,0,39.36-96.79,42.81-204-14.09-294.6-25.65-40.84-58.9-77.86-92-112.71-35.74-37.59-77.07-58.58-127.51-69.7C698.47,179.28,496,252,421.05,424.3a358.31,358.31,0,0,0-29.25,148c.69,47.58,4.82,106.31,24.54,150,11,24.38,51.51,7.09,43.21-18.22-5.09-15.49,23.59-48.83,32.37-61.13,18.21-25.51,39.65-47.76,54.39-75.66,27.94-52.88,56-105.71,81.19-160,12.71-27.43-28-51.48-40.83-23.87-27.27,58.86-55.42,120.16-89.74,175.36C479,587.66,454.55,612,436.54,640.92,423.42,662,405.48,690.85,414,716.68l43.22-18.21c-9.44-20.92-9.45-45.34-12.52-67.72-3.55-25.83-6.35-51.13-5.35-77.26,2-51.79,16.83-102.57,44-146.76,53-86.23,148.42-137.53,247.45-149.28a395.19,395.19,0,0,1,144.11,9.29c60,15.37,95,54.16,134,99.46,36.58,42.4,69.22,88.82,78.9,145.16,10,58.25-3.39,117.24-25.32,171.16h45.6A3048.12,3048.12,0,0,0,962.65,323.46c-12.13-25.24-48.5-6.75-43.21,18.22-3-14.35,3.44-7.71-3.64-3.94-4.1,2.19-7.74,7.19-11.54,10.15a169.07,169.07,0,0,1-22.62,15.21c-24.41,13.32-54.74,13.48-81.93,12.94-32.45-.64-60.22-13.05-89-26.8-14.63-7-28.44-11.72-38.34-24.92-8-10.7-12.62-21.24-23.29-30.08-23.46-19.45-53.12,10-33.43,33.43-5.36-6.38-1.12-8.55-5.57-4.67-2.93,2.56-4,13.32-5.3,17-5.18,14.83-11.67,29.17-18.14,43.47C574.21,411,615,435,627.5,407.33Z"/><path d="M673.38,834.89c31.07,22.87,69.9,35.56,108.58,34.29,40.84-1.34,78-17.11,109.62-42.41,10-8,8.32-25.11,0-33.44-9.86-9.86-23.43-8-33.44,0-48.44,38.74-112,36.73-160.89.73-10.29-7.58-26.39-1.72-32.35,8.48-7,12-1.83,24.76,8.48,32.35Z"/><path class="cls-5" d="M1021.11,755.32c8.3-14.65,20.14-29.1,37.19-33.07,19.46-4.54,39.58,6.42,49.74,23,42.82,69.68-32.46,155.91-80.2,199.72-33.16,30.43-75,61.45-117.66,75.65-22.81,7.59-45.52,10.68-68.32,18.33-26,8.75-54.46,11.1-81.75,9.42-33.4-2-71.59-7.06-103.94-16.32-62.24-17.81-143-51.54-176.64-109.69-21-36.33-57.18-80.73-54.06-129.32,4.36-68,74.43-83.29,116.39-27.63,24.65,32.69,31.19,80.28,63.54,105.28,3.18,2.46,6.35,5,9.54,7.25,23.18,16.58,47.14,32.37,72.93,44.61,46.39,22,98.12,29.78,146.84,10.75,42.69-16.67,85.82-33.79,120.36-65C986.45,840,1000.23,792.14,1021.11,755.32Z"/><path class="cls-5" d="M523.07,843c38.35-11,70.84-36.71,104.89-56.56,18.54-10.8,38.9-25.33,60.74-27.43,20.73-2,39.8,2.18,58.63,10.45,17.68,7.76,34.48,9.53,53.35,5,22.81-5.47,43.13-17.87,67.06-18.61,51-1.57,92.59,33.3,126.77,67,14.46,14.26,36.76-8,22.29-22.29-34.16-33.68-73.51-65.9-122.22-74.11a135.72,135.72,0,0,0-68.81,6.13c-11.11,3.9-22,8.75-33.47,11.48-14.93,3.55-26-.82-39.57-6.71-39.68-17.27-80.2-11.26-117.15,8.57-39.63,21.27-77.35,54.13-120.89,66.67-19.45,5.61-11.18,36,8.38,30.4Z"/><path d="M434.58,728.54c-34.9,77.7,2.56,147.45,52.43,208.3,49.15,60,117.92,96.7,194.36,107.84s166,7.07,240.12-15.46c70.19-21.33,123.94-70.47,165.09-129.83,33-47.61,88-173.28-1-197.39-29.41-8-41.95,37.63-12.57,45.59,34,9.2-.54,83.15-9.43,99.3-16.83,30.59-38.81,58.17-63.86,82.43-58.42,56.57-134.4,67.72-212.59,71.41-73.56,3.47-147.09-2-210-44.26C518.69,917.29,442,826.75,475.41,752.4c12.37-27.53-28.37-51.61-40.83-23.86Z"/></svg>