<svg id="Layer_1" data-name="Layer 1" xmlns="http://www.w3.org/2000/svg" viewBox="0 0 1500 1500"><defs><style>.cls-1{fill:#92b4ff;}.cls-2{fill:#003fcc;}.cls-3{fill:#d88d3d;}.cls-4{fill:#b5b5b5;}.cls-5{fill:#c9c9c9;}</style></defs><title>Kid Talk</title><ellipse class="cls-1" cx="750" cy="750" rx="690.89" ry="696.68"/><path class="cls-2" d="M275.26,1224.3S467.53,1421.07,750,1421.07s448.15-171.63,448.15-171.63S1150.77,1060,889.43,1075.12,400.28,990.18,275.26,1224.3Z"/><path d="M258.59,1241c84.93,86.44,204.16,148.89,319.91,180.4,184.64,50.25,387.76,16.52,548.4-86.76,29.12-18.72,65.95-40.74,87.86-68.42,18.39-23.26-9.64-64.38-22.68-84.28-32.81-50.07-80.75-86.62-136.41-108.09-91.34-35.23-190.17-18.18-285.5-21.91-99.35-3.89-200.9-18.58-299.68-.89-96.47,17.28-169,76.32-215.59,161.38-14.58,26.63,26.13,50.46,40.72,23.8,38.62-70.54,94.79-119.83,174.33-137.12,76.51-16.64,157.49-8,234.85-3.4,44.23,2.63,88.51,4.92,132.83,4.63,46.29-.31,92.47-5.46,138.55,1.4,61.11,9.1,118.92,35.7,159.52,83.1,18.49,21.59,33.56,46.83,39.71,70.9l6.07-22.94c-71.5,73.57-176.63,121.5-274.47,145.74-180.73,44.76-366.24,5.15-520.51-96.18-33.35-21.9-66.5-46.14-94.56-74.7C270.63,1186,237.29,1219.3,258.59,1241Z"/><path class="cls-3" d="M572.64,952.51l-1,99.57c-.07,7.08,0,14.55,3.79,20.68,2.85,4.57,7.52,7.88,12.12,11,48.68,32.8,105.81,56.56,165.8,60.13s122.83-14.79,164.11-55.42c6.89-6.79,13.29-14.36,16.24-23.28,2.41-7.31,2.38-15.1,2.33-22.75q-.27-36.26-.52-72.52"/><path d="M549.06,952.51c-.32,33.15-1.48,66.42-1,99.57.49,32,17.2,46.14,43,61.9,49,30,104.71,50.1,162.33,53.47,53.21,3.11,110.5-9.73,154.46-40.72,21.43-15.11,43.89-34.18,50-60.85,3.09-13.42,1.75-28,1.66-41.59l-.39-54.39c-.22-30.34-47.38-30.4-47.16,0,.19,25.91,2,52.42.52,78.28-1.21,20.38-21.68,34.07-37.87,44-36.15,22.24-79.19,30.51-121.23,28.08-45.11-2.61-89-18.56-128-40.81-8-4.58-19.41-9.46-25.91-16.1-7.12-7.27-4.16-18.85-4.06-29.08l.8-81.79c.29-30.35-46.87-30.38-47.16,0Z"/><path class="cls-3" d="M586,952.32c-168-126.39-194.82-384.5-48.4-538.47,68.6-72.13,168.21-111.65,266-105.53C894.08,314,984,360.6,1032.54,439.59c31.86,51.87,44.56,113.9,49.73,175.07,6.18,73.14,1.88,149.28-28.47,215.69-59.29,129.72-214,196.15-350.86,170.79C661.2,993.4,620.27,978.1,586,952.32Z"/><path d="M597.9,932C399.35,779,431.09,440.57,674.53,351.19c126.34-46.38,283.2-7.53,347.58,118,34.45,67.17,41.81,150.07,38.46,224.45-3.2,70.8-23.76,140.91-72.81,193.65C890.48,991.83,715.45,1016.42,597.9,932c-24.69-17.73-48.25,23.15-23.8,40.72,120.24,86.39,294.86,71,409.2-17.88,134-104.1,149.67-299,102.63-452.13-47.71-155.25-204.5-239.42-361.77-213.32-146.37,24.28-265.44,140-296.47,284.5C395.49,723.74,453,879.41,574.1,972.68,598.12,991.19,621.63,950.24,597.9,932Z"/><path d="M716.39,626.36c1.26-102.92-103.78-104.36-105-1.29S715.13,729.46,716.39,626.36Z"/><path d="M967.42,626.36c1.26-102.92-103.78-104.36-105-1.29S966.16,729.46,967.42,626.36Z"/><path class="cls-4" d="M759,358.76c-28.73,17.85-53.23,41.64-77.47,65.23L560.05,542.22c-2.92,2.84-6,5.75-9.78,7.15-6.06,2.21-12.75.18-18.87-1.84-19.84-6.55-69.42-34.15-85.46-7.48-5.82,9.67-5.53,21.69-5.06,33q2.14,51.32,4.28,102.64c-15.76-57.25-80.81-97-79.53-156.32.31-14.72,4.94-29,10.79-42.54,32.32-74.69,117.71-129.71,179.93-178.56,67.11-52.69,155.59-75.16,240.6-67.83,30.54,2.63,126.16,17.72,113.11,64.3C901.6,324.92,787.48,341.08,759,358.76Z"/><path d="M747.11,338.4c-43.57,28.22-79.41,66.16-116.41,102.17L570,499.68c-7.3,7.1-19.87,24.48-29.43,25.49-6.46.68-16.61-5.8-22.32-8.06-28.52-11.26-67.17-22-89.23,6.66-14.28,18.53-11.94,42.6-11,64.64l3.63,87.25,46.32-6.27c-9.89-31.66-29.17-56.63-48.52-83-20.63-28.1-37.34-55.42-25-90.93,24.44-70.37,96.14-117.62,152.72-160.59,64.73-49.16,131.58-81.34,214.55-82.21,26.24-.28,52.12,2.27,77.58,8.66,12.74,3.2,46.25,9.84,48.29,25.8.32,2.5.51.21,1.1-1.18-.78,1.86-4.59,3.74-6.33,4.74a134.09,134.09,0,0,1-15.08,7.4c-14.07,5.83-29,9.94-43.55,14.2-25.44,7.4-53.28,12.89-76.54,26.12-26.37,15-2.64,55.76,23.81,40.72,25.65-14.59,58.42-18.8,86.35-27.72,24.17-7.73,57.56-17.14,71.29-40.77,36.88-63.44-62.73-93.87-105.45-100.51C738,196.88,647.23,212.73,573.38,257.8c-37.31,22.77-72.07,52.21-106.22,79.46-34.4,27.45-67.48,57.4-92.36,94-27,39.71-42.61,87.38-23.26,133.52,17.81,42.47,57,72.85,70.89,117.12,7.66,24.53,47.46,21.27,46.31-6.26q-1.5-35.92-3-71.85c-.54-12.83-2.51-26.53-1.51-39.34,1.33-17.22.39-11.45,10.45-11.83,32.6-1.25,55.72,34,90.09,15.57,17.56-9.4,32-28.82,46.11-42.57L664,473.91c34-33.06,66.87-68.88,106.88-94.79C796.3,362.68,772.69,321.84,747.11,338.4Z"/><path class="cls-4" d="M896,322.09c19.41,57.56,74.26,102.88,124.11,133.85,25.14,15.62,42.22,31.54,65.56,11.84,25.82-21.79,16.38-71.1-1.29-93C1054,337,986.08,299.61,937.18,302.62"/><path d="M873.3,328.36c14.46,41.54,42.38,76.34,75.54,104.7a479.49,479.49,0,0,0,51,37.95c16.66,10.78,34.55,25.08,54.58,28.47,24.19,4.1,47.67-9.2,60.1-29.85,9.66-16.06,12-35.94,9.73-54.24-2.14-17.34-7.23-34.91-17.22-49.47-11.4-16.61-27-29.8-43.08-41.69-35.32-26.15-82-47.34-126.82-45.19-12.72.62-23.58,10.4-23.58,23.58,0,12.3,10.8,24.2,23.58,23.58,15.39-.74,25.37,1.2,41.08,6.19,15.17,4.81,28.78,11.37,42.87,19.84,13.82,8.31,24.58,16.2,35.86,27.36,2.37,2.35,4.67,4.76,6.88,7.26,1.32,1.49,2.67,3,3.87,4.56-.68-.91-2.24-3.7-.27,0,1.31,2.44,2.76,4.86,4.13,7.28,2.12,3.76.79,1.47.34.43.89,2.09,1.64,4.29,2.34,6.46,1,3,1.77,6,2.44,9.08.34,1.55.64,3.11.9,4.67-.63-3.73,0,.16.07.83.23,3.56.32,7.06.27,10.63,0,.6-.37,5.43-.07,2.66s-.6,3.08-.72,3.64c-.43,1.83-1,3.6-1.56,5.39-1.1,3.55,1.56-2.75-.18.49-.7,1.28-1.44,2.54-2.17,3.81-1.79,3.13,2.19-2.2-.26.47a27.88,27.88,0,0,1-7,5.65c.53-.31,4.54-.95-1.85.56,3.83-.91-3.89-.36.52.21-5.45-.7-10-3.75-16.29-7.64-7.86-4.88-15.65-9.92-23.44-14.94a392.22,392.22,0,0,1-39.25-28.43c-28.26-23.59-54.92-52.47-66.87-86.81-4.18-12-16.14-20-29-16.47-11.68,3.21-20.68,16.93-16.47,29Z"/><path d="M673.4,835.06c31,22.81,69.71,35.46,108.29,34.19,40.73-1.33,77.76-17.06,109.32-42.3,10-8,8.3-25,0-33.34-9.84-9.83-23.37-8-33.35,0-48.31,38.63-111.7,36.62-160.46.73-10.26-7.56-26.31-1.72-32.26,8.46-7,12-1.82,24.68,8.46,32.26Z"/><path class="cls-5" d="M1020.18,755.7c8.29-14.61,20.09-29,37.1-33,19.4-4.52,39.47,6.4,49.6,22.89,42.71,69.49-32.37,155.49-80,199.18-33.07,30.34-74.82,61.28-117.35,75.44-22.73,7.57-45.39,10.65-68.12,18.29-26,8.72-54.32,11.06-81.54,9.39-33.3-2.05-71.39-7.05-103.65-16.28-62.07-17.76-142.61-51.4-176.16-109.39-21-36.23-57-80.52-53.92-129,4.36-67.81,74.23-83.06,116.08-27.55,24.58,32.59,31.1,80.06,63.36,105,3.17,2.45,6.34,5,9.52,7.23,23.12,16.54,47,32.28,72.73,44.48,46.27,22,97.86,29.7,146.45,10.73,42.57-16.62,85.59-33.7,120-64.79C985.62,840.12,999.37,792.43,1020.18,755.7Z"/><path class="cls-5" d="M523.5,843.17c38.25-11,70.65-36.61,104.61-56.4,18.49-10.77,38.79-25.26,60.57-27.36,20.67-2,39.69,2.18,58.47,10.42,17.64,7.75,34.39,9.51,53.21,5,22.74-5.46,43-17.82,66.87-18.56,50.84-1.56,92.35,33.21,126.43,66.82,14.42,14.22,36.66-8,22.23-22.23C981.82,767.27,942.58,735.14,894,727a135.47,135.47,0,0,0-68.63,6.11C814.3,737,803.45,741.79,792,744.51c-14.89,3.55-26-.82-39.46-6.69-39.58-17.23-80-11.23-116.84,8.55-39.51,21.21-77.13,54-120.55,66.49-19.41,5.59-11.16,35.94,8.35,30.31Z"/><path d="M435.25,729c-34.81,77.49,2.55,147,52.29,207.74,49,59.8,117.6,96.43,193.83,107.54s165.5,7.06,239.47-15.41c70-21.27,123.6-70.28,164.64-129.48,32.92-47.48,87.77-172.81-1-196.86-29.32-7.94-41.84,37.54-12.53,45.48,33.87,9.17-.54,82.92-9.41,99-16.78,30.51-38.7,58-63.68,82.21-58.26,56.41-134,67.54-212,71.22-73.35,3.46-146.69-2-209.45-44.14C519.13,917.23,442.66,826.94,476,752.79c12.33-27.46-28.29-51.47-40.72-23.8Z"/></svg>