<svg id="Layer_1" data-name="Layer 1" xmlns="http://www.w3.org/2000/svg" viewBox="0 0 1500 1500"><defs><style>.cls-1{fill:#92b4ff;}.cls-2{fill:#003fcc;}.cls-3{fill:#99501f;}.cls-4{fill:#b5b5b5;}.cls-5{fill:#c4c4c4;}</style></defs><title>Kid Talk</title><ellipse class="cls-1" cx="750" cy="750" rx="690.77" ry="696.55"/><path class="cls-2" d="M275.35,1224.22S467.58,1421,750,1421s448.07-171.61,448.07-171.61S1150.7,1060,889.41,1075.06,400.34,990.14,275.35,1224.22Z"/><path d="M258.68,1240.89c84.91,86.42,204.12,148.86,319.85,180.36,184.61,50.24,387.69,16.52,548.3-86.74,29.12-18.72,65.94-40.74,87.84-68.41,18.4-23.25-9.63-64.37-22.67-84.27-32.81-50.06-80.74-86.6-136.38-108.06-91.33-35.23-190.14-18.18-285.46-21.91-99.33-3.89-200.85-18.58-299.62-.89-96.45,17.27-169,76.31-215.55,161.35-14.58,26.63,26.12,50.45,40.71,23.8C334.32,1165.59,390.47,1116.3,470,1099c76.49-16.63,157.46-8,234.81-3.39,44.22,2.63,88.49,4.92,132.8,4.63,46.29-.31,92.45-5.46,138.53,1.4,61.1,9.1,118.9,35.7,159.49,83.08,18.49,21.59,33.55,46.83,39.71,70.89l6.06-22.93c-71.48,73.55-176.59,121.48-274.42,145.71-180.69,44.75-366.17,5.15-520.42-96.17-33.34-21.89-66.48-46.13-94.54-74.68C270.72,1185.87,237.38,1219.22,258.68,1240.89Z"/><path class="cls-3" d="M572.67,952.48l-1,99.54c-.07,7.08,0,14.56,3.79,20.68,2.85,4.57,7.51,7.88,12.12,11,48.67,32.78,105.79,56.54,165.77,60.11s122.81-14.78,164.08-55.41c6.89-6.78,13.28-14.36,16.23-23.27,2.42-7.31,2.39-15.1,2.33-22.75l-.51-72.51"/><path d="M549.09,952.48c-.32,33.14-1.47,66.4-1,99.54.49,32,17.19,46.14,43,61.89,49,30,104.69,50.09,162.3,53.47,53.2,3.11,110.48-9.73,154.43-40.71,21.43-15.11,43.88-34.18,50-60.85,3.08-13.42,1.75-28,1.65-41.58l-.39-54.38c-.22-30.33-47.36-30.4-47.15,0,.19,25.91,2.05,52.41.52,78.26-1.21,20.38-21.68,34.08-37.86,44-36.14,22.23-79.18,30.51-121.21,28.08-45.1-2.61-89-18.56-128-40.8-8-4.59-19.4-9.47-25.9-16.1-7.13-7.27-4.16-18.85-4.06-29.08l.79-81.77c.3-30.35-46.85-30.38-47.15,0Z"/><path class="cls-3" d="M586,952.29c-168-126.38-194.79-384.44-48.39-538.38,68.58-72.12,168.18-111.63,265.94-105.51,90.48,5.66,180.4,52.27,228.91,131.25,31.85,51.86,44.56,113.87,49.72,175,6.18,73.13,1.88,149.26-28.47,215.66C994.47,960,839.78,1026.45,703,1001.1,661.21,993.36,620.29,978.06,586,952.29Z"/><path d="M597.93,931.93C399.41,779,431.15,440.62,674.54,351.26c126.32-46.37,283.15-7.53,347.52,117.93,34.45,67.16,41.81,150,38.45,224.41-3.19,70.79-23.75,140.88-72.79,193.61-97.26,104.58-272.27,129.16-389.79,44.72-24.68-17.73-48.25,23.14-23.8,40.71,120.22,86.38,294.81,71,409.13-17.87,133.93-104.09,149.65-299,102.61-452.06-47.7-155.22-204.46-239.38-361.71-213.28-146.34,24.28-265.39,140-296.42,284.45-32.18,149.87,25.34,305.5,146.39,398.76C598.15,991.15,621.65,950.21,597.93,931.93Z"/><path d="M716.4,626.38c1.26-102.9-103.76-104.34-105-1.28C610.12,728,715.14,729.46,716.4,626.38Z"/><path d="M967.39,626.38c1.25-102.9-103.77-104.34-105-1.28C861.1,728,966.12,729.46,967.39,626.38Z"/><path class="cls-4" d="M580.1,463c-48.71,65.42-60.69,133.82-71,211.74-2.38,18.07-98.85-23.89-107.47-41.91-21.43-44.75,18.78-132.77,35.72-173.19,5.07-12.11,12.32-25.51,25.21-28.18,19.79-4.07,83.21,24.32,106.46,30.26"/><path d="M559.75,451.14C525.44,497.86,506,552.22,495.5,608.85c-2.55,13.73-4.67,27.55-6.62,41.38-.47,3.37-.94,6.74-1.39,10.11l-.85,6.27q-1.44,7.67.55.92l1.1-3.16a18.26,18.26,0,0,1,10.76-8.48c-3.72,1.17,6.19-2.17,1-.28-.95.34-2.76-.18-3.72-.25,6.66.47.75,0-.67-.34-3.35-.88-6.73-1.63-10.05-2.63-7-2.09-18.18-6.31-21.84-7.89-7.69-3.33-15.24-7-22.58-11-3.33-1.82-6.63-3.7-9.85-5.72-1.76-1.1-10.67-8-6.16-4a37.58,37.58,0,0,0-3.37-3l-.91-1q3.33,4.65,1.88,2.48c-.17-.9-1.62-3.93-2.49-7.69-1.77-7.67-1.52-18.2-.34-28.09,4.85-40.67,23.93-85.94,39.83-119.48,2.4-5.07,5.46-8.78,8.55-13-.45.61,11.74-.51-2.69.71.71-.06,7.29.31,4.49,0-3.7-.38,3.88.76,3.6.7,3,.64,5.93,1.35,8.88,2.13,5.66,1.5,11.26,3.25,16.83,5.06,21.19,6.92,41.81,16.11,63.36,21.86,29.35,7.83,41.87-37.64,12.54-45.47-22.05-5.88-43.12-15.31-64.82-22.33-24.1-7.79-51.56-15.95-73.25,2a66,66,0,0,0-14.3,17,90.37,90.37,0,0,0-4.61,9c-.4.86-5.5,12.95-3.09,7.25-5.11,12.09-10.29,24.16-15.19,36.34-9.89,24.65-19,49.94-24,76.08-4.88,25.49-8.15,56.68,5.27,80.37,8.73,15.42,27.31,25.09,42.55,32.86,23.47,12,96.42,48.82,108,3.42,4.57-17.9,5.12-37.54,8.4-55.79a517.07,517.07,0,0,1,12.13-52.92,309.43,309.43,0,0,1,48.07-97.4c7.54-10.27,1.72-26.3-8.46-32.25-12-7-24.69-1.84-32.25,8.46Z"/><path class="cls-4" d="M1059.05,545.71c7.77,47.87,11.26,96.63,15.81,145.23.26,2.71.93,6,3.14,6.55,1.32.33,2.66-.52,3.86-1.33,18.09-12.34,34.09-26.7,51.12-40.91,34.65-26.08-16.63-178.86-32.09-206.3-22.13-39.29-44.59.62-46.51,33.94C1053.13,504.66,1055.74,525.32,1059.05,545.71Z"/><path d="M1036.32,552c5.28,33.18,8.44,66.63,11.45,100.08,1.39,15.46.67,33,4.8,47.94,5.09,18.5,24.88,26.09,41.19,16.52,13.55-8,25.89-19.34,37.89-29.41,9-7.52,19.36-14.42,25.92-24.33,8.38-12.65,10.51-28.7,10.76-43.56.61-38-9.75-77.13-20.76-113.24-4.6-15-9.64-30-15.48-44.59-6.62-16.54-13.54-34.41-28.74-45-28.88-20.18-55.25,5.61-65.51,32.1-12.65,32.66-6.87,70-1.52,103.52,2,12.59,17.7,19.57,29,16.47,13.4-3.68,18.47-16.38,16.46-29-3-19-5.76-39.09-3.68-58.34a66.7,66.7,0,0,1,4.16-17.64c1.22-3,3.34-5.49,4.62-8.39-.58,1.31.08-2.13,1.73-1.55,1.11.4-11.22,2.94-10.32,2.2-1.28,1,1.85,4.31,3.5,7.47,1.52,2.92,2.82,5.94,4.14,8.95.38.86-1.33-3.48.34.9.82,2.16,1.71,4.29,2.53,6.45q2.81,7.32,5.37,14.73A618,618,0,0,1,1113.93,563c5.12,22.91,8,39.87,6.91,63.62-.25,5.57.58-1.24-.29,2.4-.54,2.26-1.16,4.5-1.71,6.76-.9,3.72,2.21-3.43-.43.79-2.46,3.94,3.21-1.48-.58.73-8.34,4.86-15.65,13.28-23.1,19.47-8.49,7.07-17.08,14.56-26.65,20.14l11.89-3.22-2,.24,11.9,3.22-1.74-1.35L1099,689.88c-3.77-9.53-2.72-22.75-3.63-33-1.17-13-2.33-25.92-3.62-38.86-2.62-26.29-5.8-52.52-10-78.61-2-12.58-17.7-19.57-29-16.47C1039.38,526.66,1034.31,539.35,1036.32,552Z"/><path class="cls-4" d="M781.88,391.6c20,16,48.21,15,73.75,13.15,10.09-.73,20.48-1.54,29.55-6,12.64-6.26,20.88-18.71,28.07-30.85,8.49-14.32,16.59-29.67,17.27-46.31,1.05-25.37-15.95-48.92-37.73-62s-47.64-17.33-72.94-19.45c-92.79-7.77-177.24,34.21-223.92,116.77,29.7-13.42,86.06-43.08,119.48-34.53C747.31,330.52,758.4,372.71,781.88,391.6Z"/><path d="M770,412c19.53,14.24,43.81,17.79,67.47,17.31,24.57-.51,50.87-1.67,70.72-17.79,37.14-30.17,58.73-89.35,34.94-133-25.92-47.63-83.3-60.23-133.17-62.51A262.73,262.73,0,0,0,682.85,242.2c-45.46,22.22-82.08,59.26-107.27,102.8-12.65,21.86,11.82,41.58,32.25,32.26,28.37-12.95,64.2-35.55,96.53-32.81,14,1.19,22.09,13.08,29.49,23.91,9.54,14,18.44,28.76,31.36,39.91,22.87,19.73,56.36-13.47,33.34-33.34-15.65-13.5-24.44-33-37.61-48.72-13.6-16.23-31.44-27-52.76-28.66-43.27-3.38-86.15,21.65-124.15,39l32.26,32.26c42.52-73.49,119.26-111.95,203.56-105.09,40.66,3.3,105.8,24.43,81.14,77.59-4.36,9.42-9.89,19.38-16.4,27.53-7.88,9.84-16.81,11.43-29,12.35-21.52,1.62-43.59,3.38-61.85-9.93C769.23,353.35,745.68,394.24,770,412Z"/><path d="M674.31,835c31,22.81,69.7,35.45,108.27,34.19,40.72-1.33,77.74-17.06,109.3-42.29,10-8,8.3-25,0-33.34-9.83-9.83-23.36-8-33.34,0-48.3,38.63-111.69,36.62-160.43.73-10.26-7.56-26.31-1.71-32.25,8.46-7,12-1.83,24.68,8.45,32.25Z"/><path class="cls-5" d="M1021,755.7c8.28-14.61,20.09-29,37.09-33,19.4-4.52,39.47,6.41,49.59,22.89,42.71,69.48-32.36,155.46-80,199.15-33.06,30.33-74.8,61.27-117.32,75.42-22.73,7.57-45.38,10.65-68.11,18.29-26,8.71-54.31,11.06-81.52,9.38-33.3-2-71.38-7-103.64-16.27C595.09,1013.82,514.57,980.19,481,922.21c-21-36.23-57-80.5-53.91-129,4.35-67.8,74.21-83,116.06-27.55,24.57,32.6,31.09,80,63.34,105,3.18,2.45,6.34,5,9.52,7.23,23.12,16.53,47,32.28,72.72,44.47,46.26,22,97.84,29.7,146.42,10.73,42.56-16.62,85.57-33.7,120-64.78C986.47,840.1,1000.22,792.42,1021,755.7Z"/><path class="cls-5" d="M524.44,843.16c38.24-11,70.63-36.61,104.59-56.4,18.48-10.77,38.78-25.26,60.55-27.35,20.67-2,39.69,2.18,58.47,10.42,17.63,7.74,34.38,9.5,53.2,5,22.74-5.45,43-17.81,66.86-18.55,50.83-1.56,92.33,33.2,126.4,66.81,14.42,14.21,36.66-8,22.23-22.23-34.06-33.59-73.29-65.71-121.87-73.9a135.5,135.5,0,0,0-68.61,6.11c-11.07,3.89-21.92,8.73-33.37,11.45-14.89,3.55-26-.82-39.45-6.69-39.58-17.22-80-11.23-116.82,8.55-39.51,21.21-77.12,54-120.54,66.48-19.4,5.59-11.15,35.93,8.36,30.31Z"/><path d="M436.2,729c-34.8,77.48,2.55,147,52.28,207.71,49,59.79,117.58,96.41,193.8,107.52s165.47,7.06,239.43-15.41c70-21.27,123.57-70.26,164.61-129.46,32.91-47.47,87.75-172.78-1-196.82-29.32-7.94-41.83,37.53-12.53,45.47,33.87,9.17-.54,82.9-9.4,99-16.79,30.5-38.7,58-63.68,82.19-58.25,56.41-134,67.53-212,71.21-73.34,3.46-146.66-2-209.42-44.13-58.24-39.07-134.7-129.34-101.4-203.48,12.34-27.45-28.28-51.46-40.71-23.8Z"/></svg>