<svg id="Layer_1" data-name="Layer 1" xmlns="http://www.w3.org/2000/svg" viewBox="0 0 1500 1500"><defs><style>.cls-1{fill:#92b4ff;}.cls-2{fill:#006838;}.cls-3{fill:#f4b5a6;}.cls-4{fill:#b5b5b5;}</style></defs><title>Kid Talk</title><ellipse class="cls-1" cx="750" cy="749.6" rx="697.39" ry="703.22"/><path class="cls-2" d="M270.8,1228.36S464.88,1427,750,1427s452.36-173.25,452.36-173.25-47.82-191.19-311.62-176S397,992,270.8,1228.36Z"/><path d="M254,1245.19c85.73,87.25,206.08,150.29,322.92,182.09,186.38,50.73,391.4,16.68,553.55-87.57,29.4-18.9,66.58-41.13,88.68-69.07,18.57-23.47-9.72-65-22.89-85.07-33.12-50.54-81.51-87.44-137.68-109.1-92.21-35.56-192-18.35-288.19-22.12-100.29-3.93-202.79-18.75-302.5-.9-97.37,17.44-170.61,77-217.61,162.9-14.72,26.88,26.37,50.93,41.1,24,39-71.21,95.68-121,176-138.42,77.22-16.79,159-8.06,237.06-3.42,44.64,2.65,89.33,5,134.07,4.66,46.73-.31,93.34-5.5,139.86,1.42,61.68,9.19,120,36,161,83.88,18.67,21.79,33.88,47.27,40.09,71.57l6.12-23.16c-72.16,74.26-178.28,122.65-277,147.11-182.42,45.18-369.67,5.2-525.4-97.08-33.66-22.11-67.12-46.58-95.45-75.41C266.12,1189.65,232.47,1223.31,254,1245.19Z"/><path class="cls-3" d="M615.56,985.43l-.74,81.61c-.05,5.81,0,11.93,2.89,17,2.17,3.75,5.72,6.47,9.23,9,37.1,26.88,80.64,46.35,126.36,49.28s93.61-12.12,125.07-45.43c5.25-5.56,10.12-11.76,12.37-19.08,1.84-6,1.82-12.37,1.78-18.64q-.19-29.72-.4-59.45"/><path d="M591.76,985.43c-.25,27.17-1.21,54.45-.74,81.61.2,11.86,1.8,22.52,8.72,32.4,6.61,9.44,17.42,16,26.91,22.2,38.32,25.2,82.74,42.18,128.8,44.55,41.6,2.14,85.52-9.38,119-34.51,17.48-13.1,35.72-29.83,40.25-52.14,5.13-25.24,1.34-54.24,1.17-79.86-.2-30.61-47.8-30.68-47.6,0,.14,20.59.63,41.22.4,61.81-.18,15.64-12.85,25.75-25.17,34-26,17.5-57,24.65-88.1,23-34.5-1.77-67.57-15.07-96.75-32.95-4.93-3-17.21-8.22-20.09-13.43-2.16-3.89.11-16.55.16-21.49l.59-65.29c.27-30.63-47.33-30.66-47.6,0Z"/><path class="cls-3" d="M584.46,953.83C414.88,826.24,387.8,565.71,535.61,410.29c69.24-72.8,169.79-112.7,268.48-106.52,91.35,5.72,182.13,52.77,231.11,132.51,32.15,52.35,45,115,50.19,176.71,6.24,73.83,1.9,150.68-28.74,217.72-59.84,130.94-216,198-354.15,172.39C660.36,995.29,619.05,979.85,584.46,953.83Z"/><path d="M596.47,933.28c-200.42-154.41-168.38-496,77.35-586.23,127.53-46.82,285.86-7.61,350.84,119.06,34.79,67.8,42.21,151.48,38.83,226.55-3.23,71.47-24,142.23-73.49,195.47-98.2,105.58-274.88,130.4-393.53,45.15-24.92-17.91-48.71,23.36-24,41.1,121.37,87.2,297.63,71.65,413-18,135.22-105.08,151.08-301.86,103.6-456.39-48.16-156.7-206.42-241.67-365.18-215.32C576.17,309.14,456,425.94,424.66,571.8c-32.5,151.3,25.58,308.43,147.79,402.58C596.7,993.06,620.42,951.73,596.47,933.28Z"/><path d="M716.08,624.8c1.27-103.89-104.76-105.34-106-1.3S714.8,728.87,716.08,624.8Z"/><path d="M969.47,624.8c1.27-103.89-104.76-105.34-106-1.3S968.19,728.87,969.47,624.8Z"/><path d="M655.12,830.72c82.68,47.21,188.78,45.79,269.82-4.45,26-16.12,2.11-57.31-24-41.11-66.78,41.41-153.4,43.49-221.77,4.46-26.64-15.21-50.65,25.9-24,41.1Z"/><path class="cls-4" d="M1048.79,494.21c-17.1-13.86-34.73-27.22-48.65-42.68-22-24.46-42.46-49.3-59.12-77.84-6.31-10.82-44.39-73.15-36.87-84.08-79.84,116-218.95,194.8-352.22,238.91C486,550.35,431,602.35,425.6,676c.49-6.62-27.58-37-31.87-45.43a202.88,202.88,0,0,1,.35-184.32c37-73,86-121.48,155.74-163.47,59.61-35.9,125-69,195.47-74.58,98.73-7.75,206.94,15.47,287.32,75.28,40.65,30.25,74.76,70.86,91.23,119.33,18.26,53.76-4.94,114.31-15.13,169C1100.42,538.3,1075.23,515.65,1048.79,494.21Z"/><path d="M1065.62,477.38c-41.73-33.59-76.93-70.63-104.68-116.77-6.39-10.63-12.6-21.38-18.46-32.31-4-7.45-8.22-15-11.39-22.84a89.28,89.28,0,0,1-3.4-9.4q-1.79-8.26-.59-.12c10.29-26.79-29-38.87-43.5-18.34-68.13,96.71-173.08,163.29-281.33,207.17-47.21,19.14-95.64,31-135.44,64.44-38.69,32.56-60,77-65,126.79l46.75-6.33c-3.05-13.44-14-24.63-22.32-35.11C411.87,616.37,403.7,596.7,399,573.8c-11.56-56.24,7.93-108.46,38.39-155.06C492,335.2,590.46,273.66,684.54,244.48c98-30.4,216.63-12.73,304.68,38.82,46.17,27,88,66.44,108.37,116.84,21.77,53.85-1.18,111.57-11.83,165.33h45.9c-11.32-37.63-36.28-63.66-66-88.09-23.5-19.28-57.37,14.21-33.66,33.66,22.9,18.8,45,37.83,53.8,67.08,6.36,21.19,41.12,24.1,45.9,0,9.49-47.93,26.51-96.79,22.07-146.28-4-44.76-27-85.94-55.62-119.75-60.86-71.91-154.36-111.29-246-124-101.48-14.13-193.25,6.31-282.48,55.74C490,287.9,421.15,344.39,377.86,425.92c-24.12,45.42-34.8,95.67-27.11,146.83,3.68,24.54,10.82,51.38,24.15,72.64,7.09,11.33,24.87,24.25,27.75,36.93,6.36,28,44.21,18.72,46.75-6.32,11.82-116.32,146.34-132.65,231.74-174.81,95.28-47,182-112.17,243.57-199.57L881.2,283.28c-11.08,28.87,21.54,72.34,35.26,95.63C946.88,430.56,985.38,473.55,1032,511,1055.6,530.07,1089.49,496.6,1065.62,477.38Z"/></svg>