<svg id="Layer_1" data-name="Layer 1" xmlns="http://www.w3.org/2000/svg" viewBox="0 0 1500 1500"><defs><style>.cls-1{fill:#92b4ff;}.cls-2{fill:#003fcc;}.cls-3{fill:#d88d3d;}.cls-4{fill:#3b2314;}</style></defs><title>Kid Talk</title><ellipse class="cls-1" cx="750" cy="749.6" rx="690.5" ry="696.28"/><path class="cls-2" d="M275.53,1223.63S467.69,1420.29,750,1420.29s447.89-171.53,447.89-171.53-47.35-189.3-308.54-174.23S400.48,989.65,275.53,1223.63Z"/><path d="M258.87,1240.3c84.88,86.38,204.05,148.8,319.73,180.28,184.54,50.23,387.54,16.52,548.08-86.7,29.11-18.71,65.92-40.72,87.81-68.39,18.39-23.24-9.63-64.33-22.67-84.23-32.79-50-80.7-86.57-136.32-108-91.29-35.21-190.07-18.17-285.34-21.9-99.3-3.89-200.78-18.57-299.51-.89-96.41,17.27-168.92,76.28-215.46,161.29-14.58,26.62,26.11,50.43,40.69,23.79,38.6-70.51,94.74-119.77,174.23-137,76.46-16.63,157.4-8,234.72-3.39,44.2,2.62,88.45,4.92,132.75,4.62,46.26-.31,92.41-5.45,138.47,1.41,61.08,9.09,118.85,35.68,159.43,83C1154,1205.74,1169,1231,1175.17,1255l6.06-22.92c-71.45,73.52-176.53,121.43-274.31,145.65-180.62,44.74-366,5.15-520.21-96.12-33.33-21.89-66.46-46.12-94.51-74.66C270.91,1185.3,237.59,1218.63,258.87,1240.3Z"/><path class="cls-3" d="M572.74,952l-1,99.51c-.07,7.07,0,14.54,3.79,20.67,2.85,4.57,7.51,7.88,12.11,11,48.66,32.77,105.75,56.52,165.71,60.09s122.76-14.78,164-55.39c6.89-6.78,13.28-14.35,16.23-23.27,2.42-7.3,2.38-15.09,2.33-22.73q-.26-36.24-.52-72.49"/><path d="M549.17,952c-.32,33.13-1.47,66.38-1,99.51.49,31.94,17.18,46.12,42.93,61.86,49,30,104.65,50.07,162.24,53.44,53.18,3.12,110.43-9.72,154.37-40.69,21.42-15.1,43.86-34.16,50-60.82,3.08-13.41,1.74-28,1.65-41.56L959,969.37c-.22-30.31-47.35-30.38-47.13,0,.18,25.9,2,52.39.51,78.24-1.21,20.37-21.66,34.06-37.84,44-36.13,22.22-79.14,30.49-121.16,28.06-45.08-2.6-89-18.55-127.92-40.78-8-4.58-19.4-9.46-25.89-16.09-7.12-7.27-4.16-18.85-4.06-29.07L596.3,952c.3-30.34-46.83-30.36-47.13,0Z"/><path class="cls-3" d="M586.09,951.81c-167.9-126.33-194.71-384.28-48.36-538.16,68.55-72.09,168.11-111.59,265.83-105.48,90.44,5.67,180.32,52.26,228.82,131.2,31.84,51.84,44.54,113.83,49.7,175,6.18,73.1,1.88,149.19-28.46,215.57C994.37,959.55,839.74,1026,703,1000.6,661.25,992.87,620.34,977.58,586.09,951.81Z"/><path d="M598,931.46C399.55,778.58,431.28,440.35,674.57,351c126.27-46.35,283-7.53,347.38,117.89,34.44,67.13,41.79,150,38.44,224.31-3.19,70.76-23.74,140.83-72.76,193.54C890.4,991.29,715.47,1015.87,598,931.46c-24.67-17.73-48.23,23.14-23.79,40.7,120.17,86.34,294.69,70.94,409-17.87,133.89-104,149.6-298.88,102.58-451.88-47.68-155.16-204.38-239.28-361.57-213.2-146.28,24.28-265.28,139.93-296.3,284.34C395.7,723.36,453.2,878.93,574.2,972.16,598.21,990.65,621.7,949.73,598,931.46Z"/><path d="M716.41,626c1.26-102.86-103.72-104.3-105-1.28C610.17,727.61,715.15,729.07,716.41,626Z"/><path d="M967.3,626c1.26-102.86-103.72-104.3-105-1.28C861.06,727.61,966,729.07,967.3,626Z"/><path d="M678.48,830.57c32,22.89,71.59,35.43,111,34.16,41.58-1.33,79.33-17,111.9-42.26,10.06-7.82,8.21-25.12,0-33.33-9.93-9.92-23.24-7.83-33.33,0-49.65,38.59-115.65,36.61-165.79.73-10.36-7.41-26.24-1.82-32.25,8.45-6.93,11.85-1.92,24.82,8.46,32.25Z"/><path class="cls-4" d="M1026,751.68c8.42-14.79,20.42-29.36,37.72-33.37,19.72-4.58,40.11,6.48,50.41,23.16,43.42,70.31-32.9,157.32-81.3,201.53-33.61,30.7-76.06,62-119.28,76.33-23.11,7.66-46.14,10.78-69.25,18.5-26.39,8.82-55.21,11.19-82.88,9.5-33.85-2.07-72.57-7.13-105.36-16.47-63.09-18-145-52-179.06-110.68-21.31-36.66-66.56-83.07-63.4-132.1,4.42-68.61,84-82.43,126.58-26.27,25,33,31.61,81,64.41,106.24,3.22,2.48,6.44,5,9.67,7.31,23.5,16.73,47.79,32.66,73.93,45,47,22.22,99.47,30,148.86,10.85,43.28-16.82,87-34.1,122-65.55C990.9,837.09,1004.87,788.84,1026,751.68Z"/><path class="cls-4" d="M538.48,838.68c38.22-11,70.61-36.59,104.55-56.37,18.47-10.77,38.77-25.25,60.53-27.34,20.66-2,39.67,2.17,58.44,10.41,17.63,7.74,34.37,9.5,53.18,5,22.73-5.45,43-17.81,66.83-18.54,50.81-1.57,92.3,33.19,126.36,66.78,14.41,14.21,36.64-8,22.21-22.22-34-33.57-73.26-65.68-121.81-73.87a135.42,135.42,0,0,0-68.59,6.11c-11.07,3.89-21.91,8.72-33.35,11.44-14.88,3.55-26-.82-39.44-6.68-39.56-17.22-79.94-11.23-116.77,8.54-39.5,21.2-77.09,54-120.49,66.45-19.39,5.59-11.15,35.92,8.35,30.3Z"/></svg>