<svg id="Layer_1" data-name="Layer 1" xmlns="http://www.w3.org/2000/svg" viewBox="0 0 1500 1500"><defs><style>.cls-1{fill:#92b4ff;}.cls-2{fill:#006838;}.cls-3{fill:#f2d3a5;}.cls-4{fill:#b5b5b5;}</style></defs><title>Kid Talk</title><ellipse class="cls-1" cx="750" cy="749.6" rx="697.71" ry="703.54"/><path class="cls-2" d="M270.58,1228.58S464.75,1427.29,750,1427.29,1202.57,1254,1202.57,1254s-47.85-191.28-311.76-176S396.83,992.15,270.58,1228.58Z"/><path d="M253.74,1245.42c85.77,87.28,206.18,150.36,323.07,182.17,186.46,50.75,391.58,16.68,553.8-87.61,29.42-18.91,66.61-41.15,88.73-69.1,18.58-23.48-9.73-65-22.91-85.11-33.13-50.56-81.54-87.48-137.74-109.15-92.25-35.58-192.06-18.36-288.32-22.13-100.33-3.93-202.88-18.76-302.64-.9-97.41,17.45-170.68,77.08-217.71,163-14.72,26.9,26.38,51,41.12,24,39-71.24,95.73-121,176.05-138.48,77.26-16.8,159-8.06,237.17-3.43,44.66,2.66,89.37,5,134.13,4.68,46.75-.31,93.38-5.52,139.92,1.41,61.71,9.19,120.09,36.06,161.09,83.92,18.68,21.8,33.89,47.29,40.11,71.6l6.12-23.17c-72.2,74.3-178.37,122.7-277.18,147.18-182.5,45.2-369.84,5.21-525.63-97.13-33.68-22.12-67.16-46.59-95.5-75.44C265.9,1189.85,232.24,1223.53,253.74,1245.42Z"/><path class="cls-3" d="M615.5,985.54l-.74,81.65c-.06,5.8,0,11.93,2.89,17,2.17,3.75,5.73,6.46,9.24,9,37.12,26.9,80.67,46.38,126.41,49.31S847,1130.33,878.43,1097c5.25-5.56,10.13-11.77,12.38-19.09,1.84-6,1.81-12.38,1.77-18.65l-.39-59.47"/><path d="M591.68,985.54c-.24,27.18-1.2,54.47-.73,81.65.2,11.86,1.8,22.52,8.72,32.41,6.61,9.45,17.43,16,26.92,22.21,38.34,25.21,82.79,42.2,128.86,44.57,41.63,2.14,85.57-9.39,119.11-34.52,17.48-13.11,35.74-29.85,40.27-52.17,5.13-25.25,1.34-54.27,1.17-79.89-.2-30.63-47.83-30.7-47.62,0,.13,20.6.62,41.23.39,61.83-.18,15.65-12.86,25.77-25.18,34.07-26,17.5-57.06,24.66-88.14,23.06-34.51-1.78-67.6-15.08-96.79-33-4.93-3-17.22-8.23-20.1-13.44-2.16-3.89.11-16.56.16-21.5l.59-65.32c.27-30.65-47.35-30.68-47.63,0Z"/><path class="cls-3" d="M584.38,953.92C414.73,826.28,387.64,565.63,535.51,410.14c69.27-72.84,169.87-112.75,268.61-106.57,91.38,5.72,182.21,52.8,231.21,132.57,32.17,52.37,45,115,50.22,176.78,6.24,73.87,1.89,150.76-28.76,217.83-59.87,131-216.11,198.08-354.31,172.47C660.32,995.41,619,980,584.38,953.92Z"/><path d="M596.4,933.36C395.89,778.89,428,437.12,673.79,346.86c127.58-46.84,286-7.61,351,119.12,34.8,67.83,42.23,151.55,38.84,226.66-3.23,71.49-24,142.29-73.52,195.55-98.24,105.63-275,130.46-393.71,45.17-24.93-17.91-48.73,23.38-24,41.12,121.43,87.24,297.77,71.68,413.24-18.05,135.28-105.14,151.15-302,103.64-456.6C1041.06,343.05,882.73,258.05,723.9,284.41c-147.81,24.53-268,141.38-299.39,287.31C392,723.09,450.1,880.28,572.36,974.48,596.63,993.17,620.36,951.82,596.4,933.36Z"/><path d="M716.06,624.74c1.28-103.93-104.8-105.39-106.08-1.29C608.71,727.38,714.79,728.86,716.06,624.74Z"/><path d="M969.57,624.74c1.27-103.93-104.81-105.39-106.08-1.29C862.22,727.38,968.29,728.86,969.57,624.74Z"/><path d="M655.08,830.76C737.79,878,843.94,876.57,925,826.3c26-16.12,2.11-57.33-24-41.12-66.82,41.43-153.47,43.51-221.87,4.46-26.65-15.22-50.67,25.91-24,41.12Z"/><path class="cls-4" d="M1052,487.63c-18-28.7-36.67-56.8-50.68-88-6.49-14.44-71.42-51.2-72-15.2-.15,9.19,9,88.82,14.14,89-98.94-2.92-160.89,1.16-259.72,6.76-18.34,1,0,0-42.37,8.74-6.3-37.84-4-58.82-6-74.65-2.62-20.61-6.51-47.06-36.19-34.82-13.26,5.47-22.19,17.82-30.4,29.58,0,7.87-18.72,26.81-23.44,33.58L517.54,482.3c-18.47,26.46-37,52.85-55.41,79.37-22.57,32.59-38.69,74.23-42.44,113.92-5.95-17.53-23.57-28.79-31.83-45.08a204.22,204.22,0,0,1-19.62-61c-6.51-41.94.78-85.52,20-123.39,37-73,86-121.53,155.81-163.55,59.64-35.91,125-69.07,195.56-74.61,98.78-7.75,207,15.48,287.45,75.31,40.67,30.27,74.79,70.9,91.27,119.4,18.27,53.78-4.94,114.35-15.14,169.05,5.75-30.84-31.73-52.74-45.75-75.35Q1054.71,492,1052,487.63Z"/><path d="M1072.52,475.61c-14.43-22.87-29.33-45.56-41.76-69.61-8.23-15.93-13.67-27.37-28.19-38.11-20.8-15.37-56.06-32.58-80.72-16-23.53,15.83-15.49,47.92-12.51,71.37,2.82,22.15,2,56.23,22,70.7l12-44.37C841.59,446.85,734.77,444.77,635,466l29.29,16.63c-5.21-34.4,3.62-85.31-19.68-114.46-29.87-37.38-78.05-.84-96.45,28.89-56.11,90.63-139,167.61-152.25,278.57l44.37-12c-9.82-22-29.15-36.29-38.1-59a180.46,180.46,0,0,1-11.6-83.77c4.89-48.92,32.12-95,63-132.26,60.25-72.51,159-130.43,250.63-151.19,94.48-21.41,205.69-.27,287.47,50.61,42.8,26.62,81.21,64.65,100.35,112,21.78,53.86-1.18,111.6-11.84,165.39l46.77,6.33c3.58-42.19-34.55-64.24-54.45-96.1-16.2-25.94-57.42-2.06-41.12,24,13.08,20.94,50.1,46.65,47.95,72.06-2.25,26.58,41.56,32.64,46.77,6.33,9.5-47.95,26.51-96.84,22.09-146.35-3.87-43.28-25.52-82.94-52.64-116.1C1037.75,244.9,947.79,204,859.07,189.64,759.46,173.48,667,189,577.8,236c-78,41.11-148.22,93.51-194.5,169.93-26.5,43.74-43.75,92.36-40.9,144.14a230.79,230.79,0,0,0,17.9,77.11c9.65,22.9,28.93,38.31,38.83,60.45,10.83,24.23,41.94,8.27,44.37-12,5.42-45.26,25.86-82.8,51.47-119.56,23.19-33.29,45.28-67.92,69.9-100.16,7.93-10.38,16.48-19.67,23.33-30.84,4.15-6.76,6.75-14.36,13.66-19.35,8.76-6.33,4.86-8.32,8.76,3.37,3.1,9.28,1.76,21.2,2.14,30.86a498.64,498.64,0,0,0,5.58,55.34c2,13.24,17.95,19,29.29,16.63,9.4-2,18.68-4.54,28.06-6.6,6-1.32,1.25-.76,2.42-.95,27.88-4.59,58.3-3.4,86.53-4.82,59.59-3,119.11-3.89,178.75-2.28,25.51.7,29.85-31.47,12-44.37,7,5.07,5.84,13.79,7.23,4.58.41-2.68-1.82-9.06-2.25-11.44-1.53-8.52-2.7-17.11-3.8-25.7-1-8-2-16-2.69-24-.16-1.87.32-7.63-.71-8.79-.07-.73-.1-1.46-.1-2.2q.15-7-7.88,7.59c.48,1.82,31,13.22,35.51,18.74,9.7,11.95,15.82,31.44,23.83,44.92,8.64,14.54,17.82,28.75,26.85,43.06C1047.72,525.5,1089,501.63,1072.52,475.61Z"/></svg>