<svg id="Layer_1" data-name="Layer 1" xmlns="http://www.w3.org/2000/svg" viewBox="0 0 1500 1500"><defs><style>.cls-1{fill:#92b4ff;}.cls-2{fill:#006838;}.cls-3{fill:#d88d3d;}.cls-4{fill:#b5b5b5;}</style></defs><title>Kid Talk</title><ellipse class="cls-1" cx="750" cy="749.6" rx="697.68" ry="703.52"/><path class="cls-2" d="M270.6,1228.56S464.76,1427.27,750,1427.27,1202.55,1254,1202.55,1254s-47.84-191.27-311.75-176S396.84,992.14,270.6,1228.56Z"/><path d="M253.76,1245.4c85.77,87.28,206.17,150.35,323.06,182.17,186.45,50.74,391.57,16.68,553.78-87.61,29.41-18.91,66.6-41.14,88.72-69.1,18.58-23.48-9.73-65-22.9-85.11-33.13-50.56-81.54-87.47-137.74-109.14-92.24-35.58-192.05-18.36-288.32-22.13-100.32-3.93-202.86-18.76-302.62-.9-97.41,17.45-170.68,77.07-217.7,163-14.73,26.89,26.38,51,41.12,24,39-71.23,95.72-121,176-138.47,77.26-16.8,159-8.06,237.16-3.43,44.66,2.65,89.37,5,134.13,4.67,46.75-.31,93.37-5.51,139.92,1.42,61.7,9.19,120.08,36,161.08,83.92,18.67,21.79,33.89,47.29,40.1,71.59l6.13-23.16c-72.2,74.29-178.37,122.69-277.17,147.17-182.5,45.2-369.83,5.2-525.62-97.13-33.67-22.12-67.15-46.59-95.5-75.43C265.92,1189.83,232.26,1223.51,253.76,1245.4Z"/><path class="cls-3" d="M615.5,985.53l-.74,81.65c0,5.8,0,11.93,2.89,17,2.18,3.75,5.73,6.47,9.24,9,37.12,26.89,80.67,46.37,126.41,49.31S847,1130.32,878.42,1097c5.26-5.56,10.13-11.77,12.38-19.09,1.84-6,1.82-12.38,1.78-18.65q-.2-29.73-.4-59.47"/><path d="M591.69,985.53c-.25,27.18-1.21,54.47-.74,81.65.21,11.86,1.8,22.52,8.72,32.41,6.62,9.44,17.44,16,26.93,22.21,38.33,25.21,82.78,42.2,128.85,44.57,41.62,2.14,85.56-9.39,119.1-34.53,17.49-13.1,35.74-29.84,40.27-52.16,5.13-25.25,1.34-54.27,1.17-79.89-.2-30.63-47.82-30.7-47.62,0,.14,20.6.63,41.23.4,61.83-.18,15.65-12.86,25.77-25.18,34.07-26,17.5-57.06,24.65-88.14,23.06-34.51-1.78-67.6-15.08-96.79-33-4.93-3-17.22-8.23-20.1-13.43-2.15-3.89.12-16.56.16-21.5l.59-65.32c.28-30.65-47.34-30.68-47.62,0Z"/><path class="cls-3" d="M584.39,953.91C414.74,826.27,387.65,565.64,535.52,410.15c69.26-72.84,169.86-112.75,268.59-106.57,91.39,5.72,182.21,52.8,231.21,132.57,32.17,52.37,45,115,50.22,176.78,6.24,73.86,1.89,150.75-28.76,217.82-59.87,131-216.11,198.07-354.3,172.46C660.33,995.4,619,980,584.39,953.91Z"/><path d="M596.41,933.35C395.9,778.88,428,437.13,673.79,346.88c127.58-46.84,286-7.61,351,119.11,34.8,67.83,42.23,151.54,38.84,226.65-3.23,71.49-24,142.29-73.52,195.55-98.24,105.62-275,130.45-393.69,45.16-24.93-17.91-48.73,23.38-24,41.12,121.42,87.24,297.76,71.68,413.22-18.05,135.27-105.13,151.15-302,103.64-456.58-48.18-156.78-206.5-241.77-365.33-215.42-147.8,24.53-268,141.39-299.38,287.3C392,723.09,450.11,880.28,572.37,974.47,596.63,993.16,620.37,951.81,596.41,933.35Z"/><path d="M716.06,624.75c1.28-103.93-104.8-105.39-106.07-1.3C608.72,727.38,714.79,728.86,716.06,624.75Z"/><path d="M969.56,624.75c1.27-103.93-104.8-105.39-106.08-1.3C862.21,727.38,968.29,728.86,969.56,624.75Z"/><path d="M655.08,830.75C737.79,878,843.94,876.56,925,826.3c26-16.12,2.11-57.33-24-41.12-66.81,41.43-153.46,43.51-221.86,4.46-26.65-15.22-50.67,25.91-24,41.11Z"/><path class="cls-4" d="M1042.14,504c-3.17-1.72-6.16-3.46-8.88-5.28-48.67-32.56-115.83-92.39-140.08-146.3-29.4,80.24-131.31,101.75-184.77,29.21-7.65-10.39-18.43-24.46-30-18.68a23.65,23.65,0,0,0-6,4.81c-78.63,79-239.42,188.09-248.24,308.24.49-6.62-27.6-37-31.89-45.45a203,203,0,0,1,.36-184.4c37-73,86-121.53,155.8-163.54,59.64-35.91,125-69.07,195.56-74.61,98.77-7.75,207,15.48,287.43,75.31,40.68,30.26,74.79,70.89,91.27,119.39,18.27,53.78-4.94,114.36-15.14,169.05C1107.64,531.05,1068.6,518.34,1042.14,504Z"/><path d="M1054.15,483.41c-55.48-33-112.12-84.3-140.41-143-9.89-20.52-36.68-11.32-43.52,5.69-22.3,55.42-91.36,75.13-134.75,30.87-17.25-17.61-33.27-47.94-63.36-37-22.73,8.29-43.65,36.92-61.55,52.86C525.59,468.5,412.43,553.76,400.44,676l46.77-6.33c-3-13.45-14-24.64-22.33-35.13-14.37-18.2-22.54-37.87-27.25-60.79-11.57-56.25,7.93-108.5,38.4-155.12C490.64,335,589.17,273.46,683.3,244.27c98.07-30.42,216.72-12.74,304.81,38.84,46.18,27,88,66.46,108.42,116.89,21.77,53.86-1.19,111.61-11.85,165.39l46.77,6.33c-3.17-48.76-38.13-67.73-77.3-88.31-27.1-14.24-51.2,26.85-24,41.12,20.37,10.7,52,20.26,53.71,47.19,1.64,25.21,41.25,34.21,46.77,6.33,9.5-47.95,26.53-96.84,22.09-146.34-4-44.78-27-86-55.65-119.8C1036.16,240,942.62,200.57,851,187.8c-101.53-14.14-193.34,6.32-282.6,55.77C488.68,287.7,419.8,344.22,376.49,425.79c-24.13,45.43-34.81,95.71-27.12,146.88,3.68,24.55,10.83,51.4,24.15,72.68,7.1,11.33,24.89,24.26,27.77,36.95,6.35,27.91,44.31,18.79,46.77-6.33,6.06-61.75,52.25-113.6,94-155.78,43.84-44.31,92.79-83,137.67-126.19l4.9-4.75q11-8.08-3.57-3.54c4.24,5.32,8.61,10.72,13,15.9,8.81,10.31,18.22,19.58,29.54,27.17A123.82,123.82,0,0,0,800,449.35c55.06-3.73,96.21-41.05,116.16-90.63l-43.52,5.69c31.71,65.83,95.38,123.14,157.5,160.12C1056.52,540.24,1080.49,499.09,1054.15,483.41Z"/></svg>