<svg id="Layer_1" data-name="Layer 1" xmlns="http://www.w3.org/2000/svg" viewBox="0 0 1500 1500"><defs><style>.cls-1{fill:#92b4ff;}.cls-2{fill:#cc0070;}.cls-3{fill:#663753;}.cls-4{fill:#f4b5a6;}</style></defs><title>Kid Talk</title><ellipse class="cls-1" cx="750" cy="750" rx="689.83" ry="695.6"/><path class="cls-2" d="M276,1223.57S468,1420,750,1420s447.46-171.37,447.46-171.37-47.31-189.11-308.24-174.06S400.82,989.81,276,1223.57Z"/><path d="M259.35,1240.22c84.8,86.3,203.85,148.66,319.42,180.11,184.35,50.18,387.16,16.5,547.55-86.62,29.08-18.7,65.85-40.68,87.72-68.32,18.37-23.22-9.62-64.27-22.65-84.15-32.75-50-80.62-86.49-136.19-107.92-91.2-35.17-189.88-18.15-285.06-21.87-99.2-3.89-200.59-18.55-299.22-.89-96.32,17.24-168.76,76.2-215.25,161.13-14.56,26.59,26.08,50.38,40.65,23.76C334.88,1165,391,1115.8,470.38,1098.54c76.39-16.61,157.25-8,234.49-3.39,44.16,2.62,88.37,4.91,132.63,4.62,46.22-.31,92.32-5.45,138.33,1.4,61,9.09,118.73,35.65,159.27,83,18.47,21.55,33.51,46.76,39.66,70.79l6-22.9c-71.38,73.45-176.35,121.31-274,145.51-180.44,44.69-365.66,5.15-519.7-96-33.29-21.87-66.4-46.07-94.42-74.59C271.37,1185.27,238.08,1218.58,259.35,1240.22Z"/><path class="cls-3" d="M1192,953.56c-43.66-165.1-23.38-343.34-85.26-505.61C1065.87,340.79,979.68,246.6,867.32,210.57c-101.88-32.66-218.49-14.33-308,42.86S407.83,404.3,385.29,505.5c-21.09,94.66-9.21,193-15.51,289.58a774.92,774.92,0,0,1-61.87,256.28l4.25.5c20.24,14,40.48,28.09,61.23,41.43a1065.28,1065.28,0,0,0,352.74,145c52,11.11,106,18.35,158.56,9.52,54.95-9.24,104.71-35.74,149.46-68.06,56.08-40.5,102-77.25,168.88-99.37,15-5,31.38-8.86,46.62-4.49-21.12-16.38-31.32-42.8-40.56-67.87C1202.47,990,1196.84,971.88,1192,953.56Z"/><path d="M1214.7,947.3c-37.42-146-27.13-299.59-66-445.34-31.73-119.13-102.4-228.24-213.06-287.7-115.44-62-259.07-55.12-372.15,9.15C454.78,285.22,379.42,398.57,358.28,521.15c-15,87-6.76,175.12-11.39,262.77a759.1,759.1,0,0,1-59.31,255.56c-7.37,17.4,1.37,33.23,20.33,35.43,1.12.13,9.37,9.06,14.08,12.29,10.16,7,20.34,13.91,30.65,20.66q26,17,52.94,32.57a1085.11,1085.11,0,0,0,120.55,59.43c79.5,33.45,163.8,59.33,249.44,70.89,85.21,11.5,164.61-3.86,238-49,36.3-22.33,69.14-49.79,104.79-73.11,32.06-21,84.86-57.39,125-50.08,21,3.83,42.22-22.46,22.91-39.35-30.9-27-41.18-73.83-51.6-111.91-8-29.19-53.42-16.8-45.4,12.52,12.56,45.89,26.51,100.16,63.7,132.68l22.91-39.34c-77.45-14.12-158.58,51.63-217.09,94.2-76.56,55.71-152.93,89.33-249.52,78.05-91.67-10.71-184.06-40.73-267.92-78.57a1054.18,1054.18,0,0,1-118.65-62.9c-17.86-11-35.32-22.58-52.63-34.41-14.08-9.61-25-19.72-42.19-21.71l20.33,35.43c27.1-64,47.18-130,57.49-198.82,10.14-67.71,9.36-135.43,9.73-203.68.71-133.47,27.6-259.12,130.23-352.22,93.31-84.64,233.58-114.87,352-69.42,114.65,44,190.45,150.28,222.85,265.24,41.88,148.6,30.44,306,68.73,455.47C1176.81,989.15,1222.24,976.72,1214.7,947.3Z"/><path class="cls-4" d="M586.25,952C418.51,825.81,391.73,568.1,537.93,414.37c68.49-72,168-111.48,265.58-105.37,90.35,5.65,180.15,52.2,228.59,131.07,31.81,51.79,44.5,113.72,49.66,174.79,6.17,73,1.87,149.06-28.43,215.37C994.13,959.75,839.65,1026.07,703,1000.75,661.33,993,620.47,977.75,586.25,952Z"/><path d="M598.13,931.68C399.89,779,431.58,441,674.65,351.81c126.14-46.31,282.76-7.53,347,117.77,34.4,67.06,41.75,149.83,38.4,224.1-3.19,70.69-23.72,140.69-72.7,193.34-97.12,104.44-271.89,129-389.26,44.66C573.49,914,550,954.79,574.37,972.34c120.06,86.26,294.41,70.87,408.57-17.85,133.75-104,149.44-298.59,102.47-451.44-47.63-155-204.18-239-361.21-213-146.15,24.25-265,139.79-296,284.06C396,723.78,453.48,879.21,574.37,972.34,598.36,990.82,621.83,949.93,598.13,931.68Z"/><path d="M716.45,626.55c1.25-102.76-103.63-104.2-104.89-1.28C610.31,728,715.19,729.49,716.45,626.55Z"/><path d="M967.09,626.55c1.26-102.76-103.62-104.2-104.88-1.28C861,728,965.83,729.49,967.09,626.55Z"/><path class="cls-3" d="M883.91,298.62s201.06,272,216.53,479c0,0,35.76-255.25-36.82-355S910.43,249,883.91,298.62Z"/><path d="M656.15,830.24c81.78,46.69,186.73,45.29,266.89-4.41,25.7-15.94,2.09-56.68-23.76-40.65-66.07,41-151.74,43-219.37,4.4-26.35-15.05-50.1,25.62-23.76,40.66Z"/><path class="cls-3" d="M637.92,405.11s200.91-61.84,297.55-13.44-23.57-142.88-114.9-134S653.8,232.27,637.92,405.11Z"/><path class="cls-3" d="M406.66,743.72S376.13,301.14,664,276.28h35.78S431.7,723.1,471.47,904.28Z"/><path d="M952.52,382c-59.23-13.68-119.81-33-181.2-25.68-59.4,7.06-114.07,31.1-168.07,55.55C575.69,424.39,599.6,465,627,452.56c47.66-21.59,97.54-44.34,150.19-49.78C832.3,397.1,886.89,415.16,940,427.43c29.49,6.82,42.08-38.57,12.52-45.4Z"/><path d="M435.75,1010.6c90.94,70.63,204.94,106.93,320.12,99.5,20.06-1.3,20.21-32.7,0-31.39-106.32,6.86-213.57-24.79-297.93-90.31-15.76-12.24-38.14,9.81-22.19,22.2Z"/><path d="M804.56,1183.2c36.81,1.17,74-1.6,108.87-14.28,31.84-11.58,60.55-29.52,88.52-48.34,13-8.74,32-17.67,38-33.2s-2.62-28-11.25-40.1c-6.93-9.68-11-16.68.17-26,7.75-6.53,18.18-8.24,27.55-11.37,18.15-6,32.82-14.33,43.33-30.87,18.6-29.27,19.49-66.94,17.8-100.48-2-40.17-5.56-80.67-10.9-120.52-9.61-71.76-26.82-142.63-49.66-211.33-34.27-103-89.69-227.74-201.14-265.38-55.85-18.86-120.55-10.4-169.67,22.06-52.44,34.66-87.57,90-114.14,145.77-34.61,72.6-61.42,150.84-83.67,228-29.9,103.67-48,211-49.14,319-.21,20.21,31.18,20.22,31.39,0,1.68-163.55,44.77-321.72,103.76-473.25,39.76-102.12,105.09-228.61,233.31-219.48C918.68,311.26,980,428.7,1014.55,520.45c19.13,50.84,34.16,103.55,46,156.55a982,982,0,0,1,20.56,134.52c2.73,33.48,7.11,67.56,5.24,101.18-1,17.39-3.87,38.36-15,52.57-13.14,16.74-37.66,16.11-55.12,26.43-14.28,8.43-26.69,23.63-26.85,40.88-.07,7.84,2.7,15.56,6.55,22.28,2.52,4.39,14.32,15.35,14.07,20.19-.3,5.65-17.11,13.84-21.28,16.66-8.26,5.59-16.57,11.12-25,16.45-14.87,9.4-30.14,18.36-46.25,25.5-35.86,15.88-74.09,19.38-112.9,18.15-20.21-.63-20.19,30.76,0,31.39Z"/><path d="M739.42,528.54l-.08-.16,2.38,5.63a.83.83,0,0,1-.06-.21l.84,6.26a1,1,0,0,1,0-.25l-.84,6.26a2.17,2.17,0,0,1,.07-.24l-2.37,5.62a1.27,1.27,0,0,1,.13-.22L735.81,556a1.77,1.77,0,0,1,.3-.31l-4.76,3.68a2.38,2.38,0,0,1,.44-.25l-5.62,2.37a2.14,2.14,0,0,1,.48-.13l-6.25.84h.37l-6.26-.84.24.06-5.62-2.37a.72.72,0,0,1,.21.12l-4.76-3.68.14.14L701,550.87a1,1,0,0,1,.14.24l-2.38-5.63,0,.06a26.3,26.3,0,0,0,10.81,14.07,17.53,17.53,0,0,0,8.76,2.79,17.82,17.82,0,0,0,9.38-.42l5.63-2.37a23.57,23.57,0,0,0,8.44-8.45l2.38-5.62a23.75,23.75,0,0,0,0-12.52c-.36-1-.76-1.93-1.21-2.86s-.8-1.92-1.21-2.87a.75.75,0,0,0-.07-.12,23.79,23.79,0,0,0-3.83-4.94c-.16-.16-4.64-3.63-4.84-3.74l-.11-.06c-.24-.15-5.39-2.32-5.69-2.41l-.14,0c-5-1.42-8-.89-13,0l-.3.06-.14.05c-1,.38-1.91.79-2.86,1.21s-1.92.79-2.87,1.21a23.46,23.46,0,0,0-5.24,4l-.18.19-1.88,2.43c-.65.78-1.28,1.59-1.87,2.42a.57.57,0,0,1-.08.13,24.49,24.49,0,0,0,0,24.66,22.68,22.68,0,0,0,23.46,11.24,17.53,17.53,0,0,0,8.76-2.79l4.76-3.68a23.42,23.42,0,0,0,6-10.39l.85-6.26a23.49,23.49,0,0,0-3.22-11.88Z"/><path d="M990.93,528.54l-.08-.16,2.38,5.63a.83.83,0,0,1-.06-.21l.84,6.26a1,1,0,0,1,0-.25l-.84,6.26a2.17,2.17,0,0,1,.07-.24l-2.37,5.62a2.53,2.53,0,0,1,.13-.22L987.32,556a1.52,1.52,0,0,1,.31-.31l-4.77,3.68a2.76,2.76,0,0,1,.44-.25l-5.62,2.37a2.09,2.09,0,0,1,.49-.13l-6.26.84h.37l-6.26-.84a1,1,0,0,1,.25.06l-5.63-2.37a.94.94,0,0,1,.22.12l-4.77-3.68.15.14-3.69-4.76a1,1,0,0,1,.14.24l-2.37-5.63,0,.06a26.25,26.25,0,0,0,10.82,14.07,17.49,17.49,0,0,0,8.75,2.79,17.86,17.86,0,0,0,9.39-.42l5.62-2.37a23.68,23.68,0,0,0,8.45-8.45l2.37-5.62a23.75,23.75,0,0,0,0-12.52,29.87,29.87,0,0,0-1.21-2.86c-.4-1-.8-1.92-1.21-2.87l-.06-.12a23.83,23.83,0,0,0-3.84-4.94c-.16-.16-4.64-3.63-4.84-3.74l-.11-.06c-.24-.15-5.38-2.32-5.69-2.41l-.14,0c-5-1.42-7.95-.89-13,0l-.3.06-.13.05c-1,.38-1.92.79-2.87,1.21s-1.91.79-2.86,1.21a23.24,23.24,0,0,0-5.24,4,1.7,1.7,0,0,0-.19.19l-1.87,2.43c-.66.78-1.28,1.59-1.88,2.42,0,0,0,.09-.07.13a24.43,24.43,0,0,0,0,24.66,22.67,22.67,0,0,0,23.45,11.24,17.5,17.5,0,0,0,8.76-2.79l4.76-3.68a23.53,23.53,0,0,0,6.06-10.39l.84-6.26a23.49,23.49,0,0,0-3.22-11.88Z"/></svg>