<svg id="Layer_1" data-name="Layer 1" xmlns="http://www.w3.org/2000/svg" viewBox="0 0 1500 1500"><defs><style>.cls-1{fill:#92b4ff;}.cls-2{fill:#cc0070;}.cls-3{fill:#663753;}.cls-4{fill:#f2d3a5;}</style></defs><title>Kid Talk</title><ellipse class="cls-1" cx="750" cy="750" rx="702.91" ry="708.79"/><path class="cls-2" d="M267,1232.55s195.62,200.2,483,200.2,456-174.62,456-174.62-48.21-192.7-314.09-177.36S394.19,994.36,267,1232.55Z"/><path d="M250,1249.51c86.41,87.94,207.72,151.48,325.48,183.54,187.85,51.12,394.5,16.8,557.94-88.27,29.62-19,67.1-41.45,89.38-69.61,18.72-23.66-9.8-65.5-23.07-85.75-33.38-50.94-82.16-88.13-138.78-110-92.93-35.85-193.48-18.5-290.47-22.3-101.08-4-204.39-18.9-304.89-.9-98.15,17.57-172,77.65-219.34,164.18-14.83,27.1,26.58,51.34,41.43,24.22,39.29-71.77,96.44-121.92,177.36-139.51,77.83-16.93,160.23-8.13,238.94-3.45,45,2.67,90,5,135.13,4.7,47.1-.31,94.08-5.55,141,1.43,62.17,9.26,121,36.32,162.29,84.54,18.81,22,34.14,47.65,40.4,72.14l6.17-23.34c-72.74,74.84-179.7,123.61-279.24,148.27-183.87,45.54-372.61,5.25-529.56-97.85-33.93-22.29-67.66-46.94-96.21-76C262.29,1193.53,228.37,1227.46,250,1249.51Z"/><path class="cls-3" d="M1200.38,957.42c-44.48-168.23-23.82-349.85-86.88-515.2C1071.86,333,984,237.05,869.54,200.34c-103.8-33.28-222.63-14.6-313.81,43.67S401.34,397.75,378.37,500.87c-21.48,96.45-9.38,196.61-15.8,295.06a789.65,789.65,0,0,1-63.05,261.15l4.34.5c20.62,14.31,41.24,28.63,62.39,42.22a1085.54,1085.54,0,0,0,359.43,147.72c53,11.32,108.06,18.7,161.56,9.7,56-9.41,106.7-36.42,152.3-69.35,57.15-41.27,103.91-78.72,172.08-101.26,15.34-5.07,32-9,47.51-4.57-21.52-16.69-31.92-43.61-41.33-69.16C1211.06,994.59,1205.32,976.09,1200.38,957.42Z"/><path d="M1223.51,951c-38.12-148.8-27.64-305.27-67.2-453.78C1124,375.87,1052,264.69,939.21,204.1c-117.64-63.21-264-56.17-379.22,9.32-110.81,63-187.6,178.49-209.14,303.39-15.28,88.63-6.89,178.44-11.61,267.76A773.1,773.1,0,0,1,278.81,1045c-7.51,17.73,1.4,33.86,20.71,36.1,1.15.13,9.55,9.23,14.35,12.52,10.35,7.11,20.73,14.18,31.24,21.06Q371.6,1132,399,1147.83a1105.37,1105.37,0,0,0,122.84,60.56c81,34.08,166.91,60.46,254.18,72.24,86.82,11.71,167.73-3.93,242.55-49.94,37-22.74,70.45-50.73,106.78-74.49,32.66-21.37,86.47-58.48,127.36-51,21.43,3.91,43-22.89,23.34-40.09-31.49-27.54-42-75.24-52.58-114-8.13-29.74-54.43-17.11-46.26,12.76,12.8,46.76,27,102.06,64.91,135.2l23.34-40.09c-78.91-14.39-161.58,52.6-221.2,96-78,56.76-155.83,91-254.25,79.53-93.41-10.91-187.55-41.51-273-80.07a1073.57,1073.57,0,0,1-120.91-64.08c-18.19-11.2-36-23-53.62-35.07-14.35-9.8-25.51-20.09-43-22.12l20.72,36.1C347.85,1004,368.31,936.7,378.82,866.6c10.34-69,9.54-138,9.91-207.55.73-136,28.13-264,132.71-358.89,95.08-86.25,238-117,358.7-70.74C997,274.24,1074.21,382.55,1107.22,499.69c42.67,151.42,31,311.84,70,464.11C1184.91,993.69,1231.2,981,1223.51,951Z"/><path class="cls-4" d="M583.15,955.84C412.22,827.25,384.94,564.65,533.91,408,603.7,334.62,705,294.41,804.52,300.63c92.07,5.77,183.57,53.2,232.93,133.56,32.42,52.77,45.34,115.88,50.6,178.11,6.29,74.42,1.91,151.88-29,219.45-60.32,132-217.73,199.56-356.95,173.76C659.65,997.64,618,982.07,583.15,955.84Z"/><path d="M595.25,935.13c-202-155.63-169.7-499.95,78-590.88,128.53-47.18,288.12-7.66,353.62,120,35.06,68.34,42.54,152.68,39.13,228.35-3.25,72-24.17,143.36-74.07,197-99,106.42-277,131.43-396.65,45.51-25.11-18-49.09,23.55-24.21,41.42,122.33,87.9,300,72.22,416.32-18.18,136.28-105.92,152.28-304.25,104.41-460-48.53-157.95-208-243.58-368.06-217C574.79,306,453.65,423.77,422.08,570.78c-32.75,152.51,25.78,310.88,149,405.77C595.48,995.38,619.4,953.73,595.25,935.13Z"/><path d="M715.81,624.21C717.09,519.5,610.22,518,608.94,622.9,607.66,727.61,714.53,729.1,715.81,624.21Z"/><path d="M971.21,624.21C972.49,519.5,865.62,518,864.33,622.9,863.05,727.61,969.92,729.1,971.21,624.21Z"/><path class="cls-3" d="M886.45,290.06s204.87,277.13,220.64,488c0,0,36.43-260.09-37.52-361.7S913.47,239.53,886.45,290.06Z"/><path d="M654.37,831.76c83.33,47.58,190.27,46.15,272-4.49,26.19-16.24,2.13-57.76-24.21-41.43-67.32,41.74-154.62,43.84-223.53,4.49-26.85-15.33-51.05,26.11-24.21,41.43Z"/><path class="cls-3" d="M635.8,398.57s204.72-63,303.19-13.69-24-145.6-117.08-136.59S652,222.45,635.8,398.57Z"/><path class="cls-3" d="M400.15,743.6S369,292.63,662.37,267.3h36.46S425.66,722.59,466.19,907.21Z"/><path d="M956.36,375.05C896,361.11,834.28,341.46,771.72,348.89c-60.52,7.18-116.23,31.68-171.25,56.6-28.08,12.72-3.72,54.08,24.22,41.43,48.57-22,99.39-45.19,153-50.72,56.13-5.8,111.75,12.61,165.87,25.12,30,6.94,42.88-39.31,12.76-46.27Z"/><path d="M429.79,1015.54c92.66,72,208.83,109,326.19,101.39,20.44-1.32,20.59-33.32,0-32-108.34,7-217.62-25.25-303.58-92-16.06-12.48-38.86,10-22.61,22.62Z"/><path d="M805.59,1191.42c37.51,1.19,75.42-1.64,110.94-14.56,32.44-11.8,61.7-30.07,90.2-49.25,13.22-8.91,32.62-18,38.77-33.83s-2.67-28.56-11.46-40.86c-7.06-9.87-11.16-17,.17-26.53,7.9-6.65,18.52-8.4,28.07-11.58,18.49-6.16,33.44-14.61,44.15-31.45,19-29.83,19.86-68.22,18.15-102.39-2.06-40.93-5.67-82.2-11.11-122.81-9.8-73.12-27.34-145.34-50.61-215.34-34.91-105-91.39-232.05-204.95-270.41C801,253.19,735.07,261.81,685,294.89c-53.44,35.32-89.23,91.73-116.31,148.53-35.26,74-62.57,153.71-85.25,232.32-30.47,105.64-48.94,215-50.08,325-.21,20.59,31.78,20.6,32,0C467.09,834.11,511,673,571.1,518.54,611.61,414.48,678.18,285.6,808.83,294.9c113,8,175.56,127.71,210.73,221.19,19.5,51.81,34.81,105.52,46.9,159.52a1000.61,1000.61,0,0,1,21,137.08c2.78,34.11,7.25,68.84,5.34,103.09-1,17.72-4,39.09-15.32,53.58-13.38,17-38.37,16.41-56.17,26.92-14.54,8.59-27.18,24.08-27.35,41.66-.07,8,2.75,15.86,6.67,22.7,2.57,4.48,14.6,15.64,14.34,20.58-.3,5.75-17.44,14.1-21.68,17-8.42,5.69-16.88,11.33-25.48,16.76-15.15,9.58-30.71,18.71-47.13,26-36.53,16.18-75.49,19.76-115,18.51-20.59-.66-20.57,31.33,0,32Z"/><path d="M732.17,516.67a1.09,1.09,0,0,1-.08-.15l2.42,5.73a.83.83,0,0,1-.06-.21l.85,6.37a1.07,1.07,0,0,1,0-.25l-.86,6.38a.84.84,0,0,1,.07-.24L732.1,540a1.09,1.09,0,0,1,.14-.23l-3.75,4.86a1.87,1.87,0,0,1,.31-.32l-4.86,3.75a2.51,2.51,0,0,1,.45-.26l-5.73,2.42a2.17,2.17,0,0,1,.5-.13l-6.38.86a1.21,1.21,0,0,1,.38,0l-6.38-.86a1,1,0,0,1,.25.06l-5.73-2.41a.94.94,0,0,1,.22.12l-4.85-3.75a.93.93,0,0,1,.14.14l-3.75-4.85a1.16,1.16,0,0,1,.14.24l-2.42-5.73,0,.06a26.9,26.9,0,0,0,11,14.34,17.8,17.8,0,0,0,8.92,2.84,18.09,18.09,0,0,0,9.56-.43l5.73-2.41a24.24,24.24,0,0,0,8.61-8.61l2.42-5.73a24.23,24.23,0,0,0,0-12.76c-.36-1-.77-2-1.23-2.92s-.82-2-1.24-2.92l-.06-.12a24.71,24.71,0,0,0-3.91-5c-.17-.17-4.73-3.7-4.93-3.82l-.11-.06c-.25-.15-5.49-2.36-5.8-2.45l-.15-.05c-5.15-1.44-8.1-.9-13.24,0l-.3.07L706,504c-1,.39-2,.8-2.92,1.23s-1.95.81-2.92,1.23a24.38,24.38,0,0,0-5.34,4.06l-.19.2-1.91,2.47c-.66.8-1.3,1.62-1.9,2.47l-.08.13a24.92,24.92,0,0,0,0,25.13,23.12,23.12,0,0,0,23.9,11.45,17.71,17.71,0,0,0,8.92-2.85l4.86-3.75a24,24,0,0,0,6.17-10.58l.85-6.38a23.84,23.84,0,0,0-3.27-12.11Z"/><path d="M982.48,514.8c0-.06-.06-.11-.08-.16l2.41,5.73a1.6,1.6,0,0,1,0-.21l.85,6.38a1.13,1.13,0,0,1,0-.26l-.85,6.38a1.09,1.09,0,0,1,.07-.24l-2.42,5.73.13-.23-3.75,4.86a1.57,1.57,0,0,1,.32-.31l-4.86,3.75a2,2,0,0,1,.45-.26L969,548.38a2.19,2.19,0,0,1,.5-.14l-6.38.86a1.61,1.61,0,0,1,.38,0l-6.38-.86.25.07-5.73-2.42a.94.94,0,0,1,.22.12L947,542.26a.71.71,0,0,1,.15.15l-3.75-4.86a1.23,1.23,0,0,1,.14.25l-2.42-5.73,0,0a18.07,18.07,0,0,0,4.29,8.16,18.27,18.27,0,0,0,6.73,6.18,18,18,0,0,0,8.92,2.85,18.23,18.23,0,0,0,9.57-.43l5.73-2.42a24.16,24.16,0,0,0,8.61-8.61l2.41-5.73a24,24,0,0,0,0-12.75,30,30,0,0,0-1.23-2.92c-.4-1-.81-2-1.23-2.92a.83.83,0,0,0-.07-.13,24.66,24.66,0,0,0-3.9-5c-.17-.17-4.73-3.69-4.94-3.81l-.11-.07c-.24-.15-5.49-2.35-5.8-2.45l-.14,0c-5.15-1.45-8.1-.91-13.24,0-.1,0-.2,0-.3.06l-.14,0c-1,.39-1.95.8-2.92,1.23s-2,.81-2.92,1.23a24.15,24.15,0,0,0-5.34,4.06l-.19.2L943,511.28c-.67.8-1.3,1.62-1.9,2.47a1,1,0,0,0-.08.14,24.9,24.9,0,0,0,0,25.12A23.07,23.07,0,0,0,965,550.46a17.83,17.83,0,0,0,8.92-2.84l4.85-3.75a23.92,23.92,0,0,0,6.17-10.59l.86-6.38a23.81,23.81,0,0,0-3.27-12.1Z"/></svg>