<svg id="Layer_1" data-name="Layer 1" xmlns="http://www.w3.org/2000/svg" viewBox="0 0 1500 1500"><defs><style>.cls-1{fill:#92b4ff;}.cls-2{fill:#cc0070;}.cls-3{fill:#663753;}.cls-4{fill:#d88d3d;}</style></defs><title>Kid Talk</title><ellipse class="cls-1" cx="750" cy="749.6" rx="695.27" ry="701.09"/><path class="cls-2" d="M272.26,1226.91s193.48,198,477.74,198,451-172.72,451-172.72-47.68-190.61-310.68-175.43S398.06,991.31,272.26,1226.91Z"/><path d="M255.48,1243.69c85.46,87,205.45,149.83,321.94,181.53,185.81,50.57,390.21,16.63,551.87-87.3,29.3-18.84,66.37-41,88.41-68.86,18.51-23.4-9.7-64.78-22.82-84.81-33-50.39-81.27-87.17-137.27-108.77-91.92-35.45-191.38-18.3-287.32-22-100-3.92-202.16-18.7-301.57-.9-97.08,17.39-170.09,76.81-216.95,162.4-14.68,26.8,26.29,50.78,41,24,38.87-71,95.39-120.59,175.43-138,77-16.74,158.49-8,236.35-3.41,44.51,2.64,89.06,5,133.67,4.65,46.58-.31,93-5.49,139.43,1.41,61.49,9.16,119.66,35.93,160.52,83.63,18.61,21.72,33.77,47.13,40,71.35l6.1-23.09c-72,74-177.74,122.27-276.21,146.66-181.87,45.05-368.55,5.19-523.8-96.79-33.56-22-66.92-46.43-95.17-75.17C267.59,1188.31,234,1221.88,255.48,1243.69Z"/><path class="cls-3" d="M1195.49,954.77c-44-166.4-23.56-346-85.94-509.6-41.19-108-128-202.94-241.31-239.25C765.57,173,648,191.48,557.84,249.11S405.13,401.18,382.41,503.18c-21.25,95.4-9.28,194.47-15.63,291.86a780.84,780.84,0,0,1-62.36,258.3l4.29.5c20.39,14.16,40.8,28.32,61.71,41.76A1073.85,1073.85,0,0,0,726,1241.72c52.45,11.19,106.88,18.49,159.8,9.59,55.39-9.31,105.54-36,150.64-68.6,56.53-40.82,102.78-77.86,170.21-100.16,15.18-5,31.63-8.92,47-4.52-21.28-16.5-31.56-43.13-40.88-68.41C1206,991.53,1200.37,973.23,1195.49,954.77Z"/><path d="M1218.37,948.46c-37.72-147.19-27.35-302-66.48-448.85-32-120.07-103.21-230-214.74-290C820.8,147.11,676,154.08,562.06,218.86,452.45,281.16,376.49,395.4,355.19,519c-15.11,87.67-6.81,176.5-11.48,264.84a765,765,0,0,1-59.78,257.58c-7.43,17.53,1.39,33.49,20.49,35.7,1.13.13,9.45,9.13,14.19,12.39,10.24,7,20.51,14,30.9,20.83q26.21,17.16,53.35,32.82a1092.6,1092.6,0,0,0,121.5,59.9c80.14,33.71,165.1,59.8,251.41,71.45,85.88,11.59,165.91-3.89,239.92-49.39,36.59-22.5,69.68-50.18,105.61-73.68,32.32-21.14,85.54-57.85,126-50.48,21.2,3.86,42.55-22.64,23.09-39.66-31.14-27.23-41.5-74.41-52-112.79-8-29.42-53.85-16.93-45.76,12.62,12.65,46.25,26.72,100.95,64.2,133.73l23.09-39.66c-78.06-14.22-159.83,52-218.8,94.95-77.16,56.15-154.13,90-251.49,78.66-92.39-10.79-185.51-41-270-79.19A1062.57,1062.57,0,0,1,400,1086.18c-18-11.07-35.59-22.76-53-34.68-14.19-9.69-25.23-19.88-42.53-21.88l20.49,35.7c27.32-64.46,47.55-131,57.94-200.39,10.23-68.24,9.44-136.49,9.81-205.29.72-134.52,27.82-261.15,131.26-355,94.05-85.31,235.43-115.77,354.8-70C994.28,279,1070.68,386.15,1103.33,502c42.21,149.78,30.69,308.46,69.28,459.07C1180.18,990.64,1226,978.11,1218.37,948.46Z"/><path class="cls-4" d="M585,953.21C415.9,826,388.9,566.27,536.26,411.32c69-72.58,169.27-112.36,267.67-106.2,91.07,5.7,181.57,52.62,230.4,132.11,32.06,52.2,44.85,114.62,50.05,176.17,6.22,73.61,1.89,150.23-28.66,217.06C996.06,961,840.36,1027.86,702.65,1002.33,660.64,994.55,619.45,979.15,585,953.21Z"/><path d="M596.94,932.72C397.13,778.78,429.07,438.21,674.05,348.27c127.14-46.68,285-7.59,349.78,118.7,34.68,67.59,42.08,151,38.7,225.86-3.21,71.25-23.9,141.81-73.26,194.88-97.9,105.26-274,130-392.33,45-24.85-17.85-48.56,23.29-24,41,121,86.94,296.73,71.44,411.8-18,134.8-104.76,150.62-300.94,103.28-455C1040.05,344.47,882.27,259.77,724,286,576.7,310.47,456.88,426.92,425.65,572.34,393.25,723.18,451.15,879.83,573,973.69,597.16,992.32,620.82,951.12,596.94,932.72Z"/><path d="M716.18,625.18c1.27-103.57-104.44-105-105.71-1.29C609.2,727.46,714.91,728.93,716.18,625.18Z"/><path d="M968.8,625.18c1.27-103.57-104.44-105-105.71-1.29C861.82,727.46,967.53,728.93,968.8,625.18Z"/><path class="cls-3" d="M885,294.67s202.64,274.11,218.24,482.73c0,0,36-257.26-37.12-357.77S911.69,244.68,885,294.67Z"/><path d="M655.41,830.47c82.42,47.07,188.21,45.66,269-4.44,25.9-16.06,2.1-57.13-24-41-66.58,41.28-152.93,43.35-221.09,4.44-26.56-15.17-50.5,25.82-24,41Z"/><path class="cls-3" d="M637,402s202.49-62.33,299.89-13.55-23.75-144-115.8-135.1S653,227.79,637,402Z"/><path class="cls-3" d="M404,743.28S373.18,297.2,663.33,272.15h36.06s-270.2,450.34-230.12,633Z"/><path d="M954.11,378.73c-59.69-13.79-120.75-33.23-182.62-25.88-59.87,7.11-115,31.34-169.39,56-27.78,12.58-3.68,53.49,23.95,41,48-21.77,98.31-44.7,151.38-50.17C833,393.92,888,412.13,941.5,424.49c29.72,6.87,42.41-38.88,12.61-45.76Z"/><path d="M433.27,1012.26c91.66,71.19,206.56,107.77,322.65,100.28,20.22-1.3,20.36-33,0-31.64-107.16,6.92-215.26-25-300.28-91-15.89-12.34-38.44,9.9-22.37,22.38Z"/><path d="M805,1186.23c37.1,1.17,74.6-1.62,109.73-14.41,32.09-11.67,61-29.74,89.21-48.71,13.09-8.81,32.27-17.82,38.36-33.46s-2.64-28.25-11.34-40.42c-7-9.76-11-16.82.17-26.24,7.81-6.58,18.32-8.31,27.77-11.45,18.29-6.09,33.07-14.45,43.66-31.12,18.76-29.5,19.65-67.47,18-101.27-2-40.49-5.6-81.3-11-121.47-9.69-72.33-27-143.76-50.06-213-34.53-103.86-90.4-229.53-202.72-267.47-56.29-19-121.51-10.49-171,22.23-52.86,34.93-88.27,90.73-115.05,146.91-34.87,73.18-61.89,152-84.32,229.8C456.22,780.64,438,888.77,436.83,997.65c-.21,20.36,31.42,20.38,31.63,0,1.7-164.85,45.12-324.26,104.59-477C613.12,417.73,679,290.25,808.19,299.45c111.82,8,173.65,126.32,208.44,218.79,19.28,51.24,34.44,104.37,46.39,157.79a988.2,988.2,0,0,1,20.72,135.58c2.75,33.74,7.17,68.09,5.29,102-1,17.53-3.91,38.67-15.16,53-13.24,16.86-37.95,16.23-55.55,26.63-14.39,8.49-26.9,23.81-27.06,41.21-.07,7.9,2.72,15.68,6.6,22.45,2.54,4.43,14.43,15.46,14.18,20.35-.3,5.69-17.25,14-21.44,16.79-8.33,5.63-16.7,11.2-25.2,16.58-15,9.47-30.39,18.51-46.62,25.7-36.14,16-74.67,19.54-113.79,18.3-20.37-.65-20.35,31,0,31.64Z"/><path d="M734,518.81a1.09,1.09,0,0,1-.08-.15l2.39,5.66-.06-.2.85,6.31a1.13,1.13,0,0,1,0-.26l-.84,6.31a.73.73,0,0,1,.07-.24L734,541.91a1,1,0,0,1,.13-.22l-3.71,4.8a1.52,1.52,0,0,1,.31-.31l-4.81,3.71a2,2,0,0,1,.45-.25L720.68,552a2.11,2.11,0,0,1,.49-.14l-6.31.85h.38l-6.31-.84a1,1,0,0,1,.25.06l-5.67-2.39a.94.94,0,0,1,.22.12L698.92,546a1,1,0,0,1,.15.14l-3.71-4.8a1.41,1.41,0,0,1,.13.24l-2.39-5.67,0,.06A26.55,26.55,0,0,0,704,550.13a17.65,17.65,0,0,0,8.82,2.82,18,18,0,0,0,9.46-.43l5.67-2.39a23.93,23.93,0,0,0,8.51-8.51l2.39-5.67a23.91,23.91,0,0,0,0-12.62c-.35-1-.76-1.94-1.21-2.89l-1.22-2.88-.07-.13a24.73,24.73,0,0,0-3.86-5c-.17-.17-4.68-3.66-4.88-3.78l-.11-.06c-.25-.15-5.43-2.33-5.74-2.42l-.14-.05c-5.09-1.42-8-.89-13.09,0l-.31.07-.13.05c-1,.38-1.93.79-2.89,1.21l-2.89,1.22a23.86,23.86,0,0,0-5.28,4l-.19.19c-.63.82-1.26,1.63-1.88,2.45s-1.29,1.6-1.89,2.44l-.08.13a24.65,24.65,0,0,0,0,24.85,22.83,22.83,0,0,0,23.64,11.33,17.7,17.7,0,0,0,8.83-2.81l4.8-3.71a23.73,23.73,0,0,0,6.1-10.47l.85-6.31a23.57,23.57,0,0,0-3.24-12Z"/><path d="M981.63,517a.8.8,0,0,1-.08-.16l2.39,5.67a.83.83,0,0,1-.06-.21l.85,6.31a1,1,0,0,1,0-.25l-.85,6.31a1.68,1.68,0,0,1,.07-.24l-2.39,5.67a1.71,1.71,0,0,1,.13-.23L978,544.64a1.82,1.82,0,0,1,.31-.31l-4.8,3.71a2,2,0,0,1,.45-.26l-5.67,2.39a2.09,2.09,0,0,1,.49-.13l-6.31.85a1.21,1.21,0,0,1,.38,0l-6.31-.85.24.06-5.66-2.39a1.13,1.13,0,0,1,.21.12l-4.8-3.71.15.15-3.72-4.8a1,1,0,0,1,.14.24L940.69,534l0,.05a24.48,24.48,0,0,0,29.19,16.58l5.67-2.39a23.88,23.88,0,0,0,8.51-8.52l2.39-5.67a23.88,23.88,0,0,0,0-12.61,30.48,30.48,0,0,0-1.22-2.89c-.4-1-.8-1.93-1.21-2.89a.75.75,0,0,1-.07-.12,24.52,24.52,0,0,0-3.86-5c-.17-.17-4.68-3.65-4.89-3.77l-.1-.06c-.25-.15-5.43-2.33-5.74-2.43l-.14,0c-5.1-1.43-8-.9-13.1,0l-.3.06-.13.05c-1,.39-1.94.79-2.89,1.22s-1.93.8-2.89,1.22a23.59,23.59,0,0,0-5.28,4,1.8,1.8,0,0,0-.19.2l-1.89,2.44c-.66.79-1.29,1.61-1.88,2.44a1,1,0,0,0-.08.14,24.65,24.65,0,0,0,0,24.85,22.88,22.88,0,0,0,23.64,11.33,17.65,17.65,0,0,0,8.82-2.82l4.81-3.71a23.73,23.73,0,0,0,6.1-10.47l.85-6.31a23.73,23.73,0,0,0-3.24-12Z"/></svg>