<svg id="Layer_1" data-name="Layer 1" xmlns="http://www.w3.org/2000/svg" viewBox="0 0 1500 1500"><defs><style>.cls-1{fill:#92b4ff;}.cls-2{fill:#cc0070;}.cls-3{fill:#663753;}.cls-4{fill:#99501f;}</style></defs><title>Kid Talk</title><ellipse class="cls-1" cx="750" cy="749.6" rx="697.4" ry="703.23"/><path class="cls-2" d="M270.79,1228.37S464.87,1427,750,1427s452.37-173.24,452.37-173.24-47.83-191.19-311.63-176S397,992.05,270.79,1228.37Z"/><path d="M254,1245.2c85.73,87.25,206.09,150.29,322.93,182.09C763.27,1478,968.3,1444,1130.45,1339.72c29.39-18.9,66.57-41.13,88.68-69.07,18.57-23.47-9.73-65-22.89-85.07-33.12-50.54-81.51-87.44-137.69-109.11-92.2-35.56-192-18.35-288.19-22.11-100.29-3.93-202.79-18.76-302.5-.9-97.37,17.44-170.61,77-217.62,162.9-14.72,26.88,26.37,50.93,41.1,24,39-71.21,95.69-121,176-138.42,77.23-16.79,159-8,237.07-3.42,44.64,2.65,89.34,5,134.08,4.67,46.72-.31,93.33-5.51,139.85,1.42,61.69,9.18,120,36,161,83.88,18.67,21.79,33.87,47.27,40.09,71.56l6.12-23.15c-72.17,74.26-178.29,122.64-277.06,147.11-182.42,45.18-369.68,5.2-525.4-97.09-33.66-22.11-67.13-46.57-95.46-75.4C266.12,1189.65,232.47,1223.32,254,1245.2Z"/><path class="cls-3" d="M1196.85,955.4c-44.14-166.91-23.63-347.11-86.2-511.16-41.31-108.34-128.44-203.56-242.05-240-103-33-220.88-14.49-311.35,43.32s-153.18,152.53-176,254.84C360,598.12,372,697.49,365.61,795.18a783.24,783.24,0,0,1-62.55,259.09l4.3.5c20.46,14.2,40.92,28.41,61.9,41.89a1077.13,1077.13,0,0,0,356.61,146.56c52.61,11.23,107.21,18.55,160.29,9.63,55.56-9.34,105.86-36.14,151.11-68.81,56.7-41,103.1-78.1,170.73-100.47,15.22-5,31.72-9,47.13-4.53-21.35-16.56-31.66-43.27-41-68.62C1207.44,992.27,1201.75,973.92,1196.85,955.4Z"/><path d="M1219.8,949.07c-37.83-147.64-27.43-302.88-66.68-450.22C1121,378.41,1049.59,268.1,937.72,208,821,145.27,675.8,152.26,561.48,217.24c-109.94,62.48-186.13,177.08-207.5,301-15.16,87.94-6.83,177-11.52,265.66a767.13,767.13,0,0,1-59.95,258.36c-7.46,17.59,1.38,33.59,20.55,35.81,1.13.13,9.47,9.16,14.23,12.43,10.27,7,20.57,14.07,31,20.89q26.3,17.22,53.52,32.92a1094.1,1094.1,0,0,0,121.87,60.09c80.38,33.81,165.6,60,252.18,71.67,86.14,11.62,166.42-3.9,240.65-49.54,36.7-22.57,69.9-50.34,105.94-73.91,32.41-21.2,85.8-58,126.36-50.63,21.27,3.87,42.68-22.71,23.16-39.78-31.24-27.32-41.63-74.64-52.16-113.14-8.08-29.51-54-17-45.9,12.65,12.7,46.4,26.8,101.26,64.4,134.15l23.16-39.78c-78.3-14.27-160.31,52.19-219.47,95.24-77.4,56.31-154.61,90.31-252.26,78.9-92.67-10.82-186.08-41.18-270.86-79.44a1065.7,1065.7,0,0,1-119.95-63.58c-18.05-11.1-35.7-22.83-53.2-34.79-14.24-9.72-25.31-19.94-42.66-22l20.55,35.82c27.4-64.66,47.7-131.45,58.12-201,10.26-68.45,9.47-136.9,9.84-205.91.72-134.93,27.91-262,131.66-356.08,94.33-85.57,236.14-116.13,355.89-70.18C995,277.58,1071.67,385,1104.42,501.26c42.33,150.23,30.77,309.39,69.48,460.46C1181.5,991.38,1227.42,978.81,1219.8,949.07Z"/><path class="cls-4" d="M584.46,953.83C414.87,826.24,387.8,565.71,535.6,410.29c69.24-72.81,169.8-112.7,268.49-106.53,91.35,5.72,182.13,52.78,231.11,132.51,32.16,52.36,45,115,50.2,176.71,6.24,73.84,1.9,150.69-28.74,217.73-59.85,130.94-216,198-354.16,172.4C660.36,995.3,619.05,979.85,584.46,953.83Z"/><path d="M596.47,933.28C396.05,778.87,428.09,437.26,673.82,347c127.53-46.82,285.87-7.61,350.85,119.06,34.78,67.81,42.21,151.48,38.82,226.56-3.22,71.47-24,142.24-73.49,195.47-98.19,105.58-274.88,130.4-393.53,45.15-24.92-17.91-48.71,23.37-24,41.1,121.38,87.21,297.64,71.65,413.05-18,135.22-105.08,151.09-301.86,103.6-456.39-48.15-156.71-206.42-241.67-365.18-215.33C576.17,309.13,456,425.94,424.65,571.79,392.16,723.1,450.23,880.23,572.44,974.38,596.69,993.06,620.42,951.73,596.47,933.28Z"/><path d="M716.08,624.8c1.27-103.89-104.76-105.35-106-1.3C608.77,727.39,714.8,728.87,716.08,624.8Z"/><path d="M969.47,624.8c1.27-103.89-104.76-105.35-106-1.3C862.17,727.39,968.2,728.87,969.47,624.8Z"/><path class="cls-3" d="M885.38,293.27s203.27,275,218.91,484.21c0,0,36.14-258-37.23-358.86S912.19,243.13,885.38,293.27Z"/><path d="M655.12,830.72c82.68,47.21,188.78,45.79,269.82-4.45,26-16.11,2.11-57.31-24-41.11-66.78,41.42-153.4,43.5-221.77,4.46-26.64-15.21-50.65,25.9-24,41.1Z"/><path class="cls-3" d="M636.69,400.93s203.12-62.52,300.81-13.59S913.68,242.89,821.35,251.83,652.74,226.2,636.69,400.93Z"/><path class="cls-3" d="M402.89,743.26S372,295.82,663.06,270.69h36.18s-271,451.72-230.83,634.89Z"/><path d="M954.74,377.6c-59.87-13.83-121.12-33.33-183.19-26-60,7.13-115.32,31.43-169.91,56.16-27.86,12.62-3.69,53.65,24,41.1,48.19-21.83,98.61-44.83,151.84-50.32,55.69-5.75,110.88,12.51,164.57,24.92,29.82,6.88,42.54-39,12.66-45.9Z"/><path d="M432.3,1013.06c91.94,71.41,207.19,108.11,323.64,100.59,20.28-1.31,20.42-33.05,0-31.73-107.49,6.94-215.92-25.06-301.2-91.3-15.94-12.38-38.56,9.92-22.44,22.44Z"/><path d="M805.15,1187.56c37.22,1.18,74.83-1.62,110.08-14.44,32.18-11.71,61.21-29.84,89.48-48.87,13.12-8.84,32.37-17.87,38.48-33.56s-2.65-28.34-11.38-40.54c-7-9.79-11.07-16.87.17-26.33,7.83-6.59,18.38-8.33,27.85-11.48,18.35-6.11,33.18-14.5,43.8-31.21,18.81-29.6,19.71-67.68,18-101.58-2.05-40.62-5.63-81.56-11-121.85-9.72-72.54-27.12-144.2-50.21-213.65-34.64-104.18-90.68-230.23-203.35-268.29-56.46-19.07-121.88-10.52-171.53,22.3-53,35-88.53,91-115.39,147.37-35,73.4-62.09,152.5-84.59,230.49C455.32,780.73,437,889.2,435.87,998.41c-.21,20.42,31.52,20.44,31.73,0C469.31,833.05,512.86,673.16,572.5,520c40.2-103.24,106.24-231.11,235.87-221.89,112.16,8,174.18,126.71,209.08,219.46,19.34,51.4,34.54,104.69,46.52,158.27a989.73,989.73,0,0,1,20.79,136c2.76,33.85,7.19,68.3,5.3,102.28-1,17.59-3.92,38.79-15.2,53.16-13.28,16.91-38.06,16.28-55.72,26.71-14.44,8.52-27,23.89-27.14,41.34-.07,7.92,2.73,15.73,6.62,22.52,2.54,4.44,14.48,15.51,14.22,20.41-.3,5.71-17.3,14-21.51,16.84-8.35,5.65-16.75,11.24-25.27,16.63-15,9.51-30.48,18.57-46.76,25.78-36.25,16-74.91,19.6-114.15,18.36-20.42-.65-20.4,31.09,0,31.73Z"/><path d="M730.51,518.11l-.08-.16,2.4,5.69a.83.83,0,0,1-.06-.21l.85,6.33a1.13,1.13,0,0,1,0-.26l-.85,6.33a2.17,2.17,0,0,1,.07-.24l-2.4,5.69a1.76,1.76,0,0,1,.14-.23l-3.73,4.82a2.27,2.27,0,0,1,.31-.31l-4.81,3.72a2.82,2.82,0,0,1,.44-.26l-5.68,2.4a2.09,2.09,0,0,1,.49-.13l-6.32.85h.37l-6.33-.85a1,1,0,0,1,.25.06L699.89,549a1.13,1.13,0,0,1,.21.12l-4.81-3.72a.93.93,0,0,1,.14.14l-3.72-4.82a1.23,1.23,0,0,1,.14.25l-2.4-5.69,0,.06a23,23,0,0,0,19.78,17.05,18.13,18.13,0,0,0,9.49-.43l5.69-2.4A23.94,23.94,0,0,0,733,541l2.4-5.68a24.06,24.06,0,0,0,0-12.66c-.36-1-.77-1.95-1.22-2.9s-.81-1.93-1.22-2.89a.83.83,0,0,1-.07-.13,24.59,24.59,0,0,0-3.88-5c-.16-.17-4.69-3.67-4.89-3.78a.41.41,0,0,1-.11-.07c-.25-.14-5.45-2.33-5.76-2.43l-.14,0c-5.11-1.43-8-.9-13.13,0l-.31.06-.13.05c-1,.39-1.94.8-2.9,1.22l-2.89,1.22a23.79,23.79,0,0,0-5.3,4,1.8,1.8,0,0,0-.19.2l-1.89,2.45c-.67.79-1.3,1.61-1.9,2.45a.57.57,0,0,1-.08.13,24.71,24.71,0,0,0,0,24.93,22.9,22.9,0,0,0,23.71,11.36,17.65,17.65,0,0,0,8.85-2.82l4.82-3.72a23.77,23.77,0,0,0,6.12-10.5l.85-6.33a23.76,23.76,0,0,0-3.25-12Z"/><path d="M978.85,516.25l-.08-.16,2.4,5.68a1.17,1.17,0,0,1,0-.2l.85,6.32a1,1,0,0,1,0-.25l-.85,6.33a1.09,1.09,0,0,1,.07-.24l-2.4,5.68a2.53,2.53,0,0,1,.13-.22L975.2,544a1.52,1.52,0,0,1,.31-.31l-4.82,3.72a2.51,2.51,0,0,1,.45-.26l-5.69,2.4a2.17,2.17,0,0,1,.5-.13l-6.33.85a1.21,1.21,0,0,1,.38,0l-6.33-.85.25.06-5.69-2.4.22.13-4.82-3.72.14.14-3.72-4.82a1.49,1.49,0,0,1,.14.24l-2.4-5.68,0,.06a26.63,26.63,0,0,0,10.94,14.22,17.65,17.65,0,0,0,8.85,2.82,18,18,0,0,0,9.49-.42l5.68-2.4a23.86,23.86,0,0,0,8.54-8.54l2.4-5.68a23.86,23.86,0,0,0,0-12.66,29.21,29.21,0,0,0-1.22-2.9c-.4-1-.81-1.93-1.22-2.9a.75.75,0,0,0-.07-.12,24.9,24.9,0,0,0-3.87-5c-.17-.17-4.7-3.67-4.9-3.78a.41.41,0,0,0-.11-.07c-.24-.14-5.44-2.33-5.75-2.43l-.15,0c-5.1-1.43-8-.9-13.13,0l-.3.06-.14.05c-1,.39-1.94.8-2.89,1.22l-2.9,1.22a23.79,23.79,0,0,0-5.3,4,1.8,1.8,0,0,0-.19.2l-1.89,2.45c-.66.79-1.29,1.61-1.89,2.45l-.08.13a24.74,24.74,0,0,0,0,24.93,22.9,22.9,0,0,0,23.72,11.36,17.65,17.65,0,0,0,8.84-2.82l4.82-3.72a23.77,23.77,0,0,0,6.12-10.5l.85-6.33a23.56,23.56,0,0,0-3.25-12Z"/></svg>