<svg id="Layer_1" data-name="Layer 1" xmlns="http://www.w3.org/2000/svg" viewBox="0 0 1500 1500"><defs><style>.cls-1{fill:#92b4ff;}.cls-2{fill:#8c670c;}.cls-3{fill:#cc0070;}.cls-4{fill:#f4b5a6;}</style></defs><title>Kid Talk</title><ellipse class="cls-1" cx="750" cy="750" rx="704.36" ry="710.26"/><path class="cls-2" d="M521.29,894.93c-5.53,40-47.28,63.53-85.18,77.57-35,13-71.65,23.37-109,23.12S251.34,983.42,225,957c54.9-7.69,102.49-52.87,113-107.29,8.25-42.61-4.45-86.06-13.26-128.55-18.49-89.22-19.56-184.18,12.78-269.36S439.1,292.68,527.12,269.17c8.6-2.3,17.4-4.14,25.51-7.81,9.62-4.36,17.9-11.12,26.29-17.54,70.55-54,159.18-88.41,247.66-80.49s174.74,63.44,205.66,146.73c33.58-7.16,65.59,16.43,89.67,40.91C1196,426.28,1247.28,535.33,1220,637.4c-16.19,60.53-58.36,113.58-63.57,176-5.08,60.87,30,123.16,84.68,150.37-65.74,35.75-153.42,25.7-209.37-24"/><path d="M498.11,888.54c-9.25,45.69-66.84,62.15-105.72,73.07C341.24,976,283.5,978.33,242,940l-10.61,40.18C312.08,966,367.71,893.21,364.47,812.2c-2-50.18-19-98.59-24.9-148.34C333.45,612.3,334,559,345.65,508.26,365.14,423,417.24,343,498.2,305.07c19.64-9.2,40.92-12.34,60.82-20.53,22.61-9.32,41-27.48,61.48-40.63,41.41-26.64,87.51-46.32,136.3-54.19,99.67-16.09,213.15,28.16,252.26,126.73,3.5,8.84,12.17,19.11,23.18,17.65,64.82-8.62,120.86,85.86,144.55,135.59,31.32,65.77,34.42,135.15,5.41,202.12-24.66,57-57.13,111.8-48.49,176.29,7.78,58,43.86,108.85,95.26,136.45V943c-58,29.64-130.26,21.88-180.24-20.25-23.51-19.83-57.69,14-34,34,67.32,56.77,159.9,67.91,238.49,27.77,15.92-8.13,15.41-33.24,0-41.51-66.06-35.48-86.1-107.26-61.3-175.49,24.07-66.22,61.74-122.31,59.39-195.65-2.08-65-27.92-128.32-65.11-181-34.38-48.68-87.09-113.8-154-104.91l23.18,17.65C1023.26,222.61,951.76,165,867,145.55c-96.58-22.18-198.85,8-279.36,62.52-22.58,15.29-40.28,30.21-66.91,37.92a292.59,292.59,0,0,0-62.29,25.61c-38.19,21.49-70.59,52-96.79,86.89C302.07,437.94,282.4,540,289.06,637.58c4.12,60.39,27.17,119.82,27.56,180,.39,59.36-39.91,106-98,116.2C200.78,936.89,195.5,962.4,208,974c54.39,50.28,128.71,53.25,197.18,34,56-15.72,126.33-42.55,139.3-106.65,6.12-30.21-40.21-43.13-46.36-12.78Z"/><path class="cls-3" d="M266,1233.55s196,200.61,484,200.61,456.89-175,456.89-175-48.3-193.1-314.74-177.73S393.46,994.86,266,1233.55Z"/><path d="M249,1250.55c86.58,88.11,208.14,151.79,326.15,183.91,188.24,51.23,395.32,16.84,559.09-88.45,29.69-19.09,67.24-41.54,89.57-69.76,18.75-23.71-9.83-65.63-23.13-85.92-33.44-51-82.32-88.31-139.06-110.19-93.12-35.92-193.88-18.54-291.07-22.34-101.29-4-204.81-18.94-305.52-.91-98.35,17.61-172.31,77.81-219.79,164.53-14.86,27.15,26.64,51.44,41.51,24.26,39.38-71.92,96.64-122.17,177.73-139.8,78-17,160.56-8.14,239.43-3.46,45.09,2.68,90.23,5,135.42,4.72,47.19-.32,94.27-5.57,141.25,1.43,62.3,9.28,121.23,36.4,162.63,84.72,18.85,22,34.21,47.74,40.49,72.28l6.18-23.39c-72.89,75-180.07,123.87-279.82,148.58-184.25,45.64-373.38,5.26-530.66-98-34-22.33-67.79-47-96.41-76.16C261.28,1194.45,227.3,1228.45,249,1250.55Z"/><path class="cls-4" d="M614.21,988.19l-.74,82.42c-.06,5.87,0,12.05,2.91,17.12,2.2,3.79,5.79,6.53,9.33,9.1,37.47,27.15,81.44,46.82,127.62,49.77s94.55-12.24,126.32-45.88c5.31-5.61,10.23-11.88,12.5-19.27,1.86-6,1.83-12.5,1.79-18.83q-.2-30-.4-60"/><path d="M590.17,988.19c-.24,27.44-1.22,55-.74,82.42.21,12,1.82,22.75,8.8,32.73,6.68,9.53,17.61,16.12,27.18,22.42,38.71,25.45,83.58,42.6,130.09,45,42,2.17,86.38-9.47,120.25-34.85,17.65-13.23,36.07-30.13,40.65-52.66,5.18-25.49,1.35-54.79,1.18-80.66-.2-30.92-48.28-31-48.07,0,.13,20.8.63,41.63.39,62.42-.17,15.81-13,26-25.42,34.4-26.23,17.67-57.6,24.89-89,23.28-34.84-1.79-68.24-15.22-97.71-33.28-5-3.05-17.39-8.31-20.3-13.56-2.17-3.93.12-16.72.16-21.71l.6-65.94c.28-31-47.8-31-48.08,0Z"/><path class="cls-4" d="M582.8,956.27c-171.27-128.86-198.62-392-49.34-549C603.39,333.76,705,293.47,804.63,299.71c92.26,5.77,184,53.3,233.42,133.83,32.48,52.88,45.43,116.12,50.7,178.48,6.3,74.57,1.91,152.19-29,219.9C999.28,964.17,841.54,1031.89,702,1006,659.47,998.15,617.74,982.55,582.8,956.27Z"/><path d="M594.93,935.51c-202.42-156-170-501,78.13-592.09,128.8-47.29,288.72-7.69,354.35,120.25,35.13,68.48,42.63,153,39.21,228.82-3.25,72.18-24.22,143.65-74.22,197.42-99.18,106.63-277.63,131.7-397.47,45.6-25.16-18.08-49.19,23.6-24.26,41.51,122.58,88.08,300.61,72.37,417.18-18.22,136.57-106.14,152.59-304.88,104.63-461C1043.84,339.57,884,253.76,723.65,280.36,574.43,305.13,453,423.1,421.4,570.41,388.58,723.23,447.24,881.93,570.67,977,595.16,995.89,619.13,954.15,594.93,935.51Z"/><path d="M715.74,624C717,519,609.93,517.55,608.65,622.64,607.36,727.57,714.45,729.06,715.74,624Z"/><path d="M971.66,624C973,519,865.86,517.55,864.57,622.64,863.29,727.57,970.38,729.06,971.66,624Z"/><path d="M654.17,831.93c83.51,47.68,190.67,46.25,272.52-4.5,26.24-16.27,2.13-57.88-24.27-41.51-67.45,41.82-154.93,43.92-224,4.5-26.92-15.37-51.16,26.15-24.27,41.51Z"/><rect class="cls-2" x="674.59" y="272" width="291.45" height="105.29"/><polygon class="cls-2" points="382.21 786.39 361.15 531.2 496.52 361.53 571.72 311.11 608.64 314.12 533.46 407.3 523.69 578.91 576.21 784.98 569.09 832.64 523.4 867.04 491.25 905.96 382.21 786.39"/><path class="cls-2" d="M661.85,324.68a678.79,678.79,0,0,0-9.11,116.17c104,7.16,208.71-25.37,311.72-9.72q2.52-42.64,1.08-85.42"/><path d="M638.67,318.29a754.52,754.52,0,0,0-10,122.56c0,13.59,11,23.23,24,24,101.9,6.29,203.73-25.12,305.33-10.58,15.91,2.28,29.48-6.1,30.43-23.18q2.37-42.7,1.08-85.42c-.93-30.87-49-31-48.08,0q1.31,42.75-1.08,85.42L970.85,408c-106.55-15.25-211.52,15.44-318.11,8.86l24,24A675.82,675.82,0,0,1,685,331.07c2.08-12.91-3.35-25.72-16.79-29.57-11.43-3.27-27.51,4-29.57,16.79Z"/><path d="M536.47,920c64.16-42.93,58.2-146,45.41-210.57-11-55.54-33.58-110.79-36.93-167.58-3.7-62.67,30-115.36,66-163.88,18.43-24.87-23.28-48.88-41.52-24.26-34.79,46.95-66.55,98.51-72,158-4.59,49.68,10.76,98.93,23,146.49C534.8,714.4,551.85,775.8,536.19,833.7c-3.68,13.58-9.13,27.08-17.93,38.23-.7.89-13.1,11.22-6,6.5-25.59,17.12-1.55,58.79,24.26,41.52Z"/><path d="M734.45,524.22l-.08-.16,2.42,5.74a1.6,1.6,0,0,1,0-.21l.86,6.39a1,1,0,0,1,0-.25l-.86,6.39a1,1,0,0,1,.07-.25l-2.42,5.75a1.71,1.71,0,0,1,.13-.23l-3.76,4.87a2.34,2.34,0,0,1,.31-.32l-4.86,3.76a2.51,2.51,0,0,1,.45-.26l-5.74,2.42a2,2,0,0,1,.5-.13l-6.39.86a1.21,1.21,0,0,1,.38,0l-6.39-.86a1.09,1.09,0,0,1,.24.07l-5.74-2.43.22.13-4.86-3.76.14.14L695.26,547a.84.84,0,0,1,.14.24L693,541.52l0,.06a23.19,23.19,0,0,0,20,17.22,18.3,18.3,0,0,0,9.59-.43l5.74-2.43a24.17,24.17,0,0,0,8.63-8.62l2.42-5.74a24.31,24.31,0,0,0,0-12.78,30.19,30.19,0,0,0-1.23-2.93c-.41-1-.82-2-1.24-2.93a.75.75,0,0,0-.07-.12,25.1,25.1,0,0,0-3.91-5.05c-.17-.16-4.74-3.7-4.94-3.82l-.11-.06c-.25-.15-5.51-2.36-5.81-2.45l-.15-.05c-5.16-1.45-8.12-.91-13.26,0l-.31.07-.14,0c-1,.4-2,.81-2.92,1.24s-2,.81-2.93,1.23A24.48,24.48,0,0,0,697,518a1.8,1.8,0,0,0-.19.2l-1.91,2.47c-.67.8-1.31,1.63-1.91,2.48l-.08.13a24.95,24.95,0,0,0,0,25.18,27,27,0,0,0,14.36,11,18.31,18.31,0,0,0,9.59.43,17.92,17.92,0,0,0,8.94-2.86l4.86-3.75a24,24,0,0,0,6.18-10.61l.86-6.39a23.8,23.8,0,0,0-3.28-12.13Z"/><path d="M991.26,524.22c0-.06,0-.11-.08-.16l2.43,5.74a.83.83,0,0,1-.06-.21l.86,6.39a1,1,0,0,1,0-.25l-.86,6.39a1.82,1.82,0,0,1,.07-.25l-2.42,5.75a1.71,1.71,0,0,1,.13-.23l-3.76,4.87a2.42,2.42,0,0,1,.32-.32L983,555.7a2.51,2.51,0,0,1,.45-.26l-5.74,2.42a2.17,2.17,0,0,1,.5-.13l-6.39.86a1.21,1.21,0,0,1,.38,0l-6.39-.86a1.36,1.36,0,0,1,.25.07l-5.75-2.43.22.13-4.86-3.76.15.14L952.08,547a1.12,1.12,0,0,1,.13.24l-2.42-5.74,0,.06a24.79,24.79,0,0,0,29.57,16.79l5.74-2.43a24.09,24.09,0,0,0,8.63-8.62l2.42-5.74a24.1,24.1,0,0,0,0-12.78,30.19,30.19,0,0,0-1.23-2.93c-.41-1-.82-2-1.24-2.93l-.06-.12a25.15,25.15,0,0,0-3.92-5.05c-.16-.16-4.74-3.7-4.94-3.82l-.11-.06c-.25-.15-5.5-2.36-5.81-2.45l-.15-.05c-5.16-1.45-8.11-.91-13.26,0l-.31.07-.14,0c-1,.4-2,.81-2.92,1.24s-2,.81-2.93,1.23A24.48,24.48,0,0,0,953.8,518a1.8,1.8,0,0,0-.19.2l-1.91,2.47c-.67.8-1.31,1.63-1.91,2.48l-.08.13a24.95,24.95,0,0,0,0,25.18,23.16,23.16,0,0,0,24,11.48,17.92,17.92,0,0,0,8.94-2.86l4.86-3.75a24.12,24.12,0,0,0,6.19-10.61l.86-6.39a23.91,23.91,0,0,0-3.29-12.13Z"/></svg>