<svg id="Layer_1" data-name="Layer 1" xmlns="http://www.w3.org/2000/svg" viewBox="0 0 1500 1500"><defs><style>.cls-1{fill:#92b4ff;}.cls-2{fill:#cc0070;}.cls-3{fill:#f2d3a5;}.cls-4{fill:#3b2314;}</style></defs><title>Kid Talk</title><ellipse class="cls-1" cx="750" cy="750" rx="698.66" ry="704.51"/><polygon points="664.6 1109.29 664.6 953.89 461.88 832.34 430.25 1139.63 519.77 1192.95 664.6 1109.29"/><path d="M519.63,1211.4l-106.24-63.31,35.24-342.22,231.88,139v173.58Zm-72.52-80.26,72.77,43.37,128.84-74.41V962.9L475.14,858.83Z"/><polygon points="889.1 1060.09 889.1 904.7 1091.83 783.15 1123.45 1090.43 1033.94 1143.75 889.1 1060.09"/><path d="M1034.07,1162.19,873.22,1069.3V895.68l231.86-139,35.23,342.26ZM905,1050.92l128.81,74.38L1106.6,1082l-28-272.34L905,913.69Z"/><path class="cls-2" d="M266.25,1229.64s194.43,199,480.07,199,453.2-173.56,453.2-173.56-47.92-191.54-312.2-176.29S392.67,992.88,266.25,1229.64Z"/><path d="M249.39,1246.5c85.88,87.4,206.46,150.56,323.51,182.42,186.72,50.81,392.12,16.7,554.56-87.73,29.45-18.94,66.7-41.2,88.85-69.2,18.6-23.51-9.75-65.1-22.94-85.23-33.18-50.63-81.66-87.59-137.93-109.29-92.38-35.63-192.32-18.39-288.72-22.16-100.47-3.94-203.15-18.79-303-.9-97.55,17.47-170.92,77.18-218,163.19-14.74,26.93,26.42,51,41.18,24.07,39.05-71.34,95.85-121.18,176.28-138.67,77.37-16.82,159.26-8.07,237.5-3.43,44.73,2.66,89.5,5,134.32,4.68,46.81-.31,93.51-5.52,140.11,1.42,61.8,9.2,120.25,36.1,161.31,84,18.7,21.83,33.94,47.36,40.16,71.7l6.14-23.2c-72.3,74.39-178.62,122.87-277.56,147.38-182.76,45.26-370.36,5.21-526.36-97.26-33.72-22.15-67.25-46.66-95.63-75.54C261.56,1190.85,227.85,1224.58,249.39,1246.5Z"/><path class="cls-3" d="M611.64,986.26,610.9,1068c-.06,5.82,0,12,2.89,17,2.18,3.76,5.74,6.48,9.25,9,37.17,26.93,80.79,46.44,126.59,49.38s93.78-12.15,125.3-45.51c5.26-5.58,10.14-11.79,12.39-19.12,1.85-6,1.82-12.4,1.78-18.68l-.39-59.55"/><path d="M587.79,986.26c-.24,27.22-1.21,54.55-.74,81.76.21,11.88,1.8,22.56,8.74,32.46,6.62,9.46,17.46,16,27,22.24,38.39,25.24,82.89,42.26,129,44.63,41.68,2.14,85.69-9.4,119.27-34.57,17.51-13.12,35.79-29.89,40.33-52.24,5.13-25.29,1.34-54.34,1.17-80-.2-30.68-47.89-30.74-47.69,0,.14,20.63.63,41.29.4,61.92-.18,15.67-12.87,25.8-25.22,34.11-26,17.53-57.13,24.69-88.26,23.09-34.56-1.77-67.69-15.1-96.92-33-4.94-3-17.25-8.24-20.13-13.45-2.16-3.9.11-16.58.16-21.53l.59-65.41c.28-30.69-47.41-30.72-47.69,0Z"/><path class="cls-3" d="M580.48,954.6c-169.89-127.82-197-388.83-48.94-544.53,69.37-72.94,170.1-112.91,269-106.72C892,309.08,983,356.22,1032,436.1c32.22,52.45,45.07,115.18,50.29,177,6.25,74,1.9,151-28.79,218.13-59.95,131.17-216.41,198.35-354.8,172.7C656.52,996.14,615.13,980.67,580.48,954.6Z"/><path d="M592.51,934C391.73,779.32,423.83,437.09,670,346.71,797.76,299.8,956.39,339.09,1021.49,466c34.85,67.92,42.29,151.75,38.89,227-3.22,71.6-24,142.5-73.62,195.83C888.39,994.55,711.38,1019.41,592.51,934c-25-17.94-48.79,23.41-24.06,41.17C690,1062.55,866.62,1047,982.25,957.11,1117.71,851.83,1133.61,654.7,1086,499.88c-48.24-157-206.79-242.11-365.84-215.71-148,24.56-268.42,141.58-299.8,287.7-32.56,151.58,25.62,309,148.06,403.31C592.74,993.9,616.51,952.5,592.51,934Z"/><path d="M712.34,625c1.28-104.08-105-105.54-106.22-1.3C604.84,727.75,711.07,729.23,712.34,625Z"/><path d="M966.19,625c1.28-104.08-105-105.54-106.22-1.3C858.69,727.75,964.92,729.23,966.19,625Z"/><path d="M651.27,831.27c82.83,47.29,189.13,45.87,270.31-4.47,26-16.14,2.11-57.41-24.07-41.17-66.91,41.48-153.68,43.57-222.17,4.46-26.69-15.24-50.75,25.94-24.07,41.18Z"/><path class="cls-4" d="M659.22,218.37a260,260,0,0,1,27.17-5.84c43.58-6.83,167.7,17.14,121.66,90.12C762.36,375.06,669.53,436.84,611.41,500.2,564,551.94,539.09,616.38,516.55,684.78,500,735,495.79,788.86,493.41,842.07c-6.88,154.26,1.38,313.59,61.24,454.24C496.38,1250.81,359,1170.94,344,1086.52c-43.61-245.42-74.85-576.24,127-759C521.33,282,591.7,236.61,659.22,218.37Z"/><path d="M665.56,241.37c27.21-6.87,52-7.66,79.38-.85,16,4,49.29,12.52,49.4,33.81.07,14.92-18,32.84-26.65,43.36-14.93,18.06-31.64,34.65-48.72,50.67-31.45,29.51-64.88,56.85-96.18,86.53C480.53,589.82,462.32,792,468.31,977.3c3.59,111.08,20.48,222.27,63.35,325.35l35-26.92c-59-45.46-127.61-83.4-174-143.15-24-30.92-28.19-64.71-34.21-102.3-6.36-39.61-11.76-79.38-15.71-119.31-15.9-160.65-14.27-339.77,73.77-481.29,55-88.43,149-159.55,249-188.31,29.44-8.47,16.92-54.5-12.68-46C463.53,249.83,336.75,414.21,302.31,603.1c-16.75,91.84-17.34,185.8-9.82,278.61,3.63,44.7,9.16,89.24,15.76,133.6,5.81,39,8.54,81.54,27.34,116.9,43.71,82.22,135.85,129.88,207,184.69,15.84,12.2,42.76-8.33,35-26.92-42-101.1-58.71-209.13-61.82-318.09-3.14-110.21.2-219.83,38.74-324.1,18-48.59,41.09-95.68,76.67-133.89,32-34.39,68.8-64.06,103.63-95.47C776.5,380.88,874.15,303.31,831.17,238,795.9,184.49,708,181.47,652.88,195.38,623.15,202.88,635.75,248.88,665.56,241.37Z"/><path class="cls-4" d="M833.76,332c46.73,78.93,146.15,98.49,203.08,168.81,59.7,73.75,59,183.58,55,282.35-6.93,169.53-15.4,345.54-87.84,495.26,2.59-5.33,15.5-11.26,20.2-14.68l23.31-16.93,46.62-33.87c26.35-19.14,56.53-33.27,77.42-59.92,10.8-13.78,12.12-25.19,13.37-42.45q1.75-24.42,3.09-48.88,2.55-47.21,3.22-94.51c.77-60.72-1.18-121.48-6.28-181.95-7.25-86-20.92-171.14-39.11-255.1-18.15-83.75-77.18-223.51-146.88-262.29C943.58,237,870.58,251,827.91,300.66"/><path d="M813.17,344c40.94,65.3,110.32,92.22,169.17,137.35,71.33,54.7,86.07,141.36,87.15,226.36,1.17,92.24-4.61,186.06-14.33,277.75-10.22,96.42-30.08,192.83-71.76,280.9-10.8,22.82,18.27,50.6,37.45,28.89,13.18-14.92,36.55-26.33,52.67-38,20.53-14.92,41.08-29.51,62.27-43.45,34.45-22.67,66.54-48.1,71.82-91.32,13.5-110.53,10.51-226.52,1.18-337.24-8.48-100.5-21.19-205.66-50.79-302.38-22.7-74.18-57-156-114.13-210.52-66.78-63.78-171.4-55.68-232.82,11.48-20.68,22.61,13,56.43,33.72,33.72,52.13-57,131-53.16,180,4.1,45.52,53.13,74.26,124.83,92.36,191.65,49.12,181.39,57.31,376.42,46.18,563.08-1.37,22.93,1,48.3-14.56,66.77-14,16.59-34.16,27.34-52,39.17-22.26,14.77-43.57,31-65.18,46.74-14.25,10.36-32.76,19.29-44.45,32.52l37.45,28.9c42.47-89.75,64.1-185.62,75.89-283.82,11.81-98.46,18-199.7,16.71-298.9-1.06-83.64-14.24-173.6-74.63-236.41-56.19-58.44-144.06-81-188.21-151.37-16.26-25.94-57.54-2-41.17,24.07Z"/><path d="M733.93,526l-.08-.15,2.4,5.69a1.29,1.29,0,0,1,0-.21l.85,6.34a1,1,0,0,1,0-.25l-.85,6.34a1,1,0,0,1,.07-.24l-2.4,5.69A1,1,0,0,1,734,549l-3.73,4.83a1.87,1.87,0,0,1,.31-.32l-4.82,3.73a1.92,1.92,0,0,1,.44-.25l-5.69,2.4a1.69,1.69,0,0,1,.49-.13l-6.34.85a1.21,1.21,0,0,1,.38,0l-6.34-.85a1,1,0,0,1,.25.06l-5.7-2.4a.94.94,0,0,1,.22.12l-4.83-3.73a1.06,1.06,0,0,1,.15.15l-3.73-4.83a1.49,1.49,0,0,1,.14.24l-2.41-5.69,0,0a26.6,26.6,0,0,0,10.95,14.25,17.64,17.64,0,0,0,8.87,2.83,18.1,18.1,0,0,0,9.51-.42l5.69-2.41A24,24,0,0,0,736.4,549l2.4-5.7a24.1,24.1,0,0,0,0-12.67c-.36-1-.77-2-1.22-2.91l-1.23-2.9a.75.75,0,0,0-.07-.12,24.71,24.71,0,0,0-3.88-5c-.16-.16-4.7-3.67-4.9-3.79l-.11-.06c-.25-.15-5.46-2.34-5.77-2.43l-.14,0c-5.12-1.43-8.05-.9-13.16,0l-.3.07-.14,0c-1,.39-1.94.8-2.9,1.23s-1.94.8-2.9,1.22a23.59,23.59,0,0,0-5.31,4c-.06.06-.13.12-.19.19l-1.89,2.46c-.67.79-1.3,1.61-1.9,2.45l-.08.14a24.75,24.75,0,0,0,0,25,22.94,22.94,0,0,0,23.76,11.38,17.73,17.73,0,0,0,8.87-2.82l4.82-3.73a23.82,23.82,0,0,0,6.13-10.52l.86-6.34a23.78,23.78,0,0,0-3.26-12Z"/><path d="M988.66,526l-.08-.15,2.41,5.69a.73.73,0,0,1-.06-.21l.85,6.34a1,1,0,0,1,0-.25l-.85,6.34a1.68,1.68,0,0,1,.07-.24l-2.4,5.69a1.59,1.59,0,0,1,.13-.22L985,553.86a2.42,2.42,0,0,1,.32-.32l-4.83,3.73a2,2,0,0,1,.45-.25l-5.7,2.4a1.68,1.68,0,0,1,.5-.13l-6.34.85a1.15,1.15,0,0,1,.37,0l-6.34-.85a1,1,0,0,1,.25.06L958,557l.21.12-4.82-3.73a1,1,0,0,1,.14.15l-3.73-4.83a1.49,1.49,0,0,1,.14.24l-2.4-5.69,0,0a26.68,26.68,0,0,0,11,14.25,17.6,17.6,0,0,0,8.86,2.83,18.1,18.1,0,0,0,9.51-.42l5.7-2.41a24,24,0,0,0,8.55-8.55l2.4-5.7a23.9,23.9,0,0,0,0-12.67,28.41,28.41,0,0,0-1.22-2.91c-.4-1-.81-1.93-1.22-2.9a.75.75,0,0,1-.07-.12,24.71,24.71,0,0,0-3.88-5c-.17-.16-4.71-3.67-4.91-3.79l-.11-.06c-.24-.15-5.45-2.34-5.76-2.43l-.15,0c-5.11-1.43-8.05-.9-13.15,0l-.31.07-.13,0c-1,.39-1.94.8-2.9,1.23s-1.94.8-2.9,1.22a23.37,23.37,0,0,0-5.31,4,1.7,1.7,0,0,0-.19.19l-1.9,2.46c-.66.79-1.3,1.61-1.89,2.45a1,1,0,0,0-.08.14,24.75,24.75,0,0,0,0,25,22.94,22.94,0,0,0,23.76,11.38,17.72,17.72,0,0,0,8.86-2.82l4.83-3.73a23.91,23.91,0,0,0,6.13-10.52l.85-6.34a23.68,23.68,0,0,0-3.26-12Z"/></svg>