<svg id="Layer_1" data-name="Layer 1" xmlns="http://www.w3.org/2000/svg" viewBox="0 0 1500 1500"><defs><style>.cls-1{fill:#92b4ff;}.cls-2{fill:#cc0070;}.cls-3{fill:#3b2314;}.cls-4{fill:#d88d3d;}</style></defs><title>Kid Talk</title><ellipse class="cls-1" cx="750" cy="749.6" rx="690.96" ry="696.74"/><path class="cls-2" d="M271.58,1224s192.29,196.79,474.79,196.79,448.19-171.65,448.19-171.65-47.38-189.42-308.75-174.34S396.61,989.81,271.58,1224Z"/><path d="M254.91,1240.62c84.94,86.45,204.18,148.91,319.94,180.41,184.66,50.26,387.8,16.53,548.45-86.76,29.13-18.72,66-40.74,87.87-68.43,18.39-23.26-9.64-64.38-22.69-84.29-32.81-50.07-80.75-86.63-136.41-108.09-91.35-35.23-190.2-18.18-285.54-21.92-99.35-3.89-200.91-18.58-299.7-.89-96.48,17.28-169,76.33-215.61,161.4-14.58,26.63,26.13,50.46,40.72,23.8,38.63-70.55,94.8-119.84,174.35-137.14,76.51-16.63,157.5-8,234.87-3.39,44.24,2.63,88.52,4.92,132.84,4.63,46.3-.31,92.48-5.46,138.57,1.4,61.11,9.1,118.93,35.71,159.53,83.11,18.5,21.58,33.56,46.83,39.72,70.9l6.07-22.94c-71.51,73.57-176.65,121.51-274.5,145.75-180.74,44.77-366.27,5.16-520.56-96.19-33.35-21.9-66.51-46.14-94.57-74.7C267,1185.59,233.61,1219,254.91,1240.62Z"/><path class="cls-3" d="M455.88,704.33c-53.53-6.65-111.72,5.09-150.79,43.67s-52,107.38-19.57,152.14c14.07,19.44,35.34,33.61,44.42,56,14,34.68-9.85,77.38-44.12,89.6s-73.38-1.2-100.72-25.87c3.11,39.89,26.57,76.55,58.59,98.85s71.73,31,110.21,28.67c106.62-6.39,201.1-103.8,208-214.48"/><path d="M455.88,680.75c-101.57-11.12-215.17,48.1-212.27,162.52.59,23.13,6.86,46.91,19.84,66.23S302.6,945.09,309.11,968c6.19,21.8-9.47,46.66-29.55,55.06-26.61,11.12-57.45-2.45-77.79-19.82-13.75-11.74-42.62-5.52-40.25,16.68,12.79,119.95,141.29,176.23,248.69,140.46,98.1-32.67,167.35-125.14,175.27-227.42,2.34-30.27-44.84-30.12-47.17,0-5.94,76.79-58.08,148.39-129.38,177.8-76.22,31.44-190.1,4.32-200.25-90.84l-40.26,16.67c40.94,35,102.41,53.49,149.31,18.15,42.37-31.92,52.18-90,19.13-132-15.94-20.25-37.3-35.42-43.7-61.66-6.34-26-.23-54.31,13.4-77,30.56-50.77,94.9-62.14,149.32-56.19,30.13,3.3,29.9-43.88,0-47.16Z"/><path class="cls-4" d="M613.16,983.26l-.73,80.86c0,5.75,0,11.82,2.86,16.79,2.16,3.72,5.68,6.4,9.15,8.92,36.76,26.64,79.9,45.93,125.19,48.83s92.75-12,123.92-45c5.2-5.51,10-11.66,12.26-18.9,1.83-5.94,1.8-12.26,1.76-18.47l-.39-58.9"/><path d="M589.58,983.26c-.24,26.92-1.2,53.94-.73,80.86.2,11.75,1.78,22.31,8.64,32.1,6.55,9.35,17.26,15.82,26.66,22,38,25,82,41.8,127.61,44.14,41.23,2.12,84.74-9.29,118-34.19,17.32-13,35.39-29.55,39.88-51.66,5.08-25,1.33-53.74,1.16-79.12-.2-30.34-47.36-30.41-47.16,0,.13,20.4.62,40.83.39,61.23-.18,15.5-12.73,25.52-24.94,33.74-25.73,17.34-56.51,24.42-87.29,22.84-34.17-1.76-67-14.93-95.85-32.64-4.89-3-17.06-8.15-19.91-13.31-2.13-3.86.11-16.4.16-21.29l.58-64.69c.28-30.36-46.89-30.38-47.16,0Z"/><path class="cls-4" d="M582.35,951.94c-168-126.4-194.84-384.53-48.4-538.52,68.6-72.14,168.22-111.66,266-105.54,90.5,5.66,180.45,52.29,229,131.29,31.86,51.87,44.57,113.9,49.74,175.08,6.18,73.15,1.88,149.29-28.48,215.71-59.29,129.73-214,196.17-350.88,170.81C657.55,993,616.62,977.73,582.35,951.94Z"/><path d="M594.25,931.58c-198.57-153-166.82-491.44,76.64-580.82,126.35-46.39,283.23-7.54,347.61,118C1053,535.9,1060.32,618.8,1057,693.19c-3.19,70.8-23.76,140.92-72.81,193.66-97.29,104.61-272.34,129.2-389.9,44.73-24.69-17.74-48.26,23.15-23.8,40.73,120.25,86.4,294.89,71,409.24-17.88,134-104.12,149.69-299.08,102.64-452.18C1034.62,347,877.81,262.8,720.52,288.9c-146.38,24.3-265.46,140-296.5,284.54C391.82,723.34,449.36,879,570.45,972.31,594.47,990.82,618,949.87,594.25,931.58Z"/><path d="M712.76,626C714,523,609,521.58,607.7,624.67,606.44,727.6,711.49,729.06,712.76,626Z"/><path d="M963.81,626c1.26-102.93-103.79-104.37-105-1.28C857.5,727.6,962.55,729.06,963.81,626Z"/><path d="M652.36,830c81.92,46.77,187,45.37,267.33-4.41,25.74-16,2.09-56.78-23.8-40.72-66.17,41-152,43.09-219.73,4.41-26.4-15.07-50.18,25.66-23.8,40.72Z"/><path class="cls-3" d="M384.94,727.76c-49.54-62.71-58.82-149.63-36.38-225.48S422,360.84,482.21,307.54c31.56-28,66.11-53.16,104.6-71.34,78-36.84,166.67-46.95,251-25.92,73.7,18.39,166.85,61.09,194.31,135.51,5.32,14.42,28.94,64.47,3.62,71.19-6.47,1.72-13.21-1.17-19.17-4.15C935.76,372.47,890.75,364,820,422.31c-37.18-12.07-71.28-34.08-110.19-38.88-43.13-5.31-87.07,12-119.55,39.91-23.23,20-41.2,48.75-59.85,72.8-48.18,62.16-54.64,130.37-86.76,199.38"/><path d="M405.3,715.85c-124.49-165,31.3-377.21,184.6-455,89.38-45.34,192.45-48.14,286-14.4,66.38,24,134.19,69.15,146.73,144,.14.86,1.9,7.47,1,8.21,8.09-6.84-14.87-15.76-17.51-17-10-4.52-20-8.87-30.32-12.65-18.47-6.79-38-11.61-57.77-12.05-44.34-1-81.19,21.81-114.64,48.56l22.94-6.07c-47.76-16.6-91.67-44.24-144.18-40.13-44.64,3.48-87.34,25.06-118.59,56.81-33.06,33.58-65,77.52-84.93,120.09-22.33,47.62-33.74,99.35-55.28,147.28-12.34,27.45,28.29,51.47,40.72,23.8,32.38-72,47.21-146,95.13-210.49,23.22-31.25,45.33-61.58,81.65-78.53,39.2-18.29,76.95-12.61,115.66,3.37,15.94,6.58,31.61,14.78,48,20.07,20.83,6.71,26.29.83,43.29-11.46,26.88-19.42,55.59-30.72,88.86-23.82,31,6.43,58.51,30,89.23,33.69,25.86,3.11,44.56-16.11,44.86-41.51.54-47.24-32.62-101.72-66.25-132-44.48-40-102.88-65-160.49-79.21C692,150,544.8,209.13,437.43,317.38c-108.34,109.23-175.68,286-72.85,422.28,18.06,23.93,59,.45,40.72-23.81Z"/><path d="M357,727l0,.43.85-6.27-.1.31,6.07-10.4-.19.21,4.77-3.69-.26.12,11.9-3.22a1.56,1.56,0,0,1-.68,0l6.27.84-.38-.12,5.63,2.38a3.68,3.68,0,0,1-.76-.4l4.78,3.68a3,3,0,0,1-.64-.59L398,715l-.22-.34,2.37,5.63-.13-.37.84,6.27,0-.38-.84,6.27.08-.39-2.37,5.63.22-.39-3.69,4.77.48-.49-4.77,3.69.54-.36-5.63,2.38a3.73,3.73,0,0,1,1.26-.37l-6.27.84a6,6,0,0,1,1.4,0l-6.27-.84a15.59,15.59,0,0,1,3.55,1l-5.63-2.37L421,766.33a17.44,17.44,0,0,0,8.76,2.8,17.94,17.94,0,0,0,9.41-.42c5.47-1.51,11.39-5.73,14.09-10.84,6.07-11.49,2.78-25.38-8.46-32.26L391,692.71c-10.54-6.45-26.4-2.64-32.26,8.46-6.08,11.49-2.79,25.38,8.45,32.26L421,766.33l23.8-40.72c-15.88-7-31.73-14-47.63-20.87-7.74-3.37-15.67-6.22-24.27-3.53-12.83,4-22.64,17.54-18.37,31.26,3.38,10.89,13.27,19,24.87,19.14,13.19.18,25.43-11.05,24.78-24.65a24.79,24.79,0,0,0-6.9-16.67c-4.09-4.09-10.8-7.17-16.68-6.91-6.09.27-12.42,2.28-16.67,6.91s-7.2,10.4-6.91,16.67Z"/><path d="M736.19,528.11l-.08-.15,2.38,5.63a1.46,1.46,0,0,1,0-.2l.84,6.27a1,1,0,0,1,0-.25l-.84,6.27a1,1,0,0,1,.07-.24l-2.38,5.63a1.59,1.59,0,0,1,.13-.22l-3.69,4.77a3,3,0,0,1,.31-.31L728.11,559a1.92,1.92,0,0,1,.44-.25l-5.63,2.37a2.72,2.72,0,0,1,.49-.13l-6.27.84h.37l-6.27-.84.25.07-5.64-2.38a.94.94,0,0,1,.22.12l-4.77-3.69.14.15-3.69-4.78a1.49,1.49,0,0,1,.14.24l-2.38-5.63,0,.06a26.33,26.33,0,0,0,10.84,14.09,17.64,17.64,0,0,0,8.77,2.8,17.9,17.9,0,0,0,9.4-.42l5.63-2.38a23.81,23.81,0,0,0,8.46-8.46l2.38-5.63a23.82,23.82,0,0,0,0-12.54c-.36-1-.76-1.94-1.21-2.87s-.8-1.92-1.21-2.87l-.07-.12a23.89,23.89,0,0,0-3.84-5c-.16-.17-4.65-3.63-4.85-3.75l-.11-.06c-.24-.15-5.39-2.32-5.7-2.41l-.14-.05c-5.06-1.42-8-.89-13,0l-.3.07-.14,0c-1,.38-1.92.78-2.87,1.21s-1.91.79-2.86,1.21a23,23,0,0,0-5.25,4l-.19.19-1.88,2.43c-.66.79-1.28,1.59-1.87,2.43l-.08.13a24.5,24.5,0,0,0,0,24.7,24.3,24.3,0,0,0,32.26,8.46l4.78-3.69a23.57,23.57,0,0,0,6.06-10.4l.84-6.27a23.4,23.4,0,0,0-3.22-11.91Z"/><path d="M988.12,528.11A1.09,1.09,0,0,1,988,528l2.38,5.63a.76.76,0,0,1-.06-.2l.84,6.27a1,1,0,0,1,0-.25l-.84,6.27a1.68,1.68,0,0,1,.07-.24l-2.37,5.63a1,1,0,0,1,.13-.22l-3.69,4.77a2.27,2.27,0,0,1,.31-.31L980,559a2,2,0,0,1,.45-.25l-5.64,2.37a2.72,2.72,0,0,1,.49-.13l-6.27.84h.38l-6.27-.84.24.07-5.63-2.38a.72.72,0,0,1,.21.12l-4.77-3.69a1,1,0,0,1,.14.15l-3.68-4.78a1.41,1.41,0,0,1,.13.24l-2.37-5.63,0,.06a24.31,24.31,0,0,0,29,16.47l5.64-2.38a23.81,23.81,0,0,0,8.46-8.46l2.37-5.63a23.62,23.62,0,0,0,0-12.54,26.79,26.79,0,0,0-1.21-2.87c-.4-1-.8-1.92-1.21-2.87l-.06-.12a24.24,24.24,0,0,0-3.84-5c-.17-.17-4.65-3.63-4.85-3.75l-.11-.06c-.24-.15-5.4-2.32-5.7-2.41l-.15-.05c-5-1.42-8-.89-13,0l-.3.07-.13,0c-1,.38-1.92.78-2.87,1.21s-1.92.79-2.87,1.21a23,23,0,0,0-5.25,4l-.19.19-1.87,2.43c-.66.79-1.28,1.59-1.88,2.43l-.08.13a24.47,24.47,0,0,0,0,24.7,26.46,26.46,0,0,0,14.09,10.84,17.9,17.9,0,0,0,9.4.42,17.67,17.67,0,0,0,8.77-2.8l4.77-3.69a23.59,23.59,0,0,0,6.07-10.4l.84-6.27a23.5,23.5,0,0,0-3.22-11.91Z"/></svg>