<svg id="Layer_1" data-name="Layer 1" xmlns="http://www.w3.org/2000/svg" viewBox="0 0 1500 1500"><defs><style>.cls-1{fill:#92b4ff;}.cls-2{fill:#003fcc;}.cls-3{fill:#99501f;}</style></defs><title>Kid Talk</title><ellipse class="cls-1" cx="750" cy="750" rx="700.44" ry="706.3"/><path class="cls-2" d="M268.7,1230.86S463.63,1430.35,750,1430.35s454.34-174,454.34-174-48-192-313-176.73S395.45,993.5,268.7,1230.86Z"/><path d="M251.8,1247.76c86.1,87.63,207,151,324.33,182.88,187.19,50.95,393.12,16.75,556-88,29.52-19,66.86-41.31,89.07-69.37,18.65-23.58-9.77-65.26-23-85.44-33.26-50.77-81.86-87.82-138.28-109.58-92.61-35.72-192.81-18.43-289.45-22.22-100.73-3.94-203.67-18.83-303.82-.9-97.8,17.51-171.36,77.38-218.57,163.61-14.78,27,26.49,51.15,41.28,24.13,39.16-71.52,96.1-121.49,176.74-139,77.56-16.87,159.66-8.1,238.1-3.44,44.84,2.66,89.73,5,134.66,4.69,46.93-.31,93.74-5.53,140.47,1.42,62,9.23,120.56,36.2,161.72,84.25,18.75,21.88,34,47.48,40.26,71.88l6.15-23.26C1115,1314,1008.37,1362.62,909.18,1387.19c-183.22,45.38-371.3,5.23-527.7-97.51-33.81-22.2-67.42-46.77-95.87-75.73C264,1192,230.21,1225.78,251.8,1247.76Z"/><path class="cls-3" d="M570.19,955.31l-1,100.94c-.07,7.18,0,14.76,3.84,21,2.89,4.63,7.62,8,12.29,11.14,49.35,33.24,107.26,57.33,168.09,61s124.53-15,166.37-56.19c7-6.87,13.47-14.55,16.47-23.59,2.45-7.42,2.41-15.31,2.36-23.06q-.27-36.76-.53-73.53"/><path d="M546.28,955.31c-.32,33.61-1.5,67.34-1,100.94.5,32.4,17.43,46.79,43.56,62.76,49.7,30.39,106.15,50.79,164.57,54.21,53.94,3.16,112-9.87,156.59-41.28,21.73-15.32,44.49-34.65,50.71-61.7,3.12-13.6,1.77-28.35,1.67-42.16L962,972.94c-.22-30.76-48-30.83-47.81,0,.19,26.27,2.08,53.14.52,79.36-1.23,20.66-22,34.55-38.39,44.64-36.64,22.54-80.28,30.93-122.9,28.47-45.73-2.64-90.24-18.82-129.77-41.37-8.14-4.65-19.67-9.6-26.26-16.33-7.22-7.37-4.22-19.11-4.11-29.48l.8-82.92c.3-30.77-47.51-30.8-47.81,0Z"/><path class="cls-3" d="M583.73,955.12C413.41,827,386.22,565.3,534.67,409.2c69.54-73.12,170.53-113.19,269.66-107,91.74,5.75,182.92,53,232.11,133.09,32.3,52.59,45.18,115.47,50.42,177.49,6.27,74.15,1.91,151.34-28.87,218.67-60.1,131.51-217,198.86-355.7,173.15C660,996.77,618.48,981.25,583.73,955.12Z"/><path d="M595.8,934.48C394.5,779.4,426.69,436.29,673.49,345.68c128.08-47,287.11-7.64,352.38,119.58,34.93,68.1,42.39,152.14,39,227.55-3.24,71.78-24.09,142.85-73.81,196.32-98.62,106-276.08,131-395.25,45.35-25-18-48.92,23.47-24.13,41.28,121.9,87.58,298.94,72,414.85-18.13,135.81-105.54,151.75-303.18,104-458.38C1042.21,341.85,883.25,256.52,723.8,283,575.41,307.6,454.7,424.92,423.23,571.41c-32.63,152,25.69,309.78,148.44,404.35C596,994.52,619.86,953,595.8,934.48Z"/><path d="M715.93,624.65c1.28-104.34-105.22-105.8-106.49-1.3C608.16,727.69,714.65,729.17,715.93,624.65Z"/><path d="M970.43,624.65c1.28-104.34-105.22-105.8-106.5-1.3C862.66,727.69,969.15,729.17,970.43,624.65Z"/><path d="M673.25,832.13c31.41,23.13,70.68,36,109.78,34.67,41.3-1.36,78.84-17.3,110.83-42.88,10.09-8.07,8.42-25.39,0-33.81-10-10-23.69-8.09-33.8,0-49,39.17-113.25,37.13-162.68.74-10.4-7.66-26.67-1.74-32.7,8.57-7.11,12.14-1.86,25,8.57,32.71Z"/><path d="M1023.1,752.1c8.54-15,20.72-29.78,38.26-33.85,20-4.64,40.69,6.57,51.14,23.5,44,71.32-33.38,159.59-82.47,204.43-34.1,31.14-77.15,62.9-121,77.43-23.45,7.77-46.8,10.93-70.25,18.77-26.77,8.95-56,11.35-84.07,9.64-34.34-2.11-73.62-7.24-106.88-16.71-64-18.23-147.05-52.75-181.64-112.28-21.61-37.18-67.52-84.27-64.31-134,4.48-69.6,85.25-83.62,128.41-26.65,25.34,33.46,32.06,82.18,65.33,107.77,3.27,2.52,6.54,5.09,9.81,7.42,23.84,17,48.48,33.13,75,45.65,47.71,22.54,100.91,30.49,151,11,43.9-17.06,88.25-34.59,123.76-66.49C987.46,838.75,1001.64,789.8,1023.1,752.1Z"/><path d="M521.28,840.36c38.77-11.17,71.62-37.12,106.05-57.19,18.74-10.92,39.33-25.61,61.41-27.73,21-2,40.24,2.21,59.28,10.56,17.88,7.85,34.86,9.64,53.94,5.07,23.06-5.53,43.6-18.07,67.8-18.81,51.54-1.59,93.62,33.66,128.17,67.74,14.62,14.41,37.17-8.11,22.54-22.54-34.54-34.06-74.32-66.63-123.57-74.93a137.38,137.38,0,0,0-69.58,6.19c-11.22,3.95-22.22,8.85-33.83,11.61-15.1,3.6-26.34-.83-40-6.78-40.12-17.47-81.09-11.39-118.45,8.67-40.06,21.5-78.2,54.72-122.22,67.41-19.68,5.66-11.31,36.43,8.47,30.73Z"/></svg>