<svg id="Layer_1" data-name="Layer 1" xmlns="http://www.w3.org/2000/svg" viewBox="0 0 1500 1500"><defs><style>.cls-1{fill:#92b4ff;}.cls-2{fill:#cc0070;}.cls-3{fill:#99501f;}</style></defs><title>Kid Talk</title><ellipse class="cls-1" cx="750" cy="750" rx="704.19" ry="710.08"/><path d="M309.51,374c22.69-36.28,64.58-60.23,95.34-90.55C442,246.82,476.46,206.89,522.61,181c92.49-51.79,172,11.66,265-4.25C898,157.92,891.44,159.51,984.48,212.4c82.09,46.66,176.43,61.25,211.53,163,6.07,17.61,10.37,36.46,22,51,12.5,15.7,32.51,25.08,41.83,42.85,6.85,13.06,6.76,28.51,6.51,43.26-.91,53.12-3.36,110.66-36.94,151.83-13.84,17-32.25,30-44.35,48.26-16.58,25-22.15,60-48.88,73.61-11.76,6-25.48,6.34-38.67,6.58l-95.35,1.75c-16.47.3-33.47.71-48.47,7.51-14.46,6.55-26.19,18.68-41.39,23.24-22.84,6.85-46.52-4.85-69.1-12.51-64.13-21.74-134.16-11.13-201-.3L534.86,829.91C466.81,841,386.72,848.26,339,798.5c-20.13-21-30.83-49.2-38.68-77.21C248.14,728.22,209,651.94,245,613.56c-50-7.11-74.92-71.33-58-118.89,20.1-56.54,86-64.42,116.36-111C305.45,380.41,307.5,377.19,309.51,374Z"/><path d="M330.26,386.11c22-32.47,56.37-53.12,84.83-79.28,31.94-29.36,59.55-63.46,94.83-89.13,31.87-23.19,65.27-35,104.82-33.07,39.31,1.92,77.48,13.91,116.64,17.6,55.36,5.22,117.57-26.59,170.89-6.8,27.18,10.08,51.78,27.91,77.15,41.65,27.9,15.1,57.29,27.07,85.81,40.9,27.62,13.4,55,28.47,76.18,51.19C1169.14,359,1172,397.34,1192,431c7.28,12.25,17.24,21,27.76,30.34,17.87,15.84,22.65,27.46,22.52,51.25-.2,41.25-1,88.18-23,124.52-17.34,28.52-46.8,46.48-62.47,76.62-6.81,13.1-11.08,29.31-20.49,40.87-16.82,20.65-50.56,14.46-74.54,14.9-38.42.7-84.44-5.14-120.2,11.88C923.44,790,910.61,805.15,889,802.52c-23.78-2.89-46.42-16.37-70.2-20.88C727,764.25,629.85,790.39,539.2,805c-41.9,6.76-86.68,14.24-128.81,5-50.6-11-73.13-48.08-86.89-95.14-2.8-9.57-12.64-18.36-23.18-17.64-30.63,2.09-60.42-40-38.33-66.71,10.52-12.75,8.71-36.29-10.61-40.17-51.25-10.27-57.93-80.18-25-113.32,15.94-16,36.68-26.23,55-39.25a178.86,178.86,0,0,0,48.91-51.7c16.67-26.16-24.91-50.29-41.51-24.25-35.29,55.36-111.06,66.38-127.87,136.86-13.6,57,17,125.85,77.72,138L228,596.56c-46.46,56.28-4.24,154,72.32,148.76l-23.17-17.64c11.54,39.48,28.2,77.79,62.3,102.85C371.59,854.15,412,861.76,451.15,862c96.64.48,190.85-32.52,287.19-37.24,24.37-1.19,48.87-.53,72.83,4.36,25.53,5.2,49,18.19,75,21.28,20.21,2.41,37.87-2.28,55.23-12.55,9.23-5.45,17.5-12.58,27.9-15.91,14-4.46,30.28-3.23,44.78-3.51,43.31-.83,105.8,10,142.92-17.09,30.38-22.15,35.07-62.93,60-89.61,29.89-32,54.15-59.16,64.37-103.2,9.06-39,15.3-89.43,7-129-3.63-17.29-12.22-31.48-24.82-43.67-19.65-19-32.23-31-41.37-58-12.08-35.6-29.32-67.82-57.54-93.3-55-49.64-132.1-72.74-195.92-108.91C944.53,162,919.77,147.57,892,143.41c-30.13-4.51-61.05,1.88-90.75,6.82-98.72,16.41-196.74-41.72-290.73,10.06-43.4,23.9-77.71,61-112.24,95.77-36,36.18-80.51,63-109.49,105.8C271.36,387.53,313,411.61,330.26,386.11Z"/><path class="cls-2" d="M262.42,1233.43S458.39,1434,746.3,1434s456.77-174.93,456.77-174.93S1154.78,1066,888.41,1081.37,389.84,994.8,262.42,1233.43Z"/><path d="M245.43,1250.42c86.56,88.1,208.09,151.76,326.07,183.87,188.19,51.22,395.22,16.84,559-88.43,29.68-19.08,67.22-41.52,89.55-69.74,18.75-23.7-9.83-65.61-23.12-85.9-33.44-51-82.3-88.29-139-110.16-93.1-35.91-193.84-18.53-291-22.34-101.26-4-204.76-18.93-305.45-.9-98.32,17.6-172.27,77.79-219.73,164.48-14.86,27.15,26.63,51.43,41.5,24.26,39.37-71.9,96.62-122.14,177.68-139.77,78-17,160.52-8.13,239.38-3.45,45.08,2.67,90.21,5,135.38,4.71,47.19-.31,94.25-5.56,141.22,1.43,62.29,9.28,121.21,36.39,162.59,84.7,18.85,22,34.2,47.73,40.48,72.26l6.18-23.38c-72.87,75-180,123.84-279.76,148.55-184.2,45.62-373.28,5.25-530.52-98-34-22.32-67.78-47-96.39-76.13C257.7,1194.34,223.72,1228.33,245.43,1250.42Z"/><path class="cls-3" d="M610.54,988.13l-.74,82.41c-.06,5.86,0,12,2.91,17.11,2.2,3.79,5.79,6.53,9.33,9.1,37.46,27.14,81.42,46.8,127.59,49.76s94.52-12.24,126.29-45.87c5.3-5.62,10.22-11.88,12.49-19.27,1.86-6,1.84-12.49,1.79-18.82l-.39-60"/><path d="M586.51,988.13c-.25,27.43-1.22,55-.75,82.41.21,12,1.82,22.73,8.81,32.71,6.67,9.53,17.59,16.12,27.17,22.42,38.7,25.44,83.55,42.59,130,45,42,2.16,86.37-9.47,120.22-34.84,17.65-13.23,36.07-30.13,40.65-52.65,5.17-25.49,1.35-54.78,1.18-80.64-.21-30.92-48.27-31-48.07,0,.14,20.79.64,41.62.4,62.41-.18,15.8-13,26-25.41,34.38-26.23,17.67-57.59,24.89-89,23.28-34.83-1.79-68.22-15.22-97.69-33.27-5-3-17.38-8.31-20.28-13.56-2.18-3.93.11-16.72.16-21.71l.59-65.92c.28-30.94-47.78-31-48.06,0Z"/><path class="cls-3" d="M579.14,956.22C407.9,827.39,380.57,564.32,529.81,407.38c69.92-73.52,171.45-113.8,271.11-107.56,92.23,5.77,183.9,53.29,233.35,133.8,32.48,52.86,45.43,116.09,50.69,178.43,6.3,74.55,1.92,152.16-29,219.85C995.51,964.11,837.82,1031.82,698.34,1006,655.78,998.09,614.07,982.49,579.14,956.22Z"/><path d="M591.27,935.46c-202.37-155.91-170-500.85,78.1-591.94,128.77-47.28,288.66-7.69,354.27,120.22,35.12,68.46,42.62,153,39.2,228.76-3.25,72.17-24.21,143.62-74.21,197.38-99.15,106.61-277.55,131.67-397.36,45.58C566.11,917.39,542.09,959.06,567,977c122.55,88,300.54,72.34,417.07-18.22,136.54-106.12,152.56-304.81,104.61-460.84-48.62-158.24-208.43-244-368.73-217.43-149.19,24.76-270.55,142.7-302.18,290C385,723.24,443.61,881.9,567,977,591.5,995.83,615.46,954.1,591.27,935.46Z"/><path d="M712,624c1.29-104.9-105.78-106.37-107.06-1.31C603.69,727.57,710.76,729.06,712,624Z"/><path d="M967.9,624c1.29-104.9-105.77-106.37-107.06-1.31C859.56,727.57,966.62,729.06,967.9,624Z"/><path d="M650.49,831.91c83.48,47.66,190.62,46.24,272.45-4.5,26.24-16.27,2.13-57.86-24.26-41.5-67.44,41.81-154.89,43.91-223.93,4.5-26.91-15.36-51.15,26.15-24.26,41.5Z"/><path d="M473.47,366.56c1.9,3.17,2.6-5-.87-3.79s-4.22,5.9-7,8.3c-31.15,26.65-47.59,69.51-42.27,110.16,2.66,20.27,21.68,57.46,40.24,66,37.87,17.48,86.9,6.18,113.3-26.11,23.44-28.66,32.93-73,68-84.76,12.65-4.23,26.79-3.15,39-8.58,22.93-10.2,30.82-38.82,49.42-55.67,31.62-28.64,81.57-15.38,120.82,1.34s85.72,35,122.2,12.93c10.26-6.22,19.23-16.69,18.86-28.68-2.11-68.65-106.09-115-161.44-117.08-31.25-1.15-44.9-8.05-68.56,12.39"/><path d="M473.47,390.6l1.39.15c12.72,1.37,24.32-12.13,24-24l-.07-2.8c-.2-8.2-4.36-16.82-11.9-20.75L484.73,342c-9.59-5-21.26-4-29.13,3.76C423,377.92,399,416.5,398.31,463.73c-.55,37.77,18.59,85.33,53.11,104.28,36.73,20.15,87.09,12.86,120.55-10.21,16.28-11.23,28.28-26.39,38.34-43.22,11.07-18.51,20-45.53,41-55,21.5-9.72,43-5.29,61.74-22.84,16.59-15.5,24.38-42.08,45.06-52.68,42.7-21.88,102.14,21.89,142.73,31.69,38.88,9.38,92.88,5.8,112.8-35.26,16.33-33.65-6-73.75-29.59-97.77-52.34-53.24-170.67-97.7-235.84-46.65-24.33,19,9.9,52.85,34,34,24.38-19.09,78.3-2.93,104.7,7.26,31.22,12,71.66,34.25,82.14,68.68,16.42,53.93-98.27,8.19-116,1.25-36.76-14.39-82.41-25-119.2-4.68-17.77,9.8-28.77,25.17-40.11,41.41-7.58,10.85-12.29,19.41-25.68,23.72-12,3.86-24.36,3.31-36.22,8.31-35.55,15-47,51.17-67,80.85-25.15,37.24-84.62,51.61-108.58,6.12s.13-90.48,33.34-123.19l-29.12,3.76,2.19,1.14-11.9-20.75.07,2.8,24-24-1.39-.15c-30.72-3.31-30.48,44.78,0,48.07Z"/><path d="M739.54,524.27l-.08-.16,2.43,5.74a.73.73,0,0,1-.06-.21l.86,6.39a1,1,0,0,1,0-.25l-.86,6.39a1.82,1.82,0,0,1,.07-.25l-2.42,5.75a1.71,1.71,0,0,1,.13-.23l-3.75,4.86a1.82,1.82,0,0,1,.31-.31l-4.87,3.76a2.35,2.35,0,0,1,.46-.26L726,557.91a2.09,2.09,0,0,1,.49-.13l-6.39.85a1.6,1.6,0,0,1,.38,0l-6.39-.86a1,1,0,0,1,.25.06l-5.74-2.42a.94.94,0,0,1,.22.12L704,551.79l.14.14-3.75-4.86a1.38,1.38,0,0,1,.14.24l-2.43-5.74,0,.06a27,27,0,0,0,11,14.36,17.81,17.81,0,0,0,8.93,2.85,18.2,18.2,0,0,0,9.59-.43l5.74-2.42a24.22,24.22,0,0,0,8.62-8.62l2.42-5.74a24.1,24.1,0,0,0,0-12.78,31.28,31.28,0,0,0-1.23-2.93c-.41-1-.82-1.95-1.24-2.92l-.06-.13a24.47,24.47,0,0,0-3.92-5c-.16-.17-4.73-3.7-4.94-3.82L733,514c-.25-.15-5.5-2.36-5.81-2.46l-.15,0c-5.15-1.45-8.11-.91-13.25,0a2.84,2.84,0,0,0-.31.06l-.14.05c-1,.39-2,.81-2.92,1.23L707.44,514a24.17,24.17,0,0,0-5.35,4.07,1.7,1.7,0,0,0-.19.19L700,520.75c-.67.8-1.31,1.62-1.91,2.47l-.08.14a24.93,24.93,0,0,0,0,25.17A23.16,23.16,0,0,0,722,560a17.78,17.78,0,0,0,8.93-2.85l4.87-3.76a24,24,0,0,0,6.18-10.6l.86-6.39a23.94,23.94,0,0,0-3.29-12.13Z"/><path d="M996.29,524.27l-.08-.16,2.43,5.74a.73.73,0,0,1-.06-.21l.86,6.39a1,1,0,0,1,0-.25l-.86,6.39a1.82,1.82,0,0,1,.07-.25l-2.42,5.75a1.71,1.71,0,0,1,.13-.23l-3.75,4.86a1.82,1.82,0,0,1,.31-.31l-4.87,3.76a2.09,2.09,0,0,1,.46-.26l-5.75,2.42a2.3,2.3,0,0,1,.5-.13l-6.39.85a1.6,1.6,0,0,1,.38,0l-6.39-.86a1,1,0,0,1,.25.06l-5.74-2.42a.94.94,0,0,1,.22.12l-4.86-3.75.14.14-3.75-4.86a1.38,1.38,0,0,1,.14.24l-2.43-5.74,0,.06a26.85,26.85,0,0,0,11,14.36,17.78,17.78,0,0,0,8.93,2.85,18.2,18.2,0,0,0,9.59-.43l5.74-2.42a24.22,24.22,0,0,0,8.62-8.62l2.42-5.74a24.1,24.1,0,0,0,0-12.78,31.28,31.28,0,0,0-1.23-2.93c-.41-1-.82-1.95-1.24-2.92l-.06-.13a24.47,24.47,0,0,0-3.92-5c-.16-.17-4.74-3.7-4.94-3.82l-.11-.06c-.25-.15-5.5-2.36-5.81-2.46l-.15,0c-5.15-1.45-8.11-.91-13.26,0-.1,0-.2,0-.3.06l-.14.05c-1,.39-2,.81-2.92,1.23L964.19,514a24.17,24.17,0,0,0-5.35,4.07,1.7,1.7,0,0,0-.19.19l-1.91,2.48c-.67.8-1.31,1.62-1.91,2.47l-.08.14a24.93,24.93,0,0,0,0,25.17,23.16,23.16,0,0,0,24,11.47,17.78,17.78,0,0,0,8.93-2.85l4.87-3.76a24,24,0,0,0,6.18-10.6l.86-6.39a23.94,23.94,0,0,0-3.29-12.13Z"/></svg>