<svg id="Layer_1" data-name="Layer 1" xmlns="http://www.w3.org/2000/svg" viewBox="0 0 1500 1500"><defs><style>.cls-1{fill:#92b4ff;}.cls-2{fill:#006838;}.cls-3{fill:#8c670c;}.cls-4{fill:#f4b5a6;}</style></defs><title>Kid Talk</title><ellipse class="cls-1" cx="750" cy="750" rx="707.73" ry="713.65"/><path class="cls-2" d="M263.7,1235.86s197,201.57,486.3,201.57,459.07-175.82,459.07-175.82-48.53-194-316.24-178.57S391.76,996,263.7,1235.86Z"/><path d="M246.62,1252.94c87,88.54,209.14,152.51,327.7,184.79,189.14,51.47,397.21,16.92,561.76-88.87,29.84-19.18,67.56-41.74,90-70.1,18.85-23.82-9.87-65.94-23.23-86.33-33.61-51.29-82.72-88.73-139.73-110.72-93.57-36.08-194.81-18.62-292.46-22.44-101.77-4-205.79-19-307-.91-98.82,17.69-173.14,78.18-220.84,165.31-14.94,27.28,26.76,51.68,41.71,24.38,39.56-72.26,97.1-122.75,178.57-140.47,78.38-17,161.33-8.18,240.58-3.47,45.31,2.69,90.66,5,136.07,4.73,47.41-.31,94.71-5.59,141.92,1.44,62.6,9.33,121.82,36.57,163.41,85.13,18.94,22.11,34.37,48,40.68,72.62l6.21-23.5c-73.24,75.36-180.93,124.47-281.16,149.29-185.12,45.85-375.16,5.28-533.19-98.52-34.15-22.44-68.12-47.26-96.87-76.52C259,1196.57,224.8,1230.73,246.62,1252.94Z"/><path class="cls-3" d="M1059.25,817.85c6.5,61.9,49,118.7,106.57,142.39-46.32,16.21-100.56,7.55-139.54-22.27a359.75,359.75,0,0,0,38,98.34c-28-1.1-56.52-2.27-83.22-10.91s-51.9-25.88-63.76-51.32-7-59.5,15.59-76.19"/><path d="M1035.1,817.85c8.21,70.57,52.23,135.09,118.53,163.24L1159.4,937c-41.81,14-85.63,6.4-120.93-19.84-18.1-13.45-39.79,8.68-35.48,27.28a397.35,397.35,0,0,0,40.44,104.11l20.86-36.35c-36.84-1.45-79.84-2.12-109.2-27.87C934.37,966.12,926,934.07,950,915c10.21-8.13,8.48-25.68,0-34.16-10.1-10.1-23.92-8.15-34.16,0-40.9,32.51-34.43,94.05-2.59,129.93,37.82,42.62,97.87,47.62,151.06,49.72,18.77.74,29.47-20.94,20.85-36.34a350.2,350.2,0,0,1-35.57-92.57l-35.48,27.27c44.65,33.2,105.5,42.31,158.15,24.71,17.4-5.82,26.45-35.37,5.77-44.15-49.55-21-88.27-67.09-94.6-121.53-1.51-13-10-24.16-24.16-24.16-11.88,0-25.67,11.11-24.15,24.16Z"/><path class="cls-3" d="M448.48,791.42c-7.12,61.84-50.2,118.21-108,141.31,46.17,16.68,100.49,8.57,139.77-20.86a360.09,360.09,0,0,1-39,98c28.06-.81,56.53-1.69,83.32-10.07s52.16-25.35,64.27-50.67,7.58-59.42-14.81-76.35"/><path d="M424.33,791.42c-6.4,50.63-43.12,98.56-90.27,118-21.73,9-23.93,38.31,0,46.58,52.49,18.14,113.41,9.43,158.38-23.29L457,905.45a349.89,349.89,0,0,1-36.57,92.18c-8.87,15.5,2.27,36.89,20.86,36.34,53.28-1.56,113.2-6.09,151.48-48.36,32.27-35.64,38.87-97.09-1.62-130-10.12-8.21-24.27-9.89-34.16,0-8.49,8.49-10.18,25.9,0,34.16,23.81,19.33,14.7,51.51-6.16,69.26-29.73,25.31-72.68,25.51-109.54,26.6L462.1,1022a397.27,397.27,0,0,0,41.44-103.72c4.52-18.67-17.43-40.41-35.48-27.27-35.59,25.89-79.49,32.82-121.16,18.42V956c69.27-28.59,116.34-90.28,125.74-164.6,1.64-13-12.28-24.15-24.16-24.15-14.41,0-22.5,11.15-24.15,24.15Z"/><path class="cls-4" d="M613.56,989.33l-.75,82.82c0,5.89,0,12.1,2.93,17.2,2.21,3.8,5.82,6.56,9.38,9.14,37.65,27.27,81.83,47,128.23,50s95-12.3,126.92-46.1c5.33-5.64,10.28-11.94,12.56-19.36,1.87-6.08,1.84-12.56,1.8-18.92q-.2-30.16-.4-60.33"/><path d="M589.41,989.33c-.25,27.57-1.22,55.25-.75,82.82.21,12,1.83,22.85,8.85,32.87,6.71,9.59,17.68,16.21,27.31,22.54,38.89,25.57,84,42.8,130.71,45.2,42.22,2.18,86.79-9.52,120.82-35,17.73-13.29,36.25-30.27,40.85-52.91,5.2-25.61,1.36-55,1.18-81-.2-31.07-48.51-31.14-48.3,0,.14,20.89.63,41.82.4,62.72-.18,15.88-13,26.14-25.55,34.56-26.35,17.75-57.87,25-89.4,23.39-35-1.8-68.57-15.3-98.19-33.44-5-3.06-17.46-8.35-20.38-13.63-2.19-4,.11-16.8.16-21.81l.6-66.25c.28-31.1-48-31.12-48.31,0Z"/><path class="cls-4" d="M582,957.25C409.91,827.78,382.43,563.38,532.43,405.66c70.26-73.89,172.31-114.37,272.46-108.1,92.7,5.8,184.83,53.55,234.53,134.47,32.64,53.13,45.65,116.67,50.95,179.33,6.33,74.93,1.92,152.92-29.17,220.95-60.73,132.88-219.22,200.93-359.4,175C659,999.33,617.11,983.66,582,957.25Z"/><path d="M594.19,936.4C390.81,779.7,423.32,433,672.69,341.47c129.42-47.51,290.1-7.72,356,120.83,35.29,68.81,42.83,153.72,39.39,229.91-3.27,72.53-24.33,144.35-74.58,198.37-99.64,107.14-278.94,132.33-399.36,45.82-25.28-18.17-49.43,23.71-24.38,41.71C693,1066.6,871.86,1050.82,989,959.79c137.22-106.64,153.33-306.33,105.14-463.15-48.87-159-209.48-245.25-370.59-218.52C573.59,303,451.62,421.54,419.83,569.56c-33,153.54,26,313,150,408.55C594.42,997.07,618.5,955.12,594.19,936.4Z"/><path d="M715.58,623.35C716.87,517.92,609.27,516.44,608,622,606.68,727.46,714.28,729,715.58,623.35Z"/><path d="M972.72,623.35C974,517.92,866.41,516.44,865.12,622,863.83,727.46,971.43,729,972.72,623.35Z"/><path d="M653.71,832.32c83.91,47.9,191.58,46.47,273.82-4.52,26.37-16.35,2.14-58.16-24.38-41.71-67.78,42-155.67,44.13-225.06,4.52-27-15.44-51.4,26.28-24.38,41.71Z"/><path class="cls-3" d="M424.65,404.53c-60.31,35.1-88.6,99.89-82.08,160.35S386.4,681.35,435,727.06a9.71,9.71,0,0,0,3.55,2.42c4.87,1.57,10.29-3.1,10.75-7.39C464.69,580.76,512.92,466,587.73,357.32"/><path d="M412.46,383.68c-46.14,27.89-80.77,73.17-91.1,126.64-10.71,55.46,4.36,111.08,33.9,158.46,15.63,25.08,34.88,48.17,55.95,68.85,10.24,10.06,20.15,18.19,35.44,15.31,15.93-3,24.29-15.78,26.84-30.85C483.77,661.48,493.81,603,515.31,545c23.12-62.38,55.79-120.69,93.27-175.5,17.59-25.73-24.25-49.92-41.71-24.38C493.87,451.88,445,571,428,699.48c-.43,3.21-.85,6.43-1.25,9.64q-5.16,19.67,20.89-3.46c-.93-4.61-14-14.11-17.37-17.84a300,300,0,0,1-30-38.37c-16.62-25.48-29.77-54.09-33.46-84.57-6.87-56.7,21.86-110.33,70.11-139.49,26.57-16.07,2.32-57.85-24.38-41.71Z"/><path class="cls-3" d="M843.51,349.4c23.25-16.49,49.41-29.49,76.82-30S976.51,333,990.08,360c22.2,44.24-14.67,109.08-59.36,104.39,43.14,17.57,90.29-8.18,127.85-38,21.39-17,42.29-36.13,55.54-61.64s17.62-58.68,5.27-84.76c-12.25-25.87-37.59-39.62-61.74-50.19-136.93-60-290-71.4-432.7-32.34-38.71,10.6-77.51,25.32-108.88,53.15-28.35,25.15-49.92,61.89-53.64,102.5s12.77,84.33,44.19,104.25c93.78-75.09,211.64-110.57,325.91-98.14"/><path d="M855.7,370.25c31.62-21.44,91.48-47.24,113.52,1.94,11.83,26.4-7.39,69-38.5,68.05-28.2-.83-31.49,39-6.42,47.44,78.17,26.19,175.18-43,210.66-110.73,18.79-35.85,22.67-81.95.72-117.33s-64.75-51.34-101.93-65.49a672.63,672.63,0,0,0-292.23-41.39c-86.83,7.13-193.36,25.74-255.1,93.2-59.76,65.3-70.11,176.75,8,232.28,9.45,6.73,21.26,2.49,29.26-3.77,88.08-68.95,197.49-101.84,308.84-91.06,30.92,3,30.72-45.34,0-48.31-124.75-12.07-245.06,28.55-343,105.21l29.27-3.78c-33.65-23.92-38.71-72.21-26.35-108.75,13.6-40.21,45.39-69.08,82.91-87.11,78.82-37.87,176.6-46.16,262.73-40.37a627.08,627.08,0,0,1,131.33,23.27c37.25,10.73,88.83,22.74,116.79,51.37,69.08,70.7-79.89,189.36-149.07,166.18l-6.42,47.44c63.1,1.85,104-71.83,85.54-128.18-10.6-32.35-40.33-55.79-73-62.8-40.24-8.63-79.3,8.87-111.91,31-25.58,17.35-1.44,59.23,24.38,41.71Z"/></svg>