<svg id="Layer_1" data-name="Layer 1" xmlns="http://www.w3.org/2000/svg" viewBox="0 0 1500 1500"><defs><style>.cls-1{fill:#92b4ff;}.cls-2{fill:#3b2314;}.cls-3{fill:#006838;}.cls-4{fill:#f2d3a5;}</style></defs><title>Kid Talk</title><ellipse class="cls-1" cx="750" cy="750" rx="700.52" ry="706.38"/><path class="cls-2" d="M741,178.72c-115.86-33.86-249,.57-333.94,86.35s-118,219.28-83,334.79c5.62,18.53,12.93,37.16,12,56.5-2.31,49.89-54.69,79.95-100.22,100.47A149.43,149.43,0,0,0,330.41,793c4.65.08,9.9.18,13,3.6,5.19,5.62.48,14.55-4.26,20.57q-32.32,41.16-64.67,82.31l80.52-1.54c10.3-.19,22.27.39,28.35,8.7,4,5.4,4.17,12.58,4.24,19.26l.7,71.3c0,3.59.11,7.34,1.82,10.49,4.65,8.55,17.1,7.33,26.53,4.91L575.4,971.8c32.81-8.43,66-16.92,99.88-17.25,29.06-.29,57.86,5.43,86.9,6.23,82.09,2.25,171.32-33.37,242.22,8.08,34.12,19.95,58.75,55.85,96.41,67.86q4.9-44.61,9.82-89.21c.43-3.89,1-8.1,3.78-10.85,3.66-3.65,9.55-3.31,14.71-3A160.32,160.32,0,0,0,1215.19,915c-13.66-35.4-52.26-90.81-44.84-129.79,6.86-36.05,49.92-47.5,73.91-68.87-81.18,1.89-101.71-78.33-104.85-145.14-2.26-48.18,2.22-96.79-4.83-144.5-12.52-84.61-63-162.87-134.93-209.15s-164.07-59.81-246.26-36.14"/><path d="M747.34,155.66C592.48,112.84,419.05,177.38,337.15,317.4,297.05,386,279.58,468,289,546.89a352.45,352.45,0,0,0,9.57,50.63c5.83,21.59,17.83,44.76,12.2,67.59-9.1,36.92-56,56.87-86.91,71.08-13.15,6-16.13,28.39-4.83,37.55,16.84,13.66,34.25,24.79,54.68,32.4a167.5,167.5,0,0,0,31.7,8.37c7.13,1.16,19.95-.4,26,2.71l-11-14.29c1.3,3.76-28.18,35.58-30.45,38.47l-32.34,41.15c-12,15.24-5.71,41.25,16.91,40.82,23-.44,46-1,69-1.32,10-.12,15.4-2.48,20.18,3.83,4.11,5.43.27,27.64.35,35.65.28,28.14-5.51,68.57,31.2,75.76,16.79,3.29,34.38-3.36,50.44-7.48l68-17.48c45.63-11.72,92.12-27.35,139.07-32.53C696,975,738.77,986,782,984.56c40.32-1.37,80-9.65,120.33-11.54,40.5-1.89,77,4.2,109.3,30.09,27,21.66,49.74,44.39,82.81,56.66,16,6,28.72-9.07,30.26-23l5.53-50.18c.71-6.43-.82-22.41,3.07-27.88l-4.19-1.06a117,117,0,0,0,14.86.2c29.54-.83,57-9,83.27-22.14,8.47-4.22,14.77-17.83,11-27-13.92-33.83-43.75-71.63-44.81-109.06-.94-33.51,45.69-48.17,67.74-66.35,16.66-13.74,2.36-40.59-16.91-40.81-69.23-.79-79.69-77.56-81.35-132.36-2.52-82.93,1.69-160.39-37-236.58C1055.8,185.15,895.55,118.36,747,158.36c-29.68,8-17.08,54.14,12.71,46.11,159.91-43.07,326.62,60.8,351.33,226.41,15.1,101.19-27.14,307.54,133.19,309.37l-16.9-40.81c-31.78,26.21-74.73,39-80.92,85.78-6.49,49.12,28,93.12,45.69,136.15l11-27A147.22,147.22,0,0,1,1139,910.13c-16.47.37-31.3-1.77-43.4,12-9.79,11.18-9.23,28.29-10.75,42.07l-8,72.48,30.26-23.05c-34-12.64-56.78-44.29-87.11-63.2-32.27-20.12-70.4-26.32-107.9-25.62-40.28.76-80,9-120.15,11.39-44.77,2.72-88.94-8.37-133.59-4.73C612.59,935.25,568,949,523.7,960.4l-68,17.48c-10.89,2.79-23.91,4.09-34,8.73q-14.67-2.26-10.38,6.74,2.41,11.58.84-8.05c1-28.9,9-80-17.37-100.47C383,875.7,369.48,874.54,355.05,874c-26.64-1-53.86,1-80.52,1.53l16.9,40.81q28.76-36.57,57.49-73.16c11.63-14.85,24.52-29.74,18.72-49.73-5.27-18.18-20.2-22.68-37.23-24.4-29.23-2.94-54.38-10.29-77.62-29.14L248,777.47c58.16-26.69,121.22-69,110.37-141.83-5.89-39.55-22.06-75-23.82-115.73a329,329,0,0,1,16.67-118.3C403.71,243.7,575.79,157.84,734.63,201.77c29.7,8.21,42.38-37.9,12.71-46.11Z"/><path class="cls-3" d="M265,1230.91s194.94,199.51,481.35,199.51,454.39-174,454.39-174-48-192.05-313-176.76S391.72,993.53,265,1230.91Z"/><path d="M248.06,1247.81c86.11,87.64,207,151,324.37,182.91,187.21,51,393.16,16.75,556-88,29.53-19,66.88-41.31,89.08-69.37,18.66-23.58-9.77-65.27-23-85.46-33.27-50.76-81.88-87.82-138.3-109.59-92.62-35.72-192.83-18.43-289.49-22.21-100.73-3.95-203.69-18.84-303.85-.9-97.81,17.51-171.37,77.38-218.59,163.62-14.78,27,26.49,51.16,41.29,24.13,39.16-71.52,96.11-121.5,176.75-139,77.58-16.87,159.69-8.1,238.13-3.44,44.84,2.66,89.74,5,134.68,4.69,46.93-.31,93.75-5.54,140.48,1.42,62,9.23,120.57,36.2,161.74,84.26,18.75,21.88,34,47.48,40.27,71.88l6.14-23.26c-72.49,74.6-179.08,123.2-278.29,147.77-183.24,45.39-371.34,5.23-527.76-97.52-33.81-22.2-67.42-46.78-95.88-75.74C260.27,1192,226.47,1225.84,248.06,1247.81Z"/><path class="cls-4" d="M611.27,986.89l-.74,82c-.06,5.83,0,12,2.9,17,2.18,3.77,5.75,6.49,9.28,9,37.26,27,81,46.56,126.92,49.5s94-12.17,125.63-45.63c5.27-5.59,10.17-11.82,12.43-19.17,1.85-6,1.82-12.43,1.78-18.72l-.39-59.72"/><path d="M587.36,986.89c-.25,27.29-1.21,54.69-.74,82,.21,11.92,1.81,22.62,8.76,32.55,6.64,9.48,17.5,16,27,22.3,38.49,25.31,83.12,42.37,129.38,44.75,41.79,2.15,85.91-9.43,119.59-34.67,17.55-13.15,35.88-30,40.43-52.37,5.15-25.36,1.34-54.49,1.17-80.22-.2-30.75-48-30.82-47.81,0,.14,20.69.63,41.4.39,62.08-.17,15.72-12.9,25.88-25.28,34.21-26.08,17.57-57.29,24.76-88.49,23.15-34.65-1.78-67.88-15.14-97.19-33.09-5-3-17.29-8.27-20.18-13.49-2.16-3.91.12-16.63.16-21.59l.6-65.58c.27-30.78-47.54-30.8-47.82,0Z"/><path class="cls-4" d="M580,955.14C409.69,827,382.5,565.28,531,409.17,600.51,336,701.51,296,800.65,302.17c91.76,5.74,182.94,53,232.14,133.1,32.3,52.59,45.19,115.48,50.43,177.5,6.26,74.16,1.9,151.36-28.88,218.7-60.11,131.53-217,198.88-355.74,173.17C656.28,996.79,614.78,981.28,580,955.14Z"/><path d="M592.1,934.5C390.78,779.4,423,436.26,669.8,345.64c128.09-47,287.14-7.64,352.41,119.59,34.94,68.11,42.4,152.16,39,227.57-3.24,71.79-24.09,142.87-73.82,196.35-98.63,106.05-276.11,131-395.29,45.35-25-18-48.93,23.47-24.14,41.28,121.92,87.6,299,72,414.9-18.12,135.83-105.56,151.76-303.22,104.07-458.44-48.38-157.41-207.35-242.75-366.82-216.29-148.4,24.63-269.13,142-300.6,288.47-32.64,152,25.7,309.81,148.45,404.38C592.32,994.55,616.16,953,592.1,934.5Z"/><path d="M712.24,624.64c1.28-104.36-105.23-105.82-106.51-1.31S711,729.17,712.24,624.64Z"/><path d="M966.77,624.64c1.27-104.36-105.23-105.82-106.51-1.31S965.49,729.17,966.77,624.64Z"/><path d="M651,831.48c83,47.42,189.63,46,271-4.47,26.1-16.19,2.12-57.57-24.14-41.29-67.08,41.6-154.08,43.69-222.76,4.48-26.76-15.29-50.88,26-24.13,41.28Z"/><path class="cls-2" d="M605.72,301.54c-47.55,63.07-71.52,232.1-42.88,305.71l25.65-60.14c28.6-67.07,63-140.13,129.89-169a1310.68,1310.68,0,0,1,61.75,209.06C830.24,522.54,848.84,452,863,373.53c-1.45,8.06,58.65,43,66.78,51.39,24.14,24.89,43,59,63.4,87.09,22.28-55.41,46.19-122.88,15.47-178.48-21.3-38.55-67.32-66-109.78-54.33"/><path d="M585.08,289.47c-32.41,44.55-45.39,104-52.83,157.58-7.46,53.82-11.67,114.55,7.54,166.55,6.19,16.77,34.81,26.55,43.69,5.71,33.31-78.11,63.28-182.31,147-220.58l-35.12-14.28A1360.9,1360.9,0,0,1,757.08,593.5c4.7,22.36,32.45,20.55,43.7,5.72,48.89-64.49,70.91-140.79,85.25-219.33l-47-6.36c3.21,28,38.23,43.9,59.22,58,31.32,21.06,50.9,59.9,74.23,92.54,12.6,17.61,35.88,13.86,43.7-5.72,23.77-59.52,46.29-128.49,16.48-190.17-25.12-52-82.91-85.28-140.21-72.05-30,6.92-17.28,53,12.71,46.11,42.15-9.73,81.49,26.05,91.16,65.14,11.45,46.25-9.36,96-26.25,138.26l43.7-5.71c-23.18-32.42-42.74-73.81-75-98.28-9.64-7.3-19.93-13.74-29.95-20.5-6.33-4.28-13-8.44-18.91-13.23-10.3-8.27-4.9-10.78-3,5.6-2.78-24.26-41.68-35.31-47-6.36-13.71,75.09-33.67,146.23-80.44,207.91l43.7,5.71a1362.5,1362.5,0,0,0-61.76-209.06c-5.92-15.39-20.09-21.15-35.12-14.28C613.67,399.82,579.14,508.56,542.2,595.18l43.69,5.71c-16.9-45.77-13.47-99.62-6.69-147.06C586,406,597.43,353.37,626.37,313.6c18.12-24.91-23.34-48.8-41.29-24.13Z"/><path class="cls-2" d="M439.33,558.87,535.18,775c.8,1.79,1.61,3.77,1.05,5.65s-2.44,3.17-4.17,4.23l-67.17,41.08"/><path d="M418.69,570.94l47.93,108,23.43,52.83,11.71,26.41,6.39,14.41c.66,1.49,4.2,12.8,4.17,8l3.27-12.06L513.93,771l8.58-8.58c-22.12,15.65-46.57,28.72-69.69,42.87-26.21,16-2.21,57.4,24.13,41.28L515,823.3c12.36-7.56,28.87-14.63,38.33-25.74,10.63-12.49,6.22-26.1.35-39.45-6.35-14.43-12.78-28.82-19.17-43.22L460,546.81c-5.23-11.81-22.45-14.58-32.7-8.58-12.17,7.11-13.84,20.86-8.58,32.71Z"/><path class="cls-2" d="M467.25,702.28Q446.7,633,426.13,563.68c-5.86-19.74-35.12-11.52-30.74,8.48,1.28,5.85,3,11.58,4.35,17.41-4.82,2.58-8.44,7.25-8.18,13.49a458.16,458.16,0,0,0,11.6,86.07c2.69,11.38,5.35,27,11.16,39.92a14,14,0,0,0-2.45,8.62c0,.28.12.54.13.82a99.41,99.41,0,0,0-4.12,16.7A17.19,17.19,0,0,0,412,769.7a14,14,0,0,0,9.95,10.23c.18.46.38.9.56,1.36-3.81,4.4-7.6,8.66-11.1,12.59-11.7,13.14,3.1,34.54,19.31,25a149.17,149.17,0,0,0,40.17-34.07c5.43-6.62,4.61-14.27,1-19.88C482.75,743.84,473.57,723.58,467.25,702.28Z"/><path class="cls-2" d="M835.68,270.79a83,83,0,0,0-21.7-19.3c-11.66-7.37-24.88,3.91-23.68,15.73-9.23-1-18.47-1.65-27.73-1.83-16.05-1.91-32.17-2.52-48.33.1-13.16,2.14-27.15,7-37.81,15.13-7,5.34-11.72,14.05-9.38,23a20.21,20.21,0,0,0,19.61,15.3c10.77.16,15.74-8.52,15.2-16.87a62.86,62.86,0,0,1,6.49-2.39,276.88,276.88,0,0,0,85.55,2.88,23.13,23.13,0,0,0,6.45-1.86c4.88.81,9.77,1.49,14.58,2.56,7.37,1.63,14-2.11,17.45-7.71a16.72,16.72,0,0,0,5.79-5.45C842.05,283.47,840.07,276.47,835.68,270.79Z"/></svg>