<svg id="Layer_1" data-name="Layer 1" xmlns="http://www.w3.org/2000/svg" viewBox="0 0 1500 1500"><defs><style>.cls-1{fill:#92b4ff;}.cls-2{fill:#006838;}.cls-3{fill:#f4b5a6;}</style></defs><title>Kid Talk</title><ellipse class="cls-1" cx="750" cy="749.6" rx="699.36" ry="705.21"/><path class="cls-2" d="M269.45,1229.72S464.07,1428.9,750,1428.9s453.64-173.73,453.64-173.73-48-191.73-312.5-176.47S396,992.73,269.45,1229.72Z"/><path d="M252.57,1246.59c86,87.5,206.66,150.72,323.83,182.61,186.9,50.86,392.51,16.72,555.12-87.82,29.48-19,66.76-41.24,88.93-69.27,18.62-23.53-9.76-65.16-23-85.31-33.21-50.68-81.74-87.68-138.07-109.41-92.46-35.66-192.51-18.4-289-22.18-100.56-3.93-203.35-18.8-303.35-.9-97.64,17.49-171.08,77.26-218.22,163.36-14.76,27,26.44,51.08,41.21,24.09,39.1-71.4,96-121.3,176.47-138.8,77.44-16.84,159.42-8.09,237.73-3.44,44.77,2.66,89.59,5,134.45,4.68,46.86-.31,93.6-5.52,140.25,1.43,61.86,9.21,120.38,36.13,161.47,84.11,18.72,21.85,34,47.41,40.21,71.77l6.14-23.22c-72.38,74.47-178.8,123-277.84,147.52C726,1431.12,538.21,1391,382.05,1288.45c-33.76-22.17-67.32-46.7-95.73-75.61C264.76,1190.89,231,1224.65,252.57,1246.59Z"/><path class="cls-3" d="M615.18,986.1l-.74,81.84c-.06,5.82,0,12,2.89,17,2.18,3.76,5.75,6.48,9.27,9,37.2,27,80.86,46.48,126.71,49.42s93.87-12.15,125.42-45.55c5.27-5.58,10.16-11.81,12.41-19.14,1.85-6,1.82-12.41,1.78-18.69q-.2-29.82-.4-59.62"/><path d="M591.31,986.1c-.25,27.24-1.21,54.6-.74,81.84.2,11.89,1.8,22.58,8.74,32.49,6.63,9.47,17.48,16,27,22.26,38.43,25.27,83,42.3,129.16,44.68,41.73,2.14,85.77-9.41,119.39-34.61,17.53-13.13,35.83-29.91,40.37-52.28,5.14-25.32,1.34-54.4,1.17-80.09-.2-30.7-47.94-30.77-47.73,0,.13,20.65.63,41.33.39,62-.18,15.69-12.88,25.83-25.24,34.15-26,17.54-57.19,24.72-88.35,23.11-34.59-1.78-67.76-15.11-97-33-4.94-3-17.26-8.25-20.15-13.46-2.16-3.91.12-16.61.16-21.56L639,986.1c.28-30.72-47.45-30.75-47.73,0Z"/><path class="cls-3" d="M584,954.4C413.93,826.46,386.78,565.19,535,409.33c69.44-73,170.27-113,269.24-106.82,91.61,5.73,182.65,52.92,231.76,132.88,32.25,52.51,45.11,115.29,50.34,177.21,6.26,74,1.9,151.11-28.82,218.34-60,131.31-216.63,198.55-355.15,172.88C660.11,996,618.68,980.5,584,954.4Z"/><path d="M596,933.79C395.05,779,427.18,436.38,673.61,345.91c127.88-47,286.67-7.63,351.83,119.4,34.88,68,42.33,151.9,38.93,227.19-3.23,71.67-24,142.64-73.7,196C892.21,994.4,715,1019.29,596,933.79c-25-17.95-48.85,23.44-24.1,41.22,121.72,87.45,298.48,71.85,414.22-18.09,135.6-105.39,151.51-302.72,103.89-457.68-48.3-157.15-207-242.35-366.21-215.94-148.16,24.59-268.69,141.73-300.1,288C391.15,723,449.39,880.59,571.94,975,596.26,993.75,620.06,952.3,596,933.79Z"/><path d="M716,624.45c1.28-104.19-105.05-105.64-106.33-1.3C608.38,727.33,714.71,728.81,716,624.45Z"/><path d="M970.09,624.45c1.27-104.19-105.06-105.64-106.33-1.3C862.48,727.33,968.81,728.81,970.09,624.45Z"/><path d="M654.85,831c82.91,47.34,189.32,45.92,270.58-4.47,26.06-16.15,2.12-57.47-24.09-41.22-67,41.53-153.83,43.62-222.4,4.47-26.72-15.25-50.79,26-24.09,41.22Z"/></svg>