<svg id="Layer_1" data-name="Layer 1" xmlns="http://www.w3.org/2000/svg" viewBox="0 0 1500 1500"><defs><style>.cls-1{fill:#92b4ff;}.cls-2{fill:#006838;}.cls-3{fill:#f2d3a5;}</style></defs><title>Kid Talk</title><ellipse class="cls-1" cx="750" cy="749.6" rx="692.12" ry="697.91"/><path class="cls-2" d="M274.42,1224.74S467,1421.86,750,1421.86s448.94-171.93,448.94-171.93-47.46-189.74-309.26-174.64S399.66,990.21,274.42,1224.74Z"/><path d="M257.72,1241.45C342.8,1328,462.25,1390.6,578.2,1422.16c185,50.34,388.44,16.55,549.37-86.91,29.17-18.76,66.07-40.82,88-68.55,18.43-23.29-9.66-64.49-22.72-84.43C1160,1132.12,1112,1095.5,1056.21,1074c-91.5-35.29-190.51-18.21-286-22-99.52-3.9-201.25-18.61-300.21-.89-96.63,17.3-169.31,76.45-216,161.66-14.61,26.68,26.17,50.55,40.79,23.84,38.69-70.66,95-120,174.63-137.36,76.65-16.67,157.77-8,235.27-3.4,44.31,2.63,88.66,4.93,133.07,4.63,46.37-.31,92.62-5.47,138.79,1.41,61.22,9.12,119.13,35.76,159.8,83.24,18.53,21.63,33.62,46.92,39.79,71l6.07-23c-71.62,73.69-176.94,121.71-275,146-181,44.84-366.88,5.17-521.42-96.35-33.41-21.94-66.62-46.22-94.73-74.83C269.78,1186.32,236.39,1219.73,257.72,1241.45Z"/><path class="cls-3" d="M616.57,983.65l-.73,81c-.05,5.76,0,11.84,2.87,16.82,2.15,3.73,5.68,6.42,9.16,8.94,36.82,26.68,80,46,125.4,48.91s92.91-12,124.13-45.08c5.21-5.52,10.05-11.68,12.28-18.94,1.83-5.94,1.8-12.28,1.76-18.5l-.39-59"/><path d="M593,983.65c-.24,27-1.19,54-.73,81,.2,11.77,1.79,22.35,8.65,32.16,6.56,9.37,17.3,15.84,26.71,22,38,25,82.12,41.86,127.82,44.21,41.3,2.13,84.89-9.31,118.16-34.25,17.34-13,35.45-29.6,40-51.74,5.08-25,1.33-53.84,1.16-79.26-.2-30.38-47.44-30.45-47.24,0,.13,20.44.62,40.91.39,61.34-.18,15.53-12.75,25.56-25,33.8-25.77,17.36-56.6,24.46-87.44,22.87-34.23-1.76-67-15-96-32.7-4.89-3-17.08-8.16-19.94-13.33-2.14-3.86.11-16.42.16-21.33l.58-64.79c.28-30.41-47-30.43-47.24,0Z"/><path class="cls-3" d="M585.71,952.28C417.41,825.66,390.54,567.1,537.23,412.86,605.94,340.6,705.73,301,803.68,307.14c90.66,5.67,180.75,52.38,229.36,131.51,31.91,52,44.64,114.09,49.82,175.37,6.19,73.27,1.88,149.55-28.53,216.08C994.94,960.05,840,1026.59,702.86,1001.19,661,993.44,620,978.11,585.71,952.28Z"/><path d="M597.63,931.89c-198.9-153.24-167.1-492.27,76.77-581.8,126.56-46.46,283.7-7.55,348.19,118.16,34.52,67.29,41.89,150.33,38.53,224.84-3.2,70.93-23.8,141.16-72.94,194-97.45,104.78-272.79,129.41-390.55,44.81-24.73-17.77-48.34,23.19-23.84,40.79,120.45,86.54,295.38,71.1,409.92-17.91,134.2-104.29,149.94-299.58,102.81-452.94C1038.73,346.31,881.67,262,724.11,288.13c-146.63,24.34-265.9,140.26-297,285C394.87,723.3,452.5,879.24,573.79,972.68,597.85,991.22,621.4,950.2,597.63,931.89Z"/><path d="M716.34,625.74c1.26-103.1-104-104.54-105.23-1.28C609.84,727.56,715.07,729,716.34,625.74Z"/><path d="M967.81,625.74c1.26-103.1-104-104.54-105.23-1.28C861.32,727.56,966.54,729,967.81,625.74Z"/><path d="M655.84,830.11c82,46.84,187.35,45.44,267.77-4.42,25.79-16,2.1-56.88-23.84-40.79-66.28,41.09-152.24,43.16-220.09,4.42-26.44-15.1-50.27,25.7-23.84,40.79Z"/></svg>