<svg id="Layer_1" data-name="Layer 1" xmlns="http://www.w3.org/2000/svg" viewBox="0 0 1500 1500"><defs><style>.cls-1{fill:#92b4ff;}.cls-2{fill:#006838;}.cls-3{fill:#d88d3d;}</style></defs><title>Kid Talk</title><ellipse class="cls-1" cx="750" cy="749.6" rx="691.97" ry="697.76"/><path class="cls-2" d="M274.53,1224.64S467.09,1421.72,750,1421.72s448.85-171.9,448.85-171.9-47.46-189.7-309.2-174.6S399.74,990.16,274.53,1224.64Z"/><path d="M257.83,1241.34c85.06,86.57,204.48,149.12,320.41,180.67,184.92,50.33,388.36,16.55,549.24-86.89,29.17-18.75,66.06-40.8,88-68.53,18.42-23.29-9.66-64.47-22.72-84.41-32.86-50.15-80.87-86.76-136.61-108.25-91.49-35.28-190.47-18.21-286-22-99.5-3.89-201.21-18.6-300.14-.89-96.62,17.3-169.28,76.44-215.93,161.63-14.6,26.68,26.17,50.54,40.79,23.84,38.68-70.65,94.93-120,174.59-137.34,76.63-16.66,157.74-8,235.22-3.4,44.3,2.63,88.64,4.93,133,4.64,46.36-.31,92.6-5.47,138.76,1.4,61.21,9.12,119.1,35.76,159.77,83.23,18.52,21.62,33.61,46.9,39.77,71l6.08-23c-71.61,73.68-176.9,121.69-274.9,146-181,44.83-366.8,5.16-521.31-96.33-33.4-21.94-66.61-46.21-94.72-74.82C269.89,1186.23,236.5,1219.63,257.83,1241.34Z"/><path class="cls-3" d="M616.6,983.6l-.73,81c0,5.76,0,11.84,2.86,16.82,2.16,3.72,5.69,6.42,9.17,8.94,36.81,26.67,80,46,125.37,48.9s92.89-12,124.1-45.08c5.21-5.51,10-11.67,12.28-18.93,1.83-5.94,1.8-12.28,1.76-18.5l-.39-59"/><path d="M593,983.6c-.25,27-1.2,54-.74,81,.21,11.77,1.79,22.35,8.66,32.15,6.55,9.37,17.29,15.84,26.7,22,38,25,82.1,41.85,127.79,44.2,41.29,2.13,84.87-9.31,118.13-34.24,17.34-13,35.45-29.6,39.94-51.73,5.09-25,1.33-53.83,1.16-79.24-.2-30.38-47.43-30.45-47.23,0,.14,20.43.62,40.89.39,61.32-.17,15.53-12.75,25.56-25,33.79-25.77,17.36-56.59,24.46-87.42,22.87-34.22-1.76-67-15-96-32.69-4.89-3-17.08-8.16-19.94-13.32-2.13-3.87.12-16.43.16-21.33l.59-64.78c.27-30.4-47-30.43-47.23,0Z"/><path class="cls-3" d="M585.75,952.24c-168.27-126.59-195.13-385.1-48.48-539.31,68.7-72.24,168.47-111.82,266.4-105.69,90.64,5.67,180.71,52.36,229.31,131.48,31.91,51.94,44.63,114.07,49.81,175.33,6.19,73.26,1.88,149.51-28.52,216-59.38,129.92-214.34,196.45-351.4,171C661.06,993.38,620.07,978.06,585.75,952.24Z"/><path d="M597.66,931.85C398.81,778.64,430.6,439.69,674.41,350.18c126.54-46.46,283.64-7.55,348.12,118.13,34.51,67.28,41.88,150.3,38.52,224.79-3.2,70.91-23.79,141.13-72.92,193.95-97.43,104.76-272.74,129.39-390.47,44.8-24.72-17.77-48.33,23.18-23.83,40.78,120.42,86.53,295.32,71.09,409.83-17.91,134.17-104.26,149.91-299.51,102.79-452.83-47.78-155.5-204.81-239.8-362.33-213.66-146.6,24.33-265.85,140.23-296.93,284.95-32.25,150.12,25.38,306,146.64,399.45C597.89,991.17,621.43,950.16,597.66,931.85Z"/><path d="M716.34,625.77c1.26-103.08-103.94-104.52-105.2-1.29S715.08,729,716.34,625.77Z"/><path d="M967.76,625.77c1.26-103.08-103.94-104.52-105.21-1.29S966.5,729,967.76,625.77Z"/><path d="M655.86,830.09c82,46.84,187.31,45.43,267.72-4.42,25.78-16,2.09-56.86-23.84-40.78C833.47,826,747.53,828,679.7,789.31c-26.44-15.1-50.26,25.69-23.84,40.78Z"/></svg>