<svg id="Layer_1" data-name="Layer 1" xmlns="http://www.w3.org/2000/svg" viewBox="0 0 1500 1500"><defs><style>.cls-1{fill:#92b4ff;}.cls-2{fill:#006838;}.cls-3{fill:#99501f;}</style></defs><title>Kid Talk</title><ellipse class="cls-1" cx="750" cy="749.6" rx="690.26" ry="696.04"/><path class="cls-2" d="M275.7,1223.47s192.09,196.6,474.3,196.6,447.74-171.48,447.74-171.48-47.33-189.24-308.44-174.17S400.6,989.57,275.7,1223.47Z"/><path d="M259,1240.13c84.85,86.35,204,148.75,319.62,180.23,184.47,50.2,387.4,16.5,547.9-86.68,29.09-18.71,65.89-40.7,87.77-68.36,18.38-23.23-9.63-64.32-22.66-84.2-32.78-50-80.67-86.55-136.27-108-91.27-35.19-190-18.16-285.25-21.89-99.26-3.89-200.71-18.56-299.41-.89-96.37,17.26-168.86,76.25-215.39,161.23-14.56,26.61,26.11,50.41,40.69,23.78,38.58-70.48,94.7-119.72,174.16-137,76.44-16.62,157.35-8,234.64-3.39,44.19,2.62,88.43,4.92,132.71,4.62,46.25-.3,92.38-5.45,138.43,1.41,61,9.09,118.8,35.66,159.37,83,18.47,21.56,33.53,46.79,39.68,70.83l6.06-22.92c-71.44,73.5-176.47,121.4-274.23,145.61-180.55,44.72-365.9,5.15-520-96.09-33.31-21.89-66.44-46.1-94.48-74.64C271.07,1185.15,237.76,1218.47,259,1240.13Z"/><path class="cls-3" d="M616.93,983l-.73,80.78c-.05,5.75,0,11.81,2.86,16.78,2.15,3.71,5.67,6.39,9.14,8.91,36.72,26.61,79.81,45.88,125.07,48.78s92.65-12,123.79-45c5.19-5.51,10-11.65,12.24-18.89,1.83-5.93,1.8-12.25,1.76-18.45l-.39-58.84"/><path d="M593.37,983c-.24,26.89-1.19,53.89-.73,80.78.21,11.74,1.78,22.29,8.63,32.07,6.54,9.34,17.25,15.8,26.64,22,37.93,24.94,81.9,41.75,127.48,44.1,41.18,2.11,84.65-9.29,117.84-34.16,17.3-13,35.36-29.53,39.84-51.61,5.07-25,1.33-53.69,1.16-79-.2-30.31-47.32-30.37-47.12,0,.14,20.38.62,40.79.39,61.17-.17,15.49-12.72,25.49-24.91,33.71-25.7,17.31-56.45,24.39-87.2,22.81-34.14-1.75-66.88-14.92-95.76-32.61-4.88-3-17-8.14-19.89-13.29-2.13-3.85.12-16.39.16-21.28l.59-64.62c.27-30.32-46.84-30.35-47.12,0Z"/><path class="cls-3" d="M586.15,951.74C418.3,825.46,391.5,567.59,537.8,413.76c68.53-72.06,168.05-111.55,265.74-105.44C894,314,983.81,360.56,1032.28,439.48c31.83,51.82,44.53,113.79,49.69,174.9,6.17,73.08,1.88,149.15-28.45,215.5-59.23,129.6-213.81,196-350.53,170.63C661.28,992.78,620.39,977.5,586.15,951.74Z"/><path d="M598,931.4C399.67,778.57,431.38,440.45,674.6,351.16c126.22-46.34,282.94-7.53,347.26,117.84,34.42,67.11,41.78,149.93,38.42,224.24C1057.09,764,1036.55,834,987.54,886.71,890.36,991.21,715.48,1015.78,598,931.4c-24.66-17.72-48.21,23.13-23.78,40.68,120.13,86.31,294.59,70.92,408.82-17.86,133.84-104,149.55-298.77,102.54-451.72C1038,347.39,881.31,263.29,724.18,289.37,578,313.64,459,429.25,428,573.61,395.82,723.37,453.3,878.89,574.26,972.08,598.26,990.57,621.75,949.66,598,931.4Z"/><path d="M716.43,626.08c1.25-102.83-103.69-104.27-104.95-1.29S715.16,729.08,716.43,626.08Z"/><path d="M967.23,626.08c1.25-102.83-103.69-104.27-105-1.29S966,729.08,967.23,626.08Z"/><path d="M656.09,829.89c81.83,46.72,186.85,45.32,267.06-4.41,25.72-15.94,2.09-56.72-23.78-40.68-66.1,41-151.83,43.05-219.5,4.41-26.37-15.06-50.14,25.63-23.78,40.68Z"/></svg>