<svg id="Layer_1" data-name="Layer 1" xmlns="http://www.w3.org/2000/svg" viewBox="0 0 1500 1500"><defs><style>.cls-1{fill:#92b4ff;}.cls-2{fill:#003fcc;}.cls-3{fill:#f4b5a6;}.cls-4{fill:#8c670c;}</style></defs><title>Kid Talk</title><ellipse class="cls-1" cx="750" cy="750" rx="698.5" ry="704.34"/><path class="cls-2" d="M270,1229.52s194.38,198.94,480,198.94,453.08-173.52,453.08-173.52-47.9-191.49-312.11-176.25S396.43,992.82,270,1229.52Z"/><path d="M253.18,1246.38c85.87,87.38,206.41,150.53,323.44,182.37,186.67,50.81,392,16.71,554.43-87.71,29.44-18.93,66.68-41.19,88.82-69.17,18.6-23.51-9.74-65.09-22.93-85.21-33.17-50.62-81.64-87.57-137.9-109.27-92.35-35.62-192.27-18.38-288.65-22.16-100.44-3.93-203.11-18.78-303-.9-97.52,17.47-170.88,77.17-218,163.16-14.74,26.92,26.42,51,41.17,24.06,39.05-71.32,95.83-121.15,176.25-138.63,77.35-16.82,159.22-8.08,237.44-3.43,44.71,2.65,89.47,5,134.28,4.67,46.81-.31,93.49-5.51,140.08,1.42,61.78,9.2,120.22,36.1,161.27,84,18.7,21.82,33.93,47.34,40.16,71.68l6.13-23.2c-72.29,74.38-178.57,122.84-277.5,147.34-182.71,45.26-370.26,5.22-526.23-97.23-33.71-22.15-67.23-46.65-95.61-75.53C265.36,1190.74,231.65,1224.46,253.18,1246.38Z"/><path class="cls-3" d="M570.69,954.74l-1,100.66c-.07,7.16,0,14.72,3.83,20.91,2.88,4.62,7.6,8,12.25,11.11,49.22,33.15,107,57.17,167.63,60.78s124.18-14.94,165.91-56c7-6.86,13.44-14.51,16.42-23.53,2.44-7.39,2.41-15.27,2.35-23q-.26-36.66-.52-73.32"/><path d="M546.85,954.74c-.33,33.51-1.5,67.15-1,100.66.5,32.31,17.38,46.66,43.43,62.58,49.57,30.31,105.86,50.65,164.12,54.06,53.79,3.15,111.71-9.83,156.15-41.16,21.67-15.28,44.38-34.56,50.57-61.53,3.12-13.57,1.77-28.26,1.67-42l-.39-55c-.22-30.67-47.9-30.74-47.68,0,.19,26.2,2.08,53,.52,79.14-1.22,20.6-21.91,34.45-38.28,44.52-36.54,22.48-80.06,30.84-122.56,28.39-45.6-2.64-90-18.77-129.41-41.26-8.12-4.63-19.61-9.57-26.19-16.28-7.2-7.35-4.2-19.06-4.1-29.4l.8-82.69c.3-30.69-47.37-30.71-47.67,0Z"/><path class="cls-3" d="M584.19,954.55c-169.84-127.79-197-388.73-48.92-544.4,69.35-72.92,170.06-112.88,268.91-106.69,91.49,5.72,182.41,52.86,231.47,132.72,32.21,52.43,45,115.14,50.28,177,6.25,74,1.9,150.92-28.79,218.07-59.94,131.14-216.36,198.3-354.71,172.66C660.22,996.08,618.84,980.61,584.19,954.55Z"/><path d="M596.23,934C395.49,779.32,427.58,437.16,673.7,346.8c127.73-46.89,286.32-7.62,351.4,119.25C1059.94,534,1067.38,617.77,1064,693c-3.22,71.58-24,142.46-73.6,195.78C892,994.49,715.07,1019.35,596.23,934c-25-17.93-48.79,23.41-24.07,41.17,121.57,87.34,298.11,71.76,413.7-18.07,135.44-105.26,151.33-302.34,103.77-457.12-48.24-156.95-206.75-242-365.76-215.66-148,24.55-268.35,141.54-299.73,287.63-32.55,151.54,25.62,308.92,148,403.22C596.45,993.84,620.22,952.45,596.23,934Z"/><path d="M716,625c1.28-104.06-104.92-105.51-106.19-1.3C608.55,727.75,714.75,729.23,716,625Z"/><path d="M969.82,625c1.27-104.06-104.93-105.51-106.2-1.3C862.34,727.75,968.54,729.23,969.82,625Z"/><path d="M655,831.25c82.81,47.28,189.08,45.86,270.24-4.47,26-16.13,2.12-57.39-24.06-41.16-66.89,41.47-153.64,43.56-222.12,4.46C652.34,774.84,628.3,816,655,831.25Z"/><path class="cls-4" d="M901.8,381.41c51.26-4.26,112.1-21,126.49-70.35,8.64-29.67-4.1-62.57-25.85-84.54s-51.16-34.62-80.73-43.63C859,163.8,791.16,159,727.72,175.44c-37.82,9.78-73.87,27.34-104.33,51.87-15.32,12.33-26.27,29.25-40.93,41.62-32.22,27.16-78.86,28-116.15,44.83C390.73,347.89,375,394,355.55,466.6c-23,85.7,14.38,159.07,69.14,224,16,19,22.09,68.64,57.32,60.1,65-15.77,37.78-104.29,30.67-147.07-11.45-69,34.46-148,88.79-189.42,34.59-26.39,79.69-46.55,121-32.74C770.71,397.61,850.64,385.67,901.8,381.41Z"/><path d="M901.8,405.25c61.85-5.86,141.3-27.66,151.86-100,12.68-86.86-76.23-133.68-146.69-151.17C820.6,132.65,726.36,138,647.8,182.15a257.62,257.62,0,0,0-44.93,31.56c-17.41,15.51-29.82,35.88-51,46.84-34.46,17.83-74.75,20.5-109.6,38.44-59.82,30.81-87.81,82.93-105.44,145.57-22.63,80.47-7,155.23,40.65,223.56,10.15,14.56,23,27.8,32.23,42.89,6.71,11,10.52,23.53,17.39,34.47C442.52,770,466.69,780.82,495,771.71c60-19.32,56.38-88.58,47.49-138.7-6.7-37.78-10.68-70.51,3.88-107.6,17.16-43.7,50.13-82.85,90.72-106.46,22.82-13.27,48.23-21.8,74.61-15.73,18.17,4.18,35.42,8.36,54.17,9.6,45.38,3,90.85-3.62,136-7.57,30.33-2.65,30.61-50.35,0-47.68-31.78,2.79-63.49,6.72-95.39,7.88-33.69,1.22-62.87-6.06-95.52-10.9C648.57,345.32,586,387.26,547.63,433s-66.29,105.71-59.34,166.44c3.58,31.23,30.75,99.59-.47,123.22-21.21,16.05-27.95-19.6-35.63-33.26-16.14-28.7-40.21-51.92-55.74-81.48-32.66-62.12-26.18-126.06-1.2-189.65,23-58.52,70.62-81.89,128.62-97.7,30.71-8.37,59.1-18.9,82.5-41.33,28-26.81,51-51,87.3-67,78.74-34.78,182.47-30.71,259.31,8.19,33.82,17.12,72.92,59.34,45.3,98.69-20,28.56-64.63,35.43-96.48,38.45C871.52,360.45,871.22,408.15,901.8,405.25Z"/><path class="cls-4" d="M1042.21,351.77c25,32.85,50.5,66.52,60.65,101.88s2.15,73.36-32,92.6c-30.55-56.75-69.48-112-115.74-164.12"/><path d="M1021.63,363.8c22.78,29.91,49.33,61.73,59,98.84,2.06,7.91,2.38,10.27,2.51,17.69,0,2.2,0,4.4-.14,6.59,0,.47-.43,4.88-.22,3.32,0,.35-1.26,5.91-1.91,8.19-3.33,11.55-10.36,20.36-22,27.23l32.61,8.55c-32.92-60.84-73.7-117.13-119.46-168.94-8.53-9.65-25-8.7-33.72,0-9.58,9.59-8.54,24,0,33.72,43.15,48.83,81,101.95,112,159.29,6.12,11.3,21.79,14.91,32.62,8.55,38.07-22.36,52.7-63.81,45.94-106.18-7.3-45.76-38.73-85.12-66-120.91-7.79-10.22-20.55-15.61-32.62-8.55-10.07,5.89-16.4,22.31-8.55,32.61Z"/></svg>