<svg id="Layer_1" data-name="Layer 1" xmlns="http://www.w3.org/2000/svg" viewBox="0 0 1500 1500"><defs><style>.cls-1{fill:#92b4ff;}.cls-2{fill:#3b2314;}.cls-3{fill:#006838;}.cls-4{fill:#d88d3d;}</style></defs><title>Kid Talk</title><ellipse class="cls-1" cx="753.87" cy="742.7" rx="693.58" ry="699.39"/><path class="cls-2" d="M599.74,200.74C480.42,262.65,381,375.79,392.14,515.26c11,137.78,34.19,255.12,175,296.76C684,846.58,821,834.69,928.5,776.51c101.18-54.75,187-145.08,216.9-260.33,35.22-135.63-45.62-231.63-159.75-290.76-90.87-47.07-172.47-65.1-273.66-57.57C671.22,170.89,634.18,182.87,599.74,200.74Z"/><path d="M587.79,180.3C519,216.75,456.53,267.87,414.88,334.36c-42.25,67.43-51.27,139.77-43.05,217.55,6.86,65.05,18,134.08,55.62,189.29,42.07,61.7,108.79,91.66,180.47,104.87,168.85,31.12,346.66-23.14,463.6-150.32,103.6-112.67,150.75-283.63,38.88-407-59.51-65.63-148.32-109.3-233.11-131.09-95.9-24.64-200.15-22.14-289.5,22.64-27.24,13.65-3.29,54.5,23.9,40.88,134.23-67.29,313.24-23.45,427.47,65.89,48.07,37.6,86,90,90.44,152.46,5,69-26.29,139-66.88,193.23C972.22,753.6,821.56,815.91,672.49,806.69c-65.22-4-139.16-19.18-186.42-67.83-38.92-40.07-53.72-96.45-62.19-150.12-11.8-74.8-14.49-147.93,23.39-216.12,37.07-66.75,97.78-116.13,164.42-151.44C638.62,206.91,614.72,166,587.79,180.3Z"/><path class="cls-3" d="M273.63,1218.84s193,197.54,476.59,197.54,449.89-172.3,449.89-172.3-47.56-190.14-309.92-175S399.14,983.81,273.63,1218.84Z"/><path d="M256.9,1235.58c85.26,86.77,205,149.47,321.15,181.1,185.36,50.44,389.27,16.58,550.53-87.1,29.24-18.79,66.21-40.9,88.2-68.69,18.47-23.34-9.67-64.62-22.77-84.6-32.93-50.27-81.06-87-136.93-108.51-91.7-35.36-190.92-18.25-286.62-22-99.73-3.9-201.67-18.65-300.84-.89-96.84,17.34-169.68,76.62-216.42,162-14.64,26.73,26.22,50.65,40.87,23.89,38.77-70.82,95.16-120.3,175-137.66,76.8-16.7,158.1-8,235.77-3.4,44.4,2.63,88.84,4.94,133.34,4.64,46.47-.31,92.82-5.48,139.09,1.41,61.35,9.14,119.38,35.84,160.14,83.42,18.56,21.67,33.69,47,39.87,71.18l6.09-23c-71.78,73.85-177.32,122-275.54,146.3-181.43,44.94-367.66,5.18-522.54-96.55-33.47-22-66.75-46.32-94.93-75C269,1180.34,235.52,1213.82,256.9,1235.58Z"/><path class="cls-4" d="M616.51,977.24l-.74,81.16c0,5.78,0,11.87,2.88,16.86,2.16,3.73,5.69,6.43,9.18,9,36.9,26.73,80.2,46.1,125.67,49s93.1-12,124.39-45.18c5.22-5.53,10.07-11.7,12.3-19,1.83-6,1.81-12.31,1.77-18.54l-.39-59.13"/><path d="M592.84,977.24c-.25,27-1.2,54.15-.74,81.16.21,11.8,1.79,22.4,8.68,32.23,6.57,9.39,17.33,15.88,26.76,22.08,38.11,25.06,82.29,42,128.09,44.3,41.39,2.13,85.07-9.33,118.41-34.32,17.38-13,35.53-29.67,40-51.85,5.1-25.11,1.33-53.95,1.17-79.43-.21-30.45-47.55-30.52-47.34,0,.13,20.48.62,41,.39,61.47-.18,15.56-12.78,25.62-25,33.87-25.83,17.4-56.73,24.51-87.63,22.92-34.3-1.76-67.2-15-96.21-32.77-4.91-3-17.12-8.18-20-13.35-2.14-3.87.12-16.47.16-21.38l.59-64.93c.27-30.47-47.07-30.5-47.34,0Z"/><path class="cls-4" d="M585.58,945.81C416.93,818.92,390,559.81,537,405.24c68.86-72.41,168.86-112.09,267-105.94,90.85,5.68,181.14,52.48,229.85,131.78,32,52.07,44.73,114.34,49.92,175.75,6.21,73.43,1.89,149.86-28.58,216.53C995.68,953.59,840.36,1020.28,703,994.82,661.07,987.05,620,971.69,585.58,945.81Z"/><path d="M597.53,925.37c-199.33-153.56-167.46-493.31,76.93-583,126.82-46.56,284.3-7.57,348.92,118.41,34.59,67.43,42,150.65,38.61,225.32-3.2,71.07-23.85,141.45-73.09,194.4-97.65,105-273.37,129.68-391.37,44.9-24.78-17.81-48.45,23.24-23.9,40.88,120.71,86.72,296,71.25,410.79-18,134.48-104.51,150.26-300.21,103-453.9-47.9-155.85-205.3-240.35-363.19-214.15C577.34,304.64,457.81,420.8,426.65,565.86c-32.32,150.48,25.44,306.75,147,400.39C597.75,984.83,621.35,943.72,597.53,925.37Z"/><path d="M716.48,618.58C717.75,515.25,612.3,513.81,611,617.29,609.77,720.61,715.22,722.08,716.48,618.58Z"/><path d="M968.49,618.58C969.75,515.25,864.3,513.81,863,617.29,861.77,720.61,967.22,722.08,968.49,618.58Z"/><path d="M655.86,823.37c82.22,47,187.75,45.54,268.34-4.43,25.84-16,2.1-57-23.89-40.87-66.43,41.18-152.56,43.25-220.56,4.43-26.5-15.13-50.38,25.75-23.89,40.87Z"/><path class="cls-2" d="M605.59,298.56c37.77,53.1,76.68,107.13,129.79,144.89s123.93,56.94,184.56,33.06S1020.73,376.67,992,318.18c-19.61-39.92-65.18-62.44-109.62-64.35"/><path d="M585.15,310.5c65.7,92.31,144,192.44,266.77,199.86,52.17,3.15,104.54-16,137.86-57.12,29.28-36.11,45.1-86.65,29-132-20.37-57.43-78.38-87.49-136.42-91.1-30.42-1.88-30.31,45.46,0,47.34,46.47,2.89,96.25,32.67,95.41,84.25-.75,46.3-38,86.35-81.44,97.54C776.21,490.24,686,370.82,626,286.61c-17.52-24.62-58.6-1-40.88,23.89Z"/><path class="cls-2" d="M406.38,409.81c-67.69,108.32-68.67,227,7.52,331.19,26.67,36.45,92.18,116.47,140.09,73.54a91.19,91.19,0,0,0,29.45-75.2c-3.67,11.3-18.68,15.54-29.76,11.28s-18.74-14.43-24.74-24.68c-25.81-44.14-31.52-98.27-22-148.5s33.43-96.88,63.2-138.44c17-23.68,36-46.18,48.58-72.48,10.75-22.57.43-44.95-17.37-62.51"/><path d="M385.94,397.86C351,455.27,328.89,521.15,333,589c3.93,65,29.91,124.37,69.25,175.6,27.45,35.73,64.46,79.35,112.11,85.15,59.42,7.22,95.29-58.66,92.76-110.41C606,717.05,574.65,705.65,563,727.4c-2.77,5.17-17.07-19.58-17.74-20.86a162.12,162.12,0,0,1-12.78-33.85,202.05,202.05,0,0,1-5.9-61.34c2.14-42.8,17.6-84,38.64-120.91,20.74-36.41,50.56-67.15,70-104.19,19.14-36.46,10.48-69.48-17.12-99-20.86-22.29-54.29,11.24-33.48,33.48,24.27,25.93,8.57,46.2-9,71-15,21.25-31.25,41.47-44.83,63.71-26.66,43.65-45.37,92-50.59,143.06-4.91,48,3.82,101.2,30.16,142.37,20.64,32.27,70.51,53.23,93.47,10.36l-44.11-11.95c1,21.1-5.21,48-24.86,60-14.25,8.69-29.75-.23-42-8.71-30-20.8-54.81-53.29-73.75-84.13-56.13-91.39-46.9-195.21,7.63-284.76,15.89-26.09-25-49.91-40.88-23.9Z"/></svg>