<svg id="Layer_1" data-name="Layer 1" xmlns="http://www.w3.org/2000/svg" viewBox="0 0 1500 1500"><defs><style>.cls-1{fill:#92b4ff;}.cls-2{fill:#006838;}.cls-3{fill:#99501f;}</style></defs><title>Kid Talk</title><ellipse class="cls-1" cx="750" cy="750" rx="699.54" ry="705.39"/><path class="cls-2" d="M265.64,1230.23s194.68,199.24,480.68,199.24,453.76-173.78,453.76-173.78-48-191.78-312.58-176.51S392.22,993.19,265.64,1230.23Z"/><path d="M248.76,1247.12c86,87.51,206.72,150.75,323.92,182.65,187,50.88,392.61,16.72,555.25-87.85,29.49-19,66.78-41.25,89-69.28,18.63-23.54-9.76-65.18-23-85.33-33.22-50.69-81.76-87.7-138.11-109.44-92.49-35.66-192.56-18.4-289.08-22.18-100.59-3.94-203.41-18.81-303.43-.9-97.67,17.49-171.13,77.27-218.28,163.4-14.76,27,26.45,51.08,41.23,24.09,39.1-71.42,96-121.33,176.5-138.84,77.47-16.84,159.46-8.08,237.8-3.43,44.78,2.66,89.61,5,134.49,4.68,46.87-.31,93.62-5.53,140.28,1.42,61.88,9.22,120.4,36.15,161.51,84.14,18.73,21.86,34,47.42,40.22,71.79l6.14-23.23c-72.39,74.49-178.84,123-277.91,147.56-183,45.32-370.81,5.22-527-97.38-33.76-22.18-67.33-46.72-95.75-75.64C261,1191.4,227.2,1225.17,248.76,1247.12Z"/><path class="cls-3" d="M611.46,986.56l-.74,81.86c-.05,5.82,0,12,2.9,17,2.18,3.76,5.75,6.48,9.27,9,37.21,27,80.88,46.5,126.74,49.44s93.9-12.16,125.45-45.57c5.27-5.58,10.16-11.8,12.42-19.14,1.84-6,1.82-12.41,1.78-18.7q-.21-29.82-.4-59.63"/><path d="M587.59,986.56c-.25,27.25-1.21,54.61-.74,81.86.2,11.89,1.8,22.58,8.74,32.5,6.63,9.47,17.48,16,27,22.27,38.44,25.27,83,42.31,129.19,44.68,41.74,2.15,85.79-9.41,119.43-34.61,17.53-13.14,35.83-29.93,40.37-52.3,5.14-25.32,1.35-54.42,1.18-80.11-.21-30.71-48-30.78-47.75,0,.13,20.66.63,41.34.39,62-.17,15.69-12.89,25.83-25.24,34.16-26,17.54-57.21,24.72-88.38,23.11-34.6-1.77-67.77-15.11-97-33-5-3-17.27-8.26-20.16-13.48-2.16-3.9.12-16.6.16-21.56l.6-65.48c.27-30.74-47.47-30.76-47.75,0Z"/><path class="cls-3" d="M580.27,954.85c-170.1-128-197.26-389.31-49-545.21,69.45-73,170.31-113,269.31-106.85,91.63,5.74,182.69,52.94,231.81,132.92,32.26,52.52,45.13,115.32,50.36,177.25,6.26,74.06,1.9,151.15-28.83,218.4-60,131.34-216.69,198.6-355.24,172.92C656.41,996.45,615,981,580.27,954.85Z"/><path d="M592.32,934.24c-201-154.88-168.9-497.54,77.59-588,127.91-47,286.74-7.63,351.92,119.43,34.89,68,42.34,152,38.94,227.25-3.23,71.69-24,142.67-73.71,196.07-98.5,105.91-275.72,130.8-394.74,45.29-25-18-48.86,23.44-24.1,41.23,121.74,87.47,298.55,71.87,414.32-18.1,135.63-105.41,151.55-302.79,103.91-457.8-48.3-157.19-207.05-242.41-366.3-216C572,308.18,451.4,425.34,420,571.65,387.38,723.41,445.63,881,568.22,975.47,592.54,994.21,616.34,952.75,592.32,934.24Z"/><path d="M712.29,624.81c1.28-104.21-105.08-105.67-106.35-1.3C604.66,727.72,711,729.2,712.29,624.81Z"/><path d="M966.46,624.81c1.28-104.21-105.08-105.67-106.35-1.3C858.83,727.72,965.19,729.2,966.46,624.81Z"/><path d="M651.15,831.37c82.93,47.35,189.36,45.93,270.65-4.47,26.06-16.16,2.11-57.48-24.1-41.23-67,41.54-153.87,43.62-222.45,4.47-26.73-15.26-50.81,26-24.1,41.23Z"/><path d="M708.56,337.55c14.26,6.52,28.92,12.52,42.78,19.87,3.88,2.06-2.13-1.87-.05,0,1.52,1.34-1.74-2.8-2.18-4,1.74,4.61,0-4.84-.15,0,.16-5.36,1.2-.88-.57.12,1.38-.78,1.92-3.87-.17-.14-.73,1.32-1.57,2.56-2.37,3.83-3.07,4.93,3.19-3.35-.67.89-1.17,1.29-2.31,2.59-3.5,3.85-11.47,12.05-7.89,36.48,10.53,39.9.59.11,3.08,1,3.61.88-1.13.25-5.36-2.94-1.78-.66a18.85,18.85,0,0,0,2.61,1.66c-4.07-1.63-3.28-2.73-1-.42.64.66,3.25,3.67.63.53s-.15,0,.36.83c.41.68,1.3,3.07,1.89,3.53-1.12-.87-1.79-5.37-.65-1.31.3,1.1.68,2.16,1,3.27s.6,5,.35.84-.06-.08,0,.89c.07,1.36,0,2.69,0,4.05,0,4.14,1.13-4.37.25-1.69a29.16,29.16,0,0,0-.81,3.22c-.86,4.2,2.69-4.44.41-.81-.71,1.12-1.33,2.28-2.09,3.38-7.09,10.33-2.27,26.94,8.57,32.67,12.13,6.41,25.1,2.45,32.66-8.57,20.28-29.54,3.86-81.46-33.2-88.33l10.54,39.9c16.42-17.27,29.32-42.56,15-65.31-6.43-10.24-16.76-15.36-27.33-20.2l-30.49-13.94c-11.33-5.18-26.23-3.61-32.67,8.56-5.54,10.49-3.56,27.12,8.57,32.67Z"/><path d="M868.46,361.6c2.49,2.2,5,4.41,7.31,6.75,1.07,1.07,2.07,2.19,3.1,3.28,3.75,3.93-2-3.89.59.85l.93,1.52q1.86,3.67-.25-1.11c.33,0,.94,3.37,1,3.65.85,2.87-.46-5.43-.33-1.05.17,5.37.65-5.66,0-.44-.48,4.05,1.51-3.37.33-1.06-1.39,2.73,2.67-4.43,3.75-3.72-.48-.32-7.78,4-8.57,4.52-9.46,5.78-15.81,14.59-17.29,25.64-1.85,13.71,5.65,27.15,19.16,31.52-.84-.27,7.69,1.46,9.38.9-1.39.46-5.5-.66-1.17.2,2.45.49-4.09-2.69-.85-.26,3.75,2.82-2.64-4,0-.08,2.42,3.54-1.76-3.39-.33-.77,2.47,4.54-.23-.84,0-1a21.62,21.62,0,0,1,.85,2.92l-.42-3.35a17.25,17.25,0,0,1,0,2.27q-.1,2.82.48-2.57c-.38.2-.86,3.23-1,3.67-.69,2.84,2.15-4.7.18-.88-2.36,4.59,3.27-4,0-.05-2.8,3.41,4.08-2.55,0-.08-10.67,6.48-15.63,21.7-8.56,32.66,6.91,10.72,21.24,15.5,32.66,8.57,18.1-11,28.35-33.63,22.21-54.4-6.05-20.49-25.85-35.1-47.25-34.63l16.88,7c5.63,5.24,6.57,15.37,1.81,21.25a9.6,9.6,0,0,1-3.55,3.17,31.73,31.73,0,0,1,3.07-1.72c4.56-2.38,8.61-4.46,12.51-8,8.39-7.63,12.64-18.57,13.23-29.74,1.08-20.33-12-36.46-26.29-49.16-9.35-8.28-24.68-9.89-33.77,0-8.31,9.06-10,24.92,0,33.76Z"/><path d="M963.37,401.14a86.33,86.33,0,0,1-.59,17.38l.85-6.34a87.93,87.93,0,0,1-5.84,21.16l2.41-5.7a86.89,86.89,0,0,1-8.42,15.22c-3.37,4.86-3.92,12.88-2.4,18.4s5.8,11.53,11,14.26c5.54,2.93,12.25,4.4,18.39,2.41s10.57-5.63,14.27-11a105.7,105.7,0,0,0,18.1-65.82c-.43-6.38-2.37-12.26-7-16.88-4.14-4.15-10.93-7.26-16.88-7-6.17.28-12.58,2.31-16.88,7-4.12,4.48-7.42,10.58-7,16.88Z"/><path d="M514.07,306.68c-52.05,24.9-94.14,63.94-118.49,116.7-24.94,54-36.52,113-37.85,172.35-1.41,63.22,8.77,127,24.15,188.12,7.75,30.81,18.61,60.85,25.86,91.76,2.43,10.39,4.92,22.09,3.84,32.74.23-2.3-3.94,16.25-3,10.68q-4.71,7.94-1.85,3,11.94-11,31-2.23c-23.11-11.4-51.66-6.23-65.32,17.13-12.33,21.06-6.1,53.87,17.12,65.32,36.27,17.89,72.48,6.2,95.53-26.06,21.75-30.42,24.3-67.88,18.91-103.81-4.75-31.68-16-61.87-24.42-92.67-9.05-33.06-17-66.71-21.64-100.7-8-58.12-7.3-118.23,8.84-174.9,15.74-55.27,43.19-89.89,95.52-114.93,23.26-11.13,29.38-44.38,17.13-65.32-13.91-23.79-42-28.3-65.32-17.13Z"/><path d="M563,1008.56l9-9a46.18,46.18,0,0,0,9.87-52.16,35.83,35.83,0,0,0-9.87-15.36l-9.67-7.47a47.53,47.53,0,0,0-24.1-6.52l-12.69,1.71a47.7,47.7,0,0,0-21.07,12.28l-9,9a46.16,46.16,0,0,0-9.88,52.16,35.76,35.76,0,0,0,9.88,15.36l9.66,7.47a47.56,47.56,0,0,0,24.1,6.52l12.69-1.71A47.7,47.7,0,0,0,563,1008.56Z"/><path d="M647.06,317.35a76.22,76.22,0,0,1,8-4l-11.4,4.81a74.08,74.08,0,0,1,17.3-4.68l-12.7,1.7a77,77,0,0,1,19.07-.11l-12.69-1.7a73.63,73.63,0,0,1,18.39,4.91l-11.4-4.82a73.45,73.45,0,0,1,8,4.05,49.5,49.5,0,0,0,36.79,4.81c11.08-3.05,23.08-11.61,28.54-21.94,5.85-11.08,8.79-24.51,4.81-36.79-3.83-11.84-11-22.16-21.94-28.54-36.27-21.12-82.69-21.1-119-.14a49.32,49.32,0,0,0-22,28.53,36.19,36.19,0,0,0-.85,19,35.52,35.52,0,0,0,5.67,17.75c6.57,10.2,16.36,19.17,28.53,21.95,12.58,2.86,25.42,1.75,36.79-4.82Z"/><path d="M776.19,279.68q4.42,1.51,8.75,3.31l-11.41-4.81a136,136,0,0,1,29.81,17.44l-9.66-7.46A135.41,135.41,0,0,1,812,305.47a53.08,53.08,0,0,0,33.76,14,53.14,53.14,0,0,0,33.76-14c8.35-9.1,14.56-21.05,14-33.76L891.84,259a47.7,47.7,0,0,0-12.28-21.07c-10.28-11.68-22.72-21.62-35.61-30.25s-27.67-15.07-42.37-20.1a36.19,36.19,0,0,0-19-.85,35.56,35.56,0,0,0-17.76,5.67,36,36,0,0,0-13.39,12.29,36,36,0,0,0-8.55,16.24c-2.78,12.22-2.18,25.94,4.81,36.79l7.47,9.67a47.8,47.8,0,0,0,21.07,12.28Z"/><path d="M916,336a146.1,146.1,0,0,1,25.15,25.23l-7.47-9.66a147.65,147.65,0,0,1,10.38,15.36,36.09,36.09,0,0,0,12.29,13.39,42.86,42.86,0,0,0,35.28,9.4,35.51,35.51,0,0,0,17.75-5.66l9.67-7.47a47.8,47.8,0,0,0,12.28-21.07l1.7-12.69a47.46,47.46,0,0,0-6.52-24.1q-3.48-5.93-7.49-11.51c-4.92-6.81-10.06-13.53-15.58-19.88a144.56,144.56,0,0,0-19.92-18.87,46.16,46.16,0,0,0-52.15-9.87A35.86,35.86,0,0,0,916,268.45l-7.47,9.67a47.53,47.53,0,0,0-6.52,24.1l1.71,12.69A47.7,47.7,0,0,0,916,336Z"/><path d="M972.11,1035.72h9a46.11,46.11,0,0,0,43.63-29.35,35.94,35.94,0,0,0,4.12-18.4l-1.71-12.69a47.7,47.7,0,0,0-12.28-21.07l-9.66-7.47a47.45,47.45,0,0,0-24.1-6.51h-9a46.11,46.11,0,0,0-43.64,29.35A35.92,35.92,0,0,0,924.36,988l1.71,12.7a47.58,47.58,0,0,0,12.28,21.06l9.66,7.47a47.56,47.56,0,0,0,24.1,6.52Z"/><path d="M597.48,415.49a39.36,39.36,0,0,1,7-6.92l-4.83,3.74a43.74,43.74,0,0,1,8.52-4.91l-5.71,2.41a46.74,46.74,0,0,1,11.25-3.05l-6.34.85a46,46,0,0,1,10.75,0l-6.35-.85a41.56,41.56,0,0,1,10.33,2.78l-5.7-2.41a38.62,38.62,0,0,1,7.72,4.54l-4.83-3.73a40.64,40.64,0,0,1,6.89,7l-3.73-4.83a45,45,0,0,1,5.32,9.32l-2.41-5.7a46.74,46.74,0,0,1,2.83,10.39l-.85-6.35a44.75,44.75,0,0,1,0,11.62l.85-6.35a40.27,40.27,0,0,1-2.66,9.45l2.4-5.7c-.24.55-.49,1.09-.76,1.63-2.82,5.86-4.19,11.93-2.41,18.4,1.53,5.53,5.81,11.53,11,14.26,10.68,5.65,26.87,3.45,32.66-8.56,5.13-10.65,8.17-22.41,6.73-34.3-.72-6-1.53-11.6-3.74-17.18a73.54,73.54,0,0,0-11.46-19.86c-14.94-18.94-41.46-25.29-64.22-19.38-12,3.11-24.27,10.14-32,20-4.07,5.2-7,10-7,16.88,0,5.86,2.6,12.85,7,16.88,4.55,4.18,10.53,7.28,16.88,7,5.88-.27,13.08-2.14,16.89-7Z"/></svg>