<svg id="Layer_1" data-name="Layer 1" xmlns="http://www.w3.org/2000/svg" viewBox="0 0 1500 1500"><defs><style>.cls-1{fill:#c42f12;}.cls-2{fill:#ffa476;}.cls-3{fill:#ff7749;}</style></defs><title>Kid Talk</title><path class="cls-1" d="M386.43,507s-194.2,45.28-207.5,158.17,0,529.58,0,529.58H1328.41V665.17S1293.63,507,1141.63,507H889.21s-120.38-1.35-120.38,95.74c0,0-54.4-103.83-238.4-103.83"/><path d="M380.26,484.63c-96.78,22.88-215,80.43-225.58,190.63-12.5,130.74-5,265-2.15,396.12q1.33,61.68,3.2,123.37c.4,12.54,10.31,23.2,23.2,23.2H1328.41a23.54,23.54,0,0,0,23.2-23.2V711.64c0-17.31,2.1-36.06-1-53.21-5.37-30.11-22.6-61.66-40.08-86.14-33.3-46.62-81.37-78.55-138.65-86.26-43.82-5.9-89.71-2.23-133.86-2.23H934.28c-83,0-185.42,12.93-188.65,118.94L788.86,591C742,503.34,619.93,476.63,530.43,475.71c-29.87-.31-29.89,46.09,0,46.4,74.38.76,180.8,22.1,218.37,92.34,11.24,21,42.55,10.4,43.23-11.71,2.33-76.49,89.73-72.54,145.05-72.54,72.78,0,147.64-5.27,220.12.57,52.54,4.23,95.9,35.17,122.9,79.46a223.64,223.64,0,0,1,21,44.36c1.71,5,4.82,23.62,4.11,10.91,1.06,18.87,0,38.11,0,57v472.26l23.2-23.2H178.93l23.2,23.2q-4.49-141.12-5.66-282.36c-.51-64-.8-128.09,1.84-192,.92-22.25.13-47,7.22-68.38,9.29-28,32.21-49.75,56-66,39-26.7,85-45.71,131.06-56.59,29.05-6.87,16.75-51.62-12.33-44.74Z"/><path class="cls-2" d="M341.2,543.35c-123.63-93-143.37-283-35.61-396.26C356.06,94,429.37,64.92,501.32,69.43c66.6,4.16,132.78,38.47,168.49,96.6,23.44,38.17,32.79,83.82,36.6,128.83,4.54,53.83,1.38,109.86-21,158.73C641.82,549.05,528,597.94,427.26,579.27,396.54,573.58,366.42,562.32,341.2,543.35Z"/><path d="M357.6,526.94c-142-109.82-129.84-351.06,47.72-419.36,90.19-34.69,203.31-8.3,250.65,81.11,24.66,46.57,30.1,104,28.89,155.86-1.22,52.52-14.61,105.53-50.69,145.19-69.82,76.75-195.95,94.36-281.26,33.58-24.36-17.36-47.56,22.86-23.42,40.06,92.44,65.87,225.75,52.74,312.08-17.09,96.32-77.91,107.32-220.47,74-332.71C681.79,99.76,569.91,33.23,453.42,48.1,340.53,62.5,246.21,147.51,220.17,258.26S234.44,489.84,324.8,559.75C348.13,577.8,381.2,545.2,357.6,526.94Z"/><path class="cls-3" d="M293.92,1422.06l-20.22-233s8.36-109.56,92-109.56c41.85,0,122.18-3.64,192-7.28A154.57,154.57,0,0,1,717,1194.75c10.58,50.24,19.88,102.12,19.88,129.33,0,0,35.8-278.68,183-278.68h225.92s92.49,79.92,92.49,154.21-27.8,231.16-27.8,231.16Z"/><path d="M317.12,1422.06c-6.62-76.32-18.89-154.15-20-230.71-.35-23.41,14.72-67.71,42-82.33,13.56-7.25,28.27-6.22,43.16-6.45,21.37-.33,42.75-1.09,64.11-1.93,44-1.71,91.71-9.85,135.45-4.58,108.46,13.08,129.87,138.3,131.89,228,.69,30.76,42.64,28.76,46.39,0-1.48,11.33-.07.58.42-2.22,1.12-6.44,2.17-12.88,3.4-19.3q5.52-28.72,13.43-56.92c13.44-47.83,31.76-98.35,64.78-136.4,46.71-53.82,112.16-40.65,177.27-40.65h126.39l-16.4-6.79a336.91,336.91,0,0,1,53.36,58.93c26.24,37.22,34,70.36,30.79,115.07-4.58,63.26-14.41,126.37-25.43,188.8l22.37-17-804.43-7.64-112.15-1.07c-29.86-.28-29.88,46.11,0,46.4l804.44,7.64L1210.5,1454c9.37.08,20.63-7.21,22.37-17,13.12-74.3,26.56-150.64,28.45-226.18,1.2-48.14-19.68-89.52-48.53-126.92-14.91-19.32-40.13-58.06-67-61.63-20.49-2.73-43.21,0-63.81,0-57,0-115.94-4.48-172.68.49-74.78,6.54-121.91,71.51-149.83,135.07-23.11,52.62-38.32,109.34-45.76,166.32h46.39c-1.1-49.17-9.92-104.36-24.86-151.1a180,180,0,0,0-72.93-95.56c-40.07-26.2-83.42-29.4-129.9-27.07-51.2,2.56-102.48,5.23-153.75,5.88-68.17.86-110.35,42-124.36,107.8-7,32.9-.24,66.28,2.64,99.45l13.77,158.58C273.29,1451.58,319.71,1451.85,317.12,1422.06Z"/><path class="cls-2" d="M911.19,543.35c-123.63-93-143.37-283-35.62-396.26C926.05,94,999.36,64.92,1071.31,69.43c66.6,4.16,132.78,38.47,168.49,96.6,23.44,38.17,32.79,83.82,36.59,128.83,4.55,53.83,1.39,109.86-21,158.73C1211.81,549.05,1098,597.94,997.25,579.27,966.53,573.58,936.41,562.32,911.19,543.35Z"/><path d="M927.59,526.94c-142-109.82-129.84-351.06,47.71-419.36,90.19-34.69,203.32-8.3,250.66,81.11,24.66,46.57,30.1,104,28.89,155.86-1.22,52.52-14.61,105.53-50.69,145.19-69.82,76.75-196,94.36-281.26,33.58-24.36-17.36-47.56,22.86-23.42,40.06,92.44,65.87,225.75,52.74,312.07-17.09,96.32-77.91,107.33-220.47,74-332.71C1251.77,99.76,1139.89,33.23,1023.41,48.1,910.52,62.5,816.2,147.51,790.16,258.26s14.27,231.58,104.63,301.49C918.11,577.8,951.19,545.2,927.59,526.94Z"/><path class="cls-2" d="M370.36,1079.53c-112.94-77.27-131-235-32.53-329.18,46.11-44.09,113.08-68.25,178.81-64.51,60.84,3.46,121.3,32,153.92,80.25,21.41,31.71,30,69.63,33.43,107,4.15,44.71,1.26,91.26-19.14,131.86C645,1084.26,541,1124.87,449,1109.37,420.91,1104.64,393.4,1095.29,370.36,1079.53Z"/><path d="M382.07,1059.5c-57.26-40.25-90.85-107.87-84.39-178,7.12-77.39,65.43-139.19,138-162.17,78-24.7,179.92-5.9,222.32,70.69,22.07,39.86,26.85,90.9,23.86,135.68-2.88,43.05-18.94,82.66-50.94,112-64.81,59.44-175.11,69.81-248.82,21.84-25.1-16.34-48.38,23.81-23.42,40.06,83.1,54.08,203,46.24,282.62-11,89-64,105.61-184.14,73-284C680.71,701.6,572.46,651.22,469.14,664.7c-98.2,12.81-187.51,80.76-211.8,179-24.4,98.68,19.69,198.43,101.31,255.81C383.13,1116.76,406.34,1076.56,382.07,1059.5Z"/><path class="cls-2" d="M881.11,1079.53c-112.94-77.27-131-235-32.53-329.18,46.11-44.09,113.08-68.25,178.81-64.51,60.84,3.46,121.3,32,153.92,80.25,21.42,31.71,30,69.63,33.43,107,4.16,44.71,1.26,91.26-19.14,131.86-39.86,79.29-143.87,119.9-235.87,104.4C931.67,1104.64,904.15,1095.29,881.11,1079.53Z"/><path d="M892.82,1059.5c-57.25-40.25-90.85-107.87-84.39-178,7.12-77.39,65.43-139.19,138-162.17,78-24.7,179.92-5.9,222.32,70.69,22.07,39.86,26.85,90.9,23.86,135.68-2.88,43.05-18.94,82.66-50.94,112-64.81,59.44-175.11,69.81-248.82,21.84-25.1-16.34-48.38,23.81-23.42,40.06,83.1,54.08,203,46.24,282.62-11,89-64,105.61-184.14,73-284C1191.46,701.6,1083.22,651.22,979.89,664.7c-98.2,12.81-187.5,80.76-211.8,179-24.4,98.68,19.69,198.43,101.31,255.81C893.88,1116.76,917.09,1076.56,892.82,1059.5Z"/><path d="M389.66,332.16a4.32,4.32,0,0,1,.76-.42l-5.55,2.34a5.41,5.41,0,0,1,.79-.21l-6.17.83a4.26,4.26,0,0,1,1.07,0l-6.16-.83a5.32,5.32,0,0,1,1.18.34L370,331.88a6,6,0,0,1,1.22.72l-4.7-3.63a7.48,7.48,0,0,1,1.13,1.12l-3.63-4.69a6.46,6.46,0,0,1,.79,1.34l-2.34-5.54a5,5,0,0,1,.32,1.19l-.83-6.17a4.23,4.23,0,0,1,0,.94l.83-6.17a4.18,4.18,0,0,1-.25.92l2.34-5.54a4.2,4.2,0,0,1-.43.74l26.2-10.66a8.91,8.91,0,0,1-2-.56l5.54,2.34a10,10,0,0,1-2-1.15l4.7,3.63A10.05,10.05,0,0,1,395.2,299l3.62,4.69a9.67,9.67,0,0,1-1.13-2L400,307.2a8.9,8.9,0,0,1-.52-1.83l.83,6.17a6,6,0,0,1,0-.85l-.83,6.17a5.57,5.57,0,0,1,.31-1.13l-2.34,5.54a6.72,6.72,0,0,1,.67-1.16l-3.62,4.7a6.13,6.13,0,0,1,1.08-1.08l-4.7,3.62a6.7,6.7,0,0,1,1.32-.77l-5.54,2.34a5.87,5.87,0,0,1,1.46-.4l-6.16.83a5.62,5.62,0,0,1,1.16,0l-6.16-.83a5.22,5.22,0,0,1,1.14.31l6.16.83,6.17-.83,5.54-2.34a17.49,17.49,0,0,0,6.51-6,22.95,22.95,0,0,0,4.57-11,11.7,11.7,0,0,0,0-6.16,17.26,17.26,0,0,0-2.76-8.63c-.1-.15-.2-.3-.32-.45-1.21-1.63-2.47-3.44-3.84-4.95l-.32-.33-.2-.17c-1.25-1.08-3.45-2.73-4.79-3.7a5.25,5.25,0,0,0-.81-.51l-.4-.19c-1.48-.66-4.14-1.85-5.66-2.38l-.23-.09a6.27,6.27,0,0,0-.93-.22,50,50,0,0,0-7-.91,8,8,0,0,0-1,0c-2.14.22-4.38.53-6.5.87l-.53.1a6.74,6.74,0,0,0-1,.26l-.45.16c-2,.76-4,1.63-5.92,2.5a9.61,9.61,0,0,0-1.76,1c-1.66,1.22-3.44,2.55-5,3.88-.12.1-.24.2-.35.31a7.6,7.6,0,0,0-.68.71l-.16.21c-1.08,1.35-2.72,3.38-3.7,4.8-.09.12-.18.24-.26.37a8.37,8.37,0,0,0-.44.84c-2.5,5.4-3.2,7.24-3.55,13.3a6.42,6.42,0,0,0,0,1c.12,1.25.63,5,.84,6.24,0,.09,0,.18,0,.26s.08.36.13.54.11.32.17.48c.36,1,1.07,2.52,1.22,2.88s.78,2,1.25,2.94a5.51,5.51,0,0,0,.46.78c.87,1.26,2.72,3.6,3.7,4.79l.15.19.28.3.3.28.19.15c1.32,1.09,3.39,2.71,4.79,3.7,2,1.46,4.88,2.34,7,3.13.29.11.58.2.87.28l.43.09c2.13.4,4.37.63,6.53.89a11,11,0,0,0,1.9.06l.5-.06c2.15-.23,4.36-.52,6.48-.87a7,7,0,0,0,.93-.21,32.38,32.38,0,0,0,7.39-3.09,28.42,28.42,0,0,0,3.16-2.34,27.35,27.35,0,0,0,3.06-2.45A24.65,24.65,0,0,0,405,324c2.49-5.26,3.31-7.63,3.59-13.58a25.83,25.83,0,0,0-6.8-16.4,25.77,25.77,0,0,0-16.4-6.8l-6.17.83A23.25,23.25,0,0,0,369,294l-3.62,4.69a23.08,23.08,0,0,0-3.17,11.71c0,.18,0,.35,0,.52l.83-6.17a5.34,5.34,0,0,1-.36,1.3l2.34-5.55a5.45,5.45,0,0,1-.65,1.12l3.62-4.69a6.55,6.55,0,0,1-1.09,1.08l4.69-3.63a7.54,7.54,0,0,1-1.58.91l5.54-2.34a9.43,9.43,0,0,1-2.31.63l6.16-.83a9.18,9.18,0,0,1-2.4,0l6.17.83a8.28,8.28,0,0,1-1.89-.52l5.54,2.34a6.35,6.35,0,0,1-1.33-.78l4.69,3.63a5.6,5.6,0,0,1-.91-.91l3.63,4.69a5.2,5.2,0,0,1-.62-1l2.34,5.54a5.6,5.6,0,0,1-.39-1.4l.83,6.17a5.15,5.15,0,0,1,0-1.3l-.83,6.17a6,6,0,0,1,.36-1.34l-2.33,5.54A6.24,6.24,0,0,1,393,319l-3.63,4.69a8,8,0,0,1,1.39-1.39L386,325.94a9.71,9.71,0,0,1,2-1.17l-5.54,2.34a9.94,9.94,0,0,1,2.21-.62l-6.16.83a7.56,7.56,0,0,1,2,0l-6.17-.83a6.32,6.32,0,0,1,1.48.38l-5.55-2.34a5.61,5.61,0,0,1,1.21.7l-4.7-3.63a6,6,0,0,1,.84.83L364,317.72c.12.15.22.3.32.45l26.2-34.08a4.86,4.86,0,0,0-1-.28c-1-.2-3.11-.42-3.25-.44s-2.21-.36-3.25-.43a5,5,0,0,0-.67,0l-.25,0c-1.25.09-5,.64-6.25.84l-.5.09a22.65,22.65,0,0,0-3.73,1.48A25,25,0,0,0,368,287c-.15.09-.29.19-.43.29-1.19.85-3.62,2.74-4.76,3.68l-.27.21a8.18,8.18,0,0,0-.76.8c-.89,1.08-2.86,3.62-3.68,4.77l-.15.2a5.09,5.09,0,0,0-.3.5c-.08.15-.15.3-.22.46-.53,1.17-1.94,4.42-2.37,5.62l-.09.23c-.05.16-.09.32-.13.48s0,.17,0,.25c-.26,1.36-.74,4.95-.85,6.33q0,.3,0,.6a24.49,24.49,0,0,0,.42,3.25c.1.76.24,2.21.45,3.27a7,7,0,0,0,.31,1.2c.38,1.09.92,2.23,1.34,3.22s.86,2.17,1.36,3.21a8.69,8.69,0,0,0,.61,1.07c.65,1,1.46,1.94,2.15,2.82s1.37,1.85,2.11,2.72a9.14,9.14,0,0,0,.86.9l.51.43c1.65,1.32,3.35,2.69,5.08,3.91a8.9,8.9,0,0,0,1.15.68c1.94,1,4,1.78,6.06,2.58l.62.23a8.38,8.38,0,0,0,1.4.33l6.16.83a17.49,17.49,0,0,0,8.94-2,11.54,11.54,0,0,0,5.12-3,17.56,17.56,0,0,0,6-6.51,18,18,0,0,0,1.6-3.52,19.31,19.31,0,0,0,1.4-3.55c1.14-6,1.12-7.63,0-13.67a4.45,4.45,0,0,0-.23-.79,42.53,42.53,0,0,0-2.66-6.24,5.88,5.88,0,0,0-.52-.78c-1.2-1.61-2.5-3.39-3.81-4.92-.09-.11-.19-.22-.29-.32a29.43,29.43,0,0,0-5.94-4.6,40.56,40.56,0,0,0-6.23-2.69,5.24,5.24,0,0,0-.85-.27c-5.83-1.21-7.89-1.13-13.67-.05a18.86,18.86,0,0,0-7.08,3A25.89,25.89,0,0,0,355.59,306a17.54,17.54,0,0,0-.42,9.25,17.35,17.35,0,0,0,2.75,8.63l3.63,4.69a23.16,23.16,0,0,0,10.24,6l6.17.83a23.12,23.12,0,0,0,11.7-3.17Z"/><path d="M618,313.43c.08-.12.15-.24.22-.37a56.08,56.08,0,0,0,2.48-5.87c0-.13.08-.27.11-.4a53.18,53.18,0,0,0,.88-6.52,3.93,3.93,0,0,0,0-.84c0-.12-.44-4.47-.89-6.52a3.31,3.31,0,0,0-.12-.42,38.39,38.39,0,0,0-2.65-6.27l-.23-.37c-1.18-1.73-2.51-3.37-3.84-5a4.32,4.32,0,0,0-.6-.61c-1.59-1.33-3.23-2.61-4.93-3.8a3,3,0,0,0-.42-.26,53.86,53.86,0,0,0-5.86-2.48,2.64,2.64,0,0,0-.4-.12c-2-.47-8.25-1.09-6.45-.88a2.74,2.74,0,0,0-.5,0,26.45,26.45,0,0,0-13.16,3.58,32.1,32.1,0,0,0-5.3,4.08,2.72,2.72,0,0,0-.24.24,55.29,55.29,0,0,0-3.9,5,4.37,4.37,0,0,0-.4.65,36.07,36.07,0,0,0-2.65,6.33c0,.16-.08.32-.11.48-.35,2.16-.7,4.33-.87,6.52,0,.16,0,.32,0,.48a53.6,53.6,0,0,0,.87,6.58c0,.13.05.27.09.4a46.68,46.68,0,0,0,2.48,5.93,4.36,4.36,0,0,0,.23.42,47.1,47.1,0,0,0,3.88,5,17.28,17.28,0,0,0,7.46,4.8,21,21,0,0,0,17.88,0,17.28,17.28,0,0,0,7.46-4.8l3.63-4.69A23.05,23.05,0,0,0,615.32,302l-.83-6.17a23.07,23.07,0,0,0-6-10.23l-.09-.11,3.63,4.69a2.85,2.85,0,0,1-.41-.72L614,295a3.69,3.69,0,0,1-.21-.79l.83,6.16a4.44,4.44,0,0,1,0-1l-.83,6.17a4.57,4.57,0,0,1,.32-1.15l-2.34,5.54a4.49,4.49,0,0,1,.57-1l-3.63,4.69a4.37,4.37,0,0,1,.68-.68l-4.7,3.62a3.7,3.7,0,0,1,.77-.45l-5.54,2.34a3.49,3.49,0,0,1,.8-.21l-6.17.83a3.39,3.39,0,0,1,.78,0l-6.16-.83a3.27,3.27,0,0,1,.74.21l-5.54-2.34a3.8,3.8,0,0,1,.85.5L580.5,313a4.34,4.34,0,0,1,.71.71L577.58,309a4.71,4.71,0,0,1,.59,1l-2.34-5.54a4.24,4.24,0,0,1,.3,1.11l-.83-6.17a4,4,0,0,1,0,.91l.83-6.16a3.71,3.71,0,0,1-.21.81l2.33-5.54a2.73,2.73,0,0,1-.3.56,17.26,17.26,0,0,0-2.76,8.63,20.87,20.87,0,0,0,4.57,17.14,17.33,17.33,0,0,0,6.51,6l5.54,2.34a23.24,23.24,0,0,0,12.33,0l5.55-2.34a23.28,23.28,0,0,0,8.32-8.32Z"/><path d="M431.88,397.2a52.89,52.89,0,0,0,14.79,49.08c11.19,11.11,27.73,18.63,43.68,17.66,32.49-2,58.35-28.75,64.88-59.83,2.49-11.84-3.47-25.63-16.2-28.53-11.63-2.65-25.87,3.5-28.54,16.2a62.09,62.09,0,0,1-2.06,7.59c-.36,1.07-.84,2.11-1.19,3.18,2.13-6.53,1.34-3.16.47-1.41a57.54,57.54,0,0,1-3.68,6.37c-1.16,1.75-4.17,4.42.65-.59-.77.8-1.43,1.73-2.18,2.56-1.5,1.66-3.14,3.13-4.77,4.65-3,2.84,5-3.5.77-.61-1.06.73-2.14,1.41-3.25,2-.95.55-1.94,1-2.91,1.51-3.66,1.92,5.49-1.79,1.5-.69a61.68,61.68,0,0,1-7.51,1.79l6.17-.83a35.19,35.19,0,0,1-8.58-.07l6.17.82a38.53,38.53,0,0,1-4.74-1c-.39-.11-2.37-.44-2.56-.85,0,0,5.47,2.56,2.55,1.07a48.38,48.38,0,0,1-4.71-2.67,10.53,10.53,0,0,0-1.77-1.25c.91.32,4.62,3.81,1.79,1.23-.92-.84-2.27-3-3.34-3.46.36.16,3.31,4.76,1.7,2.18-.47-.74-1-1.45-1.41-2.2s-.63-1.25-1-1.83c-1.42-2.24,1.93,5.68.91,2.22a43.88,43.88,0,0,1-1.25-5l.83,6.17a28.68,28.68,0,0,1-.05-7.23l-.82,6.16q.15-1,.39-2.1c2.47-11.85-3.46-25.63-16.21-28.53-11.61-2.65-25.88,3.49-28.53,16.2Z"/><path d="M404.36,859.45l4.81,3.78a25.77,25.77,0,0,0,16.4,6.8,25.77,25.77,0,0,0,16.4-6.8l3.63-4.69a23.08,23.08,0,0,0,3.17-11.71l-.83-6.17a23.16,23.16,0,0,0-6-10.24l-4.8-3.78a25.89,25.89,0,0,0-16.41-6.79,25.89,25.89,0,0,0-16.4,6.79l-3.63,4.7a23,23,0,0,0-3.16,11.71l.82,6.16a23.2,23.2,0,0,0,6,10.24Z"/><path d="M560.56,820.1l-8.71-.09a17.53,17.53,0,0,0-8.94,2,17.28,17.28,0,0,0-7.46,4.8,25.77,25.77,0,0,0-6.8,16.4l.83,6.17a23.07,23.07,0,0,0,6,10.23l4.69,3.63a23.15,23.15,0,0,0,11.71,3.17l8.71.09a23.85,23.85,0,0,0,23.2-23.2l-.83-6.17a23.16,23.16,0,0,0-6-10.24l-4.69-3.62a23.05,23.05,0,0,0-11.71-3.17Z"/><path d="M417.51,955.86c-.39,37.6,34.94,69.76,72.16,68.26,36.78-1.49,68.75-31.52,75.24-67.4,2.15-11.9-3.24-25.58-16.2-28.54-11.35-2.58-26.23,3.44-28.54,16.21a64.68,64.68,0,0,1-2.07,8.45c-.23.73-1.7,3.33-1.48,4.1q2.13-4.94.57-1.54l-.65,1.3c-1.34,2.61-2.95,5-4.5,7.49-2.52,4,3.06-3.35.09-.08-1,1.08-1.9,2.19-2.9,3.24s-2.05,2-3.12,3c-.71.64-1.44,1.27-2.19,1.88l2.43-1.86c-1.13-.14-6.06,4-7.25,4.6-.84.44-1.69.87-2.56,1.27l2.93-1.21c-1-.15-3,1.1-4,1.42-1.37.42-2.76.78-4.15,1.08-.94.2-1.88.37-2.83.52q5.31-.66,2.6-.43c-1.39,0-2.78.14-4.17.1-.88,0-6-.49-1.77,0s-.81-.26-1.69-.48q-2-.5-4-1.17c-5-1.69,2.33,1.29.37.24-1.24-.65-2.5-1.24-3.72-1.93s-2.39-1.44-3.55-2.24c-4.26-2.93,1.83,1.74.28.23-2-2-3.94-3.84-5.82-5.92-1.48-1.63,3.17,4.59.38.27-.75-1.15-1.44-2.32-2.07-3.53-2.36-4.53.51,2.63.14.57-.24-1.29-.88-2.59-1.2-3.89-.22-.84-1.41-5.79-.45-1.6s.13-1.35.14-2.43c.13-12.14-10.76-23.75-23.2-23.2-12.68.57-23.06,10.19-23.2,23.2Z"/><path d="M946.43,332.16a3.91,3.91,0,0,1,.75-.42l-5.54,2.34a5,5,0,0,1,.78-.21l-6.17.83a4.26,4.26,0,0,1,1.07,0l-6.16-.83a5.32,5.32,0,0,1,1.18.34l-5.54-2.33a5.76,5.76,0,0,1,1.22.72l-4.7-3.63a7,7,0,0,1,1.13,1.12l-3.63-4.69a6.46,6.46,0,0,1,.79,1.34l-2.34-5.54a4.56,4.56,0,0,1,.32,1.19l-.82-6.17a4.92,4.92,0,0,1,0,.94l.83-6.17a4.18,4.18,0,0,1-.25.92l2.34-5.54a4.2,4.2,0,0,1-.43.74l26.2-10.66a8.91,8.91,0,0,1-2-.56l5.55,2.34a10,10,0,0,1-2-1.15l4.7,3.63A10.05,10.05,0,0,1,952,299l3.63,4.69a9.26,9.26,0,0,1-1.14-2l2.34,5.54a8.9,8.9,0,0,1-.52-1.83l.83,6.17a6,6,0,0,1,0-.85l-.83,6.17a6.3,6.3,0,0,1,.31-1.13l-2.34,5.54a6.18,6.18,0,0,1,.68-1.16l-3.63,4.7a6.13,6.13,0,0,1,1.08-1.08l-4.7,3.62a7,7,0,0,1,1.32-.77l-5.54,2.34a5.87,5.87,0,0,1,1.46-.4l-6.16.83a5.62,5.62,0,0,1,1.16,0l-6.16-.83a5.07,5.07,0,0,1,1.14.31l6.16.83,6.17-.83,5.54-2.34a17.49,17.49,0,0,0,6.51-6,22.69,22.69,0,0,0,4.57-11,11.7,11.7,0,0,0,0-6.16,17.35,17.35,0,0,0-2.75-8.63l-.32-.45c-1.22-1.63-2.48-3.44-3.85-4.95l-.32-.33-.2-.17c-1.25-1.08-3.45-2.73-4.79-3.7a5.25,5.25,0,0,0-.81-.51l-.4-.19c-1.48-.66-4.14-1.85-5.66-2.38l-.23-.09a6.27,6.27,0,0,0-.93-.22,50,50,0,0,0-7-.91,8.19,8.19,0,0,0-1,0c-2.14.22-4.38.53-6.5.87l-.53.1a6.74,6.74,0,0,0-1,.26l-.45.16c-2,.76-4,1.63-5.92,2.5a10,10,0,0,0-1.76,1c-1.66,1.22-3.44,2.55-5,3.88-.12.1-.24.2-.35.31a9.16,9.16,0,0,0-.68.71l-.16.21c-1.08,1.35-2.72,3.38-3.7,4.8-.09.12-.18.24-.26.37a8.37,8.37,0,0,0-.44.84c-2.5,5.4-3.2,7.24-3.55,13.3a6.42,6.42,0,0,0,0,1c.12,1.25.63,5,.84,6.24,0,.09,0,.18,0,.26s.08.36.13.54.11.32.17.48c.36,1,1.07,2.52,1.22,2.88s.78,2,1.25,2.94a6.66,6.66,0,0,0,.46.78c.87,1.26,2.72,3.6,3.7,4.79l.15.19.28.3.3.28.19.15c1.32,1.09,3.4,2.71,4.79,3.7,2,1.46,4.88,2.34,7,3.13.29.11.58.2.87.28l.43.09c2.14.4,4.38.63,6.53.89a11,11,0,0,0,1.9.06l.5-.06c2.15-.23,4.36-.52,6.49-.87a7.77,7.77,0,0,0,.93-.21,32.49,32.49,0,0,0,7.38-3.09,104,104,0,0,0,6.22-4.79,24.65,24.65,0,0,0,4.64-6.2c2.49-5.26,3.31-7.63,3.59-13.58a25.83,25.83,0,0,0-6.8-16.4,25.77,25.77,0,0,0-16.4-6.8L936,288a23.16,23.16,0,0,0-10.23,6l-3.63,4.69A23.08,23.08,0,0,0,919,310.37c0,.18,0,.35,0,.52l.83-6.17a5.34,5.34,0,0,1-.36,1.3l2.34-5.55a5.45,5.45,0,0,1-.65,1.12l3.63-4.69a7,7,0,0,1-1.1,1.08l4.7-3.63a7.87,7.87,0,0,1-1.59.91l5.54-2.34a9.31,9.31,0,0,1-2.31.63l6.16-.83a9.18,9.18,0,0,1-2.4,0l6.17.83A8.28,8.28,0,0,1,938,293l5.54,2.34a6.35,6.35,0,0,1-1.33-.78l4.69,3.63a5.6,5.6,0,0,1-.91-.91L949.6,302a5.2,5.2,0,0,1-.62-1l2.34,5.54a5.6,5.6,0,0,1-.39-1.4l.83,6.17a5.15,5.15,0,0,1,0-1.3l-.83,6.17a5.54,5.54,0,0,1,.37-1.34L949,320.33a6.24,6.24,0,0,1,.77-1.32l-3.63,4.69a8,8,0,0,1,1.4-1.39l-4.7,3.63a9.71,9.71,0,0,1,2-1.17l-5.54,2.34a9.94,9.94,0,0,1,2.21-.62l-6.16.83a7.56,7.56,0,0,1,2,0l-6.17-.83a6.32,6.32,0,0,1,1.48.38L927,324.51a5.54,5.54,0,0,1,1.2.7l-4.7-3.63a6,6,0,0,1,.84.83l-3.63-4.69c.12.15.22.3.32.45l26.2-34.08a4.86,4.86,0,0,0-1-.28c-1-.2-3.11-.42-3.25-.44s-2.21-.36-3.25-.43a5,5,0,0,0-.67,0l-.25,0c-1.25.09-5,.64-6.25.84l-.5.09a22.65,22.65,0,0,0-3.73,1.48,25,25,0,0,0-3.6,1.6c-.15.09-.29.19-.43.29-1.19.85-3.62,2.74-4.76,3.68l-.26.21a8.29,8.29,0,0,0-.77.8c-.89,1.08-2.86,3.62-3.68,4.77l-.15.2c-.1.16-.21.33-.3.5s-.15.3-.22.46c-.53,1.17-1.94,4.42-2.37,5.62a1.55,1.55,0,0,0-.08.23,4.34,4.34,0,0,0-.14.48c0,.09,0,.17,0,.25-.26,1.36-.74,4.95-.85,6.33q0,.3,0,.6a24.49,24.49,0,0,0,.42,3.25c.1.76.24,2.21.45,3.27a8.13,8.13,0,0,0,.31,1.2c.38,1.09.92,2.23,1.34,3.22s.87,2.17,1.36,3.21a8.69,8.69,0,0,0,.61,1.07c.65,1,1.46,1.94,2.15,2.82s1.38,1.85,2.11,2.72a9.14,9.14,0,0,0,.86.9l.51.43c1.65,1.32,3.35,2.69,5.08,3.91a8.9,8.9,0,0,0,1.15.68c1.94,1,4,1.78,6.06,2.58l.62.23a8.38,8.38,0,0,0,1.4.33l6.16.83a17.49,17.49,0,0,0,8.94-2,11.54,11.54,0,0,0,5.12-3,17.48,17.48,0,0,0,6-6.51,18,18,0,0,0,1.6-3.52,19.31,19.31,0,0,0,1.4-3.55c1.14-6,1.12-7.63,0-13.67a4.45,4.45,0,0,0-.23-.79,42.53,42.53,0,0,0-2.66-6.24,5.88,5.88,0,0,0-.52-.78c-1.2-1.61-2.5-3.39-3.81-4.92-.09-.11-.19-.22-.29-.32a29.15,29.15,0,0,0-5.94-4.6,40.14,40.14,0,0,0-6.23-2.69,5.24,5.24,0,0,0-.85-.27c-5.83-1.21-7.89-1.13-13.67-.05a18.86,18.86,0,0,0-7.08,3A25.89,25.89,0,0,0,912.35,306a17.54,17.54,0,0,0-.42,9.25,17.26,17.26,0,0,0,2.76,8.63l3.62,4.69a23.16,23.16,0,0,0,10.24,6l6.17.83a23.18,23.18,0,0,0,11.71-3.17Z"/><path d="M1174.78,313.43a2.77,2.77,0,0,0,.22-.37,54,54,0,0,0,2.48-5.87c0-.13.08-.27.11-.4a55.21,55.21,0,0,0,.89-6.52,4.72,4.72,0,0,0,0-.84c0-.12-.43-4.47-.89-6.52,0-.14-.07-.28-.11-.42a38.44,38.44,0,0,0-2.66-6.27l-.23-.37c-1.17-1.73-2.51-3.37-3.84-5a4.32,4.32,0,0,0-.6-.61c-1.59-1.33-3.23-2.61-4.92-3.8a3.78,3.78,0,0,0-.43-.26,53.86,53.86,0,0,0-5.86-2.48,2.64,2.64,0,0,0-.4-.12c-2-.47-8.24-1.09-6.44-.88a2.91,2.91,0,0,0-.51,0,26.41,26.41,0,0,0-13.15,3.58,31.76,31.76,0,0,0-5.31,4.08l-.24.24a55.29,55.29,0,0,0-3.9,5,4.37,4.37,0,0,0-.4.65,36.85,36.85,0,0,0-2.65,6.33c0,.16-.08.32-.11.48-.35,2.16-.69,4.33-.87,6.52,0,.16,0,.32,0,.48a53.6,53.6,0,0,0,.87,6.58l.09.4a46.68,46.68,0,0,0,2.48,5.93,4.36,4.36,0,0,0,.23.42,47.1,47.1,0,0,0,3.88,5,17.28,17.28,0,0,0,7.46,4.8,21,21,0,0,0,17.88,0,17.31,17.31,0,0,0,7.47-4.8l3.62-4.69a23.05,23.05,0,0,0,3.17-11.71l-.83-6.17a23.15,23.15,0,0,0-6-10.23l-.09-.11,3.62,4.69a3.19,3.19,0,0,1-.41-.72l2.34,5.55a3.21,3.21,0,0,1-.22-.79l.83,6.16a4.44,4.44,0,0,1,0-1l-.83,6.17a4.57,4.57,0,0,1,.32-1.15l-2.34,5.54a4.49,4.49,0,0,1,.57-1l-3.63,4.69a4.37,4.37,0,0,1,.68-.68l-4.69,3.62a3.62,3.62,0,0,1,.76-.45l-5.54,2.34a3.62,3.62,0,0,1,.8-.21l-6.17.83a3.48,3.48,0,0,1,.79,0l-6.17-.83a3.13,3.13,0,0,1,.74.21l-5.54-2.34a3.8,3.8,0,0,1,.85.5l-4.7-3.63a4.34,4.34,0,0,1,.71.71l-3.63-4.69a4.71,4.71,0,0,1,.59,1l-2.34-5.54a4.24,4.24,0,0,1,.3,1.11l-.83-6.17a3.47,3.47,0,0,1,0,.91l.83-6.16a3.71,3.71,0,0,1-.21.81l2.34-5.54a3.36,3.36,0,0,1-.31.56,17.26,17.26,0,0,0-2.76,8.63,20.87,20.87,0,0,0,4.57,17.14,17.48,17.48,0,0,0,6.51,6l5.54,2.34a23.24,23.24,0,0,0,12.33,0l5.55-2.34a23.28,23.28,0,0,0,8.32-8.32Z"/><path d="M988.64,397.2a52.92,52.92,0,0,0,14.79,49.08c11.19,11.11,27.73,18.63,43.68,17.66,32.49-2,58.36-28.75,64.88-59.83,2.49-11.84-3.47-25.63-16.2-28.53-11.63-2.65-25.87,3.5-28.53,16.2a64,64,0,0,1-2.07,7.59c-.36,1.07-.84,2.11-1.19,3.18,2.14-6.53,1.34-3.16.47-1.41a57.54,57.54,0,0,1-3.68,6.37c-1.16,1.75-4.17,4.42.65-.59-.77.8-1.43,1.73-2.18,2.56-1.5,1.66-3.14,3.13-4.77,4.65-3,2.84,5-3.5.77-.61-1.06.73-2.14,1.41-3.25,2-1,.55-1.94,1-2.9,1.51-3.67,1.92,5.49-1.79,1.49-.69a61.68,61.68,0,0,1-7.51,1.79l6.17-.83a35.19,35.19,0,0,1-8.58-.07l6.17.82a38.53,38.53,0,0,1-4.74-1c-.39-.11-2.37-.44-2.56-.85,0,0,5.47,2.56,2.55,1.07a49.58,49.58,0,0,1-4.71-2.67,10.53,10.53,0,0,0-1.77-1.25c.91.32,4.62,3.81,1.79,1.23-.92-.84-2.27-3-3.34-3.46.36.16,3.31,4.76,1.7,2.18-.46-.74-1-1.45-1.41-2.2s-.63-1.25-1-1.83c-1.42-2.24,1.93,5.68.91,2.22a43.88,43.88,0,0,1-1.25-5l.83,6.17a28.22,28.22,0,0,1,0-7.23l-.83,6.16q.15-1,.39-2.1c2.47-11.85-3.46-25.63-16.2-28.53-11.62-2.65-25.89,3.49-28.54,16.2Z"/><path d="M914.11,859.45l4.81,3.78a23.83,23.83,0,0,0,32.8,0l3.63-4.69a23.18,23.18,0,0,0,3.17-11.71l-.83-6.17a23.16,23.16,0,0,0-6-10.24l-4.8-3.78a23.87,23.87,0,0,0-32.81,0l-3.63,4.7a23.15,23.15,0,0,0-3.17,11.71l.83,6.16a23.1,23.1,0,0,0,6,10.24Z"/><path d="M1070.31,820.1l-8.71-.09a17.53,17.53,0,0,0-8.94,2,20.92,20.92,0,0,0-12.26,12.26,17.53,17.53,0,0,0-2,8.94l.83,6.17a23.07,23.07,0,0,0,6,10.23l4.69,3.63a23.15,23.15,0,0,0,11.71,3.17l8.71.09a23.85,23.85,0,0,0,23.2-23.2l-.83-6.17a23.16,23.16,0,0,0-6-10.24l-4.69-3.62a23.05,23.05,0,0,0-11.71-3.17Z"/><path d="M927.26,955.86c-.39,37.6,34.94,69.76,72.16,68.26,36.78-1.49,68.75-31.52,75.24-67.4,2.15-11.9-3.24-25.58-16.2-28.54-11.35-2.58-26.23,3.44-28.54,16.21a66.33,66.33,0,0,1-2.07,8.45c-.24.73-1.71,3.33-1.48,4.1q2.13-4.94.57-1.54l-.65,1.3c-1.34,2.61-2.95,5-4.5,7.49-2.52,4,3.06-3.35.09-.08-1,1.08-1.9,2.19-2.91,3.24s-2,2-3.11,3c-.72.64-1.44,1.27-2.19,1.88l2.43-1.86c-1.13-.14-6.06,4-7.25,4.6-.84.44-1.69.87-2.56,1.27l2.93-1.21c-1-.15-3,1.1-4,1.42-1.36.42-2.75.78-4.15,1.08-.93.2-1.87.37-2.82.52,3.54-.44,4.4-.58,2.6-.43-1.39,0-2.78.14-4.17.1-.88,0-6-.49-1.77,0s-.81-.26-1.7-.48c-1.35-.33-2.69-.72-4-1.17-4.95-1.69,2.33,1.29.37.24-1.24-.65-2.51-1.24-3.72-1.93s-2.39-1.44-3.55-2.24c-4.26-2.93,1.83,1.74.28.23-2-2-3.94-3.84-5.82-5.92-1.48-1.63,3.17,4.59.37.27-.74-1.15-1.43-2.32-2.06-3.53-2.37-4.53.51,2.63.14.57-.24-1.29-.88-2.59-1.2-3.89-.22-.84-1.42-5.79-.45-1.6s.13-1.35.14-2.43c.13-12.14-10.76-23.75-23.2-23.2-12.68.57-23.06,10.19-23.2,23.2Z"/></svg>