<svg id="Layer_1" data-name="Layer 1" xmlns="http://www.w3.org/2000/svg" viewBox="0 0 1500 1500"><title>Kid Talk</title><rect x="119.96" y="119.15" width="1262.86" height="1262.86" rx="149.28"/><path d="M1233.53,1333.44H337.39c-56.68,0-121.19,8.11-155.11-49.88-21.93-37.5-13.75-94.43-13.75-136.18V357.46c0-40.21-7.81-94.1,9.81-131.58,30.48-64.83,96.73-58.15,155.76-58.15h787.28c37,0,75.07-2.51,112,0,86.5,5.86,100.81,75.4,100.81,144.85V822.66c0,135.05,8,272.76,0,407.61-3.42,57.81-41.56,100-100.71,103.17-62.18,3.34-62.58,100.51,0,97.14,115.25-6.21,195.74-91.09,197.85-206.08,1.11-60,0-120.13,0-180.14V428.24c0-52.34,1.79-105,0-157.35-3.84-112.66-86.87-196.26-199.63-200.31-151.66-5.44-304.52,0-456.27,0-165.51,0-331.28-2.72-496.78,0-110,1.81-199.58,77-206.88,189.72-2.84,43.92-.44,88.64-.44,132.62v611c0,142.08-38.51,362,137.76,417.36,49.89,15.66,108.82,9.34,160.38,9.34h864C1296,1430.58,1296.14,1333.44,1233.53,1333.44Z"/></svg>