<svg id="Layer_1" data-name="Layer 1" xmlns="http://www.w3.org/2000/svg" viewBox="0 0 1500 1500"><defs><style>.cls-1{fill:#c42f12;}</style></defs><title>Kid Talk</title><path class="cls-1" d="M764.38,97.36c258.85,7.5,504.85,183.71,595.24,426.38,75.57,202.9,42,443-86.72,617.14s-348.52,276.8-564.63,263.33c-215.1-13.41-419.7-141.46-525.78-329.07C131,984,103.44,880,100.18,775.54,88.61,404,384.13,86.35,764.38,97.36Z"/><path d="M764.38,146.78c243.16,10.64,475.5,174.94,554,408.09,85.22,253.23-7.18,546.33-231.08,695.44-213.07,141.91-489.16,138.18-696.09-13.79-215.13-158-294.15-443.86-205-693.09,87.13-243.67,321.44-400.7,578.22-396.65,63.63,1,63.65-97.84,0-98.84C494.73,43.69,242.46,194.27,124.05,438.19-6.9,707.92,41.55,1045.19,260.54,1255c218.35,209.21,544.13,257.28,812.74,118.28,273.78-141.69,416.9-451.07,363.88-752.37C1380.63,299.66,1085.22,62,764.38,47.94,700.78,45.16,700.92,144,764.38,146.78Z"/></svg>