<svg id="Layer_1" data-name="Layer 1" xmlns="http://www.w3.org/2000/svg" viewBox="0 0 1500 1500"><defs><style>.cls-1{fill:#ff7749;}.cls-2{fill:#ffa476;}.cls-3{fill:#fff;}</style></defs><title>Kid Talk</title><polyline class="cls-1" points="632.52 408.71 632.52 69.84 867.48 69.84 867.48 408.71"/><path d="M663.63,408.71V69.84L632.52,101h235L836.37,69.84V408.71c0,40,62.23,40.11,62.23,0V69.84c0-16.82-14.26-31.12-31.12-31.12h-235C615.7,38.72,601.4,53,601.4,69.84V408.71c0,40,62.23,40.11,62.23,0Z"/><polyline class="cls-1" points="632.52 1091.29 632.52 1430.16 867.48 1430.16 867.48 1091.29"/><path d="M601.4,1091.29v338.87c0,16.82,14.26,31.12,31.12,31.12h235c16.82,0,31.12-14.26,31.12-31.12V1091.29c0-40-62.23-40.11-62.23,0v338.87l31.11-31.11h-235l31.11,31.11V1091.29c0-40-62.23-40.11-62.23,0Z"/><polyline class="cls-1" points="1091.29 632.52 1430.16 632.52 1430.16 867.48 1091.29 867.48"/><path d="M1091.29,663.63h338.87l-31.11-31.11v235l31.11-31.11H1091.29c-40,0-40.11,62.23,0,62.23h338.87c16.82,0,31.12-14.26,31.12-31.12v-235c0-16.82-14.26-31.12-31.12-31.12H1091.29c-40,0-40.11,62.23,0,62.23Z"/><polyline class="cls-1" points="408.71 632.52 69.84 632.52 69.84 867.48 408.71 867.48"/><path d="M408.71,601.4H69.84c-16.82,0-31.12,14.26-31.12,31.12v235c0,16.82,14.26,31.12,31.12,31.12H408.71c40,0,40.11-62.23,0-62.23H69.84L101,867.48v-235L69.84,663.63H408.71c40,0,40.11-62.23,0-62.23Z"/><polyline class="cls-1" points="1074.4 908.26 1314.02 1147.88 1147.88 1314.02 908.26 1074.4"/><path d="M1052.4,930.26,1292,1169.88v-44L1125.87,1292h44L930.26,1052.4c-28.36-28.36-72.37,15.64-44,44L1125.87,1336c11.89,11.88,32.1,11.91,44,0L1336,1169.88c11.88-11.88,11.91-32.1,0-44L1096.4,886.26c-28.35-28.36-72.37,15.63-44,44Z"/><polyline class="cls-1" points="591.74 425.6 352.12 185.98 185.98 352.12 425.6 591.74"/><path d="M613.74,403.6,374.13,164c-11.89-11.88-32.1-11.91-44,0L164,330.12c-11.88,11.88-11.91,32.1,0,44L403.6,613.74c28.35,28.36,72.37-15.63,44-44L208,330.12v44L374.13,208h-44L569.74,447.6c28.36,28.36,72.37-15.64,44-44Z"/><polyline class="cls-1" points="591.74 1074.4 352.12 1314.02 185.98 1147.88 425.6 908.26"/><path d="M569.74,1052.4,330.12,1292h44L208,1125.87v44L447.6,930.26c28.36-28.36-15.64-72.37-44-44L164,1125.87c-11.88,11.89-11.91,32.1,0,44L330.12,1336c11.88,11.88,32.1,11.91,44,0L613.74,1096.4c28.36-28.35-15.63-72.37-44-44Z"/><polyline class="cls-1" points="1074.4 591.74 1314.02 352.12 1147.88 185.98 908.26 425.6"/><path d="M1096.4,613.74,1336,374.13c11.88-11.89,11.91-32.1,0-44L1169.88,164c-11.88-11.88-32.1-11.91-44,0L886.26,403.6c-28.36,28.35,15.63,72.37,44,44L1169.88,208h-44L1292,374.13v-44L1052.4,569.74c-28.36,28.36,15.64,72.37,44,44Z"/><circle class="cls-1" cx="735.4" cy="741.86" r="471.96"/><path d="M1176.24,741.86C1174.18,924.74,1060.55,1093.26,887,1156c-173.92,62.89-371.78,9.58-490.54-132.09-119-142-134.24-350.41-39.09-508.92C452,357.31,641.52,272.52,822.24,309.5c205.21,42,351.66,224,354,432.36.45,40,62.68,40.13,62.23,0C1236.11,531.8,1105.85,343,908.35,269.43,710.52,195.76,478.76,259.86,346,423.55,214.17,586.16,195.3,819.92,303.61,1000.11c108.88,181.12,323,275.09,530,235.12,234.48-45.27,402.17-257.14,404.83-493.37C1238.92,701.81,1176.69,701.78,1176.24,741.86Z"/><rect class="cls-1" x="663.65" y="239.27" width="174.49" height="85.93"/><rect class="cls-1" x="665.11" y="1170.86" width="170.84" height="85.93"/><rect class="cls-1" x="1154.31" y="662.87" width="104.53" height="175.22"/><rect class="cls-1" x="215.41" y="664.33" width="106.3" height="172.3"/><rect class="cls-1" x="990.36" y="1023.93" width="172.17" height="104.53" transform="translate(-445.7 1076.37) rotate(-45)"/><rect class="cls-1" x="322.6" y="365.9" width="171.91" height="85.93" transform="translate(-169.45 408.64) rotate(-45)"/><rect class="cls-1" x="371.64" y="990.3" width="104.53" height="173.11" transform="translate(-637.29 615.15) rotate(-45)"/><rect class="cls-1" x="1031.46" y="333.24" width="99.97" height="171.91" transform="translate(20.33 887.48) rotate(-45)"/><circle class="cls-2" cx="735.4" cy="741.86" r="402.72"/><circle class="cls-3" cx="735.4" cy="741.86" r="160.79"/><path d="M865.07,741.86c-.73,53.29-33.39,103.25-84.3,121.61-52.45,18.91-111.89,2.94-146.94-40.73-33.54-41.78-37-101.76-9.69-147.53,27.15-45.44,81.46-70.75,133.79-61.19,62,11.33,106.28,65.28,107.14,127.84.55,40,62.78,40.13,62.23,0a194.74,194.74,0,0,0-126-180.13c-74-28.09-162.65-4.23-212.82,56.88-51.09,62.24-59.79,151.54-18.09,221.32S693.09,944.35,772.33,930.1c89.82-16.17,153.74-98.6,155-188.24C927.85,701.8,865.62,701.79,865.07,741.86Z"/><rect class="cls-2" x="694.08" y="1065.45" width="103.16" height="296.74"/><rect class="cls-2" x="694.08" y="133.87" width="103.16" height="296.74"/><rect class="cls-2" x="131.5" y="696.45" width="296.74" height="103.16"/><rect class="cls-2" x="1063.08" y="696.45" width="296.74" height="103.16"/><rect class="cls-2" x="364.71" y="270.29" width="103.16" height="296.74" transform="translate(-174.11 416.99) rotate(-45)"/><rect class="cls-2" x="1023.44" y="929.02" width="103.16" height="296.74" transform="translate(-446.96 1075.72) rotate(-45)"/><rect class="cls-2" x="926.65" y="367.08" width="296.74" height="103.16" transform="translate(18.83 882.78) rotate(-45)"/><rect class="cls-2" x="267.92" y="1025.81" width="296.74" height="103.16" transform="translate(-639.9 609.93) rotate(-45)"/></svg>