<svg id="Layer_1" data-name="Layer 1" xmlns="http://www.w3.org/2000/svg" viewBox="0 0 1500 1500"><defs><style>.cls-1{fill:#ff7749;}</style></defs><title>Kid Talk</title><path class="cls-1" d="M644.54,512.49c39.19-12.84,86-16.57,118.3,9C806.65,556.29,792.32,639,739.37,657c-27.83,9.45-59,2.74-87.13,11.35-104.06,31.91-114.42,230.76-43.09,294.05,121.5,107.78,253.49,6.22,200.93-141.17,10,28.16,192.83-95,207.45-107.19,59.55-49.8,90.27-92.68,94.21-176,6.39-135.32-54.1-265.81-181.09-327.38-41.36-20.05-86.39-31.14-131-42.1-97.46-23.9-145.73-20.7-237.44,27.36-71.19,37.31-139.48,91-165.91,166.91-19.48,56-8.91,146.55,46.38,181.12C505.53,583.21,580.89,533.34,644.54,512.49Z"/><path d="M652.43,541.1c40.5-12.16,113.75-15.92,106.35,46.21-6.81,57.23-67.73,40.94-108.32,51-64.79,16-101,79.59-111.9,141.44S533.49,914.85,573,966.29c43,56.13,126.79,88.31,193.81,59.43,83.32-35.9,97.57-134.45,71.92-212.43l-54.22,22.86c22.29,40,80.17,6.35,107.55-8.08,43.72-23.05,86.06-49.87,126.48-78.29,44.65-31.38,85.16-72.28,105.58-123.67,27-68.09,22.1-151.34,2.33-220.76-20.27-71.18-61.33-135.71-119.6-181.67-70.86-55.89-165.75-81.49-253.68-94.86-82.34-12.52-154,11.11-225.23,52-66.14,38-128,91.24-156.37,163.84-26,66.41-17.83,158.44,36.16,209.45,73.15,69.11,167,13.94,244.75-13,35.85-12.43,20.44-69.76-15.77-57.21-52.59,18.23-135.35,73-187,28.27-37-32-39.73-98.55-24.76-141.51,21.71-62.33,77.69-106.81,133-138.6C611,201.46,666.7,178.45,729,185c133.86,14.09,273.49,69.35,328,200.88,22.75,54.83,31.57,118.71,22.78,177.58-8.08,54.19-44.62,99.34-81.7,128.36-19.72,15.42-57.72,39.06-84.76,55.54C894.57,758.81,875.58,770,856,780c-8.24,4.22-17.16,7.46-25.27,11.8-19.88,10.65-7.86-8.61,5,14.4-16.09-28.92-64.86-9.52-54.22,22.86,14,42.62,18.89,97.63-18.78,130.25C726.52,990.63,676.86,976.8,642,951c-60.83-44.91-61.43-148.91-28.38-210.8,25.14-47.08,61.95-43.25,109.16-49.8,45.14-6.27,79.46-34.2,91.49-78.9,10.56-39.29.81-83.72-30.4-111-40.55-35.38-99.07-31.12-147.16-16.68C600.18,494.84,615.72,552.12,652.43,541.1Z"/><path class="cls-1" d="M602.33,1162.57c22.45-28.18,56.24-46.51,91.79-52.36,49.24-8.1,104,9.58,132.74,50.4,32.33,45.93,23.59,115.26-17.75,153.29s-109.41,41.67-155.81,10c-54.91-37.46-72.28-120.28-37-176.64"/><path d="M623.3,1183.54c16.06-19.6,35.25-32.87,58.33-39.94,20.9-6.41,42.72-7.5,63.06-2.61,21.58,5.2,38.07,13.69,53.13,30.47,11.82,13.17,18.44,32.86,19,50.13a141.21,141.21,0,0,1-.5,15.53c-.76,9.29,1.46-4.63-.72,4.44-.72,3-1.29,6.09-2.11,9.1-3,11.07-5.13,16.14-12,26.9-3.5,5.44-3.4,5.41-8.81,11q-2.18,2.25-4.46,4.36c.32-.3-7.6,6.26-3.79,3.38a90.5,90.5,0,0,1-28.05,14.47c-39.23,12.18-81.92,2-107.83-31.92,2.83,3.71-.86-1.37-1.44-2.31-1.84-2.91-3.73-5.77-5.43-8.78-1.46-2.57-2.72-5.24-4.1-7.85-4.09-7.74,1.3,4.45-1.68-3.79a162.35,162.35,0,0,1-5.6-18.43c-.55-2.42-1-4.85-1.49-7.27-.57-3.6-.64-3.9-.22-.92-.22-2-.41-3.93-.55-5.9-1.7-23.81,2.29-42.24,13.9-61.36,19.87-32.73-31.42-62.57-51.22-30-31,51-28.88,118.59,2,169.23,34.15,56,98.79,81.55,162.54,70.49,65.74-11.4,112-65.25,119.91-130.26s-29.77-124.39-89.4-149.44c-69.49-29.19-156.17-9.51-204.32,49.27-10.14,12.39-12.11,29.84,0,42,10.47,10.47,31.75,12.46,41.95,0Z"/></svg>