<svg id="Layer_1" data-name="Layer 1" xmlns="http://www.w3.org/2000/svg" viewBox="0 0 1500 1500"><defs><style>.cls-1{fill:#ff7749;}.cls-2{fill:#fff;}</style></defs><title>Kid Talk</title><path class="cls-1" d="M1422.93,404.16c.54,313,10.94,575.93,11.48,888.89-171.64,7.91-533.52,14.39-689.87,6-156.35,8.35-522.6-8.35-678.95,0l1.62-938.87"/><path d="M1394.4,404.16c.65,296.34,10.83,592.55,11.48,888.89l28.53-28.53c-188,8.53-376.72,11.67-564.93,9.49-171.49-2-343-1.62-514.55-4.24-96.33-1.47-193.06-4.07-289.34.79l28.53,28.53,1.62-938.87c.06-36.72-57-36.77-57.06,0l-1.61,938.87c0,14.85,13.1,29.31,28.52,28.53,181.87-9.19,364.76,2.12,546.74,2.4,172.45.26,345,2.7,517.51,0,101.54-1.56,203.11-3.89,304.57-8.49,15.38-.7,28.56-12.51,28.52-28.53-.65-296.34-10.82-592.55-11.47-888.89-.08-36.71-57.14-36.78-57.06,0Z"/><path class="cls-2" d="M274.28,1190l983.14-16.48,79.36-79.35V379.94l-79.36-79.36H781.09L747.18,411.25S518.69,57.82,155.66,252.54v869.15l120.5-60Z"/><path d="M127.13,252.54q-5.77,446.87-1.88,893.77c.17,20.15,24.67,37.52,42.92,24.63,128.76-90.87,454.32-244.88,496.73,10.18,6,36.14,61,20.81,55-15.17C700.82,1051.09,611,975.06,493.63,983.52c-127.66,9.2-250.87,65.19-354.25,138.15l42.92,24.64q-3.88-446.88,1.89-893.77c.47-36.73-56.59-36.75-57.06,0Z"/><path d="M1257.42,1145H858.67c-38.45,0-81.49,0-85.6-50.93-5.12-63.26,0-129.07,0-192.48V426.47c0-19.2-3.5-43.44,2.62-62.09,13.93-42.43,61-35.27,96-35.27H1192.3c26.16,0,70.13-7.22,93.27,8.46,26.7,18.1,22.68,48.9,22.68,76.64V878.93c0,70.51,4.9,143,0,213.36-2,29.48-20.21,51-50.83,52.72-36.5,2.1-36.74,59.17,0,57,63.32-3.65,106.71-50,107.89-113,.57-30.7,0-61.48,0-92.19V632c0-83,2.6-166.38,0-249.31-2-62.14-46.38-108.2-108.87-110.68-35.62-1.41-71.6,0-107.25,0-106,0-212.15-1.59-318.15,0-63.15.95-112.22,43.2-115,108-1,22.13,0,44.51,0,66.65,0,211.55-1.38,423.14,0,634.68.32,49.31,20.74,95.37,70.13,113.62,32.16,11.88,71.81,7.08,105.49,7.08h365.79C1294.14,1202.06,1294.2,1145,1257.42,1145Z"/><path d="M188.43,263.2c170.36-72.73,402.4-48.56,504.75,122.26,18.85,31.47,68.21,2.81,49.27-28.8C622.75,156.9,358.75,128.93,159.64,213.93,126,228.31,155,277.47,188.43,263.2Z"/><rect class="cls-1" x="834.56" y="400.17" width="203.35" height="250.8" rx="24.92"/><circle class="cls-1" cx="1069.27" cy="903.48" r="190.44"/><path class="cls-1" d="M1102.39,504h135.66c14.93,0,29.22-13.12,28.53-28.53S1254.05,447,1238.05,447H1102.39c-14.92,0-29.22,13.13-28.53,28.53S1086.4,504,1102.39,504Z"/><path class="cls-1" d="M1102.39,614.71h135.66c14.93,0,29.22-13.12,28.53-28.53s-12.53-28.53-28.53-28.53H1102.39c-14.92,0-29.22,13.13-28.53,28.53s12.54,28.53,28.53,28.53Z"/><path class="cls-1" d="M268,369.37a154.6,154.6,0,0,1,15.6-8.6c3.53-1.76-4.76,1.69-1,.45,1.32-.45,2.61-1,3.93-1.45,3-1,6-1.94,9-2.73q4.05-1.05,8.18-1.83c1-.18,3.34-.13,4.14-.7q-5.67.72-2.38.34c.69-.08,1.39-.15,2.08-.21a126.63,126.63,0,0,1,17.85-.41c1.73.08,7,1.44,8.38.67-1,.55-5.63-.93-1.34-.16,1.38.25,2.76.48,4.14.75a124.33,124.33,0,0,1,17.18,4.7c.58.21,4.77,2,4.91,1.85-.38.37-5.25-2.44-1.05-.38,2.51,1.23,5,2.44,7.46,3.8,2.74,1.53,5.43,3.17,8,4.92,1.17.78,2.28,1.63,3.44,2.4,3.31,2.19-5.26-4.28,0,.06,11.52,9.45,29.22,12.12,40.35,0,9.6-10.46,12.32-30.24,0-40.34-49.65-40.72-122.93-48-177.73-12.4-12.5,8.12-18.85,25.66-10.23,39,8.05,12.48,25.64,18.93,39,10.23Z"/><path class="cls-1" d="M255.18,471.09l38.36-9.61c6.64-1.67,13.26-3.41,19.95-4.91,2.78-.63,5.58-1.16,8.38-1.72q5.19-.84.86-.21c1.41-.16,2.82-.28,4.24-.35,3.29-.21,6.53,0,9.81,0,6,0-3.22-1.07,3.11.37a131.71,131.71,0,0,1,16.84,4.88c1.28.47,2.54,1,3.8,1.49q-3.94-1.65.7.41c2.46,1.23,5,2.37,7.41,3.62,5.7,2.9,11.3,6,16.89,9.13,13,7.26,31.73,3.58,39-10.24,7.1-13.44,3.69-31.27-10.24-39-26-14.49-53.9-28.64-84.51-27.79-15.46.43-30.62,4.14-45.54,7.88L240,416.07c-14.48,3.64-24.59,20.67-19.92,35.1,4.85,15,19.58,23.81,35.09,19.92Z"/><path class="cls-1" d="M464.34,718.49a162.58,162.58,0,0,1,21.17-7.14q5.73-1.49,11.55-2.54,2.58-.46,5.19-.85c-2.9.44-2.33.27.24.06a195.94,195.94,0,0,1,22.34-.69c3.95.14,7.88.46,11.82.82,2.55.24,3.14.45.25,0,2.17.36,4.34.7,6.5,1.11a172.23,172.23,0,0,1,21.67,5.58c3.34,1.1,6.62,2.32,9.9,3.59-2.73-1.06-1.57-.73.45.21s4,1.85,5.93,2.84a161.24,161.24,0,0,1,19.22,11.34c1.44,1,2.86,2,4.28,3.05-2.37-1.72-1.16-1,.45.39,3.37,2.82,6.63,5.73,9.8,8.78,10.77,10.35,29.78,11.51,40.35,0,10.28-11.2,11.5-29.3,0-40.35-53.38-51.28-137.19-69.64-206.28-41.2-13.75,5.66-25.07,19.19-19.93,35.09,4.29,13.25,20.32,26,35.1,19.93Z"/><path class="cls-1" d="M450.62,814c-2.61,1.11,1.28-.42,1.88-.63,2-.69,3.91-1.42,5.88-2.08q5.91-2,11.95-3.55,6.8-1.77,13.69-3c.55-.1,5.75-1,3.9-.72s3.38-.39,3.95-.44a199.53,199.53,0,0,1,24.93-.93q6.24.17,12.47.7c2.07.18,4.15.38,6.22.64,5.56.69-6.41-1.33,3.23.54A246.61,246.61,0,0,1,563,810.27q6,1.82,11.83,4a56,56,0,0,1,7.58,3.13c16.07,7.77,29.35,16,40.91,26.33s29,11.33,40.35,0c10.42-10.43,11.55-30.06,0-40.35-66.32-59.07-160.6-73.08-241.88-38.63-14.19,6-17.3,27-10.23,39,8.59,14.69,24.78,16.28,39,10.24Z"/><path class="cls-1" d="M460.16,902.34c5.38-.8-1.42,0,1.86-.24,2.26-.15,4.52-.46,6.78-.64q6.1-.5,12.23-.62a222.76,222.76,0,0,1,25.83.9c.66.06,7.83.82,4.32.41-3-.36,2.42.37,2.95.45q6.72,1.08,13.37,2.56a226.24,226.24,0,0,1,24.87,7c1.72.59,3.43,1.21,5.13,1.84-.2-.07,7,2.69,4.18,1.57s4.25,1.89,4.08,1.81q2.47,1.14,4.92,2.33a219.12,219.12,0,0,1,22.51,12.7c13.23,8.55,30.75,11,43-1.19,7.15-7.16,10.7-19,7.82-28.79-2.46-8.39-7.67-13.69-14.39-18.87-7.89-6.09-20.74-4.53-28.8,0l-.8.45c-13,7.31-18.49,26.23-10.23,39,8.48,13.17,25.1,18.06,39,10.23l.8-.45h-28.8l.86.67-13.11-17,.43,1.15,2.87-22-.49,1,17-13.11-1.62.41H622c2.64.76,4.55,2.38,1.18-.07-1.46-1.06-3.06-2-4.59-2.92q-4.63-2.87-9.4-5.5-9.54-5.25-19.55-9.55c-15.23-6.6-30.7-12.2-46.93-15.8-32.49-7.23-64.85-7.73-97.66-2.82-14.81,2.22-24.28,21.66-19.93,35.1,5.23,16.15,19.22,22.3,35.09,19.92Z"/><rect x="255.78" y="1094.47" width="38.04" height="95.54"/><rect x="255.71" y="1170.99" width="436.7" height="38.04"/></svg>