<svg id="Layer_1" data-name="Layer 1" xmlns="http://www.w3.org/2000/svg" viewBox="0 0 1500 1500"><defs><style>.cls-1{fill:#c42f12;}.cls-2{fill:#ff7749;}.cls-3{fill:#ffa476;}</style></defs><title>Kid Talk</title><path class="cls-1" d="M384.8,509.73S189.74,555.21,176.38,668.61s0,531.95,0,531.95H1331V668.61s-34.93-158.88-187.61-158.88H889.83s-120.92-1.35-120.92,96.18c0,0-54.64-104.31-239.46-104.31"/><path d="M378.61,487.26c-97.22,23-216,80.79-226.59,191.49-12.56,131.32-5,266.22-2.16,397.88q1.33,62,3.22,123.93c.4,12.59,10.35,23.3,23.3,23.3H1331a23.64,23.64,0,0,0,23.31-23.3V715.28c0-17.38,2.11-36.21-1-53.44-5.39-30.24-22.69-61.94-40.25-86.52-33.45-46.84-81.74-78.91-139.27-86.65-44-5.93-90.12-2.24-134.46-2.24H935.11c-83.37,0-186.25,13-189.5,119.48L789,594.14C741.92,506.05,619.35,479.22,529.45,478.3c-30-.31-30,46.3,0,46.61,74.71.76,181.61,22.2,219.34,92.76,11.29,21.12,42.75,10.44,43.42-11.76C794.56,529.07,882.34,533,937.92,533c73.1,0,148.3-5.29,221.1.58,52.77,4.25,96.33,35.32,123.45,79.81a224.93,224.93,0,0,1,21.1,44.57c1.71,5,4.84,23.72,4.12,11,1.06,18.95,0,38.28,0,57.24v474.38l23.3-23.3H176.38l23.3,23.3Q195.16,1058.8,194,916.94c-.52-64.28-.8-128.67,1.84-192.91.93-22.34.14-47.23,7.26-68.68,9.33-28.11,32.35-50,56.24-66.31,39.22-26.81,85.43-45.91,131.66-56.84,29.17-6.9,16.82-51.84-12.39-44.94Z"/><path class="cls-2" d="M746.16,1034.69s-193.48,22.59-216.93,169.46v233.48H963.08V1192.85S929.19,1046.26,746.16,1034.69Z"/><path d="M746.16,1011.38c-69.77,8.36-145.12,38.12-192.65,91.15-27,30.13-47.58,70.28-47.58,111.42v223.68a23.63,23.63,0,0,0,23.3,23.3H963.08a23.64,23.64,0,0,0,23.31-23.3V1219.72c0-16.32.69-30.64-4.94-46.06a241,241,0,0,0-57-88.73c-48.05-47.26-112.15-68.72-178.3-73.55-29.93-2.18-29.79,44.44,0,46.61,53,3.86,105.14,21,143.92,58.51A194.72,194.72,0,0,1,922.2,1157c7.27,12.18,11.31,20.58,14.88,30.65.95,2.69,1.48,5.83,2.72,8.39,2.54,5.22-.11-.45,0-2.52-.4,9.17,0,18.45,0,27.63v216.5l23.3-23.3H529.23l23.3,23.3v-201c0-32.52,2.21-55.18,21-84.3,23-35.64,61.87-59.75,100.8-74.75a371,371,0,0,1,52.5-15.81c5.94-1.33,11.9-2.4,17.88-3.51,6.51-1.22,4.32-.65,1.42-.3C775.57,1054.47,775.92,1007.82,746.16,1011.38Z"/><path class="cls-3" d="M339.88,538.6c-124.19-93.43-144-284.21-35.78-398,50.71-53.31,124.34-82.53,196.61-78,66.9,4.18,133.38,38.64,169.24,97,23.55,38.34,32.94,84.19,36.76,129.41,4.57,54.06,1.39,110.34-21,159.44-43.83,95.88-158.19,145-259.35,126.24C395.46,569,365.21,557.66,339.88,538.6Z"/><path d="M356.35,522.13C213.77,411.81,225.93,169.49,404.28,100.89,494.87,66,608.5,92.56,656.05,182.36c24.77,46.78,30.24,104.42,29,156.56-1.22,52.76-14.67,106-50.91,145.84C564,561.85,437.33,579.54,351.64,518.48c-24.47-17.43-47.77,23-23.52,40.25,92.85,66.16,226.76,53,313.46-17.17,96.76-78.26,107.81-221.46,74.34-334.2C682,93,569.6,26.21,452.6,41.14,339.2,55.61,244.46,141,218.31,252.24S232.64,484.86,323.4,555.08C346.83,573.21,380.05,540.46,356.35,522.13Z"/><path class="cls-3" d="M912.41,538.6c-124.18-93.43-144-284.21-35.77-398,50.7-53.31,124.34-82.53,196.61-78,66.89,4.18,133.37,38.64,169.24,97,23.55,38.34,32.94,84.19,36.76,129.41,4.57,54.06,1.39,110.34-21,159.44-43.82,95.88-158.19,145-259.34,126.24C968,569,937.74,557.66,912.41,538.6Z"/><path d="M928.89,522.13C786.31,411.81,798.47,169.49,976.82,100.89,1067.41,66,1181,92.56,1228.59,182.36c24.77,46.78,30.23,104.42,29,156.56-1.23,52.76-14.68,106-50.91,145.84-70.14,77.09-196.83,94.78-282.53,33.72-24.47-17.43-47.77,23-23.52,40.25,92.86,66.16,226.76,53,313.47-17.17,96.75-78.26,107.8-221.46,74.34-334.2C1254.52,93,1142.14,26.21,1025.13,41.14,911.74,55.61,817,141,790.84,252.24s14.34,232.62,105.1,302.84C919.37,573.21,952.59,540.46,928.89,522.13Z"/><path class="cls-3" d="M626.33,1052.85c-113.45-77.62-131.56-236.1-32.68-330.65,46.31-44.29,113.58-68.55,179.61-64.8,61.11,3.48,121.84,32.11,154.6,80.61,21.52,31.85,30.1,69.94,33.59,107.5,4.17,44.91,1.26,91.66-19.23,132.44-40,79.66-144.52,120.45-236.92,104.87C677.1,1078.07,649.47,1068.68,626.33,1052.85Z"/><path d="M638.09,1032.73c-57.52-40.43-91.26-108.35-84.77-178.84C560.47,776.15,619,714.07,691.91,691c78.32-24.81,180.72-5.92,223.31,71,22.17,40,27,91.31,24,136.29-2.88,43.25-19,83-51.16,112.51-65.1,59.71-175.9,70.12-249.93,21.94-25.21-16.41-48.6,23.92-23.53,40.24,83.47,54.32,203.92,46.45,283.88-11.08,89.35-64.28,106.09-185,73.36-285.26-33.74-103.39-142.47-154-246.26-140.46C626.91,649,537.2,717.29,512.79,816c-24.5,99.12,19.79,199.31,101.77,257C639.15,1090.25,662.46,1049.86,638.09,1032.73Z"/><path d="M390.33,334.11a5.08,5.08,0,0,1,.76-.42L385.52,336a3.69,3.69,0,0,1,.79-.21l-6.19.83a4.79,4.79,0,0,1,1.07,0l-6.19-.83a5.56,5.56,0,0,1,1.19.34l-5.57-2.34a6.21,6.21,0,0,1,1.22.72l-4.71-3.64a7.48,7.48,0,0,1,1.13,1.12l-3.65-4.71a5.93,5.93,0,0,1,.8,1.35l-2.35-5.57a5.6,5.6,0,0,1,.32,1.2l-.83-6.2a4.31,4.31,0,0,1,0,.95l.83-6.2a3.67,3.67,0,0,1-.24.92l2.35-5.57a4.28,4.28,0,0,1-.43.75l26.31-10.71a8.3,8.3,0,0,1-2-.56l5.56,2.35a9.6,9.6,0,0,1-2-1.16l4.72,3.65a10.17,10.17,0,0,1-1.76-1.77l3.64,4.72a10.58,10.58,0,0,1-1.14-2l2.35,5.56a8.79,8.79,0,0,1-.51-1.84l.83,6.2a6,6,0,0,1,0-.85l-.83,6.19a5,5,0,0,1,.31-1.13l-2.35,5.57a5.91,5.91,0,0,1,.67-1.17l-3.64,4.72a6.55,6.55,0,0,1,1.08-1.09l-4.71,3.64a6.74,6.74,0,0,1,1.32-.78l-5.56,2.35a6.13,6.13,0,0,1,1.47-.39l-6.2.83a5.72,5.72,0,0,1,1.17,0l-6.19-.83a4.93,4.93,0,0,1,1.14.31l6.2.83,6.19-.83,5.57-2.35a17.73,17.73,0,0,0,6.54-6,11.68,11.68,0,0,0,3-5.14,11.5,11.5,0,0,0,1.59-5.89,11.61,11.61,0,0,0,0-6.19,17.33,17.33,0,0,0-2.76-8.66c-.1-.16-.21-.31-.32-.46-1.23-1.63-2.49-3.45-3.86-5l-.33-.33-.2-.17c-1.25-1.09-3.46-2.74-4.81-3.72a6.2,6.2,0,0,0-.81-.52l-.4-.18c-1.49-.67-4.16-1.86-5.69-2.4l-.23-.08a7.58,7.58,0,0,0-.94-.23,51.79,51.79,0,0,0-7-.91,6.56,6.56,0,0,0-1,0c-2.15.21-4.4.52-6.53.87-.18,0-.36,0-.53.09a8.52,8.52,0,0,0-1,.27L371,284c-2,.77-4,1.63-6,2.51a9.42,9.42,0,0,0-1.76,1c-1.67,1.22-3.46,2.55-5,3.89l-.35.31a9.31,9.31,0,0,0-.68.72c-.05.06-.1.14-.16.2-1.09,1.36-2.73,3.4-3.72,4.82l-.25.38a7.61,7.61,0,0,0-.45.85c-2.51,5.41-3.21,7.26-3.57,13.36a6.42,6.42,0,0,0,0,1c.12,1.26.63,5,.84,6.26a2.51,2.51,0,0,0,0,.27c0,.18.08.36.13.53s.11.33.17.49c.37,1,1.07,2.53,1.23,2.9s.78,2,1.25,2.95a5.57,5.57,0,0,0,.47.78c.87,1.27,2.73,3.62,3.71,4.82l.15.18.28.3.31.29.18.14c1.33,1.1,3.41,2.72,4.81,3.72,2.05,1.47,4.91,2.36,7,3.15a6.73,6.73,0,0,0,.87.27l.43.1c2.15.4,4.4.63,6.57.89a10,10,0,0,0,1.9.06l.51,0c2.15-.24,4.37-.53,6.51-.88.31-.06.62-.12.93-.21a33.28,33.28,0,0,0,7.42-3.1,29,29,0,0,0,3.17-2.36,25.84,25.84,0,0,0,3.07-2.46,24.74,24.74,0,0,0,4.67-6.23c2.49-5.28,3.32-7.66,3.6-13.63a26,26,0,0,0-6.82-16.48A25.94,25.94,0,0,0,386,288.92l-6.2.84a23.24,23.24,0,0,0-10.28,6l-3.64,4.72a23.12,23.12,0,0,0-3.18,11.76c0,.17,0,.34-.05.51l.84-6.19a5.83,5.83,0,0,1-.36,1.3l2.35-5.57a5.31,5.31,0,0,1-.66,1.13l3.65-4.72a6.67,6.67,0,0,1-1.1,1.09l4.71-3.65a8.12,8.12,0,0,1-1.59.92l5.56-2.35a9.25,9.25,0,0,1-2.32.62l6.2-.83a9.26,9.26,0,0,1-2.41,0l6.19.84a8.36,8.36,0,0,1-1.9-.52l5.57,2.35a6.61,6.61,0,0,1-1.34-.78l4.71,3.64a5.66,5.66,0,0,1-.91-.92l3.64,4.72a5.57,5.57,0,0,1-.62-1.05l2.35,5.57a5.79,5.79,0,0,1-.39-1.41l.83,6.2a5.74,5.74,0,0,1,0-1.31l-.83,6.2a6.26,6.26,0,0,1,.36-1.35l-2.34,5.57a6.31,6.31,0,0,1,.77-1.33L390,325.62a7.42,7.42,0,0,1,1.4-1.4l-4.72,3.64a9.78,9.78,0,0,1,2-1.17L383.12,329a8.93,8.93,0,0,1,2.22-.62l-6.2.83a7.72,7.72,0,0,1,2,0l-6.2-.84a6.87,6.87,0,0,1,1.48.39l-5.56-2.35a5.44,5.44,0,0,1,1.21.7l-4.72-3.64a5.49,5.49,0,0,1,.84.83l-3.64-4.71a5.15,5.15,0,0,1,.32.45l26.31-34.23a5.52,5.52,0,0,0-1-.29c-1-.2-3.12-.42-3.26-.44s-2.22-.36-3.26-.43a5,5,0,0,0-.67,0l-.25,0c-1.26.09-5,.65-6.28.85a4,4,0,0,0-.5.08,22.54,22.54,0,0,0-3.75,1.49,25.29,25.29,0,0,0-3.62,1.61c-.15.09-.29.19-.43.29-1.2.85-3.63,2.75-4.78,3.7l-.27.21a6.45,6.45,0,0,0-.76.81c-.9,1.07-2.87,3.63-3.7,4.78l-.15.2a5.33,5.33,0,0,0-.31.51c-.08.15-.15.3-.22.45-.53,1.18-1.94,4.45-2.38,5.65,0,.08-.06.15-.08.23a4.43,4.43,0,0,0-.13.49c0,.08,0,.17-.05.25-.26,1.37-.74,5-.86,6.36,0,.2,0,.39,0,.59a24.46,24.46,0,0,0,.42,3.27c.1.77.24,2.22.45,3.29a8.63,8.63,0,0,0,.32,1.21c.37,1.09.92,2.24,1.34,3.23s.87,2.17,1.37,3.22a9.62,9.62,0,0,0,.61,1.08c.65,1,1.47,1.94,2.16,2.83s1.38,1.86,2.12,2.73a9.14,9.14,0,0,0,.86.9l.52.43c1.65,1.33,3.36,2.71,5.1,3.93a8.34,8.34,0,0,0,1.15.69c1.95,1,4.06,1.78,6.09,2.59.21.08.41.16.63.23a8.27,8.27,0,0,0,1.39.33l6.2.83a17.45,17.45,0,0,0,9-2,11.7,11.7,0,0,0,5.14-3,17.66,17.66,0,0,0,6-6.54,18,18,0,0,0,1.6-3.53,18.56,18.56,0,0,0,1.4-3.57c1.15-6,1.13-7.66,0-13.73a6,6,0,0,0-.23-.8,41.37,41.37,0,0,0-2.68-6.26,7,7,0,0,0-.51-.78c-1.21-1.63-2.52-3.41-3.83-4.94-.1-.11-.19-.22-.3-.33a29.73,29.73,0,0,0-6-4.62,40.93,40.93,0,0,0-6.26-2.7,5.05,5.05,0,0,0-.86-.27c-5.85-1.22-7.92-1.14-13.73-.05a18.85,18.85,0,0,0-7.11,3A26,26,0,0,0,356.1,307.8a17.58,17.58,0,0,0-.41,9.29,17.33,17.33,0,0,0,2.76,8.66l3.64,4.72a23.4,23.4,0,0,0,10.29,6l6.19.83a23.12,23.12,0,0,0,11.76-3.18Z"/><path d="M619.71,315.3a3.44,3.44,0,0,0,.22-.38,53.57,53.57,0,0,0,2.49-5.89,2.75,2.75,0,0,0,.11-.41,53.52,53.52,0,0,0,.89-6.54,4,4,0,0,0,0-.85c0-.12-.44-4.49-.9-6.54,0-.15-.07-.28-.11-.42a38.79,38.79,0,0,0-2.67-6.3c-.07-.13-.15-.25-.23-.37-1.18-1.75-2.52-3.39-3.86-5a4.32,4.32,0,0,0-.6-.61c-1.6-1.34-3.24-2.63-4.95-3.82a2.91,2.91,0,0,0-.42-.25,55.33,55.33,0,0,0-5.89-2.5,3,3,0,0,0-.4-.12c-2-.47-8.29-1.1-6.48-.89a4.07,4.07,0,0,0-.5,0,26.69,26.69,0,0,0-13.22,3.6,32,32,0,0,0-5.32,4.1,2.83,2.83,0,0,0-.25.24,55.67,55.67,0,0,0-3.91,5,4.53,4.53,0,0,0-.41.66,36.53,36.53,0,0,0-2.66,6.36c0,.16-.08.32-.11.48-.35,2.17-.7,4.35-.87,6.54a4,4,0,0,0,0,.49,54.34,54.34,0,0,0,.87,6.61l.09.4a45,45,0,0,0,2.49,5.95,3.55,3.55,0,0,0,.23.43,48.86,48.86,0,0,0,3.9,5.05,22.5,22.5,0,0,0,25.45,4.82,17.39,17.39,0,0,0,7.5-4.82l3.65-4.71A23.37,23.37,0,0,0,617,303.85l-.84-6.2a23.18,23.18,0,0,0-6-10.28l-.09-.11,3.64,4.72a3.7,3.7,0,0,1-.41-.72l2.35,5.56a3.21,3.21,0,0,1-.22-.79l.84,6.19a4,4,0,0,1,0-1l-.83,6.2a5.11,5.11,0,0,1,.32-1.16l-2.35,5.57a4.49,4.49,0,0,1,.57-1l-3.64,4.71a4.92,4.92,0,0,1,.68-.69l-4.71,3.65a3.28,3.28,0,0,1,.76-.46l-5.56,2.35a3,3,0,0,1,.8-.21l-6.2.83a3,3,0,0,1,.79,0l-6.19-.84a3.35,3.35,0,0,1,.75.21L585.89,318a3.8,3.8,0,0,1,.85.5L582,314.89a4.7,4.7,0,0,1,.7.71l-3.64-4.72a5.05,5.05,0,0,1,.59,1l-2.35-5.56a4.24,4.24,0,0,1,.3,1.11l-.83-6.2a4,4,0,0,1,0,.92l.83-6.19a3.71,3.71,0,0,1-.21.81l2.35-5.56a3.91,3.91,0,0,1-.31.57,17.25,17.25,0,0,0-2.77,8.66,17.69,17.69,0,0,0,.42,9.29,26,26,0,0,0,10.71,13.93l5.56,2.35a23.47,23.47,0,0,0,12.39,0l5.57-2.35a23.42,23.42,0,0,0,8.36-8.36Z"/><path d="M432.74,399.44a53.12,53.12,0,0,0,14.86,49.3c11.23,11.16,27.85,18.71,43.87,17.74,32.64-2,58.61-28.88,65.17-60.09,2.5-11.9-3.48-25.76-16.27-28.67-11.68-2.66-26,3.52-28.67,16.28a63.24,63.24,0,0,1-2.07,7.63c-.37,1.07-.84,2.11-1.2,3.19,2.15-6.56,1.35-3.18.48-1.42a59.75,59.75,0,0,1-3.7,6.4c-1.16,1.76-4.19,4.44.65-.6-.77.81-1.43,1.75-2.18,2.58-1.51,1.66-3.16,3.14-4.8,4.67-3.05,2.85,5-3.52.77-.61-1.06.73-2.14,1.41-3.26,2.05-.95.54-1.94,1-2.92,1.52-3.68,1.92,5.52-1.8,1.5-.7a60.33,60.33,0,0,1-7.54,1.79l6.2-.83a35,35,0,0,1-8.62-.07l6.19.83a38.72,38.72,0,0,1-4.75-1.05c-.39-.11-2.38-.44-2.58-.85,0,0,5.5,2.57,2.57,1.07a48.94,48.94,0,0,1-4.74-2.68,9.5,9.5,0,0,0-1.77-1.25c.91.32,4.64,3.82,1.79,1.23-.92-.84-2.28-3-3.35-3.48.36.16,3.32,4.79,1.71,2.2-.47-.75-1-1.46-1.42-2.22-.35-.59-.63-1.25-1-1.83-1.42-2.25,1.95,5.7.92,2.23a47.13,47.13,0,0,1-1.26-5l.84,6.19a28.53,28.53,0,0,1-.05-7.27l-.83,6.2c.1-.71.23-1.41.39-2.11,2.49-11.9-3.47-25.75-16.27-28.67-11.67-2.65-26,3.52-28.66,16.28Z"/><path d="M949.58,334.11a5.08,5.08,0,0,1,.76-.42L944.77,336a3.69,3.69,0,0,1,.79-.21l-6.19.83a4.79,4.79,0,0,1,1.07,0l-6.19-.83a5.56,5.56,0,0,1,1.19.34l-5.57-2.34a6.21,6.21,0,0,1,1.22.72l-4.71-3.64a7.48,7.48,0,0,1,1.13,1.12l-3.65-4.71a5.93,5.93,0,0,1,.8,1.35l-2.35-5.57a5.6,5.6,0,0,1,.32,1.2l-.83-6.2a4.31,4.31,0,0,1,0,.95l.83-6.2a3.67,3.67,0,0,1-.24.92l2.35-5.57a4.28,4.28,0,0,1-.43.75l26.31-10.71a8.3,8.3,0,0,1-2-.56l5.56,2.35a9.6,9.6,0,0,1-2-1.16l4.72,3.65a10.17,10.17,0,0,1-1.76-1.77l3.65,4.72a10.1,10.1,0,0,1-1.15-2L960,309a8.79,8.79,0,0,1-.51-1.84l.83,6.2a6,6,0,0,1,0-.85l-.83,6.19a5,5,0,0,1,.31-1.13l-2.35,5.57a5.91,5.91,0,0,1,.67-1.17l-3.64,4.72a6.55,6.55,0,0,1,1.08-1.09l-4.71,3.64a6.74,6.74,0,0,1,1.32-.78l-5.56,2.35a6.13,6.13,0,0,1,1.47-.39l-6.2.83a5.72,5.72,0,0,1,1.17,0l-6.19-.83a4.93,4.93,0,0,1,1.14.31l6.2.83,6.19-.83,5.57-2.35a17.66,17.66,0,0,0,6.54-6,23.1,23.1,0,0,0,4.59-11,11.82,11.82,0,0,0,0-6.19,17.45,17.45,0,0,0-2.77-8.66c-.1-.16-.21-.31-.32-.46-1.23-1.63-2.49-3.45-3.86-5l-.33-.33-.2-.17c-1.25-1.09-3.46-2.74-4.81-3.72a6.2,6.2,0,0,0-.81-.52l-.4-.18c-1.49-.67-4.16-1.86-5.68-2.4l-.24-.08a7.58,7.58,0,0,0-.94-.23,51.59,51.59,0,0,0-7-.91,6.56,6.56,0,0,0-1,0c-2.15.21-4.4.52-6.53.87l-.53.09a9.1,9.1,0,0,0-1,.27l-.45.16c-2,.77-4,1.63-6,2.51a9.42,9.42,0,0,0-1.76,1c-1.67,1.22-3.46,2.55-5,3.89l-.35.31a9.31,9.31,0,0,0-.68.72c-.05.06-.1.14-.16.2-1.09,1.36-2.73,3.4-3.72,4.82l-.25.38a7.61,7.61,0,0,0-.45.85c-2.51,5.41-3.21,7.26-3.57,13.36a6.42,6.42,0,0,0,0,1c.12,1.26.63,5,.84,6.26a2.51,2.51,0,0,0,0,.27c0,.18.08.36.13.53s.11.33.17.49c.37,1,1.07,2.53,1.23,2.9s.78,2,1.25,2.95a5.57,5.57,0,0,0,.47.78c.87,1.27,2.73,3.62,3.71,4.82l.15.18.28.3.31.29.18.14c1.33,1.1,3.41,2.72,4.81,3.72,2.06,1.47,4.91,2.36,7,3.15a6.73,6.73,0,0,0,.87.27l.43.1c2.15.4,4.4.63,6.57.89a10,10,0,0,0,1.9.06l.51,0c2.15-.24,4.37-.53,6.51-.88.31-.06.62-.12.93-.21a33.28,33.28,0,0,0,7.42-3.1,29,29,0,0,0,3.17-2.36,25.84,25.84,0,0,0,3.07-2.46,24.74,24.74,0,0,0,4.67-6.23c2.49-5.28,3.32-7.66,3.6-13.63a26,26,0,0,0-6.82-16.48,25.94,25.94,0,0,0-16.48-6.83l-6.2.84a23.24,23.24,0,0,0-10.28,6l-3.64,4.72A23.12,23.12,0,0,0,922,312.23c0,.17,0,.34,0,.51l.84-6.19a5.83,5.83,0,0,1-.36,1.3l2.35-5.57a4.92,4.92,0,0,1-.66,1.13l3.65-4.72a6.67,6.67,0,0,1-1.1,1.09l4.71-3.65a8.12,8.12,0,0,1-1.59.92l5.56-2.35a9.25,9.25,0,0,1-2.32.62l6.2-.83a9.26,9.26,0,0,1-2.41,0l6.19.84a8.36,8.36,0,0,1-1.9-.52l5.57,2.35a6.61,6.61,0,0,1-1.34-.78l4.72,3.64a5.34,5.34,0,0,1-.92-.92l3.64,4.72a5.57,5.57,0,0,1-.62-1.05l2.35,5.57a5.79,5.79,0,0,1-.39-1.41l.83,6.2a5.74,5.74,0,0,1,0-1.31l-.83,6.2a5.75,5.75,0,0,1,.37-1.35l-2.35,5.57a6.31,6.31,0,0,1,.77-1.33l-3.64,4.72a7.42,7.42,0,0,1,1.4-1.4l-4.72,3.64a9.78,9.78,0,0,1,2-1.17L942.37,329a8.93,8.93,0,0,1,2.22-.62l-6.19.83a7.64,7.64,0,0,1,2,0l-6.2-.84a6.72,6.72,0,0,1,1.48.39l-5.56-2.35a5.44,5.44,0,0,1,1.21.7l-4.72-3.64a5.49,5.49,0,0,1,.84.83l-3.64-4.71a5.15,5.15,0,0,1,.32.45l26.31-34.23a5.67,5.67,0,0,0-1-.29c-1-.2-3.13-.42-3.27-.44s-2.22-.36-3.26-.43a5,5,0,0,0-.67,0l-.25,0c-1.26.09-5,.65-6.28.85a4,4,0,0,0-.5.08,22.54,22.54,0,0,0-3.75,1.49,25.29,25.29,0,0,0-3.62,1.61c-.15.09-.29.19-.43.29-1.2.85-3.63,2.75-4.78,3.7l-.27.21a6.45,6.45,0,0,0-.76.81c-.9,1.07-2.87,3.63-3.7,4.78l-.15.2c-.11.17-.21.33-.31.51a4.54,4.54,0,0,0-.21.45c-.54,1.18-2,4.45-2.38,5.65l-.09.23a4.43,4.43,0,0,0-.13.49c0,.08,0,.17,0,.25-.26,1.37-.74,5-.85,6.36a5.83,5.83,0,0,0,0,.59,24.46,24.46,0,0,0,.42,3.27c.1.77.24,2.22.45,3.29a8.63,8.63,0,0,0,.32,1.21c.37,1.09.92,2.24,1.34,3.23s.87,2.17,1.37,3.22a9.62,9.62,0,0,0,.61,1.08c.65,1,1.47,1.94,2.16,2.83s1.38,1.86,2.12,2.73a9.14,9.14,0,0,0,.86.9l.52.43c1.65,1.33,3.36,2.71,5.1,3.93a8.34,8.34,0,0,0,1.15.69c2,1,4.06,1.78,6.09,2.59.21.08.41.16.63.23a8.27,8.27,0,0,0,1.39.33l6.2.83a17.45,17.45,0,0,0,9-2,11.7,11.7,0,0,0,5.14-3,17.57,17.57,0,0,0,6-6.54,18,18,0,0,0,1.6-3.53,18.56,18.56,0,0,0,1.4-3.57c1.16-6,1.13-7.66,0-13.73a4.81,4.81,0,0,0-.23-.8,41.37,41.37,0,0,0-2.68-6.26,7,7,0,0,0-.51-.78c-1.21-1.63-2.52-3.41-3.83-4.94-.1-.11-.19-.22-.3-.33a29.73,29.73,0,0,0-6-4.62,40.93,40.93,0,0,0-6.26-2.7,5.05,5.05,0,0,0-.86-.27c-5.85-1.22-7.92-1.14-13.73-.05a18.85,18.85,0,0,0-7.11,3,26,26,0,0,0-10.71,13.93,17.58,17.58,0,0,0-.41,9.29,17.33,17.33,0,0,0,2.76,8.66l3.65,4.72a23.31,23.31,0,0,0,10.28,6l6.19.83a23.12,23.12,0,0,0,11.76-3.18Z"/><path d="M1179,315.3a3.44,3.44,0,0,0,.22-.38,53.57,53.57,0,0,0,2.49-5.89,2.75,2.75,0,0,0,.11-.41,53.52,53.52,0,0,0,.89-6.54,4,4,0,0,0,0-.85c0-.12-.44-4.49-.9-6.54,0-.15-.07-.28-.11-.42A38.79,38.79,0,0,0,1179,288c-.07-.13-.15-.25-.23-.37-1.18-1.75-2.52-3.39-3.86-5a4.32,4.32,0,0,0-.6-.61c-1.6-1.34-3.24-2.63-5-3.82a2.91,2.91,0,0,0-.42-.25,55.33,55.33,0,0,0-5.89-2.5,3,3,0,0,0-.4-.12c-2-.47-8.29-1.1-6.48-.89a4.07,4.07,0,0,0-.5,0,26.69,26.69,0,0,0-13.22,3.6,32,32,0,0,0-5.32,4.1,2.83,2.83,0,0,0-.25.24,55.67,55.67,0,0,0-3.91,5,4.53,4.53,0,0,0-.41.66,36.53,36.53,0,0,0-2.66,6.36c0,.16-.08.32-.11.48-.35,2.17-.7,4.35-.87,6.54a4,4,0,0,0,0,.49,54.34,54.34,0,0,0,.87,6.61l.09.4a45,45,0,0,0,2.49,5.95,3.55,3.55,0,0,0,.23.43,48.86,48.86,0,0,0,3.9,5.05,24,24,0,0,0,33,0l3.65-4.71a23.37,23.37,0,0,0,3.18-11.76l-.83-6.2a23.29,23.29,0,0,0-6-10.28l-.09-.11L1173,292a3.3,3.3,0,0,1-.42-.72l2.35,5.56a3.21,3.21,0,0,1-.22-.79l.84,6.19a3.62,3.62,0,0,1,0-1l-.84,6.2a5.11,5.11,0,0,1,.32-1.16l-2.35,5.57a4.49,4.49,0,0,1,.57-1l-3.64,4.71a4.92,4.92,0,0,1,.68-.69l-4.71,3.65a3.28,3.28,0,0,1,.76-.46l-5.56,2.35a3.15,3.15,0,0,1,.8-.21l-6.2.83a3,3,0,0,1,.79,0l-6.19-.84a3.35,3.35,0,0,1,.75.21l-5.57-2.35a3.8,3.8,0,0,1,.85.5l-4.71-3.64a4.7,4.7,0,0,1,.7.71l-3.64-4.72a5.05,5.05,0,0,1,.59,1l-2.35-5.56a4.69,4.69,0,0,1,.31,1.11l-.84-6.2a4,4,0,0,1,0,.92l.83-6.19a3.71,3.71,0,0,1-.21.81l2.35-5.56a3.91,3.91,0,0,1-.31.57,17.25,17.25,0,0,0-2.77,8.66,17.69,17.69,0,0,0,.42,9.29,26,26,0,0,0,10.71,13.93l5.56,2.35a23.47,23.47,0,0,0,12.39,0l5.57-2.35a23.42,23.42,0,0,0,8.36-8.36Z"/><path d="M992,399.44a53.12,53.12,0,0,0,14.86,49.3c11.23,11.16,27.85,18.71,43.87,17.74,32.64-2,58.61-28.88,65.17-60.09,2.5-11.9-3.48-25.76-16.27-28.67-11.68-2.66-26,3.52-28.67,16.28a63.24,63.24,0,0,1-2.07,7.63c-.37,1.07-.84,2.11-1.2,3.19,2.15-6.56,1.35-3.18.48-1.42a59.75,59.75,0,0,1-3.7,6.4c-1.16,1.76-4.18,4.44.65-.6-.77.81-1.43,1.75-2.18,2.58-1.51,1.66-3.16,3.14-4.8,4.67-3.05,2.85,5-3.52.77-.61-1.06.73-2.14,1.41-3.26,2.05-1,.54-1.94,1-2.92,1.52-3.68,1.92,5.52-1.8,1.5-.7a60.33,60.33,0,0,1-7.54,1.79l6.2-.83a35,35,0,0,1-8.62-.07l6.19.83a38.72,38.72,0,0,1-4.75-1.05c-.39-.11-2.38-.44-2.58-.85,0,0,5.5,2.57,2.57,1.07a48.94,48.94,0,0,1-4.74-2.68,9.5,9.5,0,0,0-1.77-1.25c.91.32,4.64,3.82,1.79,1.23-.92-.84-2.28-3-3.35-3.48.36.16,3.32,4.79,1.71,2.2-.47-.75-1-1.46-1.42-2.22-.35-.59-.63-1.25-1-1.83-1.42-2.25,1.95,5.7.92,2.23a44.77,44.77,0,0,1-1.25-5l.83,6.19a28.53,28.53,0,0,1-.05-7.27l-.83,6.2c.1-.71.23-1.41.4-2.11,2.48-11.9-3.48-25.75-16.28-28.67-11.67-2.65-26,3.52-28.66,16.28Z"/><path d="M668.57,832.69l4.82,3.8a22.53,22.53,0,0,0,25.46,4.81,17.37,17.37,0,0,0,7.5-4.81l3.64-4.72A23.12,23.12,0,0,0,713.17,820l-.83-6.19a23.31,23.31,0,0,0-6-10.29l-4.83-3.79a22.5,22.5,0,0,0-25.45-4.82,17.39,17.39,0,0,0-7.5,4.82l-3.65,4.71a23.27,23.27,0,0,0-3.18,11.76l.83,6.2a23.29,23.29,0,0,0,6,10.28Z"/><path d="M825.46,793.16l-8.74-.09a23.93,23.93,0,0,0-23.3,23.31l.83,6.19a23.13,23.13,0,0,0,6,10.28L805,836.5a23.32,23.32,0,0,0,11.76,3.18l8.74.09a24,24,0,0,0,23.31-23.3l-.84-6.2a23.18,23.18,0,0,0-6-10.28l-4.71-3.65a23.38,23.38,0,0,0-11.77-3.18Z"/><path d="M681.78,929.53c-.4,37.77,35.09,70.08,72.48,68.56,36.94-1.49,69.06-31.66,75.57-67.69,2.17-12-3.25-25.7-16.27-28.67-11.39-2.59-26.34,3.45-28.66,16.28a69.15,69.15,0,0,1-2.08,8.49c-.24.73-1.72,3.34-1.49,4.12q2.13-5,.57-1.56l-.65,1.31c-1.35,2.63-3,5-4.52,7.53-2.53,4.06,3.07-3.37.09-.08-1,1.08-1.91,2.2-2.92,3.25s-2,2.06-3.13,3q-1.08,1-2.19,1.89l2.44-1.86c-1.14-.14-6.1,4-7.29,4.61-.84.45-1.7.88-2.57,1.28l2.94-1.21c-1-.15-3,1.1-4.05,1.43q-2.06.63-4.17,1.08c-.94.2-1.89.37-2.84.52q5.34-.66,2.62-.43c-1.4,0-2.79.13-4.2.1-.88,0-6-.49-1.77,0s-.82-.27-1.7-.48c-1.37-.34-2.71-.73-4-1.18-5-1.7,2.34,1.29.36.24-1.24-.66-2.51-1.24-3.73-1.94s-2.41-1.45-3.56-2.24c-4.29-2.95,1.83,1.74.28.22-2-2-4-3.85-5.85-5.94-1.49-1.64,3.18,4.61.37.27-.74-1.15-1.43-2.33-2.07-3.55-2.38-4.54.52,2.65.14.58-.24-1.3-.88-2.61-1.21-3.91-.21-.84-1.42-5.82-.44-1.61s.12-1.36.13-2.44c.13-12.19-10.81-23.86-23.3-23.3-12.73.57-23.16,10.24-23.3,23.3Z"/></svg>