<svg id="Layer_1" data-name="Layer 1" xmlns="http://www.w3.org/2000/svg" xmlns:xlink="http://www.w3.org/1999/xlink" viewBox="0 0 1500 1500"><defs><style>.cls-1{fill:url(#linear-gradient);}.cls-2{fill:url(#linear-gradient-2);}.cls-3{fill:#ff7749;}.cls-4{fill:#ffa476;}.cls-5{fill:#fff;}</style><linearGradient id="linear-gradient" x1="461.14" y1="1359.7" x2="456.6" y2="748.9" gradientUnits="userSpaceOnUse"><stop offset="0" stop-color="#fff"/><stop offset="0.5" stop-color="#c42f12"/></linearGradient><linearGradient id="linear-gradient-2" x1="1144.12" y1="1255.97" x2="1144.12" y2="379.75" xlink:href="#linear-gradient"/></defs><title>Kid Talk</title><path class="cls-1" d="M742.15,1031.35c-6.26-6.7-14.06-13.36-15.5-15-10.79-12.56-21.34-29.63-28.58-44.51a216.26,216.26,0,0,1-18-55.13c-3.23-17.44-1-36.46-5-53.23-4.23-17.85-9.61-32.64-7.89-51.56.37-4.14,13-47.28,14.89-45.63a364.84,364.84,0,0,1-59.36-67.8c-33.07,22.93-67.23,51.53-104.67,68.1-99.56,44.07-245.2,22.16-305.44-73.88C166.06,795.34,154.06,913.33,179,1023.27c23,101.56,89.25,242,187.5,291.24,4.94,9.06,11.81,17,21.07,22.17q24.75,13.9,48.9,28.87c10.29,6.39,20.31,13.7,31,19.34,7.18,3.79,15.5,10.57,23.31,12.93,3.36,1,6.93,1,10.43,1.29,21.73,1.68,38.4,16.5,58.23,23.65,23.88,8.61,44.7-5.13,68.77,5.73-4.24-31.59-4.12-63.59-4-95.47.09-22,3.92-43.72,9.87-64.84s8-42.59,15-63.51a394.4,394.4,0,0,1,100.43-158.76C752.15,1043.41,747.77,1037.36,742.15,1031.35Z"/><path class="cls-2" d="M1325.22,773c-7.44-45.09-11.4-90.79-29.45-134.19-22.06-53.07-42.2-110.7-79.18-155.89-6.67-20.73-13.48-41.42-20.67-62-17.49-50.06-98-59.39-111.19,0-9.89,44.71-52.82,63.66-93.2,75.45-52,15.17-44.68,97.88-43.7,138.75,1.65,69.28,45,108.26,70.93,170.12,20.06,47.85,7.36,91.72-2.14,140.54-6,31-9.74,60.69,5.39,90,10.25,19.83,27,36.74,40.83,54.11,29.88,37.61,57.47,77.76,70.71,124.37,5.76,20.29,24.49,34.72,44.34,39.89,12.64,3.29,15.43,3,22.47-6.27,7.31-9.65,16.62-18.35,23.14-28.55,3.53-5.53,5.88-11.78,9.74-17.08,4-5.48,9.48-9.76,13.41-15.3,7.3-10.29,15.83-21.42,22.12-31.94,8.88-14.85,13.23-35.36,18.88-51.71,11.75-34,22.32-68.34,31.47-103.09,15.24-57.92,31.54-122.1,15.73-180.93C1330.76,803.92,1327.78,788.47,1325.22,773Z"/><path class="cls-3" d="M1162.36,1238.75c-.58-1.69-1.3-3.19-1.9-4.84-3.73-16.62-10.8-32.87-19.74-47.81a54.21,54.21,0,0,0-26.19-22.77c-16.26-36.28-34-71.87-53.75-106.44-5.2-9.12-22-28.28-33.78-28.59-7.46-.2-22.89,15.68-30.83,20.69-63.46,40-136.56,52.36-204.6,12.54-27.23-15.94-62.66-5.94-78.88,20.69-54.79,90-106.09,189.69-99.53,298.18,1.88,31.09,25.15,57.66,57.65,57.66a55.65,55.65,0,0,0,18.68-3.41,74.21,74.21,0,0,0,29.7-3c20.23,4.09,42.55,2.21,62.73,1.26a873.86,873.86,0,0,0,108-12.25c40.33-7,80.25-16.78,118.9-30.33,36.72-12.87,68.79-38.74,99.39-62.43q16.36-12.65,32.16-26c5.28-4.47,11.52-8.8,16.13-14,3.64-4.07,4.07-8.16,5.14-13.62C1165.87,1263.9,1166.85,1251.89,1162.36,1238.75Z"/><path class="cls-3" d="M1178.36,1234.33c-10.18-25.91-15.83-54.51-37.71-74-3.71-3.3-9.48-5.44-12.73-9-4.29-4.65-6.35-12.44-9-18.09q-11.82-25.2-24.72-49.86c-16.66-31.76-47.21-93.75-90.57-61.25-46.19,34.63-102.61,57.24-161,42.65-26.44-6.61-48.87-26.36-76.57-27.44a76.94,76.94,0,0,0-58.67,24.42c-19.05,20.6-32.16,50.37-45.26,74.9a726.62,726.62,0,0,0-37,79.88c-20.34,52.62-38.4,119.61-27,176.33,4.26,21.28,17.19,40.77,36,51.84,22.33,13.12,45.84,9.08,70.28,6.52,28.11-2.94,56.64-.47,85.16-2.15a925.73,925.73,0,0,0,97-11.14c68.21-11.29,137.06-27.63,194-68.46,26.43-19,52.09-39.36,77-60.34,22.07-18.63,28.49-47.17,20.8-74.84-5.72-20.54-37.75-11.82-32,8.83,7.7,27.66-9,39.9-28.36,55.83-20.28,16.66-41,33.08-62.71,47.9-43.88,30-95.62,43.15-147.18,53.55-52.55,10.6-107.36,17.82-161.07,17.15-10.86-.14-21.53-2.7-32.25-1.94a317.06,317.06,0,0,0-35.64,4.79c-23.5,4.43-43.37-10.91-48.45-33.7-10.63-47.78,6.5-106.51,22.71-151.16C671,1187,696,1140.48,723.29,1096.74c10.72-17.15,27.23-30.44,48.84-25.27,11,2.63,20.69,9.94,31,14.51a185.11,185.11,0,0,0,37.51,12.38c45.23,9.44,91,1.24,132.56-17.93,11.3-5.21,22.61-11,32.85-18.13,6.77-4.69,12.6-11.6,19.83-15.51,6-3.26-2-4.23,4.32.43a65.47,65.47,0,0,1,11.54,11.27c8.25,10.17,14,23.15,20.14,34.64q11.22,21,21.6,42.54c5.37,11.1,10.6,30.84,19.37,39.39,2.69,2.63,5.43,3,8.37,5,8.7,5.8,13.71,11.82,18.93,20.94,7.72,13.46,10.68,28,16.25,42.2C1154.07,1262.82,1186.18,1254.26,1178.36,1234.33Z"/><path class="cls-4" d="M880.33,643.71c86.91,2.52,169.52,61.69,199.87,143.18,25.38,68.13,14.09,148.75-29.12,207.23s-117,92.94-189.59,88.42C789.26,1078,720.55,1035,684.93,972c-17.3-30.6-26.54-65.51-27.64-100.6C653.41,746.67,752.64,640,880.33,643.71Z"/><path d="M880.33,660.31c81.65,3.57,159.66,58.74,186,137,28.62,85-2.41,183.45-77.59,233.52-71.55,47.65-164.26,46.4-233.74-4.63-72.24-53.05-98.77-149-68.85-232.73C715.42,711.68,794.1,659,880.33,660.31c21.36.34,21.37-32.85,0-33.19-90.55-1.43-175.26,49.13-215,131-44,90.57-27.7,203.83,45.83,274.29a236.74,236.74,0,0,0,272.91,39.71c91.93-47.58,140-151.46,122.19-252.64-19-107.88-118.18-187.69-225.91-192.4C859,626.19,859,659.38,880.33,660.31Z"/><path class="cls-4" d="M723.23,261.19C726.66,206,748.12,154,792,117.47c49.86-41.48,124.74-68,189.78-57.32,92.8,15.3,171.11,93.3,189.63,185.51s-22.22,192.89-97.93,248.69c-46.53,34.3-106.52,52.31-163.35,41.73C792.82,514.24,715.83,380.49,723.23,261.19Z"/><path d="M739.83,261.19c3.55-47.45,21.17-92.73,56.54-125.5,34.82-32.25,82.42-53.38,129.31-59.6,88.94-11.78,174,44,212.43,122.6,39.23,80.21,21,179.44-36.14,246.42-60.87,71.3-165.52,102.57-248.67,51.12-77.81-48.15-118-146-113.47-235,1.09-21.35-32.1-21.29-33.19,0-4.78,93.49,35.5,192.37,110.44,250.08,88.55,68.19,209.57,51.61,289.3-22.81,74.48-69.53,107.4-184.27,71.35-281-34.31-92.1-124.25-165.64-224.81-166.23-61.3-.35-123,24.12-170.22,62.55-48,39.08-71.53,96.83-76.06,157.44C705,282.5,738.24,282.4,739.83,261.19Z"/><path d="M936.05,841l39.46,69.16c4.3,7.54,15.23,10.77,22.71,6s10.55-14.63,5.95-22.7l-39.46-69.17c-4.3-7.54-15.22-10.77-22.7-6s-10.56,14.63-6,22.71Z"/><path class="cls-3" d="M962.35,857.52a722.43,722.43,0,0,0-170.82-21.68c-.16,26.73-.23,54,8.28,79.37S827.12,964,853,970.82c26.93,7.08,56-5.4,75.88-24.85s32.5-45,44.7-70"/><path d="M966.77,841.52a755.78,755.78,0,0,0-175.24-22.27c-9-.08-16.55,7.67-16.6,16.59-.18,33.11.37,67.13,14.5,97.75,11.65,25.26,34,47.95,61.92,53.9,30.9,6.57,61.79-5.62,85-25.87,23.62-20.6,38-49.63,51.54-77.31,3.93-8,2.19-17.95-6-22.71-7.3-4.26-18.76-2.13-22.71,6-11,22.63-22.15,46.24-39.92,64.49-14.82,15.23-37.18,27.79-59.12,23.43-20.22-4-34.88-21.37-42.53-39.64-10.47-25-9.67-53.42-9.53-80l-16.59,16.6a716,716,0,0,1,166.41,21.08c20.73,5.15,29.58-26.85,8.83-32Z"/><path d="M945.29,480c24.08,6.55,49.35-.6,69.34-14.76,20.52-14.53,35.26-34.43,49.55-54.81,5-7.13,1.52-18.76-6-22.71-8.5-4.49-17.37-1.65-22.7,6-2.89,4.12-5.79,8.24-8.77,12.3-.87,1.19-1.76,2.38-2.64,3.57-.25.33-1.67,2.17-.65.87q-2.46,3.15-5,6.19c-3.24,3.84-6.62,7.56-10.21,11.07q-2.62,2.58-5.41,5c-.81.7-1.64,1.39-2.47,2.07-2.27,1.87,3-2.13-1.14.89A102.48,102.48,0,0,1,987.44,443c-1,.51-1.93,1-2.91,1.48-.44.22-3.73,1.66-1.25.64-2,.82-4,1.53-6.11,2.15-2.31.7-4.71,1.05-7,1.71s2.21-.09-.34.09c-1.33.1-2.66.24-4,.28-2.15.06-4.28,0-6.43-.18,2.42.17-.13,0-1.23-.24-1.36-.28-2.69-.62-4-1-8.37-2.27-18.42,2.84-20.42,11.59s2.63,18,11.6,20.42Z"/><path class="cls-4" d="M274.72,753C145.87,656,125.3,458.07,237.6,340c52.61-55.32,129-85.63,204-80.94C511,263.39,580,299.14,617.18,359.72c24.44,39.78,34.18,87.35,38.14,134.26,4.74,56.1,1.44,114.49-21.83,165.43-45.47,99.48-164.13,150.43-269.08,131C332.39,784.45,301,772.72,274.72,753Z"/><path d="M283.09,738.62c-70.83-54.47-107.72-143.83-101.3-232.32,6.87-94.7,67.65-180.13,156.84-214.46,97.66-37.6,220.22-8.67,271.12,88.42,27,51.51,32.91,115.44,30.5,172.68-2.24,53.42-17,107-53.11,147.57-74.31,83.47-212.07,104.41-304,38.11-17.35-12.51-33.94,16.27-16.75,28.66,92.8,66.89,228,53.75,315.24-16,100.12-80,111.1-229.71,74.44-345.06-37.38-117.65-157.19-180.45-276.54-160-111.71,19.1-202.13,108.13-225.12,218.62-23.67,113.71,20.1,231.82,112,302.47C283.26,780.29,299.81,751.47,283.09,738.62Z"/><path d="M192,675.13c-76.61,165.6-64.12,368.29,36.58,521.39,86.46,131.47,229.64,216,382.05,247.66,157.37,32.64,321.58,11.59,459.64-72.89,134-82,238.21-215.88,273.44-370.11C1394.93,776.81,1295.54,554.58,1184,365c-10.82-18.4-39.52-1.71-28.66,16.75,93.94,159.71,180,340,167.92,530.09-10,157.8-96,302.9-221.11,397.61-120.62,91.3-267.94,128.25-417.68,112.86-145.8-15-289.66-79.06-387.34-190.1-128-145.49-157.72-364.92-76.56-540.34,8.91-19.26-19.69-36.14-28.66-16.76Z"/><path d="M611,710.2l53.92,60.4c5.8,6.5,17.64,6.35,23.47,0,6.37-6.93,6.19-16.54,0-23.47l-53.92-60.4c-5.79-6.5-17.64-6.35-23.47,0-6.36,6.93-6.18,16.54,0,23.47Z"/><path d="M962.07,647.1l7.63-106c.62-8.68-8.08-17-16.6-16.6-9.53.43-15.93,7.3-16.6,16.6l-7.63,106c-.62,8.67,8.08,17,16.6,16.59,9.53-.42,15.93-7.3,16.6-16.59Z"/><path d="M737.82,1034.17c-107.48,90-145.86,253.61-133.62,387.92,1.92,21.09,35.13,21.3,33.19,0-11.52-126.47,22.48-279.52,123.89-364.45,16.4-13.73-7.19-37.1-23.46-23.47Z"/><path d="M1015.82,1047.69c67,60.62,115,136.29,138.77,223.65,5.6,20.59,37.62,11.85,32-8.82-25.16-92.57-76.26-174-147.31-238.3-15.81-14.3-39.35,9.1-23.47,23.47Z"/><path class="cls-5" d="M508.68,893.14l76.09,5.68c8.68.64,17-8.1,16.6-16.6-.43-9.54-7.3-15.9-16.6-16.59L508.68,860c-8.67-.65-17,8.09-16.59,16.59.43,9.55,7.3,15.91,16.59,16.6Z"/><path class="cls-5" d="M522.27,988.56a213.93,213.93,0,0,0,73.45-30c7.28-4.72,11-14.94,5.95-22.71-4.69-7.27-14.91-11-22.7-6-5.2,3.36-10.53,6.51-16,9.39q-4.38,2.31-8.87,4.39c-1.13.52-2.25,1-3.39,1.52-.75.34-1.51.67-2.27,1q3.11-1.31.54-.25a219.81,219.81,0,0,1-35.52,10.62c-8.52,1.72-14.22,12.29-11.59,20.41,2.93,9,11.28,13.44,20.41,11.59Z"/><path class="cls-5" d="M584.16,1068.36q5.25-8.65,11.11-16.9,1.59-2.24,3.23-4.42l1.32-1.75c1.54-2,.28-1.07-.26.32.51-1.32,2.16-2.73,3.08-3.85,1.15-1.42,2.31-2.82,3.49-4.22a269.47,269.47,0,0,1,28.93-29.2c6.58-5.7,6.28-17.7,0-23.47-7-6.43-16.45-6.08-23.47,0a282.12,282.12,0,0,0-56.09,66.74c-4.51,7.43-1.88,18.56,6,22.7,8.07,4.26,17.9,2,22.71-6Z"/><path d="M374.28,629.38c10.24,39.22,46.46,66.14,83.89,77.14C494,717,539.22,714,564.34,683c5.64-7,6.8-16.67,0-23.47-5.84-5.84-17.8-7-23.47,0a65.31,65.31,0,0,1-7.82,8.13c-2.79,2.42,1.1-.61-1.7,1.26-1.77,1.18-3.57,2.29-5.44,3.3-4.55,2.47-10,4.32-17.46,5.71-1.09.21-2.19.39-3.3.55,1.35-.2,1.42-.23.22-.09-2,.18-4,.33-6,.4a106.73,106.73,0,0,1-11.31-.22A98.39,98.39,0,0,1,467,674.52c-13.67-4-28.33-11.5-38.53-20.38-11.53-10-18.7-20.28-22.18-33.58-5.39-20.65-37.41-11.9-32,8.82Z"/><path d="M806.71,715.27c-42.27,0-42.33,58.17,0,58.17S849.05,715.27,806.71,715.27Z"/><path d="M950.38,729.06c-45.76,0-45.83,58.17,0,58.17S996.22,729.06,950.38,729.06Z"/><path d="M866,378c-42-39.74-82.63,3.06-40.57,42.86S908.07,417.85,866,378Z"/><path d="M969.7,324.69c-42-39.75-82.63,3.05-40.57,42.86S1011.76,364.5,969.7,324.69Z"/><path d="M478.34,550.37c25.9-51.47-26.6-78-52.53-26.43S452.4,601.93,478.34,550.37Z"/><path d="M592.6,573.86c25.89-51.47-26.6-78-52.54-26.43S566.66,625.42,592.6,573.86Z"/></svg>