<svg id="Layer_1" data-name="Layer 1" xmlns="http://www.w3.org/2000/svg" viewBox="0 0 1500 1500"><defs><style>.cls-1{fill:#ffa476;}.cls-2{fill:#006838;}.cls-3{fill:#f4b5a6;}</style></defs><title>Kid Talk</title><ellipse class="cls-1" cx="750" cy="749.6" rx="692.83" ry="698.63"/><path class="cls-2" d="M273.93,1225.23S466.74,1422.56,750,1422.56s449.41-172.12,449.41-172.12-47.52-189.93-309.59-174.81S399.3,990.46,273.93,1225.23Z"/><path d="M257.21,1242C342.38,1328.63,462,1391.26,578,1422.85c185.16,50.39,388.85,16.57,549.93-87,29.21-18.78,66.14-40.86,88.11-68.62,18.45-23.31-9.67-64.55-22.75-84.51-32.9-50.21-81-86.86-136.78-108.39-91.6-35.32-190.71-18.23-286.31-22-99.62-3.9-201.45-18.63-300.51-.89C373,1068.79,300.22,1128,253.52,1213.3c-14.62,26.71,26.2,50.6,40.83,23.87,38.73-70.74,95-120.17,174.81-137.51,76.73-16.69,157.93-8,235.52-3.41,44.35,2.64,88.75,4.94,133.2,4.64,46.42-.31,92.72-5.47,138.94,1.41,61.28,9.13,119.24,35.8,160,83.33,18.54,21.65,33.65,47,39.83,71.1l6.08-23c-71.7,73.78-177.13,121.85-275.24,146.15-181.23,44.89-367.26,5.17-522-96.45-33.44-22-66.68-46.27-94.83-74.91C269.29,1186.77,235.86,1220.22,257.21,1242Z"/><path d="M773.92,462.2c-13.17-36-24.33-74.35-28-112.61-1.49-15.51-2.5-32.72,3.82-47.42,5.6-13,16.68-21,28.92-27.27,25.45-13,60.63-16,82.78,4.8,17.54,16.51,17.84,43.93-3.35,55.07-26.94,14.17-3.07,55,23.87,40.84,30.67-16.13,45.19-53.36,37.75-86.54-7.57-33.72-37.63-59.94-70.42-68.16-36.93-9.27-80.11.39-110.55,23.08C707,267.66,695.57,303.62,698,342.24c2.87,45,14.84,90.32,30.3,132.53,4.38,12,16,20.1,29.08,16.52,11.55-3.18,20.93-17,16.52-29.09Z"/><path class="cls-3" d="M572.05,1103.06c-168.47-126.75-195.37-385.58-48.53-540,68.78-72.33,168.68-112,266.73-105.83,90.74,5.68,180.93,52.43,229.59,131.65,31.95,52,44.69,114.21,49.87,175.55,6.2,73.35,1.88,149.7-28.56,216.3-59.45,130.08-214.6,196.7-351.83,171.26C647.46,1144.26,606.41,1128.91,572.05,1103.06Z"/><path d="M584,1082.64c-199.1-153.39-167.27-492.77,76.85-582.39,126.69-46.52,284-7.56,348.55,118.28,34.55,67.36,41.93,150.49,38.56,225.07-3.2,71-23.82,141.3-73,194.19-97.55,104.89-273.07,129.55-390.95,44.85-24.75-17.78-48.39,23.22-23.87,40.83,120.58,86.64,295.69,71.19,410.35-17.92,134.33-104.4,150.09-299.89,102.92-453.4-47.84-155.69-205.07-240.09-362.79-213.92-146.78,24.35-266.18,140.4-297.3,285.3C381,873.84,438.7,1029.94,560.11,1123.47,584.21,1142,607.78,1101,584,1082.64Z"/><path d="M699.29,811.6C700.82,686.55,573.2,684.8,571.67,810,570.14,935.08,697.76,936.86,699.29,811.6Z"/><path d="M972.75,811.6c1.53-125.05-126.09-126.8-127.62-1.56C843.6,935.08,971.22,936.86,972.75,811.6Z"/><path d="M683.21,961.05c10.65,39.56,44.82,70.52,86.08,73.72,38.61,3,79.21-25.74,86.71-64.16,2.37-12.1-3.41-26.1-16.51-29.09-11.71-2.66-26.55,3.54-29.09,16.52-.33,1.7-.69,3.38-1.17,5-.34,1.18-1.37,6.7,0,.78-.65,2.75-3,5.9-4.54,8.19-2.88,4.28-.14-.14.1,0,0,0-3.33,3.65-3.48,3.8-1.22,1.22-2.53,2.33-3.8,3.5-3.2,3,2.39-1.41,0,0-2.75,1.61-5.42,3.32-8.21,4.88-4.92,2.75,4.61-1.42-.74.38-1.65.55-3.28,1.14-5,1.61-1.39.39-2.8.73-4.22,1-3.79.79-1.54,1.23.28.1-2.12,1.32-7.93.26-10.39.15-4.47-.2,3,.78.1,0-1.73-.46-3.51-.73-5.24-1.2-1.44-.4-2.85-.9-4.27-1.33-5.54-1.67,4.2,2.26-1-.35a82,82,0,0,1-8.57-4.85c-.62-.41-5.19-4-2.7-1.85s-1.25-1.18-1.75-1.63a94.25,94.25,0,0,1-7.5-7.85c-2.89-3.34,1.28,2.15-.17-.26-.77-1.29-1.71-2.5-2.51-3.78a96.06,96.06,0,0,1-5.12-9.61c1.71,3.59.54,1.23-.25-1.1-.57-1.72-1.07-3.46-1.54-5.21-3.21-11.94-17-20.43-29.08-16.51s-20,16.29-16.52,29.08Z"/></svg>