<svg id="Layer_1" data-name="Layer 1" xmlns="http://www.w3.org/2000/svg" viewBox="0 0 1500 1500"><defs><style>.cls-1{fill:#ffa476;}.cls-2{fill:#cc0070;}.cls-3{fill:#f2d3a5;}</style></defs><title>Kid Talk</title><ellipse class="cls-1" cx="750" cy="749.6" rx="694.86" ry="700.67"/><path class="cls-2" d="M272.54,1226.63s193.37,197.9,477.46,197.9,450.72-172.62,450.72-172.62-47.65-190.49-310.49-175.33S398.27,991.16,272.54,1226.63Z"/><path d="M255.77,1243.39c85.42,86.93,205.34,149.75,321.75,181.43,185.7,50.54,390,16.62,551.54-87.25,29.29-18.83,66.33-41,88.36-68.82,18.5-23.39-9.69-64.74-22.81-84.76-33-50.36-81.21-87.12-137.18-108.71-91.87-35.43-191.27-18.28-287.15-22-99.92-3.92-202-18.69-301.39-.9-97,17.38-170,76.76-216.83,162.31-14.66,26.78,26.28,50.74,40.95,23.93,38.85-70.94,95.34-120.52,175.33-137.91,76.95-16.73,158.39-8,236.2-3.41,44.49,2.64,89,5,133.59,4.65,46.56-.31,93-5.49,139.35,1.42,61.46,9.15,119.6,35.9,160.43,83.57,18.6,21.71,33.75,47.1,39.95,71.31l6.09-23.08c-71.9,74-177.64,122.2-276,146.58-181.76,45-368.34,5.18-523.5-96.73-33.53-22-66.88-46.41-95.1-75.13C267.88,1188.05,234.35,1221.59,255.77,1243.39Z"/><path d="M774,461.36c-13.21-36.07-24.4-74.57-28.08-112.94-1.49-15.55-2.51-32.82,3.83-47.56,5.62-13.07,16.73-21.07,29-27.35,25.52-13.06,60.8-16.1,83,4.81,17.59,16.56,17.89,44.06-3.36,55.24-27,14.21-3.08,55.16,23.93,40.95,30.76-16.18,45.33-53.51,37.87-86.79-7.59-33.82-37.74-60.11-70.63-68.36-37-9.3-80.35.39-110.87,23.15-31.83,23.73-43.3,59.8-40.84,98.54,2.88,45.16,14.88,90.58,30.38,132.92,4.4,12,16.1,20.15,29.17,16.56,11.59-3.18,21-17.08,16.57-29.17Z"/><path class="cls-3" d="M571.53,1104.09c-169-127.12-195.94-386.7-48.68-541.56C591.84,490,692,450.24,790.36,456.4c91,5.69,181.47,52.58,230.27,132,32,52.17,44.82,114.55,50,176.07,6.21,73.57,1.88,150.14-28.64,216.94-59.63,130.46-215.24,197.27-352.87,171.76C647.16,1145.41,606,1130,571.53,1104.09Z"/><path d="M583.5,1083.62C383.81,929.78,415.73,589.4,660.57,499.52c127.06-46.65,284.82-7.58,349.57,118.63,34.65,67.55,42.05,150.92,38.68,225.73-3.21,71.2-23.9,141.71-73.23,194.75-97.83,105.2-273.87,129.93-392.09,45-24.83-17.84-48.54,23.28-23.94,41,120.93,86.89,296.55,71.39,411.54-18,134.73-104.7,150.54-300.76,103.23-454.73-48-156.14-205.67-240.79-363.85-214.54-147.21,24.42-267,140.8-298.17,286.13-32.38,150.75,25.48,307.31,147.25,401.12C583.72,1143.19,607.36,1102,583.5,1083.62Z"/><path d="M699.14,811.78c1.54-125.41-126.46-127.17-128-1.57C569.61,935.63,697.6,937.41,699.14,811.78Z"/><path d="M973.41,811.78c1.53-125.41-126.46-127.17-128-1.57C843.87,935.63,971.87,937.41,973.41,811.78Z"/><path d="M683,961.67c10.67,39.67,45,70.72,86.33,73.93,38.72,3,79.44-25.81,87-64.34,2.37-12.14-3.43-26.18-16.57-29.18-11.74-2.67-26.63,3.55-29.17,16.57-.33,1.7-.69,3.39-1.17,5.06-.34,1.17-1.38,6.72,0,.78-.66,2.76-3,5.91-4.56,8.21-2.89,4.29-.14-.14.1,0,0,0-3.34,3.66-3.49,3.81-1.22,1.23-2.54,2.34-3.81,3.52-3.21,3,2.39-1.42,0,0-2.76,1.61-5.44,3.32-8.23,4.88-4.94,2.76,4.62-1.42-.74.39-1.66.55-3.3,1.14-5,1.61-1.4.4-2.81.74-4.23,1-3.8.79-1.55,1.23.28.1-2.13,1.32-8,.26-10.42.15-4.49-.21,3,.78.1,0-1.74-.46-3.53-.73-5.26-1.21-1.45-.4-2.85-.9-4.28-1.33-5.56-1.67,4.21,2.26-1-.35a83.44,83.44,0,0,1-8.59-4.86c-.62-.41-5.21-4.06-2.71-1.86s-1.25-1.19-1.75-1.64a93.13,93.13,0,0,1-7.52-7.87c-2.91-3.35,1.28,2.16-.17-.26-.78-1.29-1.72-2.5-2.52-3.79a94.43,94.43,0,0,1-5.13-9.63c1.71,3.59.53,1.23-.25-1.11-.58-1.72-1.08-3.47-1.55-5.22-3.22-12-17-20.5-29.17-16.57s-20,16.34-16.56,29.17Z"/></svg>