<svg id="Layer_1" data-name="Layer 1" xmlns="http://www.w3.org/2000/svg" viewBox="0 0 1500 1500"><defs><style>.cls-1{fill:#ffa476;}.cls-2{fill:#cc0070;}.cls-3{fill:#d88d3d;}</style></defs><title>Kid Talk</title><ellipse class="cls-1" cx="750" cy="749.6" rx="695.73" ry="701.55"/><path class="cls-2" d="M271.94,1227.22S465.56,1425.37,750,1425.37s451.29-172.83,451.29-172.83S1153.58,1061.81,890.41,1077,397.83,991.47,271.94,1227.22Z"/><path d="M255.15,1244c85.52,87,205.59,149.94,322.15,181.66,185.94,50.6,390.48,16.64,552.24-87.36,29.32-18.86,66.41-41,88.47-68.91,18.52-23.41-9.71-64.82-22.84-84.87-33-50.42-81.32-87.22-137.36-108.84-92-35.47-191.51-18.3-287.5-22.06-100-3.92-202.3-18.71-301.78-.9-97.14,17.4-170.2,76.86-217.09,162.51-14.69,26.82,26.31,50.81,41,24,38.89-71,95.45-120.67,175.55-138.09,77-16.75,158.59-8,236.5-3.41,44.54,2.64,89.12,5,133.75,4.65,46.62-.31,93.12-5.49,139.53,1.42,61.53,9.16,119.74,36,160.63,83.68,18.62,21.73,33.79,47.16,40,71.39l6.11-23.1c-72,74.08-177.87,122.36-276.39,146.76-182,45.08-368.8,5.19-524.15-96.85-33.58-22.06-67-46.46-95.23-75.23C267.28,1188.6,233.7,1222.19,255.15,1244Z"/><path class="cls-3" d="M571.3,1104.54C402.13,977.26,375.12,717.35,522.57,562.3,591.64,489.67,692,449.87,790.41,456c91.13,5.7,181.7,52.65,230.56,132.19,32.08,52.23,44.87,114.69,50.08,176.29,6.22,73.66,1.89,150.33-28.68,217.21-59.7,130.62-215.5,197.52-353.3,172C647,1145.91,605.81,1130.5,571.3,1104.54Z"/><path d="M583.29,1084c-199.94-154-168-494.84,77.16-584.84,127.22-46.7,285.19-7.59,350,118.78,34.7,67.64,42.11,151.12,38.73,226-3.21,71.29-23.92,141.89-73.31,195-98,105.32-274.22,130.09-392.59,45-24.86-17.86-48.6,23.31-24,41,121.08,87,296.92,71.48,412.06-18,134.9-104.84,150.73-301.14,103.35-455.3-48-156.34-205.92-241.1-364.3-214.82-147.4,24.46-267.3,141-298.55,286.5C379.46,874.36,437.4,1031.11,559.32,1125,583.51,1143.68,607.18,1102.45,583.29,1084Z"/><path d="M699.08,811.86c1.53-125.57-126.62-127.33-128.16-1.57C569.38,935.86,697.54,937.64,699.08,811.86Z"/><path d="M973.69,811.86c1.53-125.57-126.62-127.33-128.16-1.57C844,935.86,972.15,937.64,973.69,811.86Z"/><path d="M682.93,961.94c10.69,39.72,45,70.81,86.44,74,38.78,3,79.54-25.85,87.08-64.43,2.37-12.15-3.43-26.21-16.59-29.2-11.75-2.68-26.66,3.54-29.2,16.58-.34,1.71-.7,3.39-1.18,5.07-.34,1.17-1.38,6.72,0,.78-.66,2.76-3,5.92-4.57,8.22-2.89,4.3-.13-.14.11,0,0,0-3.34,3.66-3.49,3.82-1.23,1.23-2.55,2.34-3.82,3.52-3.21,3,2.4-1.43,0,0-2.76,1.61-5.44,3.32-8.24,4.89-5,2.76,4.63-1.43-.74.38-1.66.56-3.3,1.15-5,1.62-1.4.4-2.81.73-4.24,1-3.8.79-1.54,1.24.29.1-2.13,1.32-8,.26-10.44.15-4.49-.21,3,.78.1,0-1.74-.46-3.53-.74-5.27-1.21-1.44-.4-2.85-.91-4.28-1.34-5.56-1.67,4.22,2.27-1-.34a86.7,86.7,0,0,1-8.6-4.87c-.62-.41-5.22-4.06-2.71-1.86s-1.26-1.19-1.76-1.64a93.56,93.56,0,0,1-7.53-7.89c-2.9-3.35,1.28,2.16-.17-.25-.77-1.3-1.72-2.51-2.52-3.8a94.82,94.82,0,0,1-5.14-9.65c1.72,3.61.54,1.24-.25-1.11-.58-1.72-1.07-3.47-1.54-5.22-3.23-12-17.06-20.52-29.21-16.59s-20,16.36-16.59,29.21Z"/><path d="M705.15,475.09c27,21.76,53.21,45.78,75.05,72.85,8.73,10.81,16.87,23.21,21.46,36.39s5.42,23.81,2,36.06c-2.79,9.87-8.08,18.25-15.74,23-7.25,4.51-16.09,4.58-23.93.8-17.68-8.53-19.68-32.9-4.49-43.64,10.46-7.4,15.39-20.74,8.52-32.49-6-10.34-22-16-32.48-8.52-28,19.83-41.86,56.41-28.45,89.17,13.17,32.18,48.41,50.44,82.41,44.26,31.32-5.7,54.28-34.09,61-64.09,7.74-34.54-3.64-69-23.59-97.36-24.12-34.29-55.61-63.84-88.15-90-10-8-23.82-9.76-33.58,0-8.31,8.31-10,25.49,0,33.57Z"/></svg>