<svg id="Layer_1" data-name="Layer 1" xmlns="http://www.w3.org/2000/svg" viewBox="0 0 1500 1500"><defs><style>.cls-1{fill:#ffa476;}.cls-2{fill:#cc0070;}.cls-3{fill:#99501f;}</style></defs><title>Kid Talk</title><ellipse class="cls-1" cx="750" cy="749.6" rx="696.11" ry="701.93"/><path class="cls-2" d="M271.68,1227.48S465.4,1425.74,750,1425.74s451.53-172.93,451.53-172.93-47.73-190.83-311-175.64S397.64,991.6,271.68,1227.48Z"/><path d="M254.88,1244.28c85.57,87.09,205.71,150,322.33,181.76,186,50.63,390.68,16.64,552.53-87.41,29.35-18.87,66.45-41.05,88.52-69,18.54-23.42-9.71-64.86-22.85-84.91-33.06-50.45-81.36-87.28-137.43-108.9-92-35.49-191.61-18.32-287.66-22.08-100.1-3.92-202.41-18.72-301.94-.89-97.19,17.4-170.29,76.89-217.21,162.59-14.69,26.84,26.32,50.84,41,24,38.92-71.07,95.51-120.73,175.64-138.16,77.09-16.76,158.68-8,236.63-3.42,44.57,2.65,89.17,5,133.83,4.67,46.64-.31,93.16-5.5,139.6,1.41,61.57,9.17,119.81,36,160.72,83.72,18.63,21.75,33.81,47.19,40,71.44l6.11-23.11c-72,74.12-178,122.42-276.54,146.83-182.08,45.1-369,5.2-524.43-96.9-33.6-22.07-67-46.49-95.28-75.26C267,1188.84,233.42,1222.44,254.88,1244.28Z"/><path class="cls-3" d="M571.21,1104.73c-169.27-127.35-196.3-387.4-48.77-542.53,69.12-72.68,169.48-112.5,268-106.33,91.17,5.71,181.79,52.68,230.67,132.27,32.1,52.25,44.91,114.75,50.11,176.38,6.23,73.7,1.89,150.41-28.69,217.32-59.73,130.7-215.62,197.63-353.5,172.08C647,1146.12,605.73,1130.71,571.21,1104.73Z"/><path d="M583.2,1084.22C383.15,930.1,415.13,589.12,660.41,499.07c127.29-46.74,285.33-7.6,350.19,118.84,34.72,67.68,42.13,151.2,38.75,226.14-3.21,71.33-23.93,142-73.35,195.1-98,105.39-274.37,130.16-392.8,45.07-24.88-17.87-48.62,23.32-24,41,121.14,87,297.08,71.52,412.28-18,135-104.89,150.81-301.3,103.41-455.55-48.07-156.42-206-241.22-364.5-214.93C562.93,461.23,443,577.82,411.7,723.4c-32.44,151,25.53,307.87,147.52,401.84C583.42,1143.89,607.11,1102.64,583.2,1084.22Z"/><path d="M699.05,811.89c1.54-125.64-126.69-127.4-128.23-1.57C569.28,936,697.51,937.75,699.05,811.89Z"/><path d="M973.81,811.89c1.54-125.64-126.69-127.4-128.23-1.57C844,936,972.27,937.75,973.81,811.89Z"/><path d="M682.9,962.06c10.69,39.74,45,70.84,86.48,74.06,38.8,3,79.59-25.86,87.13-64.47,2.37-12.15-3.44-26.22-16.6-29.22-11.76-2.68-26.67,3.55-29.22,16.59-.33,1.71-.69,3.4-1.18,5.07-.34,1.18-1.37,6.73,0,.78-.66,2.77-3,5.93-4.57,8.23-2.89,4.3-.13-.14.11,0,0,0-3.34,3.67-3.5,3.82-1.22,1.23-2.54,2.34-3.81,3.52-3.22,3,2.4-1.42,0,0-2.77,1.62-5.45,3.33-8.25,4.9-5,2.76,4.63-1.43-.74.38-1.66.56-3.3,1.15-5,1.62-1.4.39-2.82.73-4.24,1-3.8.79-1.55,1.24.29.09-2.14,1.33-8,.27-10.45.16-4.49-.21,3,.78.1,0-1.74-.46-3.53-.74-5.27-1.21-1.44-.4-2.85-.91-4.29-1.34-5.56-1.67,4.23,2.27-1-.34a83.9,83.9,0,0,1-8.61-4.88c-.62-.41-5.22-4.06-2.71-1.86s-1.26-1.19-1.76-1.64a92.11,92.11,0,0,1-7.54-7.89c-2.9-3.35,1.29,2.16-.16-.25-.78-1.3-1.73-2.51-2.53-3.8a95.89,95.89,0,0,1-5.14-9.65c1.72,3.6.54,1.23-.25-1.11-.58-1.73-1.07-3.48-1.55-5.24-3.22-12-17.06-20.52-29.22-16.59-12.31,4-20,16.37-16.59,29.23Z"/><path d="M705.13,475c27,21.76,53.23,45.8,75.08,72.88,8.74,10.82,16.89,23.22,21.47,36.41s5.43,23.82,2,36.08c-2.79,9.88-8.08,18.26-15.75,23-7.25,4.51-16.09,4.58-23.94.79-17.69-8.54-19.69-32.91-4.49-43.66,10.46-7.4,15.4-20.75,8.52-32.51-6-10.34-22-16-32.5-8.52-28,19.83-41.88,56.44-28.47,89.21,13.19,32.21,48.44,50.48,82.46,44.29,31.34-5.7,54.31-34.11,61-64.12,7.75-34.57-3.64-69.05-23.6-97.42-24.13-34.31-55.64-63.87-88.19-90.06-10-8-23.84-9.76-33.6,0-8.32,8.32-10,25.51,0,33.6Z"/></svg>