<svg id="Layer_1" data-name="Layer 1" xmlns="http://www.w3.org/2000/svg" viewBox="0 0 1500 1500"><defs><style>.cls-1{fill:#ffa476;}.cls-2{fill:#003fcc;}.cls-3{fill:#f4b5a6;}.cls-4{fill:#fff471;}</style></defs><title>Kid Talk</title><ellipse class="cls-1" cx="750" cy="749.6" rx="690.01" ry="695.79"/><path class="cls-2" d="M272.24,1223.3s192,196.52,474.13,196.52S1194,1248.41,1194,1248.41s-47.32-189.17-308.33-174.11S397.09,989.48,272.24,1223.3Z"/><path d="M255.59,1240c84.82,86.33,203.9,148.7,319.5,180.16,184.41,50.19,387.27,16.5,547.7-86.64,29.09-18.7,65.87-40.69,87.74-68.34,18.38-23.22-9.62-64.29-22.65-84.17-32.76-50-80.64-86.51-136.22-108-91.23-35.18-189.94-18.15-285.15-21.88-99.22-3.89-200.64-18.55-299.29-.89-96.35,17.25-168.81,76.23-215.32,161.17-14.56,26.6,26.1,50.4,40.67,23.78,38.57-70.46,94.67-119.69,174.1-137,76.41-16.61,157.29-8,234.56-3.38,44.17,2.62,88.39,4.91,132.66,4.62,46.23-.31,92.35-5.46,138.38,1.4,61,9.09,118.76,35.65,159.31,83,18.47,21.56,33.51,46.77,39.66,70.81l6.06-22.91c-71.41,73.47-176.4,121.35-274.12,145.55-180.49,44.71-365.77,5.15-519.85-96.06-33.3-21.87-66.41-46.08-94.44-74.6C267.61,1185,234.32,1218.3,255.59,1240Z"/><path class="cls-3" d="M613.35,1014.34l-.73,80.74c0,5.75,0,11.81,2.86,16.78,2.15,3.7,5.66,6.39,9.14,8.9,36.7,26.6,79.78,45.87,125,48.77s92.62-12,123.74-45c5.2-5.5,10-11.64,12.24-18.88,1.83-5.93,1.8-12.24,1.76-18.44l-.39-58.82"/><path d="M589.8,1014.34c-.24,26.88-1.19,53.87-.73,80.74.2,11.74,1.78,22.28,8.63,32.06,6.54,9.34,17.24,15.8,26.62,22,37.92,24.93,81.87,41.73,127.44,44.07,41.17,2.12,84.62-9.28,117.8-34.14,17.29-13,35.34-29.52,39.82-51.59,5.07-25,1.33-53.67,1.16-79-.2-30.3-47.3-30.36-47.1,0,.14,20.37.62,40.78.39,61.15-.17,15.48-12.71,25.48-24.9,33.69-25.7,17.31-56.43,24.39-87.17,22.81-34.13-1.76-66.86-14.91-95.73-32.6-4.87-3-17-8.14-19.87-13.29-2.14-3.85.11-16.38.15-21.27l.59-64.59c.27-30.32-46.83-30.34-47.1,0Z"/><path class="cls-4" d="M422.29,660.49c-40.84-56-36.28-135.87-4.1-197.25S505.67,356,563,317.1c29.53-20,60.87-39,95.87-45.91,30.44-6,61.94-2.51,92.79-5.8,40.52-4.32,79.74-20.29,120.49-19.21,46.27,1.23,89.73,24.76,123.65,56.26s59.59,70.68,84.56,109.65c20.44,31.91,41.39,66.58,40,104.45-1.92,51.91-44.35,92-83.66,126"/><path d="M442.63,648.6c-60.2-88.25-7.5-192.61,62.09-256.69,35.33-32.52,77-63.76,120.44-84.52C672.08,285,723.26,294.31,773.09,286c50-8.39,96.95-26,146.58-5.8,48.3,19.65,84,60.57,113,102.35,25.86,37.16,66.55,86.42,64.14,134-2.36,46.51-44.33,81.11-76.77,109.31-22.91,19.92,10.52,53.11,33.31,33.3,31.31-27.23,63.14-56.8,79.67-95.7,17.45-41.05,11.06-82.69-8.16-121.89-38.15-77.82-99.85-166.07-181.37-202.07C900,220.25,856.58,220.36,810.59,230c-24.75,5.19-49,11.63-74.37,13-26.24,1.38-52.46.19-78.47,4.69-45.41,7.85-85.22,33.7-122.18,59.9-37.61,26.67-73.81,56.16-103,92.11-61.61,76-89.3,186.7-30.64,272.71,17,24.9,57.81,1.36,40.67-23.77Z"/><path class="cls-3" d="M582.58,983.06C414.79,856.83,388,599.06,534.25,445.28c68.5-72,168-111.51,265.64-105.4,90.38,5.66,180.2,52.22,228.66,131.11,31.82,51.8,44.51,113.75,49.67,174.84,6.17,73,1.87,149.09-28.44,215.42-59.21,129.55-213.73,195.9-350.4,170.57C657.68,1024.09,616.8,1008.81,582.58,983.06Z"/><path d="M594.46,962.73C396.17,810,427.87,472,671,382.7c126.17-46.32,282.84-7.53,347.13,117.8,34.41,67.09,41.76,149.88,38.41,224.16-3.19,70.71-23.72,140.73-72.71,193.4-97.15,104.46-272,129-389.37,44.67-24.65-17.71-48.19,23.12-23.77,40.67,120.09,86.28,294.49,70.89,408.68-17.86,133.79-104,149.49-298.66,102.5-451.56-47.64-155-204.23-239.11-361.31-213-146.18,24.26-265.1,139.83-296.09,284.14-32.15,149.71,25.31,305.17,146.22,398.33C594.69,1021.88,618.16,981,594.46,962.73Z"/><path d="M652.49,861.26c81.81,46.71,186.79,45.31,267-4.41,25.71-15.94,2.08-56.7-23.77-40.66-66.08,41-151.78,43-219.43,4.4-26.36-15.05-50.11,25.63-23.77,40.67Z"/><path d="M709,673.85c1.52-124.54-125.58-126.28-127.11-1.55C580.4,796.84,707.5,798.6,709,673.85Z"/><path d="M981.38,673.85c1.53-124.54-125.58-126.28-127.1-1.55C852.75,796.84,979.86,798.6,981.38,673.85Z"/><path class="cls-4" d="M645.23,382A108.84,108.84,0,0,1,621,460.5c13.48,4.92,28.6-1.05,40.2-9.49s21.38-19.39,33.84-26.5c2.46-1.41,5.43-2.67,8-1.57,2.8,1.2,3.88,4.58,4.35,7.59,3.72,24-8.49,54,10.18,69.51l91.78-89.22A244.46,244.46,0,0,0,834.1,471.9c1.95,3.4,4.37,7.06,8.18,8,5.7,1.36,10.56-4,14-8.82l34.51-48.81a193,193,0,0,0,44,52.64c3.87,3.23,8.6,6.5,13.53,5.42,5.21-1.14,8.14-6.59,10.14-11.55,15-37.44,14.68-83.5-10.6-114.95-12.56-15.64-32.43-27.08-52.23-23.83"/><path d="M621.68,382c1.5,22.14-3.34,44.11-17.29,61.89-10.45,13.32-8.33,34.42,10.39,39.36s37.38,1.25,53.84-8.83c7-4.32,13.46-9.83,19.75-15.18,3.4-2.9,6.66-6.06,10.24-8.76l3.8-2.76q8.79-5,.71-1.19l-16.66-6.89c-4.22-4.31-1.82-4.84-1.81,2.54,0,3.21-.16,6.4-.34,9.6-.42,7.85-1.23,15.72-.78,23.58.93,16,5.83,30,17.47,41.37a24,24,0,0,0,33.3,0l91.78-89.22-39.36-10.39a291.37,291.37,0,0,0,18.69,50.75c6.61,13.81,14.37,30.46,30.61,34.74,15.86,4.18,29.59-5.21,38.7-17.27,12.6-16.67,24.28-34.12,36.35-51.18H870.4c14.28,24.25,40,63.54,69.87,69.09,36.1,6.7,46.75-39.22,50.23-65.72,7.5-57.07-25.32-138.27-95-131.08-29.85,3.08-30.17,50.21,0,47.09,36.1-3.72,50.26,39,49.29,68.17a107.88,107.88,0,0,1-3.62,23.95c-.94,3.59-3.56,8.61-3.75,12.14l-1.12,2.83q21.17,1.53,12.52-4.54c-3.59-6.91-14.71-13.86-20-20a177.06,177.06,0,0,1-17.82-25.7c-9.55-16.23-30.69-14.11-40.67,0l-19.17,27.11c-3.19,4.52-6.4,9-9.58,13.56q-1.73,2.4-3.4,4.83-7.85,9.27,16.19,4.17c.58-5.55-9.69-18.59-12-24.15a245.5,245.5,0,0,1-10.3-31.31c-4.63-17.34-26.78-22.62-39.36-10.39L701,483.39h33.3c-8.07-7.87-3-26.21-2.65-36.46.54-16-1-35.49-16.65-44.32-16.19-9.13-32.82,1.29-45.49,11.2-11.19,8.76-26.36,28.16-42.21,24l10.39,39.36c21.65-27.59,33.49-59.81,31.08-95.19-2-30.08-49.15-30.31-47.09,0Z"/><path class="cls-4" d="M675.54,381.84a228.14,228.14,0,0,1-25.26-52.46c-1.11-3.34-2.15-6.9-1.33-10.31,1.55-6.5,8.82-9.58,15.19-11.59a632.45,632.45,0,0,1,164.25-28.82c11.58-.48,24-.43,33.68,5.9,10.77,7,15.76,20.23,17.95,32.89s2.3,25.8,6.46,38Q812.33,377.27,736.32,392"/></svg>