<svg id="Layer_1" data-name="Layer 1" xmlns="http://www.w3.org/2000/svg" viewBox="0 0 1500 1500"><defs><style>.cls-1{fill:#ffa476;}.cls-2{fill:#003fcc;}.cls-3{fill:#f2d3a5;}.cls-4{fill:#3b2314;}</style></defs><title>Kid Talk</title><ellipse class="cls-1" cx="750" cy="749.6" rx="691.01" ry="696.79"/><path class="cls-2" d="M271.55,1224s192.3,196.81,474.82,196.81,448.22-171.66,448.22-171.66-47.39-189.44-308.77-174.36S396.59,989.82,271.55,1224Z"/><path d="M254.87,1240.66c84.95,86.45,204.2,148.91,320,180.42,184.67,50.26,387.82,16.52,548.49-86.77,29.12-18.73,66-40.75,87.87-68.44,18.4-23.25-9.64-64.38-22.69-84.29-32.81-50.08-80.76-86.63-136.42-108.1-91.36-35.23-190.21-18.18-285.55-21.92-99.37-3.89-200.93-18.58-299.73-.89-96.48,17.28-169,76.34-215.62,161.41-14.59,26.64,26.13,50.47,40.72,23.81,38.63-70.56,94.81-119.86,174.36-137.15,76.52-16.64,157.51-8,234.89-3.4,44.24,2.63,88.52,4.92,132.85,4.63,46.3-.31,92.48-5.46,138.58,1.4,61.11,9.11,118.93,35.71,159.54,83.12,18.49,21.58,33.56,46.83,39.72,70.91l6.06-23C1106.41,1306,1001.26,1354,903.4,1378.21,722.65,1423,537.1,1383.37,382.81,1282c-33.36-21.91-66.52-46.15-94.58-74.71C266.92,1185.62,233.57,1219,254.87,1240.66Z"/><path class="cls-3" d="M613.15,1014.72l-.73,80.86c0,5.75,0,11.82,2.86,16.8,2.16,3.71,5.68,6.4,9.16,8.92,36.76,26.63,79.89,45.93,125.19,48.83s92.76-12,123.93-45c5.2-5.51,10-11.66,12.26-18.9,1.82-5.94,1.8-12.27,1.76-18.48l-.39-58.9"/><path d="M589.57,1014.72c-.24,26.92-1.2,54-.73,80.86.2,11.75,1.78,22.31,8.64,32.1,6.55,9.36,17.26,15.82,26.66,22,38,25,82,41.8,127.62,44.14,41.23,2.12,84.75-9.29,118-34.19,17.31-13,35.39-29.56,39.88-51.66,5.08-25,1.33-53.75,1.16-79.13-.2-30.34-47.37-30.41-47.16,0,.13,20.4.62,40.84.39,61.24-.18,15.5-12.74,25.52-24.94,33.74-25.73,17.34-56.51,24.42-87.3,22.84-34.18-1.76-67-14.94-95.86-32.65-4.88-3-17.06-8.15-19.91-13.3-2.13-3.86.12-16.41.16-21.3l.58-64.69c.28-30.36-46.89-30.39-47.16,0Z"/><path class="cls-3" d="M582.34,983.4C414.31,857,387.48,598.84,533.93,444.84c68.61-72.14,168.24-111.67,266-105.55,90.51,5.67,180.46,52.29,229,131.3,31.87,51.87,44.57,113.91,49.74,175.09,6.18,73.16,1.88,149.31-28.48,215.73-59.29,129.74-214,196.18-350.91,170.82C657.55,1024.49,616.61,1009.19,582.34,983.4Z"/><path d="M594.24,963c-198.58-153-166.83-491.48,76.64-580.87,126.36-46.39,283.25-7.53,347.64,118,34.46,67.19,41.82,150.1,38.46,224.49-3.19,70.81-23.76,140.93-72.81,193.67-97.3,104.62-272.36,129.21-389.93,44.74-24.69-17.74-48.26,23.15-23.8,40.72,120.26,86.41,294.91,71,409.26-17.88,134-104.12,149.7-299.09,102.65-452.21C1034.64,378.4,877.82,294.21,720.52,320.32,574.13,344.61,455,460.35,424,604.87c-32.2,149.91,25.34,305.6,146.44,398.89C594.46,1022.28,618,981.32,594.24,963Z"/><path d="M652.35,861.42c81.92,46.77,187.06,45.37,267.35-4.41,25.75-16,2.09-56.78-23.8-40.73-66.18,41-152,43.09-219.74,4.42-26.4-15.08-50.19,25.66-23.81,40.72Z"/><path d="M709,673.74C710.5,549,583.21,547.28,581.68,672.19,580.16,796.9,707.44,798.67,709,673.74Z"/><path d="M981.72,673.74C983.24,549,856,547.28,854.43,672.19,852.9,796.9,980.19,798.67,981.72,673.74Z"/><path class="cls-4" d="M657.08,443.16c-12.89,13.91-1.12,68.6,15.63,78.2s37.63,9.31,57.24,8.71l140.87-4.29c15.2-.46,31.1-1.11,44.26-8.28s6.4-81.65,0-94.62c54.61-2.15,98.32,107.06,152.13,98-3.57-66.53-54-122.18-107-166.35-26-21.67-54.65-42.61-88.63-49.43s-74.43,4.63-89.77,34c-31.11-28.25-80.13-32.93-121.66-21.59s-77.18,36.2-111,61.51c-43.87,32.8-88.28,69.66-106.4,119.54-15.58,42.89-9.59,89.72-3.43,134.67C475.93,545.74,546,471,633.69,425.85Z"/><path d="M636.72,431.26c-18.37,26.87-7.54,77.58,12.93,100.74,14.85,16.8,39.05,20.86,60.47,21.8,35.72,1.56,72.14-1.74,107.88-2.83,36.29-1.1,111.85,10.12,125-36.55,7.8-27.72,5.62-71-5.15-97.81l-22.74,29.86c29.42.67,54.62,40.24,73.47,59,21.09,21,47,42.26,78.66,39.07,11.83-1.19,24.76-9.87,23.59-23.58-7.29-84.83-68.3-149-133.19-198.38-56.88-43.26-150.76-69.15-196.21,4.64l37-4.77c-86.76-71.76-192.68-15.92-269,42.07-39.61,30.09-79.7,63.56-101.67,109.29-25.29,52.66-18.84,109.75-11.26,165.72,2.64,19.42,35.37,23.51,43.11,5.64,37.55-86.71,102.63-154.85,186-198.92h-23.8l23.39,17.3c24.41,18.07,48-22.84,23.8-40.72l-23.39-17.31c-6.78-5-16.89-3.65-23.8,0-89.56,47.36-162.5,122.56-202.9,215.84L462,627c-5.95-44-12.17-92.34,8.5-133.58,18.24-36.39,51-63.84,82.75-88.17C608,363.28,698.18,300.43,765.09,355.77c11.76,9.73,28.5,9.09,37-4.77,35.68-57.93,114.37-3,148.58,26.35,43.35,37.25,87.79,83.79,92.92,143.58l23.58-23.59c-29.8,3-54.46-35.27-72.89-54-21.92-22.31-46.5-43.27-79.24-44-14-.32-28.49,15.56-22.74,29.85,6.76,16.84,7,37.81,6.68,55.68-.07,3.73.92,10.1-.77,13.28-4.8,9,.44,1.13-6.33,2.53-19.78,4.08-42.08,2.2-62.19,2.81-39.52,1.21-80.11,5.25-119.61,3.18-17.54-.91-25.81-2.93-31.12-19.21-2.87-8.8-7.17-24.15-1.56-32.36C694.61,429.94,653.76,406.32,636.72,431.26Z"/></svg>