<svg id="Layer_1" data-name="Layer 1" xmlns="http://www.w3.org/2000/svg" viewBox="0 0 1500 1500"><defs><style>.cls-1{fill:#ffa476;}.cls-2{fill:#003fcc;}.cls-3{fill:#d88d3d;}.cls-4{fill:#3b2314;}</style></defs><title>Kid Talk</title><ellipse class="cls-1" cx="750" cy="749.6" rx="687.48" ry="693.24"/><path class="cls-2" d="M274,1221.56s191.32,195.81,472.39,195.81,445.94-170.79,445.94-170.79-47.14-188.47-307.19-173.47S398.39,988.6,274,1221.56Z"/><path d="M257.4,1238.15c84.51,86,203.16,148.16,318.33,179.51,183.73,50,385.85,16.44,545.69-86.33,29-18.63,65.63-40.54,87.43-68.09,18.3-23.14-9.59-64-22.57-83.86-32.65-49.82-80.35-86.19-135.73-107.55-90.89-35.06-189.24-18.09-284.1-21.81-98.86-3.87-199.9-18.48-298.2-.88-96,17.19-168.18,75.94-214.52,160.58-14.51,26.5,26,50.21,40.52,23.69,38.43-70.2,94.32-119.25,173.46-136.45,76.13-16.56,156.72-8,233.7-3.38,44,2.61,88.07,4.9,132.17,4.6,46.06-.3,92-5.43,137.87,1.4,60.81,9.06,118.33,35.53,158.73,82.69,18.4,21.48,33.39,46.6,39.52,70.55l6-22.83c-71.14,73.21-175.75,120.9-273.11,145-179.83,44.54-364.43,5.13-517.94-95.7-33.18-21.8-66.17-45.92-94.1-74.34C269.38,1183.4,236.21,1216.59,257.4,1238.15Z"/><path class="cls-3" d="M613.85,1013.37l-.73,80.45c0,5.72,0,11.76,2.85,16.71,2.14,3.69,5.65,6.37,9.11,8.87,36.57,26.5,79.49,45.7,124.56,48.59s92.28-12,123.29-44.78c5.18-5.49,10-11.61,12.2-18.81,1.81-5.91,1.79-12.2,1.75-18.38l-.39-58.6"/><path d="M590.39,1013.37c-.24,26.78-1.19,53.67-.73,80.45.2,11.69,1.77,22.19,8.59,31.94,6.52,9.3,17.18,15.74,26.53,21.88,37.78,24.84,81.57,41.58,127,43.92,41,2.11,84.32-9.25,117.37-34,17.23-12.91,35.21-29.41,39.68-51.4,5.05-24.88,1.32-53.47,1.15-78.72-.2-30.19-47.12-30.26-46.92,0,.13,20.29.61,40.63.38,60.92-.17,15.42-12.66,25.39-24.81,33.57-25.6,17.25-56.22,24.3-86.85,22.72-34-1.74-66.61-14.85-95.37-32.48-4.86-3-17-8.11-19.81-13.23-2.12-3.84.12-16.32.16-21.19l.58-64.36c.27-30.21-46.65-30.23-46.92,0Z"/><path class="cls-3" d="M583.19,982.21C416,856.44,389.33,599.61,535,446.39c68.25-71.77,167.37-111.1,264.67-105,90,5.64,179.54,52,227.82,130.63,31.7,51.61,44.34,113.33,49.49,174.2,6.15,72.78,1.86,148.55-28.34,214.63-59,129.08-213,195.18-349.12,169.95C658,1023.09,617.29,1007.86,583.19,982.21Z"/><path d="M595,962c-197.57-152.21-166-489,76.26-577.9,125.71-46.16,281.8-7.5,345.86,117.37,34.29,66.84,41.61,149.32,38.27,223.33C1052.24,795.2,1031.78,865,983,917.44,886.17,1021.52,712,1046,595,962c-24.56-17.65-48,23-23.68,40.52,119.65,86,293.41,70.63,407.18-17.79,133.3-103.6,148.94-297.57,102.13-449.91-47.48-154.48-203.49-238.24-360-212.26C575,346.67,456.54,461.82,425.66,605.6c-32,149.16,25.22,304,145.69,396.87C595.26,1020.88,618.65,980.14,595,962Z"/><path d="M652.85,860.85c81.5,46.54,186.1,45.14,266-4.39,25.61-15.88,2.08-56.49-23.69-40.52-65.84,40.82-151.22,42.87-218.62,4.39-26.26-15-49.93,25.53-23.68,40.52Z"/><path d="M709.18,674.13c1.52-124.08-125.12-125.82-126.64-1.55C581,796.66,707.66,798.42,709.18,674.13Z"/><path d="M980.54,674.13c1.51-124.08-125.12-125.82-126.64-1.55C852.38,796.66,979,798.42,980.54,674.13Z"/><path class="cls-4" d="M474.92,295l25.8,34.05C524.78,360.8,538,331,548.8,308.83c5-10.2,54-95,49.43-100.24L657,276.17c2.59,3,5.54,6.16,9.46,6.69,7.6,1,12.24-7.85,14.94-15a211.09,211.09,0,0,1,63.42-88.4L797,266.32c4.07,6.76,9.16,14.22,17,15.26,8.54,1.13,15.74-5.93,21.44-12.39l40.56-46c3.57-4,8.28-8.5,13.55-7.3,4.63,1,7.12,6,9,10.32l22.08,51.55c5,11.73,13.17,25.5,25.9,24.68,7.84-.51,14-6.66,19.32-12.41l51.61-55.57c1.68-1.8,3.44-3.67,5.76-4.54,9.15-3.41,15,9.76,16,19.46,2.93,26,1.92,70.3,15.35,92.85A316.14,316.14,0,0,1,1126,268.81c1.81,25.27-5.67,50.13-11.7,74.74-20.2,82.42-9.93,162.48-22.58,244.28-27.51-18.66-44.44-48.81-63.81-75.82-31.43-43.83-108.84-146.86-171.83-106.16-23.53,15.2-33.19,58.64-58,52.77-10.53-2.48-27.37-28.52-37.55-35.45-13.92-9.48-28.71-17-45.8-18.25-42.87-3.21-78.08,31.5-106.85,63.45C565.78,515.12,525.72,568,479.26,610.13c-28.17-38.39-22.44-76.51-17.05-120.71,9.18-75.43-23.36-152.73-15.47-231.61Z"/><path d="M454.66,306.84c16.83,22.21,39.8,67.36,74.65,58.37,23.46-6,32.92-31.67,43.08-50.81C583.3,293.86,595,273.78,605.52,253c7.07-14,20.43-34.14,15.33-50.66l-39.21,22.83c19.35,22.28,37.64,46.94,58.72,67.58,11.57,11.33,26,17.71,41.74,9.7,18-9.2,22.08-31.28,30.88-47.82,12.19-22.9,28.78-41.82,48.38-58.62l-36.85-4.74,40.66,67.57c10,16.55,19.12,37.74,39.13,43.9,17.37,5.34,32-1.79,44.65-13.8,8.42-8,15.71-17.47,23.38-26.17,5.55-6.29,15.1-22.36,23.47-24.26l-18.08-2.37c5.36,3.8,11.08,26.42,13.83,32.84,3.93,9.18,7.25,19.07,12.23,27.77,8.66,15.11,21.34,27.84,39.64,28.73,40.71,2,68.66-57.11,96.4-79l-16.59,6.88q-11.49-9.65-6.75,2.85c.4,5.14.77,10.29,1.08,15.44.7,9.91,1.35,19.8,2.5,29.67,2.19,18.65,5.8,35.88,14.31,52.72,8.63,17.08,31,13.21,40.52,0a306.6,306.6,0,0,1,63-65l-35.31-20.26c.62,27.72-7.71,53-13.43,79.73-5.13,24-8.1,48.62-10,73.1-4.16,53.29-2.44,106.93-10,160l34.47-14c-31-22.93-49.5-60.48-72.63-90.7-20.45-26.71-42.42-52.37-69.1-73.08-52.64-40.88-109.17-40.24-148.65,15.88-3.34,4.73-6.94,13-12.26,16q10,2.94-.11-4.15-5.19-5.58-10.15-11.36c-11.66-12.79-24-22.24-40.09-29.35-34.79-15.4-71.17-10.2-102.86,10-35.47,22.57-62.44,57.25-89.41,88.84-30.61,35.87-61,71.82-95.64,103.89l36.85,4.75c-32.71-48.66-9.27-106.2-13.09-160.59-4.24-60.36-20.95-119-16.23-179.89l-43.72,11.84,28.18,37.19c18,23.76,58.77.41,40.52-23.68L467,246c-14-18.51-41.82-12.59-43.72,11.85-5.26,68,16.68,133.08,17.11,200.65.38,58.89-17,110.59,18.62,163.52,8.62,12.81,25.25,15.47,36.85,4.74,30.92-28.6,58.49-60.28,85.78-92.3,25.55-30,50.75-64.53,82.67-88.19,36.57-27.1,69.25-18.55,98.25,12.92,17.89,19.41,40.13,32.05,64.85,15,21.48-14.79,28.93-52.46,58.11-54.19,27.29-1.61,53.42,23.94,71,41.64,45,45.44,71.69,108.18,123.41,146.45,11.25,8.32,32.45.15,34.47-14,7.65-53.65,7.42-107.4,10.9-161.35,3.56-55.13,25.44-109,24.22-163.91-.36-16-20.4-31.63-35.31-20.26a381.39,381.39,0,0,0-79.79,81.85h40.52c-17.23-34.09,2.94-89.68-28.16-116.31-13.57-11.62-30-9.09-43,1.52-9.65,7.87-48.82,62.11-59.46,57.47-6.38-2.79-13.81-31.45-16.65-38.08-4.47-10.45-8-23.3-16-31.77-12.83-13.65-31.89-13-46.12-2.24-10.11,7.65-18.08,19.15-26.42,28.61-5.07,5.75-10.5,15.43-16.9,19.17-10,5.83,1.71,6.38-7.85.88-8.73-5-17.9-29.75-23.24-38.62L765,167.59c-8.26-13.71-25.4-14.56-36.85-4.75A246.76,246.76,0,0,0,687,207.63,225.55,225.55,0,0,0,672.46,231c-1.23,2.29-11,28.91-12.29,29.28l18.08,2.36c-11.71-5.43-22.27-23.23-30.4-32.59l-33-38c-15.5-17.84-45.93,1.08-39.22,22.83-3.61-11.71.94-6.19-3.7.44-3.9,5.58-6.39,13.1-9.53,19.17-6.73,13-13.79,25.91-20.86,38.76-4.35,7.92-8.81,15.77-13,23.79-1.08,2.09-11.2,24.56-13.34,23.7q2.65-12.54-7.12-20.51l-12.9-17C477.17,259.39,436.4,282.75,454.66,306.84Z"/></svg>