<svg id="Layer_1" data-name="Layer 1" xmlns="http://www.w3.org/2000/svg" viewBox="0 0 1500 1500"><defs><style>.cls-1{fill:#ffa476;}.cls-2{fill:#003fcc;}.cls-3{fill:#99501f;}</style></defs><title>Kid Talk</title><ellipse class="cls-1" cx="750" cy="749.6" rx="688.46" ry="694.22"/><path d="M1043,570.49c-24.48,11.41-69,4-90.83,4.43-69.88,1.49-139.63,6.89-209.08,14.56-83.45,9.22-194.85,54.88-262.1-11.76-17.08-16.94-28.25-41.76-22.82-65.19,1.1-4.75,2.86-9.49,2.47-14.35-.88-11.06-11.95-18-18.61-26.85-11.73-15.67-9.07-38.8,2-55,17.56-25.72,48.34-24.14,53-55.79,4.88-33.16,45.36-55.61,76.06-42.19,7,3.07,14.74,7.7,21.74,4.61,5.33-2.35,7.88-8.28,10.51-13.48,17.23-34.07,59.11-53.61,96.29-44.93,6.8,1.58,13.76,4,20.58,2.57,14.82-3.14,20.66-22,34.16-28.89,17.9-9.11,38.4,6.6,50.32,22.77s24.31,35.87,44.28,38c23.21,2.48,49.46-20.19,67.24-5.07,8.17,6.95,10.42,19.9,20,24.71,9.93,5,21.42-1.54,32.33-3.64,31-6,53.41,29.89,44.5,56.79,35.72-7.84,67.29,23.19,66.35,57.26-1.22,44.45-40.19,51-25.24,94.19C1065.29,549.82,1057.79,563.59,1043,570.49Z"/><path d="M1036.76,547.83c-20.73,7.88-42.88,5.46-64.6,4.31-26-1.38-52.15.08-78.18,1.4-58.6,3-118,6.76-176,15.86-44.09,6.92-87.6,19.35-132.46,20.31-48.64,1-109.66-19.29-102.91-78.07,2.43-21.13-3.68-30.68-15.44-47.43-20.52-29.2,3.7-41.21,25.08-56.71,13.69-9.92,21.18-21.25,26.53-37.05,8.47-25,22.53-36.86,49.59-28.53,17.13,5.28,33.24,8.61,47.53-5.69,16.25-16.27,19.46-36.31,43.84-45.67,23.92-9.19,45.24,4.77,68.66-.75,20.61-4.85,31.25-35.94,51.61-23,19.67,12.45,26.19,38.28,48.63,49.49,23.82,11.89,40.42.59,64.15-1.78,18.86-1.89,27.38,27,50,29.11,11,1,24.8-7.73,34.73-5.72,12.67,2.57,17.59,16.23,14.85,27.72-4.52,19,11.35,31.35,28.9,28.9,22.69-3.16,38.63,18.15,36,39-1.77,14.16-11.17,24-17.76,36-5.54,10.1-9.82,21.19-10.2,32.83-.44,13.07,13.4,41.36,1.86,47.86-26.36,14.83-2.7,55.44,23.71,40.57,24.29-13.67,32.32-37.63,26.58-64.37-3.46-16.14-6.57-23,1.51-37.9,5.78-10.63,13-20,17-31.67,20.86-61.47-29.56-116.24-91.2-107.65l28.9,28.9c10.49-44.08-23.28-97.39-73.39-85.7-1.49.35-15.28,5.42-14.63,5.67-2.62-1-6.6-10.94-8.71-13.54-6.17-7.6-13.27-13.75-22.73-16.92-29.46-9.9-57.81,21.25-80.94-4.6-17.75-19.83-30.35-43.78-59-49.67A50.43,50.43,0,0,0,744.47,218c-9.67,5.18-14.73,17.2-23.49,22-11,6-31.06-1.44-43.65-.75a118.32,118.32,0,0,0-68.52,28.31,110.14,110.14,0,0,0-11.31,11.66c-4.09,4.85-10.42,21.34-15.19,23.71,10.92-5.41-16.77-10.9-19.76-11.26a78.34,78.34,0,0,0-30.31,2.25c-23.62,6.55-44.57,24.1-53.77,46.91-5,12.33-4,21-15,29.56-8.51,6.59-18.38,11-26.39,18.48-18.49,17.17-28.75,42.32-25.22,67.52,1.8,12.79,7,21,13.56,31.53,10.39,16.59,7.12,24.41,8.12,42.28,1.68,30,20.17,56.65,43.15,74.73C518.28,637.69,572,640,622.52,633.68c71.6-9,141.06-23.93,213.34-29.44,40.45-3.09,81.64-6.6,122.24-5.79,30.53.61,61.8,5.85,91.15-5.31C1077.25,582.5,1065.1,537.06,1036.76,547.83Z"/><path class="cls-2" d="M273.31,1222.24s191.59,196.08,473.07,196.08,446.57-171,446.57-171-47.21-188.74-307.63-173.72S397.89,988.94,273.31,1222.24Z"/><path d="M256.7,1238.85c84.63,86.13,203.44,148.37,318.78,179.76,184,50.07,386.4,16.46,546.47-86.45,29-18.66,65.72-40.6,87.55-68.19,18.33-23.17-9.6-64.14-22.6-84-32.69-49.89-80.47-86.32-135.92-107.7-91-35.11-189.51-18.12-284.51-21.84-99-3.87-200.18-18.51-298.62-.88-96.12,17.21-168.42,76-214.83,160.81-14.53,26.54,26,50.28,40.58,23.71,38.48-70.29,94.46-119.41,173.71-136.64,76.24-16.58,156.94-8,234-3.38,44.07,2.62,88.19,4.9,132.36,4.61,46.13-.31,92.14-5.44,138.07,1.4,60.89,9.07,118.49,35.57,159,82.8,18.43,21.51,33.44,46.67,39.58,70.65l6-22.86c-71.25,73.31-176,121.08-273.51,145.23-180.08,44.6-364.94,5.14-518.67-95.84-33.23-21.83-66.27-46-94.23-74.44C268.7,1184,235.47,1217.25,256.7,1238.85Z"/><path class="cls-3" d="M613.66,1013.74l-.73,80.57c0,5.73,0,11.77,2.85,16.73,2.14,3.7,5.65,6.38,9.12,8.89,36.62,26.54,79.6,45.76,124.74,48.65s92.41-12,123.46-44.84c5.19-5.49,10-11.62,12.22-18.84,1.82-5.91,1.79-12.21,1.75-18.4l-.39-58.69"/><path d="M590.16,1013.74c-.24,26.82-1.19,53.75-.73,80.57.2,11.71,1.78,22.23,8.61,32,6.52,9.32,17.2,15.76,26.56,21.92,37.84,24.88,81.69,41.64,127.15,44,41.08,2.11,84.44-9.26,117.54-34.07,17.25-12.93,35.26-29.45,39.73-51.47,5.06-24.92,1.33-53.55,1.16-78.84-.2-30.23-47.19-30.29-47,0,.13,20.33.62,40.69.39,61-.18,15.45-12.69,25.43-24.85,33.62-25.64,17.27-56.3,24.33-87,22.76-34-1.76-66.7-14.88-95.5-32.53-4.87-3-17-8.12-19.84-13.26-2.12-3.84.11-16.34.16-21.22l.58-64.45c.27-30.24-46.72-30.27-47,0Z"/><path class="cls-3" d="M583,982.54C415.55,856.59,388.82,599.39,534.73,446c68.35-71.87,167.62-111.26,265-105.16,90.17,5.65,179.79,52.1,228.14,130.82,31.75,51.68,44.41,113.49,49.56,174.44,6.16,72.89,1.87,148.76-28.37,214.94C990,990.26,835.85,1056.46,699.49,1031.19,657.89,1023.48,617.1,1008.23,583,982.54Z"/><path d="M594.81,962.25C397,809.83,428.59,472.59,671.18,383.53c125.89-46.22,282.2-7.51,346.35,117.53,34.33,66.94,41.67,149.54,38.32,223.66-3.18,70.55-23.67,140.41-72.55,193C886.37,1021.91,712,1046.41,594.81,962.25c-24.59-17.67-48.08,23.07-23.71,40.58,119.81,86.09,293.82,70.73,407.76-17.82C1112.34,881.27,1128,687,1081.13,534.47c-47.54-154.71-203.78-238.58-360.5-212.57C574.77,346.1,456.12,461.41,425.2,605.4c-32.08,149.37,25.25,304.48,145.9,397.43C595,1021.27,618.46,980.47,594.81,962.25Z"/><path d="M652.71,861c81.62,46.6,186.37,45.2,266.37-4.4,25.65-15.9,2.08-56.57-23.72-40.57-65.93,40.88-151.44,42.93-218.93,4.39-26.3-15-50,25.57-23.72,40.58Z"/><path d="M709.12,674c1.52-124.26-125.29-126-126.82-1.55C580.78,796.73,707.6,798.49,709.12,674Z"/><path d="M980.86,674c1.52-124.26-125.29-126-126.82-1.55C852.52,796.73,979.34,798.49,980.86,674Z"/><path d="M977.21,369.9c-9.25,20.68-21.7,44-44,48.09-14.76,2.7-29.87-4.18-44.76-2.3-21.64,2.74-37.41,23-58.69,27.85-19.55,4.45-26.16-7.24-41.74-13-19.9-7.41-21.66-6.09-44.21-2.13-13.06,2.29-22.79,5.86-36.44,2.16s-28.82-25.77-42.47-23.8c-8.28,1.19-12.71,10-18.76,15.83a29.29,29.29,0,0,1-49.45-18.83c-2.06-25.76-11.33-54.28,12.48-64.32"/><path d="M956.92,358c-7.59,16.64-15.32,37.69-36.42,36.85-23.17-.92-39.91-4.64-61.6,6.61-15,7.77-28.56,24.13-45.61,15.66-15.92-7.91-31.53-16.07-49.9-15.38-16.55.62-38.14,12-53.29,3.86-15.66-8.41-25.18-23.61-45.19-22.41-10.51.63-19.47,5.87-26.8,13.15-5,5-11.5,16.4-17.77,6.49-3.23-5.09-2.6-19-3.11-25-.29-3.45-1.63-11.08-.37-14.46,1.53-4.1-3.2.15,4.18-3.68,26.85-13.93,3.11-54.5-23.72-40.57-23.89,12.39-29.29,36.32-26.81,61.26,2.74,27.58,5.08,55.1,33.11,68.67,12.21,5.91,26.79,6.4,39.58,2a51.31,51.31,0,0,0,15.25-8.53c4.56-3.55,16.34-10.37,6-12.64,9.35,2.06,18.75,15.07,27.27,19.47,12.48,6.45,26.69,6.93,40.33,5,11-1.57,23.62-6.6,34.85-5.69,9.93.81,18.16,6.95,26.64,11.42,25.24,13.32,49.47,6.51,72.62-7.95,12-7.47,20.65-13.88,35.08-12.84,14.91,1.08,28.33,4.54,43.18.09,26.85-8.06,42.16-33.74,53.06-57.62,12.45-27.32-28-51.23-40.58-23.72Z"/></svg>