<svg id="Layer_1" data-name="Layer 1" xmlns="http://www.w3.org/2000/svg" viewBox="0 0 1500 1500"><defs><style>.cls-1{fill:#ffa476;}.cls-2{fill:#fff471;}.cls-3{fill:#006838;}.cls-4{fill:#f4b5a6;}</style></defs><title>Kid Talk</title><ellipse class="cls-1" cx="750" cy="750" rx="691.82" ry="697.61"/><path class="cls-2" d="M317.53,624.66c2.4-107.65,46.28-214.72,119.14-298.58,111.1-127.85,298.38-182.15,456.14-143.32,147.51,36.31,250.6,135.45,274,287.38,11.12,72.3,28.89,143.58,39.76,217.52,11.19,76,20.7,152.1,15.69,229.13a451.84,451.84,0,0,1-80.88-77c-18.51,49.1-31.52,118.58-61,161.73-28,41-63.44,6.56-84.12-27.1-27.16-44.2-45.5-130.71-108.56-135.87-33.51-2.74-62.64,22.73-87.77,46.65L658.64,1019.8c-8.87,8.45-19.48,17.49-31.2,15.51-12.74-2.15-20.25-16.08-25.93-28.49-16.93-36.68-38.32-58.89-62.31-90.69-16-21.18-87,80.53-80.08,94.4L358.41,809.6C328.92,750.78,316.13,687.62,317.53,624.66Z"/><path d="M341.15,624.66c7.42-221,180.29-404.86,399.41-428.12,94.23-10,192.69,10,271.73,63.49,76.66,51.87,118,132.12,132.58,221.81,23.56,144.52,62,287.17,53.75,435l35.53-20.39c-28.27-21.4-53.36-46.12-76.11-73.26-12.37-14.77-33.94-4.72-39.46,10.42-14.69,40.3-23.62,82.73-40.51,122.23-7,16.38-17.38,48.19-38.31,34.87-15.22-9.69-25.23-30.77-33-46.46C981.21,892.39,956.7,818.4,887.71,815c-44.19-2.2-78.7,29.15-108.62,57.53q-60.37,57.25-120.52,114.76c-4.57,4.36-21.47,24.4-26.9,23.89-4.35-.41-12.5-22-14.1-25.14-9.3-17.87-20.89-34.17-33.18-50.09-16.72-21.65-33-55.63-65.3-43.11C494.57,902.34,476,929.3,461.61,950c-12.21,17.54-31.56,44-25.26,66.83l43.16-18.2c-59.35-118.39-139.69-237.25-138.36-374,.29-30.4-46.93-30.42-47.23,0C292.5,770.87,375.3,895.9,438.73,1022.45c12.14,24.21,50.16,7.23,43.16-18.2,2.22,8.06-2.08,6,2.4-.44,2.42-3.47,4.07-7.77,6.2-11.45a241.07,241.07,0,0,1,24-34.41c2.57-3.07,21.16-18.29,21.21-20.84,0,.42-8.71-4.48-10.9-1.3-.2.29,6.6,8.49,6.6,8.5,6.13,10.88,16.48,20.62,23.83,30.81,18.42,25.52,30.82,75.52,66,83,40.94,8.66,78.62-44.86,104.05-69.08,36.08-34.35,70.94-71.32,109.21-103.23,35.54-29.64,69.66-30.27,95.37,9.31,30.76,47.35,46.5,135.91,112.49,147.79,41.22,7.42,64-34.12,77.84-66,18.38-42.31,28.23-87.56,44-130.8l-39.47,10.42c25.5,30.42,54,56.71,85.67,80.64,15.37,11.63,34.64-4.49,35.52-20.38,8.16-146.29-28.45-288.29-52.77-431.26-17.14-100.77-55.27-189.24-138.48-252.88-172.67-132.06-430.8-104-591.25,33.7-103.09,88.5-164.88,223.18-169.42,358.31C292.9,655.05,340.13,655,341.15,624.66Z"/><path class="cls-3" d="M271,1224.94s192.53,197,475.38,197,448.76-171.86,448.76-171.86S1147.67,1060.45,886,1075.55,396.17,990.5,271,1224.94Z"/><path d="M254.29,1241.64c85,86.55,204.44,149.09,320.34,180.63,184.89,50.32,388.28,16.54,549.14-86.87,29.16-18.75,66-40.8,88-68.52,18.42-23.28-9.65-64.46-22.71-84.39-32.85-50.14-80.86-86.74-136.58-108.23C961,1039,862,1056.06,766.55,1052.32c-99.48-3.9-201.16-18.61-300.08-.89-96.59,17.29-169.24,76.42-215.87,161.59-14.6,26.67,26.16,50.53,40.77,23.84,38.67-70.64,94.92-120,174.56-137.31,76.61-16.66,157.7-8,235.17-3.4,44.29,2.63,88.63,4.93,133,4.63,46.35-.31,92.59-5.46,138.74,1.41,61.19,9.11,119.07,35.75,159.73,83.21,18.52,21.61,33.6,46.89,39.77,71l6.07-23c-71.59,73.67-176.86,121.67-274.84,145.93-181,44.83-366.73,5.17-521.21-96.3-33.39-21.94-66.59-46.2-94.69-74.8C266.35,1186.53,233,1219.93,254.29,1241.64Z"/><path class="cls-4" d="M613,1015.43l-.73,81c0,5.76,0,11.83,2.86,16.81,2.16,3.72,5.69,6.41,9.17,8.94,36.8,26.66,80,46,125.34,48.88S842.5,1159,873.7,1126c5.21-5.52,10-11.67,12.28-18.93,1.83-5.94,1.8-12.27,1.76-18.49l-.39-59"/><path d="M589.38,1015.43c-.24,27-1.2,54-.73,81,.2,11.76,1.78,22.33,8.65,32.14,6.55,9.36,17.28,15.84,26.69,22,38,25,82.09,41.85,127.77,44.2,41.28,2.12,84.85-9.31,118.11-34.24,17.34-13,35.44-29.59,39.93-51.72,5.08-25,1.33-53.81,1.16-79.22-.2-30.38-47.42-30.45-47.22,0,.14,20.42.62,40.88.39,61.31-.17,15.52-12.75,25.55-25,33.78-25.76,17.36-56.58,24.45-87.4,22.86-34.22-1.76-67-15-96-32.68-4.89-3-17.08-8.16-19.93-13.32-2.14-3.86.11-16.42.15-21.32l.59-64.77c.28-30.39-47-30.42-47.22,0Z"/><path class="cls-4" d="M582.14,984.07c-168.23-126.56-195.08-385-48.46-539.19C602.36,372.65,702.11,333.07,800,339.2c90.62,5.67,180.68,52.36,229.26,131.46,31.9,51.93,44.63,114,49.8,175.29,6.19,73.25,1.88,149.49-28.51,216-59.37,129.89-214.3,196.41-351.33,171C657.44,1025.21,616.45,1009.89,582.14,984.07Z"/><path d="M594.06,963.69C395.24,810.52,427,471.63,670.79,382.14c126.51-46.45,283.58-7.55,348,118.11,34.51,67.26,41.88,150.27,38.52,224.74-3.2,70.9-23.79,141.1-72.91,193.91C887,1023.64,711.76,1048.26,594.06,963.69c-24.72-17.76-48.32,23.18-23.84,40.77C690.63,1091,865.48,1075.54,980,986.56c134.14-104.25,149.88-299.45,102.77-452.75C1035,378.35,878,294.07,720.48,320.21,573.92,344.53,454.69,460.4,423.61,605.09c-32.23,150.1,25.38,306,146.61,399.37C594.28,1023,617.82,982,594.06,963.69Z"/><path d="M652.24,862c82,46.83,187.27,45.43,267.66-4.42,25.78-16,2.09-56.85-23.83-40.77-66.25,41.08-152.17,43.14-220,4.42-26.43-15.09-50.25,25.69-23.83,40.77Z"/><path d="M708.92,674.05c1.53-124.86-125.91-126.61-127.44-1.56C580,797.36,707.39,799.13,708.92,674.05Z"/><path d="M982,674.05c1.53-124.86-125.91-126.61-127.44-1.56C853,797.36,980.46,799.13,982,674.05Z"/><path class="cls-2" d="M526,361.48c59.74-52.74,140.46-74.77,219.33-86.22,27.51-4,57.81-6.32,81,9.07,26,17.25,34.76,53.05,27.64,83.42s-27.15,56-49,78.31c-38.08,38.86-84.17,71-136.31,86.57-50.3,15-141.23,18.92-178.86-27.48C455.82,463.21,492.74,390.86,526,361.48Z"/><path class="cls-2" d="M1051.33,380c17.2,15.29,28.25,36.18,38.61,56.74,15.55,30.82,30.64,62.72,34.51,97,1.8,15.87,0,34.26-12.64,44-11.83,9-28.54,7-43,3.48-113.67-28-204.93-130.82-219.13-247-1.67-13.7,8.56-20.73,21.55-25.36,55.1-19.65,113.59,20.92,151.82,54.72C1031,370.54,1042.73,372.34,1051.33,380Z"/><path d="M825.74,344.86c8.09,34.12-15.21,64.78-38.66,87-26.5,25.07-59.65,44.67-93.31,58.45-33,13.53-68.57,22-104.34,22.11a201.05,201.05,0,0,1-50.25-5.88c-8.94-2.27-18.52-4.85-26.86-8.86-2.64-1.26-5-3.3-7.6-4.48-11.84-5.36,6.16-7.67-5.82,4.35,21.48-21.55-11.9-54.95-33.39-33.39-18.18,18.23-13.22,43.59,4.06,60.67,17.59,17.38,44.5,25.07,68.17,29.74,49.68,9.8,101.53,4.45,149.34-11.61,84.2-28.28,209.31-104.65,184.2-210.62-7-29.56-52.55-17.05-45.54,12.55Z"/><path d="M854.71,426.1c34.19,110.6,141.36,191,257.25,192.19,30.39.32,30.41-46.9,0-47.22-94.58-1-183.74-67-211.71-157.52-9-28.94-54.55-16.6-45.54,12.55Z"/></svg>