<svg id="Layer_1" data-name="Layer 1" xmlns="http://www.w3.org/2000/svg" viewBox="0 0 1500 1500"><defs><style>.cls-1{fill:#ffa476;}.cls-2{fill:#3b2314;}.cls-3{fill:#006838;}.cls-4{fill:#f2d3a5;}</style></defs><title>Kid Talk</title><ellipse class="cls-1" cx="750" cy="749.6" rx="690.63" ry="696.41"/><path class="cls-2" d="M480.41,803.51c-1.06,18.53-15.81,34.32-33.18,40.88s-36.77,5.29-54.87,1.16c-14.12-3.23-28.19-8.31-39.16-17.75-48.85-42-21.83-166.24-12.83-219.95,16.41-98,53.69-194.76,121.33-267.47C520.46,277.21,601.92,237.91,685,218.22c128.23-30.38,255.58-5.71,354.65,84.4,82.45,75,126,181.05,146.74,288.62,9.86,51.27,37.35,194.94-20,226.52-31.33,17.24-74.4-6.32-83.89-40.81"/><path d="M457.69,797.24c-6.16,37.82-61.26,33.22-85.66,15.37-18.39-13.45-22-39.37-23.27-60.51-2.74-46.32,6.28-92.6,14.33-138C386.63,481.4,446,355.9,567.73,287.94c112.7-62.89,258.67-82,376.68-22.56,121.79,61.39,187.44,184.91,215.51,313.7,10,45.74,18.2,92.79,18.2,139.72,0,21.26-.32,47.16-11.65,66-16.52,27.43-52.16,12.18-61.25-14.09-9.85-28.5-55.41-16.25-45.45,12.53,19.32,55.87,94,89.31,138,38.57,36.09-41.57,29.52-111.28,23.44-161.64-17.73-146.91-67.53-298.57-187.67-393.37C899.68,161.12,719,162.66,569.47,234.05c-155.12,74.06-226.82,224.1-255.09,386.23-11,63.05-29.07,145.2,5.73,204,37.05,62.56,169.11,71,183-14.47,4.84-29.67-40.58-42.44-45.45-12.53Z"/><path class="cls-3" d="M271.81,1223.73S464,1420.42,746.37,1420.42s448-171.56,448-171.56S1147,1059.52,885.75,1074.6,396.78,989.69,271.81,1223.73Z"/><path d="M255.14,1240.39c84.9,86.4,204.09,148.84,319.79,180.33,184.58,50.23,387.62,16.51,548.19-86.73,29.12-18.71,65.93-40.72,87.83-68.4,18.39-23.24-9.64-64.34-22.67-84.24-32.8-50-80.72-86.59-136.35-108-91.31-35.21-190.11-18.17-285.4-21.9-99.31-3.89-200.82-18.57-299.57-.89-96.43,17.27-168.95,76.29-215.5,161.32-14.58,26.62,26.11,50.44,40.7,23.79,38.61-70.51,94.75-119.79,174.26-137.07,76.48-16.63,157.43-8,234.77-3.39,44.21,2.62,88.47,4.91,132.77,4.62,46.28-.31,92.43-5.46,138.51,1.4,61.08,9.1,118.86,35.69,159.45,83.07,18.49,21.58,33.55,46.81,39.7,70.87l6.06-22.93c-71.47,73.54-176.56,121.46-274.37,145.68C722.66,1422.62,537.22,1383,383,1281.73c-33.33-21.89-66.47-46.12-94.52-74.67C267.18,1185.39,233.85,1218.73,255.14,1240.39Z"/><path class="cls-4" d="M613.23,1014.58l-.73,80.81c-.06,5.75,0,11.82,2.85,16.79,2.16,3.71,5.68,6.4,9.15,8.92,36.74,26.62,79.86,45.9,125.13,48.8s92.71-12,123.86-45c5.2-5.51,10-11.66,12.26-18.9,1.82-5.93,1.8-12.25,1.75-18.46l-.39-58.87"/><path d="M589.66,1014.58c-.25,26.9-1.2,53.91-.73,80.81.2,11.75,1.78,22.3,8.63,32.09,6.55,9.35,17.26,15.81,26.65,22,37.95,25,81.94,41.77,127.55,44.11,41.21,2.12,84.7-9.29,117.9-34.17,17.31-13,35.38-29.54,39.86-51.64,5.08-25,1.33-53.72,1.16-79.08-.2-30.32-47.34-30.39-47.14,0,.14,20.39.62,40.81.39,61.2-.17,15.5-12.72,25.51-24.92,33.73-25.72,17.32-56.48,24.41-87.25,22.82-34.16-1.75-66.91-14.92-95.81-32.63-4.88-3-17.05-8.14-19.9-13.29-2.13-3.86.12-16.4.16-21.29l.59-64.65c.27-30.35-46.87-30.37-47.14,0Z"/><path class="cls-4" d="M582.43,983.27C414.49,856.93,387.68,598.92,534.05,445,602.62,372.9,702.2,333.4,799.94,339.51c90.46,5.67,180.36,52.27,228.86,131.23,31.85,51.85,44.55,113.85,49.71,175,6.18,73.11,1.88,149.22-28.46,215.61C990.79,991,836.12,1057.43,699.33,1032.07,657.6,1024.34,616.68,1009.05,582.43,983.27Z"/><path d="M594.32,962.92C395.85,810,427.58,471.71,670.93,382.37,797.22,336,954,374.84,1018.37,500.28c34.45,67.14,41.8,150,38.45,224.36-3.19,70.77-23.75,140.85-72.78,193.57-97.24,104.56-272.21,129.14-389.72,44.71-24.67-17.73-48.23,23.14-23.79,40.71,120.2,86.36,294.75,70.95,409.05-17.87,133.9-104.07,149.62-298.94,102.59-452C1034.48,378.6,877.75,294.46,720.53,320.55,574.22,344.83,455.2,460.5,424.18,605,392,754.78,449.51,910.39,570.53,1003.63,594.55,1022.13,618.05,981.2,594.32,962.92Z"/><path d="M652.41,861.36c81.87,46.75,187,45.35,267.2-4.41,25.73-16,2.09-56.75-23.79-40.7-66.14,41-151.91,43.07-219.62,4.41-26.39-15.07-50.16,25.65-23.79,40.7Z"/><path d="M709,673.78c1.53-124.65-125.69-126.39-127.22-1.55C580.25,796.88,707.46,798.65,709,673.78Z"/><path d="M981.59,673.78c1.53-124.65-125.69-126.39-127.22-1.55C852.85,796.88,980.06,798.65,981.59,673.78Z"/><path class="cls-2" d="M615.13,379l1.19,142.12c0,3.58.21,7.58,2.48,10,2.77,3,7.19,2.26,10.92,1.32a1180.53,1180.53,0,0,1,275.81-35.7c3.66,0,7.77-.27,10.24-3.38,2.3-2.9,2.3-7.27,2.16-11.2-1.55-41.85-4.88-83.63-10-125.11"/><path d="M591.56,379l.75,88.82.34,41.45c.1,11.38-.87,23.86,5.8,33.79,16.93,25.23,54,7.88,77.27,2.88q41.21-8.88,83-14.81c27.58-3.89,55.35-6.59,83.15-8.39q20.24-1.31,40.51-1.92c12.58-.38,27.8,1.75,39.55-3.63,26.87-12.29,19.28-47.09,17.82-70.84-1.83-29.83-4.63-59.59-8.22-89.26-1.52-12.64-9.74-23.57-23.57-23.57-11.55,0-25.1,10.84-23.57,23.57,4.31,35.61,7.46,71.35,9.22,107.18.18,3.73-.33,8.33.54,11.95l.23,6q19.47-10,8.27-8.95c-7.09-2.13-18.78.36-26.06.62q-26.05.91-52.07,3c-33.91,2.7-67.72,6.88-101.3,12.32q-25.83,4.19-51.47,9.51-12.83,2.65-25.6,5.61c-7.6,1.75-16.45,5.54-24.1,5.19l11.9,3.22q7.71,16,5.91,2.49l-.05-5.92-.15-17.76L639.32,453l-.62-74c-.25-30.32-47.39-30.39-47.14,0Z"/><polygon class="cls-2" points="668.71 420 607.88 338.89 668.71 256.6 869.52 256.6 917.98 304.04 869.52 437.44 668.71 420"/></svg>