<svg id="Layer_1" data-name="Layer 1" xmlns="http://www.w3.org/2000/svg" viewBox="0 0 1500 1500"><defs><style>.cls-1{fill:#ffa476;}.cls-2{fill:#3b2314;}.cls-3{fill:#006838;}.cls-4{fill:#d88d3d;}</style></defs><title>Kid Talk</title><ellipse class="cls-1" cx="750" cy="749.6" rx="689.71" ry="695.48"/><path class="cls-2" d="M593.74,225.06c-39.79,20.64-76.08,49.19-110.6,80.88-34,31.23-58.84,71-86.76,107.36C315.23,519.07,259.24,719.71,350,834.72q13.91-20.15,28.4-39.86l30.05,73.21c7.34,17.89,15.77,37,32.56,46.65s43.82,2.23,45.83-17c6.09,32,36.81,55.71,69.13,60.11s65.13-7.63,92-26.18c8.19-5.66,16.23-12.07,25.87-14.6,38.07-10,65.35,42.79,104.49,47.07,28.36,3.1,51.92-19.76,73.56-38.35s53.7-34.7,77.12-18.41c7,4.86,12.38,12.28,20.42,15,12.18,4.2,25.22-3.92,33.81-13.52s15.37-21.31,26.45-27.88,28.73-4.69,32.82,7.52c9.55-17.42,24.58-37.61,44-33.66,5.25,1.06,10.32,3.92,15.62,3.16,7.22-1,11.67-8.19,15.13-14.61l32-59.34,10.32,33.15c33-55.43,41.73-122.82,35-187s-28-125.86-51.65-185.9c-18.06-45.92-38.23-92.27-71.87-128.37-26.18-28.11-59.39-48.71-93.5-66.38C887.14,202.79,806,184.86,705.36,192.36,664.83,195.37,628,207.29,593.74,225.06Z"/><path d="M581.86,204.73c-65.81,35.38-122.88,85.45-167.68,145-37.62,50-73.19,99-97.12,157.21C273.65,612.6,256.34,749.74,329.64,846.6c11,14.5,29.84,15.55,40.65,0q14-20.11,28.39-39.86l-43-5.62c16.67,40.61,30.46,106.24,70.08,131.59,30.37,19.44,74.25,7.88,83.75-28.74H464.1c14.52,56.22,71.72,85.44,127.13,76.35a164.18,164.18,0,0,0,43-13.68c14-6.53,31-24.42,45.83-26.89,21.42-3.56,46.14,27.22,63.52,36.79,21.6,11.89,44.85,14.4,68.09,5.69,29.14-10.92,46.85-37.53,73.84-51.39,20.18-10.35,27.86-3,44.7,7.84A47.28,47.28,0,0,0,963,946.24c13.18-1.76,24.48-9,34-18,2.5-2.36,25.18-27.79,25.13-27.87,8.92,15.2,31.76,15.33,40.65,0,8.36-14.43,11.69-20.63,28.38-20.16,12.7.36,20.65,1.54,31.58-6.56,22-16.31,34.26-54.42,46.82-77.73l-43-5.62,10.33,33.15c5.88,18.89,32.74,23.72,43,5.62,46.76-82.32,47.84-178.28,26.19-268.49-12.34-51.39-31.23-101.4-51.69-150-16.86-40.1-36.84-79.16-66.73-111.24C1027.94,235.26,931.61,194,847,177c-89.6-18-182.67-13.56-265.11,27.76-27.09,13.58-3.28,54.2,23.76,40.65,73-36.57,159.19-38.7,238-21.07,74.08,16.58,158.16,51.87,210.77,108.31,28.67,30.77,46.58,70.25,62.17,108.8,16,39.58,30.82,79.94,41.53,121.3,21,80.86,23.53,168.06-18.83,242.63l43,5.62-10.32-33.15c-5.79-18.57-33.07-24.09-43-5.62-8.57,15.91-16,34.95-26.65,49.45-6,8.19-3.62,7.82-12.63,10.1-4.61,1.16-11.47-.86-16.48,0-23.91,4.19-39.6,25.19-51,44.88h40.65c-11-18.75-32.21-27-53.42-20.92-20.1,5.75-40.63,45.53-57.16,40.43-11.06-3.41-19.17-14.82-31.93-17.62-12-2.65-25.08-1.21-36.81,2.25-30.13,8.89-49.12,32.57-74.18,49.52-47.76,32.32-81.21-42.66-132-37.51C645.83,896,623.53,924.1,593,931.91c-34.53,8.83-73.81-2.91-83.51-40.45-5.79-22.43-39.57-22.41-45.39,0C458.43,913.29,430,859.12,429,856.58c-9.53-22.56-18.6-45.32-27.9-68-8-19.38-30.47-22.8-43-5.62q-14.43,19.75-28.39,39.86h40.65c-66.28-87.58-47.67-210.49-7-305.23,20.88-48.67,51.58-89.76,82.73-132.16,42.58-57.95,96.11-105.92,159.63-140.07C632.32,231,608.57,190.38,581.86,204.73Z"/><path class="cls-3" d="M272.45,1223.09s191.94,196.43,473.92,196.43,447.38-171.33,447.38-171.33-47.29-189.09-308.19-174S397.25,989.37,272.45,1223.09Z"/><path d="M255.81,1239.73c84.78,86.29,203.81,148.64,319.36,180.09,184.32,50.16,387.09,16.49,547.45-86.61,29.08-18.69,65.84-40.67,87.71-68.31,18.36-23.21-9.62-64.26-22.64-84.13-32.76-50-80.61-86.47-136.17-107.9-91.19-35.17-189.85-18.15-285-21.88-99.17-3.88-200.54-18.54-299.16-.88-96.3,17.24-168.73,76.19-215.21,161.1-14.56,26.59,26.08,50.37,40.65,23.76,38.55-70.42,94.62-119.63,174-136.89,76.38-16.61,157.22-8,234.45-3.39,44.16,2.62,88.36,4.91,132.6,4.62,46.21-.31,92.31-5.45,138.32,1.4,61,9.09,118.71,35.64,159.24,83,18.46,21.55,33.5,46.75,39.65,70.77l6-22.9c-71.37,73.44-176.33,121.3-274,145.49-180.41,44.69-365.61,5.15-519.61-96-33.29-21.87-66.39-46.06-94.41-74.58C267.83,1184.8,234.55,1218.1,255.81,1239.73Z"/><path class="cls-4" d="M613.41,1014.22l-.73,80.71c0,5.74,0,11.8,2.86,16.76,2.15,3.71,5.66,6.39,9.13,8.91,36.69,26.58,79.75,45.84,125,48.74s92.58-12,123.69-44.93c5.19-5.5,10-11.64,12.23-18.87,1.83-5.92,1.8-12.24,1.76-18.43l-.39-58.8"/><path d="M589.87,1014.22c-.24,26.87-1.19,53.85-.73,80.71.2,11.73,1.78,22.27,8.62,32,6.54,9.34,17.24,15.79,26.62,22,37.9,24.92,81.83,41.71,127.38,44.06,41.15,2.11,84.58-9.28,117.74-34.13,17.29-13,35.33-29.5,39.81-51.57,5.07-25,1.33-53.65,1.16-79-.2-30.28-47.28-30.35-47.08,0,.14,20.37.62,40.76.39,61.13-.17,15.47-12.71,25.47-24.89,33.68-25.68,17.3-56.41,24.37-87.13,22.79-34.12-1.75-66.83-14.91-95.68-32.58-4.88-3-17-8.14-19.87-13.29-2.13-3.84.11-16.37.15-21.25l.59-64.57c.27-30.3-46.8-30.33-47.08,0Z"/><path class="cls-4" d="M582.65,983C414.94,856.78,388.17,599.12,534.34,445.41c68.48-72,167.92-111.45,265.53-105.35,90.34,5.66,180.12,52.2,228.56,131.05,31.8,51.78,44.48,113.7,49.64,174.77,6.17,73,1.88,149-28.42,215.32C990.46,990.7,836,1057,699.4,1031.7,657.72,1024,616.86,1008.7,582.65,983Z"/><path d="M594.53,962.64C396.32,809.93,428,472.09,671,382.87c126.12-46.31,282.72-7.53,347,117.74,34.4,67.06,41.74,149.81,38.4,224.06-3.19,70.68-23.72,140.67-72.69,193.32-97.11,104.41-271.84,129-389.19,44.65-24.64-17.71-48.17,23.11-23.76,40.64,120,86.25,294.36,70.86,408.5-17.84C1113,881.51,1128.69,686.91,1081.73,534.08c-47.63-155-204.15-239-361.16-213-146.11,24.24-265,139.76-296,284-32.13,149.63,25.3,305,146.16,398.14C594.76,1021.76,618.22,980.89,594.53,962.64Z"/><path d="M652.54,861.21c81.76,46.69,186.7,45.29,266.84-4.4,25.7-15.94,2.09-56.68-23.76-40.65-66,41-151.71,43-219.32,4.4-26.35-15-50.1,25.62-23.76,40.65Z"/><path d="M709.05,673.89c1.52-124.49-125.52-126.23-127-1.56C580.48,796.81,707.52,798.58,709.05,673.89Z"/><path d="M981.28,673.89c1.52-124.49-125.52-126.23-127-1.56C852.71,796.81,979.75,798.58,981.28,673.89Z"/><path class="cls-2" d="M385.49,627.4C389,501.55,459.26,379.46,566.37,313.29s247.76-74.39,361.85-21.16c26.76,12.48,52.23,28.21,73.59,48.6,24.09,23,42.47,51.41,57.22,81.26a441.15,441.15,0,0,1,44.87,170.64c-20.61-8.94-28.78-33.5-44.46-49.58-11-11.29-25.61-18.21-39.87-24.91C975,497.21,930,476.15,882,464.93c-93.68-21.9-194.07-4.2-280.28,38.5s-159,109.12-219.21,184.2q-.13-58.07-.29-116.12"/><path d="M435.19,713.81c61.89-111.12,170.08-191.29,295.68-214.24,122.06-22.31,291.92,10.73,365.55,120.54,16.78,25,57.58,1.5,40.65-23.76-82.66-123.27-260.09-165-399.43-145.26-144.59,20.48-272.35,111.94-343.1,239-14.76,26.49,25.89,50.26,40.65,23.76Z"/></svg>