<svg id="Layer_1" data-name="Layer 1" xmlns="http://www.w3.org/2000/svg" viewBox="0 0 1500 1500"><defs><style>.cls-1{fill:#ffa476;}.cls-2{fill:#006838;}.cls-3{fill:#f2d3a5;}</style></defs><title>Kid Talk</title><ellipse class="cls-1" cx="750" cy="749.6" rx="696.72" ry="702.55"/><path class="cls-2" d="M271.26,1227.9S465.15,1426.33,750,1426.33s451.93-173.08,451.93-173.08-47.78-191-311.32-175.79S397.33,991.81,271.26,1227.9Z"/><path d="M254.45,1244.71c85.64,87.17,205.88,150.15,322.61,181.92,186.19,50.67,391,16.66,553-87.49,29.37-18.88,66.51-41.08,88.6-69,18.55-23.45-9.72-64.92-22.87-85-33.08-50.49-81.43-87.35-137.55-109-92.11-35.53-191.78-18.34-287.91-22.1-100.19-3.93-202.59-18.74-302.21-.9-97.27,17.42-170.44,77-217.4,162.74-14.7,26.86,26.35,50.88,41.06,24,38.95-71.14,95.59-120.84,175.8-138.28,77.15-16.77,158.81-8,236.83-3.42,44.6,2.65,89.25,5,134,4.66,46.68-.31,93.24-5.5,139.72,1.42,61.62,9.18,119.91,36,160.86,83.8,18.65,21.77,33.84,47.22,40,71.5l6.11-23.14C1113,1310.63,1007,1359,908.33,1383.41c-182.25,45.14-369.32,5.2-524.89-97-33.63-22.09-67.06-46.53-95.36-75.33C266.59,1189.22,233,1222.86,254.45,1244.71Z"/><path d="M774.05,460.59c-13.24-36.16-24.46-74.77-28.15-113.24-1.5-15.6-2.51-32.91,3.84-47.69,5.63-13.11,16.77-21.13,29.08-27.43,25.59-13.09,61-16.13,83.25,4.83,17.64,16.6,17.94,44.18-3.37,55.39-27.1,14.25-3.09,55.31,24,41.06,30.84-16.22,45.45-53.66,38-87-7.61-33.9-37.84-60.27-70.81-68.54-37.14-9.32-80.56.39-111.17,23.22-31.92,23.79-43.42,60-40.95,98.79,2.88,45.28,14.92,90.83,30.46,133.28,4.42,12,16.14,20.21,29.25,16.61,11.62-3.19,21-17.13,16.61-29.25Z"/><path class="cls-3" d="M571.05,1105C401.63,977.58,374.59,717.3,522.25,562c69.17-72.73,169.62-112.59,268.22-106.42,91.26,5.71,181.95,52.73,230.88,132.38,32.13,52.31,44.94,114.86,50.15,176.54,6.24,73.76,1.9,150.54-28.71,217.52C983,1112.86,827,1179.85,689,1154.27,646.88,1146.47,605.61,1131,571.05,1105Z"/><path d="M583.05,1084.51C382.83,930.26,414.84,589,660.33,498.85c127.4-46.78,285.58-7.6,350.5,118.94,34.75,67.74,42.17,151.34,38.79,226.34-3.22,71.4-24,142.1-73.42,195.28-98.1,105.47-274.61,130.27-393.15,45.1-24.89-17.88-48.66,23.35-24,41.06,121.25,87.12,297.35,71.58,412.64-18,135.09-105,150.94-301.57,103.5-455.95C1027.08,495,869,410.16,710.37,436.48,562.77,461,442.7,577.67,411.4,723.38,378.94,874.54,437,1031.51,559.05,1125.57,583.28,1144.24,607,1103,583.05,1084.51Z"/><path d="M699,812c1.53-125.75-126.8-127.51-128.34-1.57C569.13,936.12,697.46,937.91,699,812Z"/><path d="M974,812c1.54-125.75-126.79-127.51-128.34-1.57C844.12,936.12,972.46,937.91,974,812Z"/><path d="M682.84,962.24c10.7,39.78,45.07,70.91,86.56,74.13,38.83,3,79.65-25.89,87.2-64.52C859,959.68,853.16,945.6,840,942.6c-11.77-2.68-26.7,3.55-29.25,16.61-.33,1.71-.69,3.39-1.18,5.07-.34,1.18-1.37,6.74.05.78-.66,2.77-3,5.93-4.58,8.24-2.89,4.3-.14-.14.11,0,0,0-3.35,3.66-3.5,3.82-1.22,1.23-2.55,2.35-3.82,3.52-3.22,3,2.4-1.42,0,0-2.77,1.62-5.45,3.34-8.26,4.9-4.95,2.77,4.64-1.43-.74.39-1.66.56-3.3,1.15-5,1.62-1.4.39-2.82.73-4.25,1-3.8.78-1.54,1.24.29.09-2.13,1.33-8,.27-10.45.15-4.5-.2,3,.79.1,0-1.74-.46-3.53-.73-5.28-1.21-1.44-.39-2.85-.9-4.29-1.33-5.57-1.68,4.23,2.27-1-.35a84,84,0,0,1-8.62-4.88c-.62-.41-5.22-4.06-2.71-1.86s-1.26-1.19-1.76-1.64a93.73,93.73,0,0,1-7.55-7.89c-2.91-3.36,1.29,2.16-.16-.26-.78-1.3-1.73-2.51-2.53-3.8A95.1,95.1,0,0,1,730.5,956c1.71,3.6.53,1.23-.26-1.11-.58-1.73-1.07-3.48-1.54-5.24-3.24-12-17.08-20.55-29.25-16.61-12.32,4-20.07,16.38-16.61,29.25Z"/></svg>