<svg id="Layer_1" data-name="Layer 1" xmlns="http://www.w3.org/2000/svg" viewBox="0 0 1500 1500"><defs><style>.cls-1{fill:#ffa476;}.cls-2{fill:#006838;}.cls-3{fill:#99501f;}</style></defs><title>Kid Talk</title><ellipse class="cls-1" cx="750" cy="750" rx="694.55" ry="700.36"/><path d="M440.25,798.4c-75.68,7-144.24-77-122.27-149.79,3.06-10.16,7.57-20.24,7.09-30.84-1.27-28.65-36.73-45.25-41.91-73.46-4.46-24.22,14.68-45.65,23.55-68.63,9.21-23.87,7.49-51.26,18.9-74.16s47.17-36.67,61.57-15.51c15.49-53.57,41.06-116.55,96.12-125.37,17-2.72,35.21.37,50.83-6.81,25.94-11.93,34-46.83,58.7-61.06,22.85-13.14,52.7-4.68,77-14.78,28.7-11.89,46-47.84,77-49.66,33.26-2,55.78,37.08,88.71,42.15,23.94,3.7,47.93-11.55,71.79-7.33,25,4.41,41.15,28.08,62,42.54s47.65,20.17,66.47,37.39,22.17,55.11-2,63.4c67.65,26.36,128.33,82.89,138.52,154.77,2,13.8,2.09,28.06,6.91,41.14,4.08,11.09,11.31,20.7,16.55,31.29,16,32.38,11.2,74-11.81,101.82-9.3,11.25-21.49,20.8-26.46,34.53-3.66,10.15-2.87,21.36-5.33,31.86-5.44,23.2-28.43,41-52.25,40.46"/><path d="M440.25,774.7c-39.57,2-74.55-20.76-92.28-56-8.79-17.47-12.6-36.89-9.09-56.24,3.67-20.18,13.46-36.8,8.06-57.92-4.06-15.87-14.52-28-24.6-40.44-4.45-5.47-11.34-11.74-13.9-18.52-5.78-15.32,4.22-28,10.69-40.93,9.83-19.66,14.95-38.5,19.06-60.12,1.76-9.26,14.28-61.76,32.23-41.77,12.28,13.67,34.79,5.85,39.62-10.46,8.93-30.2,19.21-63,40.72-86.86,27.1-30.09,62.84-14.45,95.34-31.15,26.87-13.82,34-46.74,58.69-61.07,15.12-8.78,37.74-4.86,54.47-8s30-9.65,43.33-20c10.89-8.45,21.29-22.63,33.74-28.61,17.6-8.46,28.46.27,43.08,10.61,27.44,19.41,50.51,31.18,85,25.1,22.3-3.95,38-10.76,57.84,4.45C935.53,207,946.78,219.33,961,228.43c8.13,5.2,92.61,42.16,60.92,57.58-20.46,9.95-11.23,36.41,5.66,43.32,37.32,15.27,72.26,39.74,95.75,72.91a147.07,147.07,0,0,1,23.79,52.56c4.52,20.05,3.77,40.34,11.72,59.56,6.93,16.73,19,30.91,22,49.22,3.79,23.66-4.69,43.88-19.36,61.75-10.08,12.29-21.56,22.84-26.7,38.4-7.53,22.75-1.49,52.89-34.73,54.91-30.31,1.84-30.52,49.26,0,47.41,22.68-1.38,42.85-9.34,58.34-26.48,20.68-22.87,14-55.05,33.59-77.48,32.58-37.42,48-84.82,27.72-132.75-5.38-12.72-14.06-24-18.32-37-4.81-14.77-4.43-30.72-7.54-45.9-5-24.21-15.55-47.76-29.54-68.09-30.51-44.35-74.84-74.54-124.08-94.69l5.66,43.32c32.26-15.69,35.33-57.14,18.54-85.73-10.16-17.29-27.65-27.86-45.14-36.49-22.51-11.12-40.12-21.67-59.32-38-15.54-13.24-31.76-24.79-52.55-27.25-24.18-2.86-49.75,13-72.91,6.45-20-5.65-35.29-25-54.06-33.75-15.86-7.42-33.09-9.64-50-4.64-16.65,4.92-29.71,16.27-42.38,27.61-20.49,18.34-34.16,23.27-61.7,25.71-20.55,1.82-39.87,5.54-56.13,19.15-15,12.58-22.2,31.39-36.2,44.53-18.5,17.36-48.13,9.07-71.31,17-17.4,5.93-33.07,17-45.46,30.45-27.42,29.87-41.61,69.57-52.91,107.78l39.61-10.46c-40.93-45.58-98.1,3.47-108.71,48.53C290.94,436,290,454.85,282.5,472.27c-5.75,13.41-14.45,25.47-19,39.44-9.2,28-2,52.12,15.83,74.58,6.9,8.69,20.16,19.33,21.93,30.86,2.24,14.49-9.37,35.11-10.59,50.46-2.05,26,4.4,52,16.41,75,25.53,49,77.58,82.32,133.21,79.48,30.36-1.56,30.55-49,0-47.41Z"/><path class="cls-2" d="M269.1,1226.81s193.28,197.81,477.25,197.81,450.52-172.53,450.52-172.53-47.63-190.42-310.35-175.25S394.77,991.45,269.1,1226.81Z"/><path d="M252.34,1243.57c85.38,86.89,205.24,149.68,321.6,181.35,185.62,50.52,389.81,16.61,551.3-87.22,29.28-18.82,66.3-41,88.32-68.78,18.5-23.38-9.69-64.72-22.8-84.73-33-50.33-81.18-87.08-137.12-108.65-91.83-35.42-191.19-18.28-287-22-99.87-3.91-202-18.68-301.26-.9-97,17.37-169.92,76.73-216.73,162.24-14.66,26.77,26.26,50.72,40.93,23.92,38.83-70.91,95.3-120.46,175.25-137.85,76.91-16.72,158.33-8,236.1-3.41,44.46,2.64,89,5,133.53,4.65,46.54-.31,92.95-5.49,139.29,1.41,61.43,9.15,119.54,35.89,160.36,83.54,18.59,21.7,33.73,47.08,39.92,71.28l6.1-23.07c-71.88,74-177.56,122.15-275.93,146.51-181.67,45-368.17,5.19-523.26-96.68-33.52-22-66.85-46.39-95.06-75.1C264.44,1188.25,230.93,1221.78,252.34,1243.57Z"/><path class="cls-3" d="M612.45,1016.47l-.73,81.28c-.06,5.78,0,11.88,2.87,16.88,2.17,3.74,5.71,6.44,9.2,9,37,26.77,80.31,46.17,125.84,49.08s93.23-12.07,124.56-45.24c5.23-5.54,10.09-11.72,12.33-19,1.83-6,1.8-12.32,1.76-18.57l-.39-59.2"/><path d="M588.75,1016.47c-.25,27.06-1.2,54.23-.74,81.28.21,11.81,1.79,22.43,8.69,32.27,6.58,9.4,17.35,15.9,26.8,22.11,38.16,25.1,82.41,42,128.27,44.37,41.44,2.13,85.18-9.35,118.57-34.37,17.41-13.05,35.58-29.71,40.09-51.93,5.1-25.14,1.33-54,1.16-79.53-.2-30.5-47.6-30.56-47.4,0,.13,20.5.62,41,.39,61.55-.18,15.58-12.8,25.65-25.07,33.92-25.86,17.42-56.8,24.54-87.74,22.95-34.35-1.77-67.29-15-96.35-32.81-4.91-3-17.15-8.2-20-13.38-2.15-3.87.11-16.48.16-21.4l.58-65c.28-30.51-47.13-30.54-47.4,0Z"/><path class="cls-3" d="M581.48,985C412.59,857.93,385.63,598.46,532.83,443.68c68.95-72.51,169.1-112.25,267.39-106.09,91,5.69,181.38,52.56,230.16,132,32,52.14,44.8,114.49,50,176,6.21,73.54,1.88,150.08-28.63,216.84C992.15,992.79,836.61,1059.57,699,1034.07,657.07,1026.29,615.93,1010.91,581.48,985Z"/><path d="M593.44,964.53c-199.6-153.78-167.69-494,77-583.84,127-46.63,284.7-7.58,349.41,118.57,34.64,67.53,42,150.86,38.67,225.63-3.21,71.18-23.89,141.66-73.19,194.68-97.8,105.14-273.76,129.86-391.93,45-24.81-17.83-48.51,23.27-23.93,40.93,120.88,86.85,296.43,71.36,411.37-18C1115.55,882.83,1131.35,686.86,1084.05,533c-48-156.07-205.57-240.68-363.68-214.45-147.15,24.42-266.84,140.75-298,286C390,755.21,447.8,911.69,569.51,1005.46,593.67,1024.07,617.3,982.91,593.44,964.53Z"/><path d="M651.85,862.39c82.34,47,188,45.61,268.72-4.44,25.88-16,2.1-57.07-23.93-40.93-66.51,41.24-152.77,43.31-220.86,4.44-26.54-15.15-50.45,25.79-23.93,40.93Z"/><path d="M708.76,673.75c1.53-125.36-126.4-127.11-127.94-1.56C579.29,797.54,707.22,799.32,708.76,673.75Z"/><path d="M982.9,673.75c1.54-125.36-126.4-127.11-127.94-1.56C853.43,797.54,981.37,799.32,982.9,673.75Z"/><path d="M1030.36,369.15a82.35,82.35,0,0,1-7,42.86c-9.14,19.9-28.73,36.59-50.61,35.66s-41.45-25.26-32.61-45.29c-16,19.68-43.43,27.93-68.62,24.71s-48.18-16.63-67-33.69c-5-4.54-10.21-9.59-16.89-10.67-7.7-1.25-15.1,3.12-21.45,7.65-35.94,25.65-72.88,64.76-115.65,53.8-11.9-3-23.92-10-35.66-6.43-12.62,3.85-18.48,17.81-25.61,28.91-18.19,28.3-54.66,43.53-87.57,36.58-11.78-18.28-44.37-69.54-36.24-89.71s23.26-36.76,39.86-50.8A261.88,261.88,0,0,1,643.52,303"/><path d="M1006.65,369.15c.8,15.31-.77,30-11,42.28-7.4,8.91-39.26,20.48-32.66-2.75,6.36-22.37-23.28-40.5-39.62-23.06-18.08,19.3-42.82,22.41-67,13.13-20.06-7.7-32.38-24.27-50.54-34.25-35-19.22-66.74,18.24-92.72,36.6-17,12-34.54,23.5-56.28,20.23-19.68-3-34.08-12.43-53.92-4.05-17.47,7.37-23.54,23.28-34.12,37.42-14.29,19.08-36.92,29.48-60.8,25.68l14.16,10.9c-8.55-13.33-17-26.84-24-41-11.83-23.83-12-33.52,7-54.64,34.76-38.54,87.48-62.17,138.36-68.94,29.8-4,30.19-51.43,0-47.41-43.07,5.73-84.22,18.52-121.18,41.81-30.82,19.42-73.07,51.64-80.76,90-6,29.79,14.14,62.28,28.68,86.56,6.55,10.94,12.47,23.83,25.14,28.44,16.16,5.87,38.71,2.57,54.6-2.48a112.32,112.32,0,0,0,46.41-28.1c6-6.11,10.81-13.2,15.42-20.35,8.23-12.76,8.92-12.65,23.47-10.93,22,2.61,37.8,7.75,60.08.34C713.23,458.65,729.05,448,744,436.9c9-6.67,17.71-15.56,27.38-21.1,11.71-6.7,11.55-6.87,22.79-.1,18.46,11.12,33.31,24.2,54.59,30.66,38.53,11.69,80.4,2.37,108.13-27.22l-39.62-23.06c-11.72,41.23,24.58,80.47,66.69,74.42,47.93-6.88,72.38-57.25,70.08-101.35-1.59-30.36-49-30.54-47.41,0Z"/></svg>