<svg id="Layer_1" data-name="Layer 1" xmlns="http://www.w3.org/2000/svg" viewBox="0 0 1500 1500"><defs><style>.cls-1{fill:#ffa476;}.cls-2{fill:#fff471;}.cls-3{fill:#cc0070;}.cls-4{fill:#f4b5a6;}</style></defs><title>Kid Talk</title><ellipse class="cls-1" cx="750" cy="749.6" rx="692.9" ry="698.7"/><path class="cls-2" d="M918.53,348.75c20.62-51.84,67.74-92.82,122.41-104s115.07,8.74,150.83,51.57,44.29,107.13,19.15,156.94c-8.35,16.52-20,31.48-25.75,49.09-15.12,46.62,15.86,96,52.81,128.2,33.39,29.13,84.49,51,120.28,24.82-15.32,65-81.71,112.2-148.44,110.56s-128.63-48.55-153.46-110.51"/><path d="M939,360.69c28.5-67.08,97.85-110.87,171-89.87,68.07,19.56,110.75,94.21,84.24,162.24-12.57,32.26-35.77,56.16-36.52,92.74-.69,33.44,14.93,65.33,35.09,91.09,39.47,50.43,115,98.71,177.49,58.9l-34.74-26.7c-15.16,56.7-70.68,96.14-129.33,93-59-3.15-107-46.13-129.35-98.61-11.9-27.91-52.66-3.84-40.84,23.87,29.78,69.8,100.34,122.41,177.59,122.21,76.8-.21,147.7-53.74,167.53-127.91,5.16-19.28-17-38-34.74-26.7-35.46,22.59-78.44-6.74-103.66-32.47-29.9-30.5-48.73-69.3-27.17-109.72,16-30,30.46-55.47,33-90.3A173.71,173.71,0,0,0,1225.28,303c-34-57.84-103.08-90.25-169.32-84.19-69.82,6.4-130.68,54.05-157.85,118-11.76,27.69,29,51.82,40.84,23.87Z"/><path class="cls-2" d="M594.08,348.75c-20.62-51.84-67.74-92.82-122.4-104s-115.08,8.74-150.84,51.57S276.55,403.45,301.7,453.26c8.34,16.52,20,31.48,25.74,49.09,15.12,46.62-15.86,96-52.8,128.2-33.4,29.13-84.5,51-120.29,24.82,15.33,65,81.71,112.2,148.44,110.56s128.63-48.55,153.46-110.51"/><path d="M614.5,336.82c-27.18-64-88-111.57-157.85-118-66.22-6.09-135.3,26.38-169.32,84.19a173.52,173.52,0,0,0-23.46,95.68c1.92,36.16,16.41,63.06,33.25,94.08,21.77,40.1,2.58,79.5-27.17,109.72C244.74,628.1,201.77,657.57,166.29,635c-17.75-11.31-39.91,7.36-34.74,26.7,19.83,74.17,90.73,127.7,167.53,127.91,77.26.2,147.81-52.41,177.59-122.21,11.81-27.69-28.92-51.81-40.84-23.87C413.44,696,365.5,739,306.48,742.1c-58.64,3.13-114.16-36.31-129.32-93l-34.74,26.7c62.45,39.8,138-8.48,177.48-58.9C340.14,591,355.54,559.34,355,525.8c-.6-36.74-24.19-60.34-36.52-92.74-26-68.33,15.8-142.41,84.24-162.24,73.05-21.17,142.5,22.89,171,89.87,11.86,27.92,52.61,3.85,40.84-23.87Z"/><path class="cls-3" d="M270.24,1225.29s192.83,197.34,476.12,197.34,449.45-172.13,449.45-172.13-47.52-190-309.62-174.83S395.62,990.48,270.24,1225.29Z"/><path d="M253.51,1242c85.18,86.68,204.76,149.32,320.85,180.91,185.18,50.4,388.89,16.57,550-87,29.21-18.78,66.15-40.86,88.11-68.63,18.45-23.32-9.66-64.56-22.74-84.52-32.91-50.22-81-86.88-136.8-108.4-91.61-35.33-190.73-18.23-286.34-22-99.64-3.9-201.48-18.63-300.55-.89-96.74,17.33-169.51,76.54-216.21,161.85-14.63,26.71,26.2,50.6,40.83,23.87,38.74-70.75,95.07-120.18,174.84-137.53,76.73-16.68,158-8,235.54-3.4,44.36,2.64,88.76,4.94,133.21,4.64,46.43-.31,92.73-5.47,139,1.41,61.28,9.13,119.26,35.81,160,83.34,18.54,21.65,33.65,47,39.83,71.11l6.08-23c-71.7,73.78-177.14,121.86-275.27,146.16-181.25,44.89-367.3,5.17-522-96.46-33.44-22-66.7-46.27-94.84-74.92C265.59,1186.82,232.16,1220.27,253.51,1242Z"/><path class="cls-4" d="M612.78,1015.45l-.74,81.08c0,5.77,0,11.85,2.87,16.84,2.16,3.73,5.69,6.42,9.18,9,36.86,26.71,80.12,46,125.54,49s93-12,124.27-45.14c5.22-5.52,10.06-11.69,12.29-19,1.83-6,1.81-12.29,1.77-18.52q-.19-29.54-.4-59.06"/><path d="M589.13,1015.45c-.25,27-1.2,54.09-.73,81.08.2,11.79,1.78,22.37,8.66,32.19,6.57,9.38,17.31,15.87,26.74,22.06,38.07,25,82.21,41.91,128,44.26,41.34,2.13,85-9.32,118.29-34.29,17.36-13,35.49-29.63,40-51.8,5.09-25.08,1.33-53.89,1.16-79.34-.2-30.43-47.49-30.49-47.29,0,.13,20.45.62,41,.39,61.4-.18,15.55-12.77,25.59-25,33.84-25.8,17.38-56.67,24.49-87.53,22.9-34.28-1.76-67.14-15-96.13-32.74-4.9-3-17.1-8.17-20-13.34-2.14-3.87.11-16.45.16-21.36l.58-64.86c.28-30.44-47-30.47-47.29,0Z"/><path class="cls-4" d="M581.88,984C413.39,857.28,386.49,598.42,533.34,444,602.13,371.67,702,332,800.1,338.16c90.76,5.69,181,52.44,229.62,131.66,32,52,44.69,114.23,49.87,175.57,6.2,73.36,1.89,149.72-28.55,216.33C991.58,991.82,836.41,1058.44,699.16,1033,657.29,1025.24,616.25,1009.9,581.88,984Z"/><path d="M593.81,963.62C394.68,810.21,426.52,470.8,670.67,381.16c126.7-46.51,284-7.55,348.58,118.3,34.56,67.37,41.94,150.5,38.58,225.1-3.21,71-23.83,141.32-73,194.21-97.56,104.9-273.11,129.56-391,44.85-24.75-17.78-48.39,23.22-23.87,40.84,120.59,86.65,295.72,71.19,410.39-17.93,134.35-104.41,150.11-299.92,102.93-453.45C1035.42,377.38,878.17,293,720.44,319.14,573.64,343.5,454.23,459.55,423.1,604.47c-32.28,150.33,25.42,306.45,146.84,400C594,1023,617.61,982,593.81,963.62Z"/><path d="M652.09,861.73c82.14,46.9,187.56,45.5,268.08-4.43,25.81-16,2.09-56.94-23.87-40.83-66.36,41.14-152.41,43.21-220.34,4.42-26.48-15.11-50.33,25.73-23.87,40.84Z"/><path d="M708.86,673.54c1.53-125.06-126.11-126.82-127.64-1.57C579.69,797,707.32,798.81,708.86,673.54Z"/><path d="M982.35,673.54c1.53-125.06-126.1-126.82-127.64-1.57C853.18,797,980.82,798.81,982.35,673.54Z"/><path class="cls-2" d="M659.83,429.29c-12.93,13.95-1.12,68.78,15.67,78.42s37.74,9.33,57.4,8.73l141.26-4.3c15.24-.46,31.19-1.11,44.37-8.31S925,422,918.53,409c54.76-2.16,98.6,107.35,152.56,98.31-3.58-66.71-54.17-122.51-107.34-166.8-26.08-21.73-54.8-42.73-88.88-49.56s-74.63,4.63-90,34c-31.2-28.32-80.35-33-122-21.65S585.48,339.6,551.54,365c-44,32.89-88.53,69.85-106.7,119.87-15.62,43-9.62,90-3.44,135.05,36.78-87.73,107-162.66,195-207.95Z"/><path d="M639.41,417.36c-18.42,26.95-7.55,77.79,13,101,14.89,16.85,39.16,20.93,60.63,21.86,35.83,1.57,72.35-1.74,108.18-2.83,36.39-1.11,112.15,10.15,125.31-36.65,7.82-27.8,5.64-71.2-5.16-98.08l-22.81,29.94c29.51.68,54.78,40.35,73.68,59.14,21.15,21,47.13,42.37,78.88,39.17,11.85-1.2,24.83-9.89,23.65-23.65-7.31-85.06-68.49-149.43-133.56-198.92C904.15,265,810,239,764.44,313l37.14-4.79c-87-72-193.22-16-269.74,42.18-39.72,30.18-79.92,63.74-102,109.6C404.53,512.8,411,570,418.6,626.17c2.64,19.48,35.46,23.57,43.22,5.65,37.65-86.94,102.91-155.27,186.49-199.46H624.44l23.45,17.35c24.49,18.12,48.1-22.91,23.87-40.84l-23.45-17.35c-6.8-5-16.94-3.67-23.87,0C534.64,439,461.49,514.41,421,608l43.22,5.65c-6-44.09-12.21-92.6,8.51-134,18.29-36.49,51.14-64,83-88.41,54.9-42.05,145.33-105.07,212.43-49.58,11.79,9.76,28.57,9.12,37.14-4.78,35.77-58.09,114.68-3.05,149,26.42,43.47,37.35,88,84,93.18,144l23.65-23.65c-29.88,3-54.62-35.36-73.09-54.16-22-22.37-46.63-43.39-79.47-44.15-14-.32-28.56,15.6-22.8,29.93,6.79,16.89,7.06,37.91,6.7,55.83-.07,3.75.93,10.13-.77,13.32-4.81,9.06.44,1.14-6.34,2.54-19.84,4.09-42.21,2.2-62.36,2.82-39.64,1.21-80.34,5.26-120,3.19-17.58-.92-25.87-2.95-31.2-19.26-2.88-8.83-7.19-24.22-1.56-32.45C697.46,416,656.5,392.35,639.41,417.36Z"/><path d="M738,592.38l-.08-.15,2.39,5.65a.83.83,0,0,1-.06-.21l.85,6.29a1,1,0,0,1,0-.25l-.85,6.28a2.17,2.17,0,0,1,.07-.24l-2.38,5.65a1.59,1.59,0,0,1,.13-.22l-3.7,4.79a1.52,1.52,0,0,1,.31-.31l-4.79,3.7a2,2,0,0,1,.45-.26l-5.65,2.38a2.09,2.09,0,0,1,.49-.13l-6.29.85a1.21,1.21,0,0,1,.38,0l-6.29-.85.25.07L707.58,623l.21.12L703,619.46a.93.93,0,0,1,.14.14l-3.7-4.79a1.49,1.49,0,0,1,.14.24l-2.38-5.65,0,.06a22.77,22.77,0,0,0,19.65,16.94,18,18,0,0,0,9.43-.42l5.65-2.39a23.79,23.79,0,0,0,8.49-8.48l2.38-5.65a23.73,23.73,0,0,0,0-12.57,30.23,30.23,0,0,0-1.21-2.88c-.4-1-.81-1.92-1.22-2.88l-.06-.12a25,25,0,0,0-3.85-5c-.17-.17-4.67-3.65-4.87-3.76l-.11-.07c-.24-.14-5.41-2.32-5.71-2.41l-.15,0c-5.07-1.43-8-.9-13,0a1.45,1.45,0,0,0-.3.06l-.14.05c-1,.38-1.93.79-2.88,1.21s-1.92.8-2.87,1.22a23.49,23.49,0,0,0-5.27,4,1.7,1.7,0,0,0-.19.19l-1.88,2.44c-.66.78-1.28,1.6-1.88,2.43a1,1,0,0,1-.08.14,24.52,24.52,0,0,0,0,24.76,24.4,24.4,0,0,0,32.35,8.49l4.78-3.7a23.61,23.61,0,0,0,6.09-10.44l.84-6.28A23.52,23.52,0,0,0,738,592.38Z"/><path d="M1000.57,580.79a1.09,1.09,0,0,1-.08-.15l2.38,5.65a1.66,1.66,0,0,1-.06-.21l.85,6.29a1,1,0,0,1,0-.25l-.85,6.28a1.13,1.13,0,0,1,.08-.24l-2.39,5.65a1.59,1.59,0,0,1,.13-.22l-3.69,4.79a1.77,1.77,0,0,1,.3-.31l-4.78,3.7a2,2,0,0,1,.44-.26l-5.65,2.39a2.11,2.11,0,0,1,.49-.14l-6.28.85a1.15,1.15,0,0,1,.37,0l-6.29-.85.25.07-5.65-2.39a1.07,1.07,0,0,1,.21.13l-4.78-3.7.14.14L962,603.23a1.36,1.36,0,0,1,.13.24l-2.38-5.65,0,0a24.39,24.39,0,0,0,29.09,16.52l5.65-2.38a23.79,23.79,0,0,0,8.48-8.49l2.38-5.65a23.73,23.73,0,0,0,0-12.57,30.23,30.23,0,0,0-1.21-2.88c-.4-1-.8-1.92-1.21-2.88a.75.75,0,0,1-.07-.12,24.27,24.27,0,0,0-3.85-5c-.16-.17-4.66-3.64-4.86-3.76l-.11-.06c-.25-.15-5.41-2.33-5.72-2.42l-.14,0c-5.08-1.43-8-.9-13.05,0l-.3.06-.14,0c-1,.39-1.92.79-2.87,1.21s-1.93.8-2.88,1.22a23.49,23.49,0,0,0-5.27,4l-.18.19-1.89,2.44c-.65.79-1.28,1.6-1.87,2.43a1,1,0,0,0-.08.14,24.55,24.55,0,0,0,0,24.76A22.76,22.76,0,0,0,983.29,616a17.52,17.52,0,0,0,8.79-2.8l4.79-3.7A23.61,23.61,0,0,0,1003,599l.84-6.29a23.61,23.61,0,0,0-3.22-11.94Z"/></svg>