<svg id="Layer_1" data-name="Layer 1" xmlns="http://www.w3.org/2000/svg" viewBox="0 0 1500 1500"><defs><style>.cls-1{fill:#ffa476;}.cls-2{fill:#3b2314;}.cls-3{fill:#cc0070;}.cls-4{fill:#f2d3a5;}</style></defs><title>Kid Talk</title><ellipse class="cls-1" cx="750" cy="749.6" rx="694.23" ry="700.04"/><path class="cls-2" d="M593.78,348C573.12,296,525.91,255,471.14,243.79S355.84,252.54,320,295.45s-44.37,107.34-19.18,157.24c8.36,16.56,20.07,31.54,25.79,49.19,15.15,46.71-15.89,96.17-52.9,128.45-33.47,29.17-84.66,51-120.52,24.86C168.56,720.28,235.07,767.61,301.93,766s128.88-48.64,153.76-110.72"/><path d="M614.24,336C587,271.92,526.07,224.25,456.09,217.81c-66.34-6.11-135.56,26.42-169.64,84.35A173.69,173.69,0,0,0,262.94,398c1.92,36.24,16.44,63.19,33.31,94.27,21.81,40.18,2.59,79.65-27.22,109.93-25.26,25.66-68.31,55.18-103.86,32.53-17.78-11.34-40,7.37-34.81,26.75,19.88,74.32,90.91,128,167.86,128.15,77.4.21,148.09-52.51,177.92-122.44,11.84-27.74-29-51.91-40.91-23.92-22.43,52.59-70.46,95.65-129.6,98.8-58.76,3.14-114.38-36.38-129.57-93.18l-34.81,26.75c62.58,39.88,138.28-8.5,177.83-59,20.28-25.9,35.7-57.66,35.15-91.26-.59-36.81-24.24-60.45-36.59-92.92-26-68.46,15.84-142.68,84.41-162.55,73.18-21.2,142.76,22.94,171.27,90,11.89,28,52.72,3.86,40.92-23.92Z"/><path class="cls-3" d="M269.32,1226.2s193.2,197.72,477,197.72,450.32-172.46,450.32-172.46-47.61-190.32-310.22-175.17S394.94,991,269.32,1226.2Z"/><path d="M252.56,1243C337.9,1329.8,457.71,1392.56,574,1424.21c185.54,50.5,389.64,16.61,551.05-87.17,29.26-18.81,66.27-40.94,88.28-68.76,18.49-23.36-9.68-64.68-22.79-84.68-33-50.31-81.14-87-137.06-108.61-91.79-35.4-191.1-18.27-286.89-22-99.83-3.91-201.86-18.66-301.12-.89-96.93,17.36-169.84,76.69-216.63,162.16-14.65,26.76,26.25,50.7,40.91,23.92,38.81-70.89,95.25-120.42,175.17-137.79,76.88-16.72,158.25-8,236-3.41,44.45,2.64,88.94,4.94,133.47,4.65,46.52-.31,92.91-5.49,139.22,1.41,61.41,9.14,119.49,35.87,160.29,83.5,18.58,21.69,33.72,47,39.91,71.24l6.09-23c-71.84,73.92-177.48,122.09-275.8,146.44-181.59,45-368,5.18-523-96.65-33.5-22-66.82-46.36-95-75.06C264.66,1187.66,231.16,1221.17,252.56,1243Z"/><path class="cls-4" d="M612.51,1016l-.73,81.24c0,5.77,0,11.87,2.87,16.87,2.17,3.73,5.71,6.43,9.2,9,36.93,26.76,80.27,46.15,125.78,49.06s93.19-12.06,124.51-45.22c5.22-5.53,10.08-11.71,12.31-19,1.84-6,1.81-12.32,1.77-18.56l-.39-59.18"/><path d="M588.82,1016c-.24,27-1.2,54.2-.73,81.24.2,11.8,1.79,22.41,8.67,32.25,6.58,9.4,17.35,15.89,26.79,22.1,38.15,25.08,82.38,42,128.22,44.35,41.42,2.13,85.14-9.34,118.52-34.36,17.39-13,35.56-29.69,40.07-51.9,5.1-25.13,1.33-54,1.16-79.5-.2-30.48-47.59-30.55-47.38,0,.13,20.5.62,41,.39,61.53-.18,15.57-12.79,25.64-25.06,33.9-25.85,17.41-56.77,24.53-87.7,22.94-34.34-1.76-67.26-15-96.31-32.8-4.91-3-17.14-8.19-20-13.37-2.14-3.87.11-16.47.16-21.39l.59-65c.27-30.5-47.11-30.53-47.39,0Z"/><path class="cls-4" d="M581.56,984.49c-168.82-127-195.77-386.35-48.63-541.07,68.92-72.48,169-112.19,267.27-106,90.93,5.69,181.3,52.53,230,131.91,32,52.11,44.78,114.44,50,175.9,6.21,73.5,1.88,150-28.62,216.74C992,992.28,836.57,1059,699.07,1033.55,657.12,1025.77,616,1010.4,581.56,984.49Z"/><path d="M593.51,964C394,810.33,425.9,470.26,670.51,380.46c127-46.61,284.57-7.57,349.26,118.52,34.62,67.49,42,150.79,38.65,225.53-3.21,71.14-23.88,141.59-73.16,194.58C887.51,1024.19,711.63,1048.9,593.51,964,568.71,946.21,545,987.3,569.6,1005c120.82,86.81,296.28,71.32,411.17-18,134.61-104.61,150.4-300.5,103.13-454.33-47.94-156-205.48-240.57-363.52-214.35C573.31,342.72,453.66,459,422.48,604.19c-32.35,150.62,25.46,307,147.12,400.76C593.74,1023.55,617.36,982.4,593.51,964Z"/><path d="M651.9,861.94c82.3,47,187.92,45.59,268.59-4.43,25.87-16,2.1-57-23.91-40.92-66.49,41.23-152.71,43.3-220.77,4.44-26.52-15.15-50.42,25.78-23.91,40.91Z"/><path d="M708.78,673.39c1.53-125.3-126.35-127.06-127.88-1.57C579.36,797.12,707.24,798.9,708.78,673.39Z"/><path d="M982.8,673.39c1.53-125.3-126.35-127.06-127.88-1.57C853.38,797.12,981.26,798.9,982.8,673.39Z"/><path class="cls-2" d="M659.65,428.68c-12.95,14-1.12,68.91,15.71,78.57s37.81,9.35,57.51,8.75l141.52-4.32c15.27-.46,31.25-1.11,44.47-8.32s6.43-82,0-95.05c54.86-2.17,98.78,107.55,152.84,98.5-3.58-66.84-54.27-122.75-107.54-167.12-26.13-21.77-54.91-42.82-89-49.66s-74.77,4.64-90.19,34.1c-31.25-28.38-80.5-33.08-122.22-21.69s-77.54,36.37-111.54,61.8c-44.08,32.95-88.7,70-106.9,120.1-15.66,43.09-9.64,90.14-3.45,135.3,36.85-87.9,107.24-163,195.35-208.35Z"/><path d="M639.2,416.72c-18.46,27-7.57,77.94,13,101.21,14.92,16.88,39.23,21,60.75,21.9,35.89,1.57,72.48-1.74,108.38-2.84,36.47-1.11,112.38,10.17,125.56-36.72,7.83-27.85,5.65-71.33-5.18-98.26l-22.84,30c29.56.68,54.88,40.43,73.81,59.25,21.2,21.07,47.23,42.45,79,39.25,11.88-1.2,24.88-9.91,23.7-23.69-7.32-85.23-68.62-149.72-133.81-199.3C904.44,264,810.13,238,764.47,312.17l37.21-4.8c-87.17-72.09-193.59-16-270.26,42.27-39.8,30.24-80.08,63.85-102.14,109.8C403.87,512.35,410.35,569.7,418,625.94c2.64,19.51,35.52,23.61,43.3,5.66C499,544.48,564.38,476,648.12,431.75H624.2l23.5,17.39c24.53,18.15,48.18-23,23.91-40.92l-23.49-17.39c-6.82-5-17-3.67-23.92,0-90,47.58-163.26,123.13-203.85,216.85l43.31,5.66c-6-44.17-12.23-92.78,8.53-134.2,18.33-36.57,51.23-64.15,83.14-88.59,55-42.13,145.62-105.27,212.84-49.67,11.82,9.77,28.63,9.13,37.21-4.79,35.85-58.21,114.9-3.06,149.27,26.47,43.55,37.42,88.2,84.18,93.36,144.25l23.69-23.7c-29.94,3-54.72-35.43-73.23-54.26-22-22.42-46.71-43.48-79.61-44.24-14.06-.32-28.62,15.63-22.85,30,6.8,16.92,7.07,38,6.72,55.94-.08,3.75.92,10.15-.78,13.35-4.82,9.07.44,1.13-6.35,2.53-19.88,4.11-42.29,2.21-62.48,2.83-39.71,1.21-80.49,5.27-120.18,3.2-17.62-.92-25.92-2.95-31.26-19.3-2.89-8.84-7.2-24.27-1.57-32.51C697.36,415.39,656.32,391.67,639.2,416.72Z"/><path d="M733.88,592.08l-.08-.16,2.39,5.66a1.17,1.17,0,0,1-.05-.2l.84,6.3a1,1,0,0,1,0-.25l-.84,6.29a1.09,1.09,0,0,1,.07-.24l-2.39,5.66a2.53,2.53,0,0,1,.13-.22l-3.7,4.8a1.77,1.77,0,0,1,.3-.31l-4.79,3.7a2.76,2.76,0,0,1,.44-.25l-5.66,2.39a2.19,2.19,0,0,1,.5-.14l-6.3.85a1.53,1.53,0,0,1,.37,0l-6.3-.85.25.07-5.66-2.39a.72.72,0,0,1,.21.12l-4.79-3.7.14.14-3.7-4.79a1,1,0,0,1,.14.24L693,609.14l0,.05a24.43,24.43,0,0,0,29.14,16.55l5.66-2.39a23.72,23.72,0,0,0,8.5-8.5l2.39-5.66a23.8,23.8,0,0,0,0-12.59c-.36-1-.76-2-1.21-2.89l-1.22-2.88c0-.05,0-.09-.07-.13a24.38,24.38,0,0,0-3.86-5c-.16-.16-4.67-3.65-4.87-3.76l-.11-.07c-.24-.14-5.42-2.32-5.73-2.42l-.14,0c-5.08-1.43-8-.9-13.07,0l-.3.07-.14,0c-1,.39-1.93.79-2.88,1.22s-1.93.8-2.88,1.21a23.89,23.89,0,0,0-5.28,4l-.19.2-1.88,2.44c-.66.79-1.29,1.6-1.89,2.44l-.07.13A24.6,24.6,0,0,0,693,616a22.85,22.85,0,0,0,23.6,11.31,17.6,17.6,0,0,0,8.81-2.81l4.8-3.71a23.64,23.64,0,0,0,6.09-10.45l.85-6.3a23.6,23.6,0,0,0-3.24-12Z"/><path d="M997,580.47a.8.8,0,0,1-.08-.16l2.39,5.66a.66.66,0,0,1-.06-.2l.85,6.3a1,1,0,0,1,0-.25l-.85,6.29a2.17,2.17,0,0,1,.07-.24l-2.38,5.66a1.27,1.27,0,0,1,.13-.22l-3.71,4.8a1.52,1.52,0,0,1,.31-.31l-4.79,3.7a2.09,2.09,0,0,1,.44-.25l-5.66,2.39a2.11,2.11,0,0,1,.49-.14l-6.3.85a1.61,1.61,0,0,1,.38,0l-6.3-.85.24.07-5.66-2.39a.94.94,0,0,1,.22.12l-4.79-3.7a.93.93,0,0,1,.14.14l-3.7-4.8a2,2,0,0,1,.13.25l-2.39-5.66,0,.05A26.47,26.47,0,0,0,967,611.74a17.63,17.63,0,0,0,8.81,2.81,17.88,17.88,0,0,0,9.45-.42l5.66-2.39a23.79,23.79,0,0,0,8.5-8.5l2.39-5.66a24,24,0,0,0,0-12.59,29.42,29.42,0,0,0-1.22-2.89c-.4-1-.81-1.93-1.22-2.88l-.06-.13a24.73,24.73,0,0,0-3.86-5c-.16-.16-4.67-3.65-4.87-3.76l-.11-.07c-.25-.14-5.42-2.32-5.73-2.42l-.14,0c-5.09-1.43-8-.9-13.08,0l-.3.06-.13,0c-1,.39-1.93.79-2.89,1.22s-1.92.8-2.88,1.21a23.84,23.84,0,0,0-5.27,4,1.8,1.8,0,0,0-.19.2L958,577c-.66.79-1.28,1.6-1.88,2.44l-.08.13a24.6,24.6,0,0,0,0,24.82,17.91,17.91,0,0,0,6.11,6.64,17.71,17.71,0,0,0,8.05,4.24,18,18,0,0,0,9.45.43,17.73,17.73,0,0,0,8.81-2.81l4.79-3.71a23.66,23.66,0,0,0,6.1-10.45l.84-6.3a23.59,23.59,0,0,0-3.23-12Z"/></svg>