<svg id="Layer_1" data-name="Layer 1" xmlns="http://www.w3.org/2000/svg" viewBox="0 0 1500 1500"><defs><style>.cls-1{fill:#ffa476;}.cls-2{fill:#cc0070;}.cls-3{fill:#d88d3d;}.cls-4{fill:#3b2314;}</style></defs><title>Kid Talk</title><ellipse class="cls-1" cx="750" cy="749.6" rx="695.16" ry="700.98"/><path class="cls-2" d="M268.67,1226.83s193.46,198,477.67,198,450.92-172.69,450.92-172.69-47.67-190.58-310.62-175.4S394.46,991.27,268.67,1226.83Z"/><path d="M251.9,1243.61c85.45,87,205.42,149.81,321.89,181.51,185.78,50.56,390.15,16.62,551.78-87.3,29.3-18.83,66.36-41,88.4-68.84,18.51-23.4-9.7-64.77-22.82-84.8-33-50.38-81.25-87.16-137.24-108.75-91.91-35.45-191.36-18.3-287.28-22-100-3.92-202.13-18.69-301.52-.9-97.06,17.38-170.07,76.8-216.92,162.38-14.67,26.8,26.29,50.77,41,24,38.86-71,95.37-120.58,175.4-138,77-16.73,158.46-8,236.31-3.41,44.5,2.64,89,4.95,133.65,4.66,46.57-.31,93-5.5,139.4,1.41,61.49,9.16,119.65,35.92,160.5,83.61,18.61,21.72,33.77,47.12,40,71.34l6.1-23.09c-71.94,74-177.72,122.26-276.17,146.64-181.84,45-368.5,5.19-523.72-96.77-33.55-22-66.91-46.42-95.15-75.16C264,1188.24,230.47,1221.8,251.9,1243.61Z"/><path class="cls-3" d="M612.33,1016.31l-.74,81.35c-.05,5.79,0,11.89,2.88,16.9,2.17,3.73,5.71,6.44,9.21,9,37,26.8,80.38,46.21,126,49.13s93.31-12.08,124.67-45.28c5.24-5.55,10.09-11.73,12.34-19,1.83-6,1.81-12.34,1.77-18.59q-.21-29.62-.4-59.25"/><path d="M588.61,1016.31c-.25,27.08-1.21,54.27-.74,81.35.2,11.82,1.79,22.44,8.69,32.3,6.59,9.41,17.37,15.91,26.82,22.13,38.2,25.11,82.49,42,128.39,44.4,41.48,2.14,85.26-9.35,118.68-34.4,17.42-13,35.6-29.73,40.12-52,5.11-25.16,1.34-54.07,1.17-79.6-.21-30.52-47.65-30.59-47.45,0,.13,20.52.62,41.08.39,61.6-.18,15.6-12.81,25.68-25.09,34-25.88,17.44-56.85,24.57-87.82,23-34.38-1.76-67.35-15-96.44-32.84-4.91-3-17.15-8.2-20-13.38-2.15-3.88.11-16.51.16-21.43l.58-65.08c.28-30.54-47.17-30.56-47.44,0Z"/><path class="cls-3" d="M581.33,984.81c-169-127.18-196-386.88-48.69-541.8,69-72.57,169.24-112.34,267.62-106.18,91.06,5.69,181.55,52.6,230.37,132.08,32,52.19,44.84,114.6,50,176.15,6.22,73.59,1.89,150.2-28.65,217-59.66,130.52-215.33,197.36-353,171.85C657,1026.14,615.81,1010.75,581.33,984.81Z"/><path d="M593.3,964.32C393.53,810.41,425.47,469.89,670.41,380c127.12-46.66,285-7.58,349.72,118.69,34.67,67.58,42.07,151,38.7,225.83-3.21,71.23-23.91,141.77-73.26,194.84-97.88,105.24-274,130-392.27,45-24.83-17.84-48.55,23.29-23.94,41,121,86.93,296.68,71.42,411.72-18,134.79-104.75,150.6-300.89,103.27-454.93-48-156.2-205.76-240.89-364-214.63C573.07,342.18,453.27,458.61,422,604c-32.39,150.82,25.5,307.44,147.32,401.29C593.53,1023.91,617.18,982.72,593.3,964.32Z"/><path d="M651.77,862.09c82.41,47.06,188.17,45.65,269-4.44,25.9-16.06,2.1-57.12-24-41C830.2,858,743.87,860,675.71,821.12c-26.56-15.16-50.49,25.82-23.94,41Z"/><path d="M708.72,673.29c1.54-125.47-126.51-127.23-128.05-1.57C579.13,797.19,707.19,799,708.72,673.29Z"/><path d="M983.11,673.29c1.53-125.47-126.52-127.23-128.05-1.57C853.52,797.19,981.57,799,983.11,673.29Z"/><path class="cls-4" d="M1079.77,488.57a628.05,628.05,0,0,1,3.39,239.12c-7.3,40.88-31.05,140.72,22.32,163.25,32.36,13.67,10,40,6.9,64.85-1.74,13.94-2.6,32.36,5.52,44.42,2.5,3.7,28.83,26.15,33.38,17.73-9.74,18-22.26,34.76-28.77,54.19s-5.59,43.23,9,57.56c15,14.73,39.24,14.74,59.56,9.27a144.74,144.74,0,0,0,75.41-49.73c-13,12.39-35.18,12.46-49.62,1.74s-20.91-30.29-17.93-48c4.46-26.54,34.11-60.7,50-82.49,8.24-11.26,7.17-28.35-2.41-38.5-11.07-11.73-29-12.71-44-18.68s-28.43-24.93-17.93-37.18c4.08-4.76,10.56-6.68,15.41-10.66,12.87-10.58,9.68-32.16-1.17-44.81s-26.84-19.38-40.9-28.32c-44.45-28.28-43.63-96.73-22.75-139,29.94-60.61,35.49-132.55,16.75-197.37-19.3-66.75-63-99-113.74-144.89-33.15-29.92-68.81-60.6-112.58-69.43-62.91-12.7-114.68,25.71-146.29,75.84C743.78,279.6,713.3,229,660.75,225.94c-41.51-2.4-81.65,14.51-118.24,34.27-88.83,48-169.64,118.26-208.81,211.31S305,682.34,376.25,753.84c12.63,12.67,28.28,28.19,23.1,45.31-5.65,18.65-30.37,21.51-46.74,32.08-30.4,19.64-22.82,75.22,11.72,86-41.87,12-92.38,34.55-92.91,78.1-.22,18.26,9.21,35.1,13.32,52.89s.15,40.63-16.89,47.21c28.24,20.36,71.76,15.16,94.39-11.29s21.06-70.25-3.42-95c32.05,24.32,81.12-5.78,92.59-44.33s-.83-79.55-7.92-119.14c-13-72.57-14.82-174.25,14.72-243.08,11.7-27.28,142.55-194.88,177.8-171.75l23.52,17.41c-13,14-1.12,69,15.73,78.67s37.86,9.37,57.59,8.76l141.71-4.31c15.29-.47,31.29-1.12,44.52-8.34s6.44-82.13,0-95.18c54.94-2.17,98.92,107.7,153.05,98.63-3.59-66.93-54.35-122.91-107.68-167.34-26.17-21.8-55-42.87-89.16-49.72-28.92-5.81-56.66,1.83-78.85,19.14"/><path d="M1056.89,494.88a615.17,615.17,0,0,1,2.59,230.94c-7.76,42.76-18.29,89-7.08,132.19,5.06,19.47,15.22,35.49,31.13,47.7,3.4,2.61,13.62,6,15.19,10.3,1.33,3.59-4,13.07-5,16.48-3.26,11.34-5.69,22.61-6,34.46-.69,22.83,4.39,43.14,22.18,58.15,13.56,11.45,36.16,26.52,53.37,13.33L1130.79,1006c-25.28,44.6-64,115.72-1.79,150.85,52,29.37,120.79-11.07,154.31-50.81,16-18.93-5.61-54.58-28.75-37.26-28.26,21.15-36.06-18.29-25.66-38.52,10.91-21.21,28.37-37.64,40.6-57.8,23.35-38.51-3.46-74.2-41.07-86-2-.65-21.69-6.76-21.64-7,.52-3,15.81-13.06,18.31-17.13,9.36-15.22,8.53-35.19,1.5-51-17.81-40.21-71.28-42.06-79.92-88.48-8.48-45.54,19.87-83,30.56-125.31a304.86,304.86,0,0,0,.26-148c-21.87-87-98.58-151.54-167.87-203-40.81-30.33-90.22-49-141.25-36.89-47.33,11.21-83.56,46.58-109.49,86l37.26-4.8c-27.33-22.42-49.11-51.49-79.39-70.34-34.46-21.45-75-21.7-113.33-11.42-81.95,21.95-163.37,80.81-219.81,143-54.68,60.28-91.44,134.77-95.76,216.77-2.14,40.73,4,82.5,19.05,120.45a242.51,242.51,0,0,0,24.39,46.89,257.85,257.85,0,0,0,16.55,21.85c6.59,7.76,24.16,19.45,26.15,28.88,2.84,13.49-33.14,22-43.14,31.48-11.26,10.72-17.86,25.24-20,40.47-5.15,36.17,14,67.92,47.2,81.36V894.35c-36.63,10.91-78.6,27-99.19,61.61-9.89,16.63-12.82,35.73-9.67,54.7,2.39,14.4,24.9,54.26,6.71,64.28-16.09,8.86-14.66,31.78,0,41,39.69,24.91,94.23,19.3,125-17.39,31.3-37.33,25.35-90.9-5.27-126.15l-28.75,37.26c31.09,19.73,68.2,12.42,95.45-10.66,31.93-27.06,40.2-67.68,36.47-107.88-4.55-49-18.17-95.9-20.09-145.4-1.71-44.43.66-90,13.69-132.72,14.34-47,54.34-87.82,87-123.07,17-18.41,35.2-38.84,57-51.77,2.48-1.46,15-5.68,7.68-6.81,6.93,1.06,17.74,13.13,23.53,17.41l-8.51-32.45c-18.48,27-7.58,78,13,101.34,14.94,16.91,39.29,21,60.83,21.93,35.94,1.57,72.58-1.74,108.53-2.84,36.51-1.11,112.52,10.18,125.72-36.77,7.85-27.89,5.66-71.43-5.18-98.4l-22.88,30c29.6.69,54.95,40.49,73.91,59.34,21.23,21.09,47.29,42.51,79.14,39.3,11.9-1.2,24.91-9.93,23.73-23.73-6.62-77.13-57.17-136.36-114.64-184.12-56.83-47.23-128.78-82.64-196.76-34.29-24.68,17.55-1,58.72,23.95,41,55.56-39.52,110.6,1,153.71,39.28,40.89,36.3,81.4,81.24,86.29,138.16l23.72-23.72c-30,3-54.79-35.48-73.33-54.34-22-22.45-46.77-43.53-79.72-44.29-14.07-.33-28.65,15.65-22.87,30,6.8,16.94,7.08,38,6.72,56-.08,3.75.93,10.16-.77,13.36-4.83,9.09.44,1.14-6.37,2.54-19.9,4.11-42.34,2.22-62.56,2.83-39.77,1.21-80.6,5.28-120.34,3.2-17.64-.92-26-3-31.3-19.32-2.89-8.85-7.21-24.3-1.57-32.56,7.78-11.38,1.19-25.28-8.51-32.46-15-11.12-27.65-24.05-47.58-22.43-21.32,1.74-39.8,16.65-55.62,29.79-43.44,36.06-80.58,82.15-113.19,128-39.18,55.08-45.71,127.17-44.18,193.08,1,43.6,8.23,85.66,16.05,128.4,4.75,26,11.07,57.48-2,82.21C414.82,966,391,981.5,370.8,968.66c-23.81-15.11-45.7,17.76-28.75,37.26,38,43.74-15.46,98.36-62.22,69v41c35.11-19.34,32.78-58.35,22.46-91.56-7-22.53-11.13-39.18,7.89-56.1,16.6-14.76,39.63-21.94,60.46-28.14,24.1-7.18,20.8-37.35,0-45.76-15.91-6.43-17.28-31.79-6.06-42.63,11.81-11.42,31.72-12.42,44.16-24.4,30.82-29.69,7.45-65.28-15.71-90.26-60.66-65.41-71.86-160.35-42.68-243C381,407.27,453.23,340.43,530.48,294.33c39.2-23.39,92.18-54.84,139.86-43,38.16,9.43,63.35,49.24,92.26,73,12.17,10,28.26,8.89,37.26-4.8C824,282.68,861.18,250,908,253.07c52.77,3.51,93.34,46.93,130.46,79.91,31.89,28.35,64.82,56.95,82.49,96.76,21.86,49.23,23.34,108.46,9.28,160-11,40.42-33.39,73.79-32.53,117.15.7,35.08,13.46,70.12,42.26,91.62,12.73,9.5,51.86,22.9,40.15,41.53-3.31,5.28-12,8.4-16,14.1-5.46,7.81-7.41,17.47-6.47,26.82,1.56,15.42,11.83,29,24.25,37.68,6.82,4.74,14.18,7.61,22,10.18,2.8.92,12.87,2.3,15.78,4.53,10.89,8.36,7.06,15.3,2.19,23.92-21.74,38.52-59.65,69.46-43.27,118.6,13.78,41.35,63.84,60.81,99.84,33.88l-28.75-37.26c-19.73,23.39-53.94,50.94-87.12,45.67-45.72-7.27-2.27-68.11,9.12-88.21,10.76-19-12.58-47.7-32.46-32.46,9.07-7,7.16,2.29,4-6-1.21-3.22-6.06-5.65-7.57-9.42-3.79-9.48.23-24.37,2.67-33.52,4.72-17.69,12.08-34.8,4.51-53-8.16-19.55-29.12-20.85-39.6-36.84-10.09-15.41-8.58-38.7-7.54-56.19,2.57-43.34,14.49-85.71,18.38-129,5.75-64.08,1.13-128.24-11.53-191.24-6-29.91-51.75-17.25-45.75,12.62Z"/><path d="M736.54,591.87l-.08-.16,2.4,5.67a.73.73,0,0,1-.06-.21l.85,6.31a1,1,0,0,1,0-.25l-.85,6.31a1.68,1.68,0,0,1,.07-.24L736.48,615a1.71,1.71,0,0,1,.13-.23l-3.71,4.8a2.27,2.27,0,0,1,.31-.31l-4.8,3.71a2.76,2.76,0,0,1,.44-.25l-5.66,2.39a2.09,2.09,0,0,1,.49-.13l-6.31.84h.38l-6.31-.84.25.06L706,622.62a.72.72,0,0,1,.21.12l-4.8-3.71.15.15-3.71-4.81a2,2,0,0,1,.14.25l-2.4-5.67,0,.06a26.57,26.57,0,0,0,10.91,14.17,17.55,17.55,0,0,0,8.82,2.82,18,18,0,0,0,9.46-.43l5.66-2.39a23.8,23.8,0,0,0,8.52-8.51l2.39-5.66a23.91,23.91,0,0,0,0-12.62c-.36-1-.76-1.94-1.22-2.89s-.81-1.93-1.22-2.89l-.06-.12a24.48,24.48,0,0,0-3.87-5c-.16-.16-4.68-3.65-4.88-3.77l-.11-.06c-.24-.15-5.43-2.33-5.73-2.42l-.15,0c-5.09-1.42-8-.89-13.08,0l-.31.07-.13,0c-1,.39-1.93.8-2.89,1.22s-1.93.8-2.89,1.22a23.82,23.82,0,0,0-5.28,4l-.19.2-1.88,2.44c-.66.79-1.29,1.61-1.89,2.45l-.08.13a24.65,24.65,0,0,0,0,24.85,22.84,22.84,0,0,0,23.64,11.32,17.63,17.63,0,0,0,8.82-2.81l4.8-3.71a23.75,23.75,0,0,0,6.11-10.47l.84-6.31a23.53,23.53,0,0,0-3.24-12Z"/><path d="M1000,580.24l-.08-.15,2.39,5.67a1.6,1.6,0,0,1,0-.21l.84,6.31a.76.76,0,0,1,0-.26l-.85,6.31a1.09,1.09,0,0,1,.07-.24l-2.39,5.67a1.59,1.59,0,0,1,.13-.22l-3.71,4.8a1.52,1.52,0,0,1,.31-.31l-4.8,3.71a2.43,2.43,0,0,1,.44-.26l-5.66,2.39a2,2,0,0,1,.49-.13l-6.31.85a1.15,1.15,0,0,1,.37,0l-6.3-.85a1.09,1.09,0,0,1,.24.07l-5.66-2.4.21.13-4.8-3.71.15.14-3.71-4.8a.92.92,0,0,1,.13.24L959,597.32l0,.06A26.59,26.59,0,0,0,970,611.56a17.7,17.7,0,0,0,8.82,2.81,18,18,0,0,0,9.47-.42l5.66-2.39a23.85,23.85,0,0,0,8.51-8.51l2.4-5.67a23.88,23.88,0,0,0,0-12.61c-.36-1-.77-1.95-1.22-2.89s-.81-1.93-1.22-2.89a.75.75,0,0,0-.07-.12,24.17,24.17,0,0,0-3.86-5c-.16-.17-4.68-3.66-4.88-3.77l-.11-.07c-.24-.14-5.43-2.33-5.73-2.42l-.15,0c-5.09-1.43-8-.9-13.09,0l-.3.06-.14,0c-1,.39-1.93.79-2.88,1.22s-1.93.8-2.89,1.21a23.63,23.63,0,0,0-5.28,4l-.19.19-1.89,2.45c-.66.79-1.29,1.6-1.88,2.44l-.08.13a24.65,24.65,0,0,0,0,24.85,22.88,22.88,0,0,0,23.64,11.33,17.55,17.55,0,0,0,8.82-2.82l4.8-3.71a23.65,23.65,0,0,0,6.1-10.46l.85-6.31a23.57,23.57,0,0,0-3.24-12Z"/></svg>