<svg id="Layer_1" data-name="Layer 1" xmlns="http://www.w3.org/2000/svg" viewBox="0 0 1500 1500"><defs><style>.cls-1{fill:#ffa476;}.cls-2{fill:#006838;}.cls-3{fill:#d88d3d;}</style></defs><title>Kid Talk</title><ellipse class="cls-1" cx="750" cy="749.6" rx="693.3" ry="699.1"/><path class="cls-2" d="M273.61,1225.56S466.55,1423,750,1423s449.71-172.23,449.71-172.23-47.54-190.07-309.79-174.94S399.06,990.62,273.61,1225.56Z"/><path d="M256.88,1242.29c85.22,86.73,204.87,149.41,321,181,185.29,50.43,389.12,16.58,550.31-87.06,29.23-18.79,66.19-40.88,88.17-68.66,18.46-23.33-9.67-64.6-22.76-84.57-32.93-50.25-81-86.93-136.88-108.46-91.66-35.36-190.84-18.25-286.5-22-99.7-3.91-201.6-18.65-300.73-.89-96.8,17.33-169.6,76.58-216.33,161.94-14.64,26.72,26.21,50.63,40.86,23.88,38.75-70.79,95.12-120.25,174.93-137.6,76.78-16.7,158-8,235.68-3.41,44.38,2.64,88.81,4.94,133.29,4.64,46.45-.31,92.78-5.47,139,1.41,61.32,9.14,119.33,35.83,160.07,83.39,18.56,21.66,33.68,47,39.86,71.15l6.08-23c-71.74,73.82-177.24,121.92-275.43,146.24-181.35,44.92-367.51,5.18-522.32-96.51-33.46-22-66.73-46.3-94.89-75C269,1187.07,235.5,1220.54,256.88,1242.29Z"/><path class="cls-3" d="M571.93,1103.3C403.34,976.46,376.42,717.46,523.36,563c68.83-72.38,168.8-112,266.91-105.9,90.81,5.69,181.06,52.47,229.75,131.74,32,52,44.72,114.29,49.91,175.67,6.2,73.4,1.88,149.8-28.58,216.45-59.49,130.17-214.75,196.83-352.07,171.38C647.39,1144.53,606.31,1129.17,571.93,1103.3Z"/><path d="M583.87,1082.87c-199.25-153.5-167.39-493.11,76.9-582.79,126.77-46.55,284.18-7.57,348.78,118.36,34.58,67.4,42,150.59,38.6,225.23-3.21,71-23.84,141.4-73.06,194.32-97.62,105-273.26,129.63-391.22,44.88-24.77-17.8-48.42,23.23-23.89,40.86,120.66,86.69,295.89,71.23,410.63-17.94,134.42-104.47,150.2-300.09,103-453.71-47.87-155.79-205.21-240.26-363-214.07-146.87,24.38-266.36,140.5-297.5,285.5-32.3,150.42,25.43,306.62,146.92,400.22C584.09,1142.3,607.68,1101.22,583.87,1082.87Z"/><path d="M699.25,811.64c1.54-125.13-126.17-126.88-127.71-1.56C570,935.21,697.72,937,699.25,811.64Z"/><path d="M972.91,811.64c1.53-125.13-126.18-126.88-127.71-1.56C843.66,935.21,971.37,937,972.91,811.64Z"/><path d="M683.17,961.2c10.65,39.58,44.85,70.56,86.13,73.76,38.64,3,79.27-25.75,86.78-64.2,2.36-12.11-3.42-26.12-16.53-29.11-11.71-2.66-26.57,3.54-29.1,16.53-.34,1.7-.7,3.38-1.18,5.05-.34,1.17-1.37,6.7,0,.78-.65,2.75-3,5.9-4.55,8.19-2.88,4.28-.14-.14.11,0,0,0-3.33,3.65-3.48,3.8-1.22,1.23-2.54,2.34-3.81,3.51-3.2,3,2.39-1.42,0,0-2.75,1.61-5.42,3.32-8.21,4.88-4.93,2.75,4.61-1.42-.74.38-1.65.56-3.28,1.14-5,1.61-1.39.4-2.8.73-4.22,1-3.79.78-1.54,1.23.28.09-2.12,1.33-7.93.26-10.4.15-4.47-.2,3,.78.1,0-1.73-.46-3.51-.73-5.24-1.2-1.45-.4-2.85-.9-4.28-1.33-5.54-1.67,4.21,2.26-1-.34a85,85,0,0,1-8.57-4.86c-.62-.41-5.2-4-2.7-1.85s-1.25-1.18-1.75-1.64a92.76,92.76,0,0,1-7.51-7.85c-2.89-3.34,1.28,2.15-.16-.26-.78-1.29-1.72-2.5-2.52-3.78a94.2,94.2,0,0,1-5.12-9.62c1.71,3.6.53,1.23-.25-1.1-.58-1.72-1.07-3.46-1.54-5.21-3.22-12-17-20.45-29.11-16.53s-20,16.3-16.52,29.11Z"/><path d="M705.31,476.05c27,21.68,53,45.62,74.78,72.59,8.7,10.78,16.82,23.13,21.39,36.27s5.4,23.72,1.95,35.93c-2.78,9.84-8,18.19-15.68,22.93-7.22,4.5-16,4.57-23.85.8-17.62-8.51-19.61-32.78-4.47-43.49,10.42-7.37,15.34-20.67,8.49-32.38-6-10.3-21.89-15.9-32.37-8.48-27.93,19.75-41.71,56.21-28.35,88.85,13.13,32.07,48.24,50.27,82.12,44.11,31.21-5.68,54.09-34,60.8-63.87,7.71-34.42-3.63-68.76-23.51-97-24-34.17-55.42-63.61-87.84-89.7-9.95-8-23.74-9.72-33.46,0-8.28,8.29-10,25.41,0,33.46Z"/></svg>