<svg id="Layer_1" data-name="Layer 1" xmlns="http://www.w3.org/2000/svg" viewBox="0 0 1500 1500"><defs><style>.cls-1{fill:#ffa476;}.cls-2{fill:#006838;}.cls-3{fill:#99501f;}</style></defs><title>Kid Talk</title><ellipse class="cls-1" cx="750" cy="749.6" rx="691.81" ry="697.6"/><path class="cls-2" d="M274.63,1224.54s192.53,197,475.37,197,448.75-171.86,448.75-171.86-47.44-189.66-309.13-174.56S399.81,990.1,274.63,1224.54Z"/><path d="M257.94,1241.23c85,86.55,204.43,149.09,320.33,180.63,184.89,50.32,388.28,16.55,549.13-86.87,29.16-18.75,66-40.79,88-68.51,18.43-23.29-9.65-64.46-22.71-84.39-32.85-50.14-80.85-86.74-136.58-108.23-91.47-35.28-190.43-18.21-285.89-21.94-99.48-3.9-201.16-18.61-300.07-.89-96.6,17.29-169.25,76.42-215.88,161.59-14.6,26.67,26.16,50.52,40.78,23.83,38.67-70.63,94.91-120,174.55-137.31,76.61-16.65,157.7-8,235.17-3.39,44.29,2.63,88.63,4.92,133,4.63,46.35-.31,92.58-5.47,138.73,1.4,61.19,9.12,119.08,35.75,159.73,83.21,18.52,21.62,33.61,46.89,39.77,71l6.07-23c-71.59,73.66-176.86,121.66-274.83,145.93-181,44.82-366.73,5.16-521.2-96.31-33.39-21.93-66.59-46.2-94.69-74.8C270,1186.13,236.61,1219.53,257.94,1241.23Z"/><path class="cls-3" d="M572.31,1102.54C404.08,976,377.23,717.53,523.85,563.35c68.68-72.22,168.43-111.8,266.34-105.67,90.61,5.67,180.67,52.35,229.25,131.45,31.9,51.94,44.63,114,49.8,175.3,6.19,73.24,1.88,149.48-28.51,216-59.37,129.89-214.29,196.41-351.32,171C647.61,1143.68,606.62,1128.36,572.31,1102.54Z"/><path d="M584.23,1082.15C385.41,929,417.2,590.11,661,500.61c126.5-46.44,283.57-7.54,348,118.11,34.5,67.26,41.87,150.27,38.51,224.74-3.2,70.9-23.79,141.1-72.91,193.91-97.4,104.73-272.67,129.35-390.37,44.78-24.72-17.76-48.32,23.18-23.84,40.78,120.4,86.5,295.26,71.07,409.74-17.9C1104.27,1000.78,1120,805.58,1072.9,652.29c-47.77-155.46-204.76-239.74-362.25-213.61C564.09,463,444.86,578.88,413.79,723.57c-32.24,150.09,25.37,306,146.6,399.36C584.45,1141.46,608,1100.46,584.23,1082.15Z"/><path d="M699.36,811.51c1.53-124.86-125.9-126.61-127.43-1.56C570.4,934.81,697.83,936.59,699.36,811.51Z"/><path d="M972.43,811.51C974,686.65,846.52,684.9,845,810,843.46,934.81,970.9,936.59,972.43,811.51Z"/><path d="M683.31,960.74c10.63,39.5,44.76,70.41,86,73.61,38.56,3,79.1-25.7,86.59-64.07,2.36-12.08-3.41-26.06-16.49-29-11.69-2.66-26.51,3.53-29,16.49-.34,1.7-.69,3.38-1.17,5-.34,1.17-1.37,6.69,0,.78-.66,2.75-3,5.89-4.54,8.17-2.88,4.28-.14-.13.1,0,0,0-3.32,3.64-3.47,3.8-1.22,1.22-2.53,2.33-3.8,3.5-3.19,3,2.39-1.42,0,0-2.74,1.6-5.41,3.31-8.2,4.86-4.91,2.75,4.61-1.42-.73.38-1.65.56-3.28,1.14-5,1.61-1.39.4-2.8.73-4.21,1-3.78.78-1.54,1.22.28.09-2.12,1.32-7.92.26-10.38.15-4.47-.2,3,.78.1,0-1.73-.46-3.51-.73-5.24-1.2-1.43-.4-2.83-.9-4.26-1.33-5.53-1.66,4.2,2.26-1-.34a84.57,84.57,0,0,1-8.55-4.84c-.62-.41-5.19-4-2.7-1.85s-1.25-1.18-1.74-1.64a90.8,90.8,0,0,1-7.49-7.83c-2.89-3.34,1.27,2.14-.17-.26-.77-1.29-1.71-2.49-2.51-3.77a95.82,95.82,0,0,1-5.11-9.6c1.71,3.59.53,1.23-.25-1.1-.57-1.71-1.06-3.45-1.53-5.2-3.21-11.92-17-20.4-29.05-16.49s-19.93,16.27-16.49,29Z"/><path d="M705.41,476.64c26.88,21.63,52.9,45.52,74.62,72.43,8.68,10.76,16.78,23.08,21.34,36.19s5.39,23.67,2,35.86c-2.78,9.81-8,18.15-15.65,22.88-7.21,4.48-16,4.55-23.8.79-17.58-8.48-19.57-32.71-4.46-43.39,10.4-7.36,15.3-20.62,8.47-32.31-6-10.28-21.84-15.87-32.3-8.47-27.87,19.71-41.62,56.09-28.29,88.66,13.1,32,48.14,50.17,82,44,31.14-5.67,54-33.9,60.66-63.73,7.7-34.35-3.62-68.62-23.45-96.81-24-34.1-55.3-63.48-87.65-89.51-9.93-8-23.69-9.7-33.39,0-8.27,8.27-10,25.36,0,33.39Z"/></svg>