<svg id="Layer_1" data-name="Layer 1" xmlns="http://www.w3.org/2000/svg" viewBox="0 0 1500 1500"><defs><style>.cls-1{fill:#ffa476;}.cls-2{fill:#003fcc;}.cls-3{fill:#f2d3a5;}</style></defs><title>Kid Talk</title><ellipse class="cls-1" cx="750" cy="749.6" rx="698.37" ry="704.22"/><path class="cls-2" d="M270.12,1229s194.35,198.9,479.88,198.9,453-173.49,453-173.49S1155.11,1063,890.94,1078.24,396.49,992.38,270.12,1229Z"/><path d="M253.27,1245.89c85.85,87.37,206.37,150.5,323.38,182.35,186.64,50.79,392,16.7,554.33-87.7,29.44-18.92,66.67-41.18,88.81-69.16,18.59-23.51-9.75-65.07-22.93-85.19-33.16-50.62-81.62-87.56-137.88-109.26-92.33-35.61-192.23-18.37-288.6-22.15-100.42-3.93-203.06-18.78-302.92-.9C370,1071.34,296.62,1131,249.54,1217c-14.74,26.92,26.41,51,41.16,24.06,39-71.31,95.82-121.13,176.22-138.61,77.33-16.82,159.19-8.07,237.39-3.43,44.71,2.65,89.47,5,134.27,4.67,46.79-.31,93.46-5.51,140,1.42,61.77,9.2,120.2,36.09,161.24,84,18.7,21.82,33.93,47.34,40.15,71.67l6.13-23.19c-72.27,74.36-178.54,122.82-277.44,147.31-182.68,45.25-370.2,5.22-526.14-97.22-33.71-22.14-67.23-46.63-95.59-75.5C265.44,1190.27,231.74,1224,253.27,1245.89Z"/><path d="M774.11,459.9c-13.27-36.25-24.52-74.95-28.22-113.51-1.5-15.63-2.52-33,3.85-47.8,5.65-13.14,16.81-21.18,29.15-27.49,25.65-13.13,61.12-16.18,83.44,4.84,17.69,16.64,18,44.28-3.37,55.51-27.17,14.29-3.1,55.44,24,41.16,30.92-16.25,45.56-53.78,38.06-87.23-7.63-34-37.93-60.41-71-68.71-37.23-9.33-80.76.4-111.44,23.28-32,23.85-43.52,60.1-41,99,2.89,45.39,14.95,91,30.53,133.59,4.43,12.08,16.18,20.26,29.32,16.65,11.64-3.2,21.1-17.17,16.65-29.32Z"/><path class="cls-3" d="M570.62,1105.89C400.8,978.12,373.69,717.23,521.7,561.59c69.34-72.91,170-112.86,268.87-106.68C882,460.64,973,507.76,1022,587.61c32.2,52.43,45,115.13,50.27,177,6.24,73.93,1.9,150.9-28.79,218-59.92,131.12-216.32,198.27-354.65,172.63C646.64,1147.41,605.26,1132,570.62,1105.89Z"/><path d="M582.65,1085.31C382,930.69,414,588.59,660.11,498.25c127.71-46.88,286.27-7.62,351.34,119.23,34.83,67.9,42.27,151.69,38.88,226.87-3.23,71.57-24,142.44-73.6,195.75-98.33,105.72-275.26,130.58-394.08,45.21-24.95-17.93-48.77,23.4-24.06,41.16,121.55,87.32,298.06,71.75,413.63-18.07,135.41-105.24,151.3-302.29,103.75-457-48.23-156.94-206.71-242-365.69-215.63C562.32,460.29,442,577.26,410.6,723.32c-32.54,151.51,25.61,308.86,148,403.15C582.88,1145.18,606.64,1103.79,582.65,1085.31Z"/><path d="M698.88,812.1c1.55-126.05-127.1-127.82-128.64-1.58C568.7,936.57,697.34,938.36,698.88,812.1Z"/><path d="M974.54,812.1c1.54-126.05-127.1-127.82-128.65-1.58C844.35,936.57,973,938.36,974.54,812.1Z"/><path d="M682.68,962.75c10.73,39.87,45.18,71.07,86.77,74.3,38.92,3,79.84-25.95,87.4-64.67,2.39-12.2-3.44-26.31-16.64-29.32-11.8-2.69-26.77,3.56-29.32,16.64-.34,1.72-.7,3.41-1.18,5.09-.34,1.18-1.38,6.75,0,.78-.66,2.78-3,5.95-4.59,8.26-2.9,4.31-.14-.14.11,0,0,0-3.35,3.67-3.51,3.83-1.23,1.23-2.55,2.35-3.83,3.53-3.22,3,2.41-1.43,0,0-2.77,1.62-5.46,3.34-8.27,4.91-5,2.78,4.64-1.43-.75.39-1.66.56-3.31,1.15-5,1.62-1.41.4-2.83.74-4.26,1-3.81.79-1.55,1.24.29.09-2.14,1.33-8,.27-10.47.15-4.52-.2,3,.79.09,0-1.74-.46-3.54-.73-5.28-1.21-1.45-.4-2.87-.91-4.3-1.34-5.59-1.68,4.24,2.28-1-.34a86.35,86.35,0,0,1-8.64-4.89c-.62-.42-5.23-4.08-2.72-1.87s-1.26-1.19-1.76-1.65a92.52,92.52,0,0,1-7.56-7.91c-2.92-3.36,1.28,2.17-.17-.26-.78-1.3-1.73-2.52-2.54-3.81a98.53,98.53,0,0,1-5.15-9.68c1.72,3.61.54,1.23-.25-1.12-.59-1.73-1.08-3.48-1.56-5.25-3.23-12-17.11-20.59-29.31-16.64-12.35,4-20.12,16.42-16.65,29.32Z"/></svg>