<svg id="Layer_1" data-name="Layer 1" xmlns="http://www.w3.org/2000/svg" viewBox="0 0 1500 1500"><defs><style>.cls-1{fill:#ffa476;}.cls-2{fill:#003fcc;}.cls-3{fill:#d88d3d;}</style></defs><title>Kid Talk</title><ellipse class="cls-1" cx="750" cy="749.6" rx="693.97" ry="699.78"/><path class="cls-2" d="M273.15,1226S466.27,1423.67,750,1423.67s450.15-172.4,450.15-172.4-47.59-190.25-310.1-175.1S398.72,990.85,273.15,1226Z"/><path d="M256.4,1242.76c85.31,86.82,205.07,149.56,321.34,181.2,185.46,50.48,389.49,16.6,550.84-87.14,29.25-18.81,66.25-40.92,88.25-68.73,18.47-23.36-9.68-64.66-22.79-84.66-33-50.29-81.11-87-137-108.56-91.76-35.39-191-18.26-286.78-22-99.79-3.91-201.79-18.66-301-.89-96.89,17.35-169.77,76.66-216.54,162.09-14.65,26.75,26.24,50.69,40.9,23.91,38.79-70.86,95.21-120.37,175.1-137.74,76.85-16.7,158.19-8,235.9-3.4,44.43,2.63,88.9,4.94,133.42,4.64,46.5-.31,92.88-5.48,139.17,1.41,61.38,9.14,119.44,35.86,160.23,83.47,18.57,21.68,33.71,47,39.89,71.22l6.09-23c-71.81,73.9-177.41,122-275.69,146.39-181.53,45-367.87,5.18-522.83-96.61-33.49-22-66.8-46.34-95-75C268.5,1187.49,235,1221,256.4,1242.76Z"/><path class="cls-3" d="M571.75,1103.64C403,976.68,376.06,717.43,523.14,562.77c68.9-72.45,169-112.15,267.17-106,90.9,5.69,181.24,52.52,230,131.86,32,52.1,44.77,114.4,50,175.84,6.2,73.47,1.88,149.95-28.6,216.66-59.55,130.3-215,197-352.42,171.55C647.29,1144.91,606.17,1129.54,571.75,1103.64Z"/><path d="M583.71,1083.19c-199.44-153.64-167.55-493.58,77-583.35,126.9-46.59,284.46-7.57,349.12,118.47,34.61,67.47,42,150.74,38.64,225.45-3.21,71.11-23.87,141.53-73.13,194.51-97.72,105.06-273.53,129.76-391.6,44.92-24.8-17.81-48.47,23.25-23.91,40.9,120.78,86.78,296.18,71.3,411-17.95,134.56-104.58,150.35-300.38,103.09-454.16C1026,496,868.51,411.5,710.53,437.71c-147,24.4-266.62,140.63-297.79,285.77C380.4,874,438.19,1030.4,559.8,1124.09,583.93,1142.68,607.54,1101.56,583.71,1083.19Z"/><path d="M699.21,811.7c1.53-125.25-126.3-127-127.84-1.56C569.84,935.39,697.67,937.17,699.21,811.7Z"/><path d="M973.12,811.7c1.53-125.25-126.3-127-127.83-1.56C843.75,935.39,971.59,937.17,973.12,811.7Z"/><path d="M683.1,961.4c10.67,39.62,44.9,70.63,86.22,73.84,38.68,3,79.34-25.78,86.86-64.27,2.37-12.12-3.42-26.14-16.54-29.13-11.73-2.67-26.6,3.54-29.14,16.54-.33,1.7-.69,3.39-1.17,5.06-.34,1.17-1.37,6.7,0,.77-.66,2.76-3,5.91-4.55,8.21-2.89,4.28-.14-.14.1,0,0,0-3.33,3.65-3.48,3.8-1.22,1.23-2.54,2.34-3.81,3.51-3.21,3,2.39-1.42,0,0-2.75,1.61-5.43,3.32-8.22,4.88-4.94,2.76,4.61-1.42-.74.39-1.66.55-3.29,1.14-5,1.61-1.4.39-2.81.73-4.23,1-3.79.78-1.54,1.23.28.09-2.12,1.33-7.94.26-10.41.15-4.48-.2,3,.78.1,0-1.73-.46-3.52-.73-5.25-1.2-1.44-.4-2.85-.9-4.28-1.33-5.54-1.67,4.22,2.26-1-.35a83.29,83.29,0,0,1-8.58-4.86c-.62-.41-5.2-4-2.71-1.85s-1.25-1.19-1.75-1.64a93,93,0,0,1-7.51-7.86c-2.9-3.34,1.28,2.15-.17-.26-.77-1.29-1.71-2.5-2.52-3.78a96.37,96.37,0,0,1-5.12-9.63c1.71,3.6.54,1.23-.25-1.1-.58-1.72-1.07-3.47-1.54-5.22-3.22-12-17-20.46-29.13-16.54-12.28,4-20,16.31-16.55,29.13Z"/><path d="M705.27,475.79c27,21.7,53.06,45.66,74.85,72.66,8.71,10.79,16.84,23.15,21.41,36.3s5.41,23.74,2,36c-2.78,9.84-8.05,18.2-15.69,22.95-7.24,4.5-16,4.57-23.87.79-17.64-8.51-19.63-32.81-4.48-43.53,10.43-7.37,15.35-20.68,8.5-32.4-6-10.31-21.91-15.92-32.41-8.5-27.95,19.78-41.75,56.27-28.37,88.94,13.14,32.11,48.28,50.32,82.2,44.15,31.24-5.68,54.14-34,60.85-63.92,7.73-34.46-3.63-68.84-23.52-97.12-24.06-34.2-55.48-63.67-87.93-89.79-10-8-23.76-9.73-33.49,0-8.3,8.3-10,25.44,0,33.5Z"/></svg>