<svg id="Layer_1" data-name="Layer 1" xmlns="http://www.w3.org/2000/svg" viewBox="0 0 1500 1500"><defs><style>.cls-1{fill:#ffa476;}.cls-2{fill:#003fcc;}.cls-3{fill:#99501f;}</style></defs><title>Kid Talk</title><ellipse class="cls-1" cx="750" cy="749.6" rx="695.52" ry="701.34"/><path class="cls-2" d="M272.08,1227.08S465.64,1425.17,750,1425.17s451.15-172.78,451.15-172.78-47.69-190.68-310.79-175.49S397.94,991.39,272.08,1227.08Z"/><path d="M255.3,1243.86c85.5,87,205.53,149.89,322.05,181.6,185.88,50.59,390.36,16.64,552.07-87.33,29.32-18.85,66.4-41,88.45-68.88,18.52-23.41-9.7-64.81-22.83-84.85-33-50.4-81.3-87.2-137.32-108.81-92-35.46-191.45-18.3-287.42-22-100-3.92-202.24-18.71-301.68-.9-97.11,17.39-170.15,76.83-217,162.46-14.68,26.81,26.3,50.79,41,24,38.88-71,95.42-120.64,175.49-138,77-16.75,158.55-8,236.43-3.42,44.53,2.64,89.1,5,133.72,4.66,46.6-.31,93.08-5.5,139.48,1.41,61.52,9.16,119.71,35.94,160.58,83.66,18.62,21.73,33.78,47.14,40,71.37l6.11-23.09c-72,74.06-177.81,122.31-276.31,146.71-181.93,45.06-368.69,5.19-524-96.82-33.57-22-66.95-46.45-95.2-75.2C267.42,1188.47,233.86,1222,255.3,1243.86Z"/><path class="cls-3" d="M571.36,1104.43C402.23,977.19,375.23,717.36,522.64,562.36,591.69,489.74,692,450,790.4,456.12c91.1,5.7,181.64,52.63,230.49,132.15,32.07,52.22,44.86,114.66,50.06,176.24,6.22,73.63,1.89,150.28-28.66,217.14-59.69,130.58-215.44,197.46-353.21,171.93C647.06,1145.79,605.85,1130.39,571.36,1104.43Z"/><path d="M583.34,1083.94C383.46,930,415.41,589.25,660.48,499.28c127.18-46.69,285.1-7.59,349.9,118.74,34.69,67.62,42.1,151.07,38.72,226-3.21,71.27-23.91,141.85-73.29,194.94-97.93,105.3-274.14,130-392.47,45-24.85-17.86-48.58,23.3-24,41,121,87,296.83,71.45,411.93-18,134.86-104.8,150.68-301.05,103.32-455.16-48-156.29-205.86-241-364.19-214.75C563.09,461.47,443.23,578,412,723.43c-32.4,150.89,25.51,307.6,147.4,401.5C583.56,1143.56,607.23,1102.34,583.34,1083.94Z"/><path d="M699.09,811.84c1.54-125.53-126.58-127.29-128.12-1.57C569.44,935.8,697.55,937.59,699.09,811.84Z"/><path d="M973.62,811.84C975.16,686.31,847,684.55,845.5,810.27,844,935.8,972.08,937.59,973.62,811.84Z"/><path d="M683,961.88c10.69,39.7,45,70.78,86.42,74,38.76,3,79.51-25.84,87-64.41,2.37-12.15-3.43-26.21-16.58-29.2-11.75-2.68-26.66,3.55-29.2,16.58-.33,1.7-.69,3.39-1.18,5.06-.34,1.18-1.37,6.73,0,.78-.66,2.77-3,5.92-4.56,8.22-2.89,4.3-.14-.14.1,0,0,0-3.34,3.66-3.49,3.82-1.22,1.23-2.54,2.34-3.81,3.52-3.22,3,2.39-1.43,0,0-2.76,1.61-5.45,3.32-8.25,4.89-4.94,2.76,4.63-1.43-.74.38-1.65.56-3.29,1.15-5,1.62-1.4.39-2.81.73-4.24,1-3.8.78-1.54,1.23.29.09-2.13,1.33-8,.27-10.43.15-4.5-.2,3,.79.09,0-1.73-.46-3.52-.73-5.26-1.2-1.45-.4-2.85-.91-4.29-1.34-5.55-1.67,4.23,2.27-1-.34a85.58,85.58,0,0,1-8.6-4.87c-.62-.41-5.21-4.06-2.71-1.86s-1.26-1.19-1.75-1.64a93.49,93.49,0,0,1-7.54-7.88c-2.9-3.35,1.29,2.16-.16-.26-.78-1.3-1.72-2.51-2.53-3.79a95.81,95.81,0,0,1-5.13-9.65c1.71,3.6.53,1.23-.25-1.11-.58-1.72-1.08-3.47-1.55-5.22-3.22-12-17.05-20.51-29.2-16.58S679.5,949,683,961.88Z"/><path d="M705.17,475.18c27,21.75,53.18,45.76,75,72.82,8.73,10.81,16.87,23.2,21.45,36.38s5.42,23.8,2,36c-2.79,9.87-8.07,18.25-15.73,23-7.25,4.5-16.08,4.57-23.92.79-17.68-8.53-19.68-32.88-4.49-43.63,10.45-7.39,15.39-20.73,8.52-32.47-6.05-10.34-22-16-32.48-8.52-28,19.82-41.84,56.39-28.44,89.14,13.17,32.17,48.4,50.43,82.39,44.25,31.31-5.7,54.26-34.08,61-64.07,7.74-34.54-3.64-69-23.58-97.34-24.11-34.28-55.6-63.81-88.12-90-10-8-23.82-9.75-33.57,0-8.31,8.31-10,25.49,0,33.57Z"/></svg>