<svg id="Layer_1" data-name="Layer 1" xmlns="http://www.w3.org/2000/svg" viewBox="0 0 1500 1500"><defs><style>.cls-1{fill:#ffa476;}.cls-2{fill:#231f20;}</style></defs><title>GuessTheWord</title><path class="cls-1" d="M1074.52,1288.81c307-231,356.07-702.74,88.45-984.16C1037.6,172.83,855.54,100.59,676.83,111.78c-165.39,10.35-329.77,95.55-418.45,239.93-58.23,94.79-81.45,208.16-90.89,320-11.3,133.68-3.44,272.84,52,394.22C327.89,1303,610.67,1424.39,860.78,1378,937.08,1363.9,1011.89,1335.93,1074.52,1288.81Z"/><path class="cls-2" d="M1096.56,1326.53c194.79-150.11,303.85-390.84,281.69-637.23-24-266.68-196.73-496.94-451.17-585.95-264.33-92.48-591.51.17-724.56,258.57C131,500.83,112.32,671.25,120.81,825.55c8,145.75,52.13,286.53,150.13,397,199.73,225.06,578,282,825.62,104,45.25-32.52,1.69-108.32-44.09-75.43-192.6,138.38-472,116.84-655-28.72-209.46-166.6-225.29-473.23-158.26-714.44,70.68-254.35,325.62-393.63,581-343.28,235.26,46.39,416.27,233,462.27,466.66,45.08,229-44.74,477-230,619.78C1008.57,1284.93,1052,1360.85,1096.56,1326.53Z"/><path d="M632.34,675.5c2.79-227.91-229.81-231.1-232.6-2.85C397,900.56,629.55,903.79,632.34,675.5Z"/><path d="M1100.63,675.5c2.79-227.91-229.81-231.1-232.6-2.85C865.24,900.56,1097.84,903.79,1100.63,675.5Z"/><path d="M522.21,1096.2a1564.15,1564.15,0,0,1,473.13-57c56.23,1.82,56.17-85.54,0-87.36A1647.31,1647.31,0,0,0,499,1012c-54.06,15.12-31.1,99.43,23.22,84.23Z"/><path d="M765.07,1150.29l107.34-20.69c15-2.89,24.91-21.67,20.33-35.82-5.17-16-19.76-23.44-35.82-20.34l-107.33,20.69c-15,2.89-24.92,21.67-20.34,35.82,5.17,16,19.76,23.43,35.82,20.34Z"/><path d="M338.52,556.77c119.64,2.87,238.77-37.16,333.52-110,18.68-14.35,28.65-37.58,15.67-59.76C677,368.65,646.78,356.9,628,371.36c-85.28,65.54-184.14,100.58-289.43,98.05-23.6-.57-43.68,20.48-43.68,43.68,0,24.14,20,43.11,43.68,43.68Z"/></svg>