<svg id="Layer_1" data-name="Layer 1" xmlns="http://www.w3.org/2000/svg" viewBox="0 0 1500 1500"><defs><style>.cls-1{fill:#ffa476;}.cls-2{fill:#231f20;}</style></defs><title>GuessTheWord</title><path class="cls-1" d="M1074.1,1288.12c306.66-230.71,355.62-701.84,88.34-982.9-125.21-131.66-307-203.8-485.51-192.63C511.74,122.93,347.58,208,259,352.22c-58.15,94.67-81.34,207.89-90.78,319.55-11.28,133.51-3.43,272.49,52,393.72,108.22,236.78,390.63,358,640.43,311.74C936.84,1363.11,1011.55,1335.18,1074.1,1288.12Z"/><path class="cls-2" d="M1096.12,1325.79c194.53-149.92,303.46-390.34,281.33-636.41C1353.5,423,1181,193.08,926.86,104.18c-264-92.36-590.76.17-723.63,258.24-71.44,138.73-90.09,308.93-81.61,463,8,145.57,52.06,286.16,149.93,396.45,199.48,224.77,577.21,281.61,824.57,103.89,45.19-32.47,1.68-108.18-44-75.34C859.73,1388.66,580.71,1367.14,398,1221.78c-209.19-166.39-225-472.63-158-713.53,70.59-254,325.2-393.13,580.25-342.84,235,46.33,415.74,232.65,461.68,466.06,45,228.68-44.69,476.36-229.76,619C1008.23,1284.25,1051.63,1360.07,1096.12,1325.79Z"/><path d="M955.92,675.59c-2.78-227.61,229.52-230.8,232.31-2.84C1191,900.37,958.71,903.6,955.92,675.59Z"/><path d="M581.39,675.59C578.6,448,810.9,444.79,813.7,672.75,816.48,900.37,584.18,903.6,581.39,675.59Z"/><path d="M1086.2,931.42c-85.84,7.66-172.81,12.36-257.56,28.71-85.26,16.46-168.14,47.27-248.24,80.2-21.77,9-37.25,29-30.47,53.66,5.67,20.61,31.74,39.49,53.66,30.47,77.29-31.77,157.09-61.48,239.12-78.38,79.89-16.46,162.4-20.18,243.49-27.41,23.47-2.09,43.62-18.55,43.62-43.63,0-22-20-45.72-43.62-43.62Z"/><path d="M907.58,1075.37l-111.26,16.09c-6.7,1-14.14,7.81-17.38,13.36-3.65,6.23-5.2,15.42-2.93,22.41s6.63,13.83,13.36,17.38c7.39,3.9,14.22,4.12,22.41,2.93L923,1131.46c6.7-1,14.14-7.82,17.38-13.37,3.65-6.23,5.2-15.42,2.94-22.4s-6.64-13.83-13.37-17.38c-7.39-3.91-14.21-4.12-22.41-2.94Z"/><path d="M565.36,537.63c90.94,0,183-23.22,260.73-71.06,19.43-11.95,28.62-39.57,15.65-59.68-12.56-19.49-38.89-28.45-59.68-15.65a396.87,396.87,0,0,1-53.85,28c7.9-3.32-4.44,1.67-4.85,1.82q-7.74,3-15.59,5.68-13.85,4.75-28,8.6a456.2,456.2,0,0,1-58,11.93c8.76-1.2-8,.8-9.55.95q-6.37.6-12.76,1.05c-11.38.78-22.76,1.09-34.17,1.09-22.82,0-44.68,20.07-43.62,43.63s19.17,43.62,43.62,43.62Z"/></svg>