<svg id="Layer_1" data-name="Layer 1" xmlns="http://www.w3.org/2000/svg" viewBox="0 0 1500 1500"><defs><style>.cls-1{fill:#ffa476;}.cls-2{fill:#231f20;}.cls-3{fill:#fff;}</style></defs><title>GuessTheWord</title><path class="cls-1" d="M524.78,967C320.19,813.1,287.52,498.78,465.85,311.26c83.53-87.84,204.85-136,323.92-128.52,110.21,6.9,219.73,63.68,278.82,159.87,38.8,63.17,54.27,138.71,60.57,213.2,7.52,89.08,2.29,181.8-34.68,262.68-72.2,158-260.62,238.88-427.28,208C616.36,1017.06,566.52,998.43,524.78,967Z"/><path class="cls-2" d="M539.47,941.9C297.63,755.53,336.81,344.08,633.06,235.25,786.91,178.72,977,226.47,1055.55,378.8c42.08,81.58,50.86,182.78,46.79,273.14-3.92,86.82-29.33,172.82-90,237.09C893.56,1014.88,682,1044.32,539.47,941.9,509,920,479.91,970.47,510.09,992.16c146.64,105.36,359.85,86.52,499.14-22.09C1170.92,844,1190.14,611,1135.81,425.25c-55.22-188.76-242.47-296-434.32-267.3C520.11,185.07,371.12,325.47,332,504.27,291.85,687.44,362.09,878.1,510.09,992.16,539.74,1015,568.76,964.47,539.47,941.9Z"/><path class="cls-3" d="M605.83,631.52l356-14.64c6.76-.28,15.1.34,18,6.47,1.95,4.19.3,9.09-1.36,13.41-17.4,45.3-35.59,91.87-69,127.1a185.79,185.79,0,0,1-262,7.64c-26.12-24.51-44.53-55.93-62.56-86.88-11-18.88-22.43-40.26-17.25-61.49"/><path d="M605.83,660.63l182.06-7.49,89-3.66,44.5-1.83,24.28-1c4.83-.2,18.34,3,13.56-2.72l-8.53-20.58c1,9.81-6.88,22.82-10.44,31.61-4.3,10.59-8.85,21.07-13.89,31.33-9.53,19.38-20.5,38.43-35.14,54.43-28.41,31-68.89,50.7-111.18,51.94-40.85,1.19-82.08-13.71-112-41.74-17.48-16.36-30.91-36-43.36-56.27-10.14-16.52-32.26-43.22-29-63.78,2.51-15.64-4.05-31.13-20.33-35.8-13.83-4-33.32,4.83-35.8,20.32-6.47,40.32,12.71,72.16,33,105.56,19,31.25,40.47,61.26,69.51,83.88,54.49,42.44,128.11,57.27,194.45,36.83C907.2,819.88,954.64,765.86,984,699.89c12.34-27.75,41.38-74.38,13.36-100.76-11.85-11.14-28.32-11.52-43.57-11-21.58.7-43.16,1.77-64.74,2.66l-283.2,11.65c-37.33,1.53-37.52,59.75,0,58.21Z"/><path class="cls-2" d="M536.71,505.24c1.61-4.59,3.23-9.17,4.95-13.71.79-2.08,1.61-4.14,2.42-6.21-2.18,5.57,1.1-2.33,1.31-2.78a128.71,128.71,0,0,1,6.14-11.62c1.35-2.24,2.8-4.38,4.26-6.55-2.27,3.38-.39.45,1.08-1.21s2.92-3.19,4.49-4.67c1-.91,6.9-4.79,2.09-2,1.82-1.07,3.53-2.3,5.37-3.32,2.15-1.2,4.86-2.44,1-.86,4.35-1.79,8.87-2.53,13.32-3.88,3.23-1-4.5.12,1.08-.15,2.56-.12,5.08-.27,7.64-.23,2.14,0,4.26.29,6.38.37,3.4.12-4.31-1.08,1.12.27,2.5.62,5,1.14,7.44,1.88.68.21,7.23,2.49,3.73,1.15s2.8,1.39,3.46,1.74c2.24,1.19,4.44,2.47,6.57,3.84.58.38,6.16,4.35,3.24,2.13s2.38,2.09,2.9,2.57c3.48,3.15,6.42,6.7,9.66,10.06,2.22,2.31-2.07-3.23.89,1.18,1.43,2.13,2.86,4.22,4.2,6.42,2.22,3.65,4.16,7.44,6,11.29,3.51,7.32-1.58-5.19,1,2.51.8,2.43,1.64,4.83,2.38,7.28,4.39,14.56,20.59,25.25,35.8,20.33,14.7-4.76,25-20.19,20.32-35.8-15.59-51.68-58.83-94.57-115.06-95.43-27.16-.41-54.36,9.82-73.52,29.27s-28.9,45.35-37.76,70.61c-5,14.39,5.72,32.48,20.32,35.8,16.27,3.71,30.4-4.92,35.8-20.32Z"/><path class="cls-2" d="M879.43,494.35c.71-2.43,1.53-4.81,2.31-7.22,2-6.32-1.84,3,1-2.31a147.82,147.82,0,0,1,7.73-13c4.46-6.57-3.67,3.81,1.67-2.07,1.7-1.88,3.37-3.76,5.16-5.56s3.69-3.44,5.56-5.17c4.43-4.1-3.43,2,2.07-1.68a130.08,130.08,0,0,1,13-7.82c1.28-.64,8.13-3.27,2.28-1.15,2-.72,3.95-1.43,6-2.06,2.41-.74,4.84-1.39,7.31-1.94.89-.2,8.16-1.27,5.08-1s5.34-.16,6.42-.17c1.51,0,3,0,4.53.08q4.94.48,2.13,0c-2.92-.3,4.3.87,5,1.05.35.08,8.68,2.69,4.36,1a45.93,45.93,0,0,1,7,3.72c2,1.26,5.57,4.41,1.9,1.08a89.12,89.12,0,0,1,9.93,10.26c-4.15-5.19.54,1.2,1,1.95,1.31,2.06,2.53,4.18,3.69,6.33s2.22,4.41,3.3,6.64c2.69,5.58-1.27-4.15.93,2.31,1.65,4.83,3.38,9.6,4.82,14.5,2.85,9.75,5.06,19.66,7.12,29.6,3.1,14.93,21.51,25,35.8,20.33,15.8-5.11,23.65-19.81,20.33-35.8C1051.62,481.09,1045,455,1031.12,433c-17.55-27.71-44.33-44.47-77.08-47.55-59-5.55-114.66,38-130.74,93.45-4.24,14.62,5.15,32.34,20.33,35.8,15.55,3.54,31.26-4.67,35.8-20.33Z"/><path class="cls-1" d="M691.87,786.62c4.53-10.47,10.11-19.72,17-26.35,12.66-12.22,37.76-22.76,54-11.21,14.2,10.09,9.88,30,15,45.22,11.19,33.51,21.54,68.1,20.9,103.79-.29,16.26-7.93,33.57-7.26,49.24.63,15,10.29,27.34,10.45,43,.34,33.26-29.63,65.51-59.31,57.6,24.58.07,47.1,23.72,48,50.46s-19.86,52.18-44.36,54.28c27,0,43.43,39,31.35,65.23s-42.6,37.37-69.29,33.22-50.36-20.37-72.57-37c-29.42-22-59.42-47.68-71.37-84.32-11.25-34.47-4.25-73.51,11.25-106C597,979,627.91,941.87,656,901.56c11.11-15.94,16.52-23.77,18.68-42.67C677,839,681.83,809.82,691.87,786.62Z"/><path d="M717,801.31c4.71-9.95,10.36-22.89,22-26.48,9.3-2.87,3-4.82,6.74,2.66,2.08,4.22,1.17,10.91,2.06,15.55,5.64,29.58,18.73,56.82,21.31,87.28,2.35,27.79-11,54.36-4.7,82,2.92,12.83,10.72,24,6.93,37.45-2.25,7.94-11,21.76-21,20L742.62,1077c29.49,2.6,20.16,43.39-4.07,47.57-34.66,6-22.45,54.24,7.74,57.17,3.26.31,5.93,11.1,6.16,13.39.89,8.91-3.1,16-10.36,21.16-20,14.22-45.82,2.78-64.17-8.33-44.36-26.86-94.14-66.37-89.56-123.58,4.55-56.83,48.26-106.23,80.24-150.52,14.28-19.78,29.25-38.93,33.59-63.49,4.61-26.06,7.79-51.2,17.75-76,13.95-34.75-42.33-49.86-56.13-15.47-13,32.45-9.48,72.53-28.51,101.6C611.88,916.27,584,948.81,562.66,986c-41.49,72.49-46.39,154.89,15.51,217.29,47.07,47.45,125.92,104.52,193.3,63.22,58.68-36,48.73-135.85-25.18-143L754,1180.7c39.88-6.88,68-46.19,65.35-86-2.8-42-36-72.36-76.75-76-32.35-2.86-40.12,51.59-7.74,57.17,46.64,8,87-24.57,94.74-70.83,4.22-25.16-11.62-46.52-7.68-70.34,4.61-27.84,6.8-51.56,2.22-79.78-4.17-25.62-14.34-49.21-19.77-74.36-4.58-21.2-4.75-40.19-23.88-54.45-42.44-31.63-95,6.15-113.77,45.73C650.8,805.6,701,835.18,717,801.31Z"/><path d="M667.24,998.11a57.47,57.47,0,0,0,.13,28c2.35,9.24,7.06,17.22,12.94,24.58,10.72,13.4,27.9,21.92,45.12,21.75,10.15-.11,19.88-8.85,19.4-19.41s-8.52-19.51-19.4-19.4a38,38,0,0,1-5.33-.32l5.16.7a38.62,38.62,0,0,1-8.88-2.45l4.63,2a43.29,43.29,0,0,1-9.14-5.32l3.93,3a47.18,47.18,0,0,1-8-8l3,3.92a46.71,46.71,0,0,1-6.06-10.35l2,4.64a42.43,42.43,0,0,1-2.76-10.2l.69,5.16a38.43,38.43,0,0,1,0-9.22l-.69,5.15c.19-1.32.44-2.63.76-3.93a20.36,20.36,0,0,0-2-15c-2.35-4-7-7.86-11.59-8.91-10-2.28-21.3,3-23.87,13.55Z"/><path d="M675,1118.58c-3.82,9.5-3.76,20.05-1.92,30,1.78,9.56,6.86,18.56,13.38,25.68,13.42,14.66,36,20.39,54.93,14.67A20.32,20.32,0,0,0,753,1180c2.43-4.16,3.47-10.29,2-15-3.17-9.8-13.47-16.7-23.87-13.55a38,38,0,0,1-5.38,1.2l5.16-.69a37.77,37.77,0,0,1-9.62,0l5.15.7a38.92,38.92,0,0,1-9.28-2.59l4.63,2a37.69,37.69,0,0,1-7.7-4.53l3.92,3a35.85,35.85,0,0,1-5.83-5.85l3,3.93a36.87,36.87,0,0,1-4.46-7.75l2,4.64a38.53,38.53,0,0,1-2.48-9.32l.7,5.16a38.32,38.32,0,0,1,.06-9.63l-.69,5.16a36.1,36.1,0,0,1,2.17-8c1.76-4.36.31-11.07-1.95-15-2.36-4-7-7.86-11.6-8.92-5-1.13-10.54-.88-15,2l-3.93,3a19.44,19.44,0,0,0-5,8.56Z"/><path class="cls-1" d="M859.75,791.73c-4.53-10.46-10.12-19.71-17-26.34-18.56-17.91-57.71-26.44-63.86,6-10.52,55.41,46.35,109.77,5,159.81-17,20.51-33.88,35.06-34.17,64.24-.34,33.26,29.63,65.5,59.31,57.6-24.58.06-47.1,23.72-48,50.45s19.86,52.19,44.36,54.29c-27,0-43.43,39-31.35,65.22s42.6,37.37,69.29,33.23,50.36-20.37,72.57-37c29.42-22,59.41-47.68,71.37-84.32,11.25-34.48,4.25-73.51-11.25-106-21.35-44.73-52.26-81.9-80.35-122.2-11.12-15.94-16.53-23.77-18.69-42.67C874.65,844.12,869.79,814.94,859.75,791.73Z"/><path d="M884.88,777C866.61,738.47,817,702,774.18,729.1c-44.65,28.32-20.48,92.66-9.31,131.91,7.15,25.11,6.33,40-10.74,60.3-16.69,19.88-30.76,39.82-33.07,66.49-4.73,54.68,40.78,102.72,95.67,93.27,32.08-5.52,25-59.82-7.73-57.16-40.9,3.32-74.07,34.33-76.8,76.25-2.57,39.45,25.66,79.08,65.39,85.65l7.74-57.17c-73.87,7.17-83.91,107-25.18,143,67.38,41.31,146.25-15.78,193.3-63.21,61.87-62.37,57-144.82,15.51-217.29-21.3-37.22-49.22-69.78-72.64-105.56-19-29.05-15.48-69.15-28.51-101.6-13.78-34.34-70.1-19.35-56.13,15.47,9.42,23.47,13.28,47.47,17.18,72.27,3.92,25,17.15,43.57,31.63,63.74,32.61,45.41,78.11,95.81,82.77,154,4.51,56.28-42.94,94.06-86,121.34-18.52,11.72-43.59,24.48-65,12.11-7.69-4.45-12.92-10.73-13.12-19.77,0-2.41,2-15.92,6.19-16.33,29.83-2.89,42.74-51.38,7.74-57.17-24.43-4-33.35-45.18-4.07-47.57L801.26,1025c-13.6,2.34-22.53-19.61-22.47-29.54.08-13.41,8.34-23.15,16.5-32.94,21.25-25.48,35.42-49.31,32.28-83.71C824.89,849.47,810.08,823,807.13,794c-.39-3.85-2.45-15.06.65-18.24-3.42,3.51-3.44,1.75.5,3.18,14.34,5.19,19.62,13.32,26.34,27.49C850.64,840.26,900.84,810.75,884.88,777Z"/><path d="M847,1013.54c.32,1.31.57,2.61.76,3.94l-.69-5.16a38.51,38.51,0,0,1,0,9.23l.69-5.16a42.36,42.36,0,0,1-2.76,10.19l2-4.63a47.5,47.5,0,0,1-6.06,10.35l3-3.93a46.82,46.82,0,0,1-8,8l3.93-3a43.72,43.72,0,0,1-9.14,5.32l4.63-2a38.1,38.1,0,0,1-8.88,2.44l5.15-.69a37.9,37.9,0,0,1-5.32.32c-10.16-.1-19.87,9-19.41,19.4.48,10.6,8.53,19.29,19.41,19.4,17.21.18,34.4-8.34,45.12-21.75,5.88-7.35,10.59-15.34,12.94-24.57a57.59,57.59,0,0,0,.13-28c-2.41-9.87-14.1-16.72-23.87-13.56C850.27,993,844.38,1003,847,1013.54Z"/><path d="M852.65,1119a36,36,0,0,1,2.17,8l-.69-5.16a38.31,38.31,0,0,1,.06,9.63l.7-5.16a38.92,38.92,0,0,1-2.48,9.31l2-4.63a36.8,36.8,0,0,1-4.46,7.74l3-3.93a35,35,0,0,1-5.82,5.85l3.92-3a37.46,37.46,0,0,1-7.71,4.52l4.64-2a39.45,39.45,0,0,1-9.29,2.58l5.16-.69a37.32,37.32,0,0,1-9.62,0l5.16.69a36.67,36.67,0,0,1-5.38-1.2c-9.71-2.94-21.58,3.52-23.87,13.55-2.38,10.48,3.15,20.72,13.55,23.87,18.9,5.73,41.51,0,54.93-14.66,6.52-7.13,11.6-16.12,13.37-25.69,1.84-9.91,1.9-20.45-1.91-30-2-4.87-4.22-8.85-8.92-11.6-4.16-2.43-10.29-3.46-14.95-1.95s-9.23,4.43-11.6,8.91c-2.28,4.32-3.86,10.21-2,15Z"/><path d="M82,1086.25H313.25c37.46,0,37.52-58.2,0-58.2H82c-37.46,0-37.52,58.2,0,58.2Z"/><path d="M130.39,813.78,315.3,932.25c12.84,8.23,32.68,3.07,39.82-10.44,7.62-14.43,3.26-31-10.44-39.82L159.77,763.52c-12.84-8.23-32.68-3.07-39.82,10.44-7.62,14.42-3.27,31,10.44,39.82Z"/><path d="M180,1342.59,364.36,1223.2c12.77-8.26,19.23-26.19,10.45-39.82-8.23-12.75-26.16-19.29-39.82-10.44L150.66,1292.32c-12.76,8.27-19.23,26.2-10.44,39.82,8.22,12.76,26.15,19.3,39.82,10.45Z"/><path d="M1418,1028.05H1186.75c-37.46,0-37.52,58.2,0,58.2H1418c37.46,0,37.52-58.2,0-58.2Z"/><path d="M1340.23,763.52,1155.32,882c-12.8,8.21-19.2,26.24-10.44,39.82,8.26,12.81,26.11,19.23,39.82,10.44l184.91-118.47c12.81-8.21,19.2-26.24,10.44-39.82-8.26-12.81-26.11-19.23-39.82-10.44Z"/><path d="M1349.34,1292.32,1165,1172.94c-12.8-8.29-32.7-3-39.82,10.44-7.65,14.49-3.22,31,10.45,39.82L1320,1342.59c12.8,8.29,32.71,3,39.82-10.45,7.65-14.48,3.22-31-10.44-39.82Z"/></svg>