<svg id="Layer_1" data-name="Layer 1" xmlns="http://www.w3.org/2000/svg" viewBox="0 0 1500 1500"><defs><style>.cls-1{fill:#ffa476;}.cls-2{fill:#231f20;}</style></defs><title>GuessTheWord</title><path class="cls-1" d="M427.8,1283.05c-303.51-228.36-352-694.66-87.43-972.84C464.3,179.9,644.26,108.5,820.91,119.55c163.5,10.24,326,94.46,413.64,237.17,57.56,93.71,80.51,205.77,89.85,316.28,11.16,132.15,3.39,269.7-51.45,389.69-107.1,234.36-386.63,354.37-633.87,308.56C563.66,1357.27,489.72,1329.63,427.8,1283.05Z"/><path class="cls-2" d="M449.6,1245.77C90.82,969.28,148.94,358.9,588.43,197.44c228.24-83.85,510.23-13,626.77,213,62.42,121,75.45,271.16,69.41,405.21-5.81,128.79-43.51,256.37-133.5,351.72-176.22,186.71-490,230.37-701.51,78.44-45.21-32.48-88.37,42.39-43.59,74.56,217.54,156.3,533.83,128.36,740.47-32.77,239.87-187,268.39-532.72,187.78-808.24-81.92-280-359.7-439.1-644.31-396.55C420.86,123,199.84,331.29,141.76,596.53,82.25,868.27,186.44,1151.12,406,1320.33,450,1354.23,493,1279.25,449.6,1245.77Z"/><path d="M544.77,676.79C547.53,451.5,317.61,448.35,314.84,674,312.09,899.26,542,902.46,544.77,676.79Z"/><path d="M915.47,676.79C918.23,451.5,688.31,448.35,685.54,674,682.79,899.26,912.71,902.46,915.47,676.79Z"/><path d="M484.69,1101.05c77.14-26.09,154.11-55.42,233.62-73.56,80.09-18.27,163.47-22.83,245.37-24.87,55.47-1.38,55.68-87.73,0-86.35-86.49,2.15-174.56,7.74-259.33,26-82.72,17.78-162.62,48.5-242.61,75.55-52.37,17.7-29.9,101.13,22.95,83.27Z"/><path d="M677.91,1131.17l109.51-19.71c14.85-2.68,24.59-21.55,20.1-35.41-5.16-15.94-19.49-23-35.41-20.1L662.6,1075.66c-14.85,2.67-24.59,21.55-20.1,35.41,5.16,15.94,19.49,23,35.41,20.1Z"/><path d="M330.39,530.09a207.2,207.2,0,0,0,66.31-.57c15.69-2.6,30.93-7.16,45.87-12.55,31.35-11.32,62-24.91,92.79-37.6,10.86-4.46,19.64-9.3,25.81-19.84,5.41-9.25,7.71-22.89,4.35-33.27-6.49-20-30.75-39.36-53.11-30.15-28.73,11.82-57.29,24.25-86.36,35.21a303.33,303.33,0,0,1-42.38,13.05c-1.18.25-14.16,2.83-7.5,1.59s-6.23.51-7.57.58c-3.33.18-6.67.25-10,.19-2.37-.05-17.1-1.6-5.25.09-12-1.71-22.37-2-33.27,4.35-8.95,5.24-17.49,15.51-19.84,25.81-4.65,20.4,6.25,49.7,30.16,53.11Z"/></svg>