<svg id="Layer_1" data-name="Layer 1" xmlns="http://www.w3.org/2000/svg" viewBox="0 0 1500 1500"><defs><style>.cls-1{fill:#ffa476;}.cls-2{fill:#231f20;}.cls-3{fill:#ff7749;}.cls-4{fill:#fff;}</style></defs><title>GuessTheWord</title><path class="cls-1" d="M343.43,1124.76C164.76,990.34,136.24,715.85,292,552.1c73-76.71,178.89-118.74,282.87-112.23,96.24,6,191.89,55.6,243.49,139.61,33.88,55.16,47.39,121.13,52.89,186.18,6.57,77.79,2,158.76-30.29,229.39-63,138-227.59,208.6-373.12,181.63C423.4,1168.45,379.87,1152.18,343.43,1124.76Z"/><path class="cls-2" d="M356.26,1102.81c-211.19-162.75-177-522,81.72-617.09,134.35-49.36,300.35-7.66,368.95,125.36,36.74,71.24,44.41,159.62,40.85,238.52-3.41,75.82-25.61,150.92-78.58,207-103.73,109.91-288.47,135.61-412.94,46.17-26.61-19.11-52,25-25.66,43.9,128,92,314.24,75.55,435.88-19.3,141.19-110.09,158-313.58,110.53-475.77C828.79,486.81,665.27,393.17,497.74,418.22c-158.4,23.68-288.5,146.29-322.69,302.42-35,160,26.3,326.46,155.55,426.07C356.49,1166.66,381.83,1122.52,356.26,1102.81Z"/><path d="M514.19,696c1.63-132.61-133.72-134.47-135.34-1.65C377.22,826.91,512.57,828.79,514.19,696Z"/><path d="M786.68,696C788.31,563.34,653,561.48,651.33,694.3,649.71,826.91,785.06,828.79,786.68,696Z"/><path class="cls-1" d="M381.36,1210.4,406,1050.55c3.32-21.53,9.56-46.71,31.66-55.17,22.8-8.73,49.38,7.25,59.8,27.59s9.69,43.66,11.77,66c1.16,12.54,5,27.16,17.88,31.92,5.46,2,11.58,1.78,17.47,1.39,108.51-7.14,211.63-53.91,320.41-52.16,16.92.28,35.25,2.29,47.46,12.9,19.21,16.67,13.15,47.67-5.85,64.54s-46.42,22.93-72.61,27.15-53.55,7.6-75.8,20.81c-5.28,3.13-10.6,7.43-11.15,13.13-1,9.75,11.41,15.3,20.42,20.7,18.45,11.06,28.51,32.56,24.44,52.26s-22,36.46-43.64,40.73c32.53,13.61,26.09,61.69-3.25,80.33s-68.37,16.57-104.06,13.74l-188.1-14.92c-14.49-1.15-29.22-2.35-42.76-7.18-37.58-13.4-57.57-52.59-57.47-89.18s16.18-71.39,32-105.06"/><path class="cls-2" d="M405.87,1217.16c8.54-55.52,14.63-112.11,25.83-167.14,4.16-20.44,16.76-45,38.63-21.77,17.39,18.48,10.27,50.94,15.18,73.87,9.95,46.42,49.2,47.56,89.42,42.6,49.54-6.12,97.82-18.52,146.4-29.65,48-11,102.43-25.12,152.16-19.22,38.58,4.58,23.65,32.9-3.16,44.07-19,7.92-40.65,9.62-60.7,13.09-30.23,5.23-86.37,15.82-88,55.64-.8,19.19,13.6,29.46,27.34,39.36,23.4,16.87,23.48,41.35-7.45,49.82-20.33,5.57-25.8,36.18-6.07,46.46,14.49,7.55,9.68,24.51-.88,34.3-16.61,15.4-45.34,14.7-66.42,14.07-49.63-1.49-99.4-7.4-148.9-11.32-40.07-3.18-102,4.55-128.07-32.58-29.36-41.89-3.42-95.64,15.38-135.87,13.76-29.45-30-55.3-43.89-25.65-27.85,59.58-55.11,130-13.19,190.21,42,60.32,127.05,51.33,191.9,56.47,40.66,3.23,81.44,7.64,122.21,9.37,31.89,1.35,66.56-1.11,94.26-18.67,43.56-27.62,53.36-98.12,3.25-124.22L755,1346.85c36.49-10,65.72-40.47,62.79-80.16-1.33-18-10.12-35.52-23-48-1.88-1.81-16.8-16-20.17-14.6L771,1217.46l7.59-4c6.46.18,16.34-5.58,22.78-7.12,41.06-9.82,85.95-9.45,119.87-38.15,27.68-23.41,39.52-68,14.18-97.69-28.3-33.13-82.45-27.36-121.07-23.35-49.52,5.15-97.83,17-146.23,28.26-24.8,5.79-49.66,11.4-74.79,15.65-12.68,2.15-25.74,4.85-38.61,5.07-20.08.36-19.67-1.82-21.19-21.57-3.18-41.45-12.83-83.57-55.21-101.14-43.3-18-81.42,10.21-93.07,52.09-15.83,56.91-19.39,119.81-28.38,178.19-4.92,32,44,45.79,49,13.51Z"/><path class="cls-3" d="M963.77,363.88c25.2-17.67,57.8-30.49,86.43-19.2,38.82,15.3,46.53,77.44,12.63,101.77-17.82,12.78-41.56,14.76-59.75,27-67.37,45.36-31.63,189.59,33,219.29,110.13,50.6,182.33-50.56,112.82-144.39,13.28,17.93,117.08-109.64,124.86-121.54,31.71-48.48,44.35-85.76,29.08-146.12-24.81-98-96.31-178-200.34-194.45-33.88-5.35-68.44-3.49-102.69-1.62-74.77,4.07-108.54,16.83-163.59,71.05-42.73,42.08-79.84,95.24-82.24,155.17C752.25,355,779.45,417.42,826.43,430.1,879.87,444.54,922.85,392.58,963.77,363.88Z"/><path d="M976.6,385.83c18.56-12.27,50.92-31.43,71.65-12.76,10.43,9.39,13.56,28.37,8.38,41.1-8.73,21.45-39.93,22.88-58.28,32.66A98.94,98.94,0,0,0,963.94,477c-37.49,53-24.65,132.65,6.65,185.36,34.44,58,113.29,89.6,175.89,56.38,70.29-37.3,64.46-125.9,24.41-183.19L1131,566.33c26.51,24.76,58.83-7.48,77.73-26,27.43-26.81,52.59-56.4,76.28-86.54,29-36.9,50.66-81.63,49.67-129.45-1.17-56.61-25.42-115.12-59.12-160-79-105.22-211-122.15-333.69-98.71-52.32,10-93.83,41.24-130.25,78.78-43.57,44.91-80.91,102-83,166.41-1.73,53.61,27.14,116.63,78.1,138.93,67.47,29.53,120.18-27.8,169.9-63.95,26.2-19.05.86-63.18-25.65-43.89-30.2,21.95-67.42,67.19-108,65.2-42.15-2.06-63.5-57.13-63.56-92.91-.08-50,31.82-95.64,64.84-130.39C873.6,153,905.57,125.77,948,116.19c90.16-20.36,198.46-14,266.48,54.66,30.71,31,51.65,70.54,62.83,112.55,13,48.64,2.85,90.27-25.79,131.13-12.87,18.35-31.5,39-47.71,57.08-11.25,12.57-22.73,25-35,36.65-4.49,4.26-10.89,8.2-14.67,13.07-10,12.78-10.05-12.25,12.78,9.06-20.14-18.8-57.16,6.14-39.92,30.8,19.27,27.57,36,67.43,12.78,98.17-21.08,27.95-62.32,25-90.84,11.45-47.73-22.7-69.09-103.37-51-150.31,14.15-36.72,55.6-33.77,82.87-56.08,22.39-18.31,31.46-47.25,27.92-75.46s-19.49-54-45.69-66.23c-37.67-17.53-79.69-2.21-112.08,19.21C923.78,359.9,949.21,403.94,976.6,385.83Z"/><path class="cls-3" d="M1074.69,837.19c9.92-25,30.06-45.41,54.17-57.3,33.41-16.47,76.36-15.73,105.72,7.18,33.05,25.78,41.84,77.17,20.59,113.3s-69.08,53.49-109.08,41c-47.33-14.83-77.7-70.2-64.78-118.08"/><path d="M1099.2,843.94c-1.55,3.73,2.32-4.4,2.11-4q1.31-2.44,2.74-4.82c1.19-2,2.47-3.91,3.79-5.8,2.88-4.13-3.72,4.09,1.94-2.56a118.35,118.35,0,0,1,9.6-10,59.44,59.44,0,0,1,9.07-7.22c14.45-9.67,29.87-14.9,45.24-15.45,17.64-.63,29.27,2.58,43.67,11.77,7,4.48-1.28-1.36,2.09,1.57,1.55,1.33,3,2.71,4.48,4.17,1.15,1.16,2.2,2.39,3.32,3.58,4.92,5.21-1.81-3.51,2,2.57,1.94,3.11,3.9,6.17,5.57,9.45.49,1,2.58,5.79.94,1.74.92,2.27,1.7,4.6,2.41,7a101.72,101.72,0,0,1,2.79,12c-.81-4.64,0,.59.1,1.79q.23,3.07.26,6.15,0,2.46-.09,4.92c0,.46-.84,8.46-.06,3a81.89,81.89,0,0,1-3.05,13.12c-.62,1.94-1.26,3.9-2,5.78,1.6-3.79-.12,0-.47.63-2.1,3.6-4,7.22-6.47,10.62,2.76-3.84-2.19,2.46-2.31,2.6-1.12,1.22-2.28,2.42-3.47,3.58-1.48,1.45-3,2.83-4.61,4.19q-2,1.66.27-.1-2,1.49-4.09,2.87a96.25,96.25,0,0,1-9.74,5.64c-.9.46-5.78,2.69-1.92,1.06-1.92.82-3.91,1.49-5.9,2.15a100.33,100.33,0,0,1-10.91,2.94c-.37.08-8.44,1.22-3.16.65-2.49.27-5,.44-7.5.51a91.64,91.64,0,0,1-12.51-.48c4.27.47.09,0-.68-.19-2.45-.57-4.9-1-7.32-1.72-1.59-.45-3.14-1-4.73-1.48-7.21-2.15,2.22,1.23-1.79-.61a89.93,89.93,0,0,1-11.62-6.41c-.25-.17-6.58-4.84-2.65-1.72-1.89-1.5-3.7-3.11-5.46-4.77a100.65,100.65,0,0,1-9.07-9.74c-2.84-3.48,3,4.75-1.14-1.64-1.32-2-2.69-4-3.94-6.14s-2.41-4.23-3.51-6.4c-.44-.87-3.16-7.22-1.42-2.8a104.78,104.78,0,0,1-4.09-12.69c-.49-2-.84-3.95-1.31-5.91-1.66-7,0,4.33-.42-2.81-.28-4.88-.2-9.6-.16-14.46s0-1.73-.12-.45a83,83,0,0,1,2-9.5c3.38-13.3-4.34-27.58-17.75-31.27-13.08-3.59-27.87,4.4-31.27,17.75-11.38,44.75,4.6,95.2,39.87,125.23,38.24,32.57,90.87,37.43,135.27,14.23,44.83-23.44,66.47-72.62,58-121.65-8.89-51.58-51.8-86-102.64-90.71-59.76-5.54-114.8,32.85-137.13,86.84-5.25,12.69,5.68,28,17.75,31.27,14.61,4,26-5,31.27-17.76Z"/><path class="cls-4" d="M566.71,870.94c-.3-17.93,18.27-31.79,36.2-32.19s34.54,9.15,48.84,20c12,9.1,23.78,20.27,27.21,34.95,3.19,13.64-1.57,28.23-9.91,39.5s-19.92,19.66-31.75,27.16c-16.63,10.55-37.41,19.89-55.35,11.77-8.49-3.85-15-11.24-19.38-19.48-13.7-25.79-5.56-61.09,18-78.28"/><path d="M592.13,870.94c.09-5.21-.26,1.59-.45,1.51.35.15.43-3.32.87-3.34.92,0-2.84,4.78-.48,1.36.54-.78,3.73-4.11,1-1.72-4,3.44,6-4.6,1.77-1.61-2.94,2.06.39-.12,1.14-.57,1-.58,2.82-2.1,4-2.13-3.39.08-3.39,1.2-1,.6,1.16-.29,2.36-.6,3.52-.92,5.06-1.41-1.44.19-1.39.13.63-.66,4.18-.07,5.13,0s5.36.82,2.12.13,1.28.42,2,.61c1.43.37,2.84.78,4.25,1.24,2,.65,4.5,1.77,1.2.28A110,110,0,0,1,632.52,876q1.86,1.28,3.69,2.61c.63.46,4.4,3.37,1.77,1.29s.89.76,1.48,1.25c1.33,1.12,2.65,2.25,3.93,3.43,2.05,1.88,3.87,4,5.86,5.89,4.55,4.39-1.48-2.72.52.45.72,1.15,1.52,2.24,2.22,3.4s1.26,2.39,1.93,3.55c1.75,3-.81-3.88-.29-.45a31.37,31.37,0,0,0,1,4c.76,2.61.23-3.78-.12.87-.12,1.46-.07,2.91-.22,4.37.55-5.42-.14-.6-.52.81s-.93,2.81-1.34,4.22c-1,3.52,2-3-.11.06-1.64,2.39-3,5.14-4.61,7.61-2,3.14,2.59-2.47-.12.05-1.33,1.24-2.46,2.74-3.75,4-2.35,2.36-4.92,4.41-7.37,6.65-2.83,2.6,3.07-2.08-.1.11-1.22.84-2.4,1.74-3.61,2.59a183.78,183.78,0,0,1-16,10.06c-1.64.91-3.31,1.79-5,2.62-.64.32-5,2.29-2.09,1.06s-1.5.52-2.17.76c-1.4.48-2.8.92-4.22,1.32s-2.86.59-4.24,1c-3.53,1.08,4,.11.4-.06a25.7,25.7,0,0,0-4.21.07q-2.88-.16,1.54.38a25.14,25.14,0,0,1-3.09-.71c-.91-.25-4.69-2.13-1.91-.54s-.71-.77-1.42-1.1c-3.07-1.41,2.66,2.89.42.35-.88-1-1.94-1.83-2.84-2.8-.61-.66-2.9-4-1.18-1.31s-.42-.9-.83-1.58c-.67-1.12-1.31-2.26-1.9-3.43-.42-.8-.82-1.62-1.18-2.46q1.86,4.53.88,1.86c-.66-2.61-1.49-5.22-2.17-7.84-1.15-4.45.3.61.08,1.39.33-1.16-.33-4.19-.36-5.43-.06-2.35-.6-7,.43-9.07-.16.33-1.28,6.11,0,1.36.38-1.46.65-3,1.06-4.42.32-1.17.67-2.33,1.06-3.49,1.43-4.3,1.27-.83-.27.14,1.58-1,3.18-6.26,4.28-8,.27-.44,2.07-2.85,2-3-2,2.49-2.39,3-1.2,1.58.58-.7,1.17-1.38,1.79-2.05,1.24-1.35,8.25-7.25,3-3.26,10.58-8,17.16-22.31,9.12-34.78-6.74-10.46-23.42-17.68-34.77-9.12-29,21.93-43.14,57.51-34.79,93.43,4.33,18.58,16.17,36.43,32.61,46.36,17.65,10.67,39.81,10.32,58.62,3.06,34.32-13.25,73-41,79.75-79.57,4-23.06-3.34-43.88-18.79-61.1a139.06,139.06,0,0,0-41.64-31c-21.78-10.49-45-13.83-67.58-3.72-20.26,9.09-34.27,28.75-34.67,51.12-.25,13.3,11.86,26,25.41,25.41,14-.62,25.16-11.16,25.42-25.41Z"/></svg>