<svg id="Layer_1" data-name="Layer 1" xmlns="http://www.w3.org/2000/svg" viewBox="0 0 1500 1500"><defs><style>.cls-1{fill:#ffa476;}.cls-2{fill:#231f20;}.cls-3{fill:#fff;}</style></defs><title>GuessTheWord</title><path class="cls-1" d="M574.47,1001.23C413,879.76,387.24,631.71,528,483.74c65.92-69.32,161.65-107.3,255.62-101.42,87,5.45,173.4,50.25,220,126.16,30.61,49.85,42.82,109.46,47.79,168.24,5.94,70.3,1.81,143.47-27.36,207.29-57,124.67-205.67,188.51-337.18,164.14C646.74,1040.71,607.4,1026,574.47,1001.23Z"/><path class="cls-2" d="M586.06,981.4C395.22,834.33,426.13,509.64,659.91,423.75c121.41-44.6,271.41-6.92,333.4,113.29,33.21,64.38,40.14,144.24,36.92,215.54-3.09,68.51-23.14,136.38-71,187.09C865.48,1039,698.55,1062.22,586.06,981.4c-24-17.28-47,22.55-23.18,39.66,115.71,83.14,284,68.28,393.88-17.43,127.59-99.49,142.76-283.37,99.89-429.94-43.58-149-191.34-233.57-342.74-210.93C570.78,384.16,453.21,495,422.31,636.05c-31.66,144.55,23.77,295,140.57,385C586.27,1039.09,609.17,999.21,586.06,981.4Z"/><path class="cls-1" d="M410.53,933.19c-3.37-31,7.13-83.45-19.7-107.41-14.24-12.71-39-14.57-51.74-1.45-27.4,28.13,10.16,87.37-51.87,82.43-51-4.06-84.92-52.66-134.59-58.42-23.11-2.68-51.11,11.15-45.5,36.93,6.51,29.86,50.49,40.91,66.53,64.64,2,3-57.93-2.29-63.67-3-23.25-3.06-48,2.37-58.76,23.7-35.41,70.21,99.07,58.5,136.23,55.75-17.12,1.27-57.08,9-70.54,20.13-19.64,16.18-24.66,45.73,2,58.47,41.51,19.82,74.25-2.55,114.82-1.35,37.66,1.11,72.17,22.25,110.36,11.45,20.08-5.67,35.24-21,46.47-37.68C416.07,1039.57,416.26,985.88,410.53,933.19Z"/><path class="cls-2" d="M433.49,933.19c-3.95-44.28,8.92-104.06-36.9-131.43-21.79-13-52.84-13.1-72,4.84-14.92,14-18.89,33.13-20.29,52.7-.42,5.89-.25,13.65-1.07,18.27-1.19,6.72.13,5.59-4.88,6.44-22.08,3.75-45.57-12-63.11-23-38.49-24.15-96.77-57.88-137-17.15-20.59,20.82-17.51,51.89.39,73.22,8,9.55,18.24,16.86,28.48,23.86,4.8,3.28,9.77,6.33,14.47,9.76,1.85,1.36,3.62,2.58,5.35,4l3,2.68q6.76,8.32.79-7.22L162,930.39c12.66-5.65,8.77-2,2.05-2.57-3-.23-6-.21-9-.36-8.17-.4-16.33-1-24.49-1.67-15.62-1.26-31-3.7-46.67-1.44C45.58,929.9,9.21,971,26.48,1010.87c12.78,29.46,48.45,36.45,77,39.39,27.91,2.87,56,1.11,83.94-1v-45.93c-43.29,3.83-107.26,17.18-109.75,71.67-1.35,29.69,20.72,48.83,47.31,56.78,31.11,9.3,60.06-.69,90.93-4.45,32-3.89,61.47,9.83,92.85,12.94,31.75,3.15,61.66-6.55,84.15-29.48,46.15-47,46.93-116.21,40.54-177.63-3-29.11-49-29.42-45.93,0,4.5,43.28,8.88,94.6-16.82,132.56-12.84,19-29.92,30.09-53.24,29.25-22.3-.8-43.84-9.47-65.86-12.62s-42.75-.47-64.44,3.62c-10.87,2.06-21.7,4.43-32.84,4.17-7.4-.16-26.84-1.63-30.45-9.64-10.2-22.6,52.56-30.27,63.55-31.24,29.12-2.57,29.65-48.14,0-45.93-21.75,1.62-43.54,3-65.37,2.21-10.09-.36-20.18-1-30.08-3.05s-19.3-5.35-23.42-9.47c1.27,1.26-.35-1.76-.23.19A21,21,0,0,1,70.55,983c7.51-15.74,25.63-14.42,40.33-13.08,20,1.83,41.1,5.32,61.19,3.67,17.92-1.47,30.43-17.88,21.42-35.29-7.23-14-23.38-23.66-36-32.16-6.32-4.27-29.86-16.43-28.23-27,2-12.74,26.95-7.23,34-5,35.42,11.05,62.29,40.08,98.22,51,28.48,8.64,66.54,8.25,81.51-22,6.23-12.59,6.16-26.88,7-40.59.63-10.3.45-25.17,14.37-24.15,33.64,2.44,21.25,73.55,23.15,94.85C390.17,962.4,436.13,962.67,433.49,933.19Z"/><path class="cls-2" d="M310.8,903.63c-15.17,15.3-30.44,32-39,52-4.59,10.72-7.64,21.91-7.51,33.68.07,6.39.85,12.69,4.56,18.06,5.73,8.31,16.41,12.3,25.59,6.64,6.81-4.2,10-13.88,5.49-20.95-4.41-6.83-13.66-10-20.95-5.49l2.09-.91h8.14c2.08.32,4.17,3,5.44,4.39-1.53-1.7-.17.59.33,1.51.78,1.42,0-.26,0-1.21s-.07-1.81-.06-2.71c0-2,.2-4,.32-6-.08,1.41-.3,1.71,0,.11.16-.87.32-1.74.5-2.6A98.54,98.54,0,0,1,299,969.35c.57-1.66-.94,1.91.3-.68.39-.82.77-1.64,1.17-2.45.91-1.83,1.89-3.64,2.91-5.41,2-3.41,4.12-6.71,6.41-9.92.5-.69,3.42-4.54,1.84-2.53,1.31-1.67,2.66-3.32,4-5,5.31-6.3,11-12.27,16.8-18.12,5.65-5.7,6.11-16,0-21.66s-15.63-6.07-21.65,0Z"/><path class="cls-1" d="M1089.54,933.19c3.37-31-7.13-83.45,19.7-107.41,14.24-12.71,39-14.57,51.74-1.45,27.4,28.13-10.16,87.37,51.87,82.43,51-4.06,84.92-52.66,134.59-58.42,23.11-2.68,51.11,11.15,45.5,36.93-6.51,29.86-50.49,40.91-66.53,64.64-2,3,57.93-2.29,63.67-3,23.25-3.06,48,2.37,58.76,23.7,35.41,70.21-99.07,58.5-136.23,55.75,17.12,1.27,57.08,9,70.54,20.13,19.64,16.18,24.66,45.73-2,58.47-41.51,19.82-74.25-2.55-114.82-1.35-37.66,1.11-72.17,22.25-110.36,11.45-20.08-5.67-35.24-21-46.47-37.68C1084,1039.57,1083.81,985.88,1089.54,933.19Z"/><path class="cls-2" d="M1112.51,933.19c2-22.89-9.87-80.49,16.21-93,26.84-12.89,21.08,33.28,23.4,46.78,5.32,30.95,30.72,44.88,60.73,42.77C1251.59,927,1281,903.48,1313.41,885c13-7.45,30-16.54,45.57-13.47,14.66,2.89,12.56,11.85,3.2,20.45-16.78,15.45-77.45,41.51-53.78,72.19,21.89,28.36,126.35-20.73,123.31,29.1.07-1.18.07.33-1.85,1.4,1-.54-5.78,3.31-7.47,4-11.8,4.67-25.07,5.91-37.61,6.64-24.07,1.4-48.17-.12-72.17-1.9-29.6-2.2-29.17,43.35,0,45.93,11,1,73.77,8.67,63.55,31.24-3.64,8-23.28,9.44-30.45,9.64-10.17.29-20.13-1.72-30.06-3.62-22.6-4.34-44.26-7.44-67.22-4.17-21.13,3-41.64,11-63,12.51-24.48,1.74-42.59-9.23-56.15-29.14-25.77-37.85-21.31-89.38-16.82-132.56,3-29.37-42.9-29.16-45.93,0-6.39,61.42-5.61,130.59,40.54,177.63,22.49,22.93,52.4,32.63,84.15,29.48,31.38-3.11,60.88-16.83,92.85-12.94,30.87,3.76,59.82,13.75,90.93,4.45,26.59-8,48.66-27.09,47.31-56.78-2.49-54.49-66.46-67.84-109.75-71.67v45.93c27.34,2,54.91,3.77,82.28,1.14,29-2.79,65.7-9.59,78.7-39.56,16.7-38.52-17.55-80-55-86.18-16-2.65-31.48-.34-47.43,1-8.15.67-16.31,1.28-24.47,1.72-3.52.19-7.16.06-10.66.45-6.55.73-11-3.25,2,2.57l11.38,19.83c1.88,17.69-5.3,9.94.8,7.22,1.59-.71,3.52-3.15,4.89-4.24,3.93-3.13,8.31-5.78,12.47-8.59,9.29-6.28,18.86-12.51,27.09-20.17,17.61-16.38,28-41.84,17.77-65-23.81-54.25-93.23-32-130.72-9-20.34,12.47-40.84,28.8-65,32.84-4.17.7-15.4,2-18.06.45-1-.59-1.87-6.84-2.24-11.77-1.35-18.26-1.3-36.55-10.83-52.88-12.84-22-39.1-30.3-63.2-24.84-64.81,14.7-51.45,90-55.82,139C1064,962.62,1109.9,962.44,1112.51,933.19Z"/><path class="cls-2" d="M1167.62,925.29c5.63,5.68,11.16,11.47,16.35,17.58,1.37,1.62,2.69,3.29,4,4.93,1.54,1.87-1.2-1.7.2.26.55.76,1.12,1.5,1.67,2.27a120.54,120.54,0,0,1,6.82,10.48q1.36,2.37,2.6,4.81c.41.8.81,1.62,1.19,2.44.53,1.12,1.14,2.71.34.66a74.69,74.69,0,0,1,3.39,10.8c.2.86.38,1.73.53,2.6.07.34.43,3.14.23,1.25-.22-2.14.09,1.55.11,2,.06.9.09,1.79.1,2.69s-.68,4.82-.18,5.44c-.57-.7,1.5-3.87.73-2.83s-.24.74,1.41-1.18a7.87,7.87,0,0,1,3.75-2.73H1219l2.09.91c-6.83-4.21-17.15-1.7-21,5.49a15.63,15.63,0,0,0,5.49,20.95c8.3,5.12,18.65,2.34,24.39-5.09,4.36-5.64,5.59-11.88,5.74-18.93.26-12-2.78-23.47-7.49-34.36-8.67-20-23.84-36.72-39-52-5.65-5.69-16.07-6.07-21.65,0s-6,15.58,0,21.66Z"/><path class="cls-3" d="M638.42,736.47l281-11.56c5.34-.22,11.91.27,14.17,5.11,1.54,3.31.24,7.18-1.07,10.58-13.73,35.75-28.08,72.5-54.43,100.3a146.63,146.63,0,0,1-206.77,6c-20.6-19.34-35.13-44.14-49.37-68.56-8.68-14.9-17.69-31.77-13.6-48.52"/><path d="M638.42,759.44l143.67-5.91,70.24-2.89,35.12-1.45,19.16-.78c3.82-.16,14.47,2.34,10.7-2.15L910.58,730c.79,7.74-5.43,18-8.24,24.94-3.39,8.36-7,16.63-11,24.73C883.86,795,875.2,810,863.65,822.64c-22.42,24.51-54.36,40-87.74,41-32.23.94-64.77-10.82-88.39-32.94-13.79-12.91-24.39-28.37-34.22-44.4-8-13-25.45-34.11-22.85-50.34,2-12.34-3.19-24.56-16-28.25-10.91-3.13-26.29,3.82-28.25,16-5.1,31.82,10,57,26,83.3,15,24.66,31.94,48.34,54.85,66.19,43,33.5,101.1,45.19,153.45,29.06,55.78-17.18,93.21-59.81,116.36-111.87,9.74-21.89,32.66-58.69,10.54-79.51-9.34-8.79-22.34-9.09-34.38-8.7-17,.55-34,1.4-51.08,2.1L638.42,713.5c-29.45,1.21-29.61,47.15,0,45.94Z"/><path class="cls-2" d="M583.88,636.81c1.27-3.61,2.55-7.23,3.91-10.82.62-1.63,1.27-3.26,1.91-4.89-1.73,4.39.86-1.84,1-2.2a101.53,101.53,0,0,1,4.85-9.17c1.06-1.77,2.21-3.45,3.36-5.16-1.8,2.66-.31.35.85-1s2.3-2.52,3.54-3.69c.76-.72,5.45-3.77,1.65-1.54,1.44-.85,2.78-1.81,4.24-2.63,1.7-.94,3.84-1.92.79-.67,3.44-1.41,7-2,10.52-3.06,2.54-.77-3.55.09.85-.12,2-.1,4-.21,6-.18,1.68,0,3.36.23,5,.29,2.68.09-3.41-.86.88.21,2,.49,3.92.9,5.87,1.49.53.16,5.7,2,2.94.9s2.21,1.1,2.73,1.38c1.77.93,3.5,2,5.19,3,.46.29,4.86,3.43,2.55,1.68s1.88,1.65,2.29,2c2.75,2.49,5.07,5.29,7.63,7.95,1.75,1.82-1.64-2.56.7.93,1.12,1.68,2.26,3.33,3.31,5.06,1.75,2.88,3.29,5.87,4.75,8.91,2.77,5.78-1.25-4.1.76,2,.63,1.92,1.28,3.81,1.87,5.75,3.46,11.49,16.25,19.92,28.25,16,11.6-3.76,19.76-15.94,16-28.25-12.3-40.78-46.43-74.63-90.8-75.31-21.44-.32-42.9,7.75-58,23.1s-22.8,35.79-29.8,55.72c-4,11.35,4.52,25.63,16,28.26,12.84,2.92,24-3.89,28.25-16.05Z"/><path class="cls-2" d="M854.33,628.23c.56-1.93,1.21-3.8,1.83-5.7,1.62-5-1.46,2.4.82-1.83,1.91-3.52,3.86-6.94,6.1-10.26,3.52-5.18-2.89,3,1.32-1.63,1.34-1.48,2.66-3,4.07-4.39s2.92-2.71,4.39-4.07c3.5-3.24-2.71,1.54,1.63-1.33a102.22,102.22,0,0,1,10.24-6.17c1-.51,6.42-2.59,1.8-.91,1.56-.57,3.11-1.13,4.7-1.62,1.9-.59,3.82-1.11,5.77-1.54.7-.16,6.44-1,4-.78s4.21-.13,5.07-.13q1.78,0,3.57.06,3.9.38,1.68,0c-2.3-.24,3.4.69,3.94.83.28.07,6.85,2.12,3.45.77a36.36,36.36,0,0,1,5.51,2.93c1.61,1,4.4,3.48,1.5.86a70.49,70.49,0,0,1,7.84,8.09c-3.28-4.09.43.94.81,1.54,1,1.63,2,3.3,2.9,5s1.76,3.48,2.61,5.24c2.12,4.41-1-3.27.73,1.83,1.3,3.81,2.67,7.57,3.81,11.44,2.25,7.69,4,15.51,5.62,23.36,2.44,11.78,17,19.69,28.25,16,12.46-4,18.66-15.63,16-28.25-4.13-19.87-9.32-40.5-20.3-57.83-13.86-21.87-35-35.1-60.83-37.53-46.56-4.38-90.48,30-103.17,73.74-3.35,11.54,4.06,25.53,16,28.26,12.27,2.79,24.67-3.69,28.25-16Z"/></svg>