<svg id="Layer_1" data-name="Layer 1" xmlns="http://www.w3.org/2000/svg" viewBox="0 0 1500 1500"><defs><style>.cls-1{fill:#ffa476;}.cls-2{fill:#231f20;}.cls-3{fill:#ff7749;}.cls-4{fill:#fff;}</style></defs><title>Kid Talk</title><path class="cls-1" d="M276.64,1116.77C83.73,971.63,52.94,675.27,221.07,498.48c78.76-82.82,193.14-128.21,305.41-121.18,103.91,6.51,207.17,60,262.89,150.74,36.58,59.55,51.17,130.77,57.1,201,7.1,84,2.16,171.41-32.69,247.67-68.08,148.94-245.73,225.22-402.86,196.1C363,1163.94,316,1146.37,276.64,1116.77Z"/><path class="cls-2" d="M290.49,1093.07C62.47,917.35,99.41,529.42,378.72,426.8,523.78,373.51,703,418.53,777.07,562.15c39.67,76.93,47.95,172.34,44.11,257.53-3.69,81.86-27.65,162.94-84.84,223.54-112,118.67-311.46,146.42-445.85,49.85-28.73-20.64-56.16,26.94-27.7,47.39C401,1239.8,602.06,1222,733.4,1119.63,885.84,1000.76,904,781.06,852.74,606c-52.06-178-228.61-279.07-409.5-252-171,25.56-311.49,157.94-348.4,326.52-37.82,172.71,28.4,352.47,168,460C290.74,1162,318.1,1114.35,290.49,1093.07Z"/><path d="M461,653.79C462.76,510.61,316.63,508.6,314.88,652,313.13,795.18,459.25,797.22,461,653.79Z"/><path d="M755.21,653.79C757,510.61,610.83,508.6,609.08,652,607.33,795.18,753.46,797.22,755.21,653.79Z"/><path class="cls-1" d="M317.59,1209.23l26.56-172.59c3.58-23.25,10.32-50.42,34.19-59.56,24.61-9.43,53.31,7.82,64.56,29.78s10.46,47.14,12.7,71.27c1.26,13.53,5.42,29.32,19.31,34.45,5.9,2.18,12.51,1.93,18.86,1.51,117.16-7.71,228.5-58.21,346-56.31,18.27.29,38,2.47,51.24,13.92,20.73,18,14.2,51.47-6.32,69.68s-50.12,24.76-78.4,29.32-57.81,8.2-81.84,22.46c-5.7,3.39-11.44,8-12,14.18-1,10.53,12.32,16.52,22,22.35,19.93,12,30.78,35.15,26.39,56.43s-23.77,39.36-47.11,44c35.11,14.7,28.16,66.61-3.51,86.73s-73.82,17.89-112.36,14.83l-203.09-16.1c-15.64-1.25-31.54-2.54-46.16-7.75-40.58-14.47-62.16-56.79-62.05-96.29s17.47-77.08,34.53-113.44"/><path class="cls-2" d="M344.05,1216.53c9.23-59.94,15.8-121,27.89-180.46,4.5-22.07,18.1-48.59,41.71-23.5,18.78,19.95,11.09,55,16.39,79.75,10.75,50.12,53.12,51.36,96.54,46,53.5-6.6,105.62-20,158.07-32,51.84-11.87,110.6-27.12,164.29-20.75,41.66,4.94,25.53,35.51-3.42,47.58-20.51,8.54-43.89,10.38-65.53,14.12-32.64,5.65-93.25,17.08-95.06,60.08-.88,20.72,14.68,31.81,29.51,42.5,25.27,18.22,25.35,44.64-8.05,53.79-21.94,6-27.85,39.06-6.55,50.16,15.65,8.15,10.46,26.46-1,37-17.93,16.63-48.95,15.88-71.71,15.19-53.59-1.61-107.32-8-160.77-12.22-43.26-3.43-110.16,4.91-138.27-35.18-31.7-45.22-3.69-103.26,16.6-146.69,14.86-31.8-32.43-59.7-47.39-27.7-30.06,64.33-59.49,140.41-14.24,205.38s137.18,55.41,207.2,61c43.9,3.48,87.93,8.24,131.94,10.1,34.44,1.46,71.87-1.19,101.78-20.15,47-29.82,57.61-105.94,3.51-134.12L721,1356.55c39.4-10.79,71-43.69,67.79-86.54-1.43-19.42-10.92-38.36-24.86-51.8-2-2-18.14-17.26-21.77-15.76l-3.89,14.4,8.21-4.37c7,.19,17.64-6,24.58-7.68,44.33-10.6,92.8-10.21,129.43-41.19,29.88-25.28,42.67-73.46,15.31-105.48-30.56-35.77-89-29.54-130.71-25.21-53.48,5.56-105.64,18.33-157.89,30.51-26.78,6.25-53.62,12.31-80.75,16.9-13.69,2.31-27.79,5.23-41.69,5.47-21.68.39-21.23-2-22.87-23.29-3.44-44.75-13.85-90.22-59.61-109.2-46.76-19.39-87.91,11-100.49,56.24-17.09,61.45-20.94,129.36-30.64,192.39-5.32,34.55,47.56,49.44,52.92,14.59Z"/><path class="cls-3" d="M1011.27,354.37c31.57-10.34,69.28-13.35,95.31,7.29,35.3,28,23.75,94.62-18.91,109.1-22.42,7.61-47.56,2.2-70.2,9.15-83.84,25.71-92.19,185.92-34.72,236.9,97.89,86.85,204.24,5,161.89-113.73,8.09,22.68,155.36-76.52,167.14-86.36,48-40.12,72.73-74.68,75.9-141.82,5.15-109-43.59-214.16-145.9-263.77C1208.45,95,1172.17,86,1136.2,77.21,1057.68,58,1018.79,60.54,944.9,99.26c-57.35,30.05-112.38,73.32-133.67,134.48-15.7,45.08-7.18,118.07,37.36,145.92C899.27,411.35,960,371.17,1011.27,354.37Z"/><path d="M1018.56,380.83c21.43-6.43,56.28-15.13,73.8,5,11.62,13.33,9.71,37.21-1.44,50.33-16,18.77-49,10.58-70.91,15a106.33,106.33,0,0,0-42.59,19.1c-56.21,41.7-67.52,126.83-53.66,191,15.62,72.23,87.31,131,163.43,117.26,85.63-15.52,107.61-110.14,83.91-182.68l-50.16,21.15c19.35,33.79,65.39,8.39,89.58-4.24,36-18.8,70.92-40.83,104.09-64.26,38-26.85,71.91-61.75,88.2-106.07,20.53-55.86,15.77-124.45-1.47-180.57-42.28-137.64-164.73-198.11-298.91-219.57C983.05,23.14,833.25,103,788.21,217.4c-21.58,54.82-14.93,130.1,29.22,172.54,59.91,57.58,136.92,13.21,201.13-9.11,33.15-11.52,18.9-64.56-14.59-52.92-39.7,13.8-104.66,56.66-144.63,25.64C828.14,329.34,825.6,275.5,837.69,241c18.19-51.87,66.16-87.93,112.48-113.47,45.63-25.15,90.21-40.12,142.48-31.59,103.35,16.86,206,55.52,248.22,159,17.67,43.37,24.85,94.29,17.46,140.74-6.75,42.44-36.18,78.43-64.47,100.41-15.27,11.87-47.7,32.19-69.67,45.53-16,9.73-32.28,19.26-49.09,27.57a173,173,0,0,1-16.09,7.23c-19.32,7.26-1.41-6,9.32,12.74-15.16-26.48-60-9-50.15,21.14,11,33.63,15.43,78.43-16.15,103.2-30.68,24-74.43,8.16-99.87-16.16C961.91,659,964.22,574,994.8,530.45c24.88-35.42,64-21.55,100.16-33.23,31.93-10.31,53.06-39.82,58.38-72.12,5.39-32.75-5.45-67.24-32.91-87.13-34.14-24.72-78.06-21.59-116.46-10.06C970.23,338,984.6,391,1018.56,380.83Z"/><path class="cls-3" d="M977.26,878.13c18.09-22.7,45.3-37.47,74-42.18,39.67-6.53,83.81,7.72,107,40.6,26,37,19,92.86-14.3,123.51s-88.15,33.57-125.54,8.07c-44.24-30.18-58.23-96.91-29.85-142.32"/><path d="M996.66,897.54a116.84,116.84,0,0,1,11.47-12.28q2.07-1.89,4.23-3.68c-3.69,3.06,3.47-2.47,3.41-2.43a121.08,121.08,0,0,1,12.06-7.16c-.06,0,8.23-4,3.66-2a98.91,98.91,0,0,1,10.6-3.78c4.5-1.38,9.07-2.3,13.65-3.36,8.54-2-3,.14,2-.38,2.19-.23,4.37-.41,6.56-.52a118.91,118.91,0,0,1,14.5.15c1.28.09,7,.7,1.89,0a103.84,103.84,0,0,1,10.35,2c17.66,4.25,28.85,9.82,41.25,23.64.29.32,5.19,7,2.21,2.6.94,1.38,1.87,2.76,2.75,4.19,1.32,2.13,2.4,4.37,3.64,6.54,3.73,6.57-1.16-4.6,1.14,2.59,1.26,4,2.53,7.87,3.4,11.94,0-.15,1.27,7.84.75,3.73-.39-3.12.32,5.39.34,6.3.53,17.7-2.26,28.31-11.89,43.3-.3.47-5.16,7-1.57,2.54-1.57,2-3.25,3.82-5,5.62-1.16,1.2-2.37,2.37-3.59,3.51-.35.31-6.84,5.48-2.34,2.17a92.74,92.74,0,0,1-10.75,6.75c-2.23,1.19-4.51,2.35-6.84,3.33,5-2.13-3.12.9-4.16,1.22a118.26,118.26,0,0,1-13.62,3.25c5.28-1-.17,0-1.58.14q-3.18.27-6.38.36c-4.28.11-8.51-.16-12.78-.43-8-.5,4.93,1.42-2.83-.44-3.32-.79-6.65-1.42-9.94-2.38q-2.45-.72-4.86-1.56c-.56-.19-8-3.55-2.9-1.06a107.28,107.28,0,0,1-11.17-6.16c-.53-.34-7.18-5.22-2.34-1.39-1.87-1.48-3.66-3.05-5.39-4.68a93.41,93.41,0,0,1-9.64-10.45c3.31,4.21.09,0-.62-1.15-1.45-2.36-3-4.65-4.37-7.07-1.17-2.08-2.17-4.24-3.3-6.33-3.51-6.5,1.44,4.77-1-2.21a141.88,141.88,0,0,1-4.5-14.85c-.45-1.94-.78-3.91-1.21-5.85-.51-3.21-.52-3.15-.05.2-.18-1.59-.33-3.17-.44-4.76a111.87,111.87,0,0,1-.11-14.3s.54-7.75.17-3.45c-.3,3.5.88-4.86,1.07-5.72a130.9,130.9,0,0,1,4-13.65c2.35-7.08-2.66,4.35,1-2.18,1.55-2.79,3-5.62,4.64-8.35,7.69-12.67,2.79-30.15-9.85-37.54-13-7.62-29.83-2.86-37.54,9.84-25.59,42.16-23.91,98.07,1.59,139.92,28.39,46.57,82,67.63,135,58.42,54.62-9.5,92.71-54.49,99.2-108.36s-25-103-74.21-123.65c-57.2-24-128.78-8-168.48,40.44-9.38,11.45-11.21,27.6,0,38.81,9.68,9.68,29.37,11.52,38.81,0Z"/><path class="cls-4" d="M517.71,842.72c-.32-19.36,19.73-34.32,39.09-34.75s37.29,9.87,52.73,21.55c13,9.82,25.67,21.88,29.38,37.73,3.44,14.73-1.7,30.48-10.7,42.64s-21.51,21.24-34.28,29.34c-18,11.38-40.39,21.46-59.76,12.7-9.17-4.16-16.21-12.13-20.93-21-14.79-27.84-6-65.95,19.48-84.52"/><path d="M545.15,842.72c.11-5.63-.27,1.72-.48,1.63.38.17.46-3.58.94-3.6,1,0-3.07,5.16-.51,1.46.58-.84,4-4.43,1-1.86-4.33,3.72,6.51-5,1.91-1.73-3.17,2.23.42-.13,1.23-.62,1.05-.63,3-2.27,4.34-2.3-3.66.09-3.66,1.3-1.05.65,1.25-.31,2.55-.65,3.8-1,5.47-1.52-1.56.21-1.5.15.68-.72,4.52-.08,5.55,0s5.77.88,2.28.14,1.38.45,2.2.66c1.55.39,3.07.84,4.59,1.34,2.12.7,4.86,1.91,1.3.29a117.9,117.9,0,0,1,18,10.33q2,1.38,4,2.82c.68.49,4.75,3.63,1.91,1.39s1,.82,1.6,1.35c1.44,1.2,2.86,2.43,4.24,3.7,2.21,2,4.18,4.28,6.33,6.36,4.91,4.74-1.6-2.94.56.49.77,1.24,1.65,2.41,2.4,3.67s1.35,2.58,2.08,3.83c1.89,3.24-.87-4.19-.32-.48a37.08,37.08,0,0,0,1.13,4.35c.82,2.82.25-4.09-.13.93-.13,1.58-.08,3.15-.24,4.72.59-5.85-.14-.65-.56.88s-1,3-1.45,4.56c-1.11,3.79,2.13-3.21-.11.06-1.77,2.58-3.29,5.55-5,8.21-2.16,3.39,2.79-2.67-.14.06-1.43,1.34-2.65,3-4,4.36-2.53,2.55-5.31,4.76-7.95,7.19-3.06,2.8,3.3-2.25-.12.11-1.31.91-2.58,1.88-3.9,2.79a198.78,198.78,0,0,1-17.23,10.87q-2.67,1.49-5.4,2.83c-.68.34-5.33,2.47-2.25,1.14s-1.62.57-2.35.82c-1.5.52-3,1-4.55,1.42s-3.09.64-4.57,1.09c-3.82,1.17,4.36.13.43,0a26.57,26.57,0,0,0-4.55.07c-2.08-.12-1.52,0,1.66.41a26.81,26.81,0,0,1-3.33-.77c-1-.27-5.07-2.3-2.06-.59s-.77-.82-1.54-1.18c-3.31-1.52,2.88,3.12.45.38-.94-1.06-2.09-2-3.06-3-.66-.7-3.13-4.37-1.28-1.41s-.44-1-.89-1.71c-.73-1.21-1.41-2.44-2-3.69-.46-.87-.88-1.76-1.28-2.66q2,4.89,1,2c-.72-2.83-1.61-5.64-2.35-8.47-1.24-4.8.32.66.08,1.5.36-1.25-.35-4.52-.39-5.86-.06-2.54-.64-7.5.47-9.79-.17.35-1.38,6.6-.05,1.47.41-1.59.7-3.2,1.14-4.78.35-1.27.73-2.52,1.14-3.76,1.55-4.65,1.38-.91-.28.15,1.7-1.08,3.43-6.76,4.61-8.64.3-.47,2.24-3.07,2.19-3.24q-3.22,4-1.29,1.7c.62-.76,1.26-1.49,1.93-2.21,1.34-1.45,8.9-7.83,3.2-3.52,11.42-8.62,18.53-24.08,9.85-37.55-7.28-11.29-25.29-19.09-37.55-9.84-31.36,23.66-46.57,62.08-37.55,100.87,4.67,20.06,17.45,39.33,35.2,50.05,19.06,11.52,43,11.14,63.29,3.3,37.06-14.3,78.84-44.25,86.11-85.9,4.34-24.9-3.6-47.38-20.28-66a150.25,150.25,0,0,0-45-33.5c-23.52-11.33-48.64-14.93-73-4-21.87,9.81-37,31-37.44,55.19-.26,14.36,12.81,28.1,27.44,27.44,15.09-.67,27.16-12,27.44-27.44Z"/></svg>